<mxfile host="app.diagrams.net" modified="2022-01-26T10:33:53.977Z" agent="5.0 (Windows NT 10.0; Win64; x64) AppleWebKit/537.36 (KHTML, like Gecko) Chrome/97.0.4692.99 Safari/537.36" etag="oY0ukZ3hbYuHieU5kqoF" version="16.4.6" type="github">
  <diagram id="6r0h9guQ_QsKSav10gGr" name="Page-1">
    <mxGraphModel dx="1422" dy="762" grid="1" gridSize="10" guides="1" tooltips="1" connect="1" arrows="1" fold="1" page="1" pageScale="1" pageWidth="827" pageHeight="1169" math="0" shadow="0">
      <root>
        <mxCell id="0" />
        <mxCell id="1" parent="0" />
        <mxCell id="dqdw0evUzVBGal0t0bfK-19" style="edgeStyle=orthogonalEdgeStyle;rounded=1;orthogonalLoop=1;jettySize=auto;html=1;entryX=1.021;entryY=0.5;entryDx=0;entryDy=0;entryPerimeter=0;" parent="1" source="dqdw0evUzVBGal0t0bfK-1" target="dqdw0evUzVBGal0t0bfK-9" edge="1">
          <mxGeometry relative="1" as="geometry" />
        </mxCell>
        <mxCell id="dqdw0evUzVBGal0t0bfK-1" value="" style="shape=cube;whiteSpace=wrap;html=1;boundedLbl=1;backgroundOutline=1;darkOpacity=0.05;darkOpacity2=0.1;direction=east;flipH=1;fillColor=#B3B3B3;strokeColor=#000000;fontColor=#ffffff;" parent="1" vertex="1">
          <mxGeometry x="240" y="376" width="30" height="89.33" as="geometry" />
        </mxCell>
        <mxCell id="dqdw0evUzVBGal0t0bfK-31" style="edgeStyle=orthogonalEdgeStyle;rounded=1;orthogonalLoop=1;jettySize=auto;html=1;" parent="1" source="dqdw0evUzVBGal0t0bfK-2" target="dqdw0evUzVBGal0t0bfK-6" edge="1">
          <mxGeometry relative="1" as="geometry">
            <Array as="points">
              <mxPoint x="128" y="421" />
              <mxPoint x="128" y="421" />
            </Array>
          </mxGeometry>
        </mxCell>
        <mxCell id="dqdw0evUzVBGal0t0bfK-2" value="" style="shape=image;verticalLabelPosition=bottom;labelBackgroundColor=default;verticalAlign=top;aspect=fixed;imageAspect=0;image=data:image/png,iVBORw0KGgoAAAANSUhEUgAAAFgAAABZCAYAAAHNztMHAAAAAXNSR0IArs4c6QAAAARnQU1BAACxjwv8YQUAAAAJcEhZcwAAFxEAABcRAcom8z8AADgYSURBVGhD7Xv3c5zXlaU0tsdWFiWRFDPAACLn0Dnn/jp/nQNyJAACIAEwUxIVPA5jzVTt7NbM1m5t1VTNz1u1/9X+EWfPeS2a0ko2OWN4vN5xV71qhO7ve9999557zn33vfZveZ3iGP49Y4jjXY7XXvvJqctwFByIrOUQ3y4itlNG+VYKgwkXUrtFFLeT4Md6zYf9yxbcrTgc1SiCGzkE1yykFoKof95E6nYJ5Z3Uiw97mkGcGbqJj4Zu4LprnFeNobiTRmw5gsxhCa37xW9deSWD8Foa1dsZjCedKB5XkVuPYTA8g+TtIhafVL47jdBa1swtvRRBiR+u7aXgb0WR2M6jdpB78eHQegbB5TTKuxbCnJJ9v4bGQRrZZozPkURqJf7iw2FOI7Sahb2dQuNeAckNC4XdNOzdJGLzYYQa4W9deY1z3siitJnCR/3DyGznMP+ggNq+xYeNo7SVePFhvl59Uf5or7/i6OP4ods/Hzc4Xn9tyDuOyzPDxmTxXRu1Z8tI7pdR2IghvJ6Ff8GYrcLxo9cSCyH4l1KYK4fgW0gjwAUKrKSQXAzTqfKIbmRefDi9FEdfbA5DvhGkFqPo3M+jTt/IbyYQ4ZXjm2b1uh8O131I7pXgLXlRPbAQWaVt99JIr8aQpHvq9xdXXg4jditHw8dRpA8n9wqYP87AWuLfN7myK8aXux+2ViIILWeQW4siu5Hgsmdwsf86brrH4W0nYR/mX3w4xgdM8Hb5tSAKOxaS62nktlKItIN488IVM53ffrg7jSK8uTlaIILETgk2/aF9nMPmswovEnnxYb5efVH+rS/d4cccP/kDhr6v63Rfs6lpuDiae0mamoG9HkW86UesFYS/EcFEwY+LkyP46blLKN/mUiwz2iwH4us53Prv+9j5p1WklozRMhyXOYwtXou0/cZ1vJ0kXBzOZhy+xRRctRCit/LGmBG6U/HRPPK0erDiRV9gCrGtHPL3aogx3P3jA88NrODrXjjcDMHBmI/zywk5w0ISl+fGsPvrBcw/KuP2L5uo8kmaBJLKThJZXjy1kUJ0M4vMnRLdMovr9A1e6rsXjtEHig8anFELofUCcoSDuaQDjeO8Wf43Lvfg4vBlc8ESsSS7GkegEyXi0o8ImjFeuHY7/f0LR1sBmsJCfKfAkLNo5yQqBKLGXc7EP0Mf480OSijyb+VbCcQWInAyAiNE5jRjJspgWnlW+/6Fs6sRBHnBxG6BMWEhwxCoMqgqXKjYfMQ8cuVBDZGFMOp3CJ28cXaLYb0QQ5ozjtPWejJe6v+ycd2LwJLFmREg5hkenSAqRMPKbcs8+q0vKybc5x/k0TzK8cIK/wKmg+MIWlPIdnz83G8j+tumoFcQxBNbBYJJFgPeUfhLfliMQYuxGaFtvdUQPLaHMRmBy3Zjku45HR9DYt6LwmaIoP9bxHpx4RShIbJRIEoVkLmdZ1KiPRnglf0sPhzoQ4q2rz2oYv2LKhYeFNE+zKF1r4j1T22ajTCzGSeCmAt/14+/eZ185P0xX0KYP3S2GjLBd9DqpxyyzSDHD8Hbqwx99zyHbmBer0cafuRX/GjtJbgY5AHE/QxhPcJQd7UT5DAOfNjfj2vOSdgM6YQCJB/A/N8sYvefd5Htpv4axxzHW7qoXq+/9s5pvHO1D0PhCQTp0+FFRheJUYJMJLZXMYAUXlUKYPAwmE4PD8PaL5pIVdTl6VW8ziKHj+NtXVSv13P3G/Dzy27OTgHibscRXiEnIrIl6YIphm3+uIHqYRFZppF3LlyCdWATI3KI0e/j9HVeZ4njuxe27tbgZ4D4FhIIrmSx9PMFeHiTALNagKQmwnwUWEqj/bSJ8dgsZ8kn2sqStRXMzbMrBou/f+Hgao5RR77FRBteSuLDwZtoPKxj5WkFe3/bMe8ZPm57OwZrMUSw7+KKTKGMmVs3Nv7+hSN1hqgdwIWpYVya7MeZ4Zu4MHYD50YHMeyb4IUEiynUdhIokeilNtMmStO7JRKRogElXuf7F9Zss7Sh2Er+oIIL6QpsXsgiv/jx2Yt478LHqNwh+BCYsqSY7pyLDIdcTzMW1Jb9P3xhpx0kR83QE/KExzpOXbthuEiUkCkwD2+QyOyRMHJm1koUP2Pus+6UkeYCJjhze/N3zHjW9nPxUuS0FnJ7ZBkCetrx8uw4EuQzMVKo3GoYVfpwgYnWVw8ZUpy/V0Wci5dhRuF1fmDG5aCBTT8xuXSXJI6PbZOjV+92mWuQ3qGs0jrKkKEk4EzNGhsn6Ia6af53eYWzEuQjk1gzU1u3MoaalXdTyJF1GVpMNZEnUxTtqe6nUKf9E7dtFDhjqYpyFzK/f+E5O2TMEN8hjTusoHJAms8ZZ5lUw5xthLPOr0ZJQ6Pk2Wm43zuHGC8c22VUzmeQorjgdX7gwkXxCgvBxTQaT+tIr4Ro4zTyOxlsfFLC6ic22mT8bT6JxWxS3k5gMjKOMd8gEvacIfW8zvcv7KqG4efMvJ0E7KMKs0OBFDFFL0gbueCpJ8h+EqQFccQpVvJbMWTXOOjPKf7+jf74gQvXI2TZSXLiDEpHNbxx6TIv3KW+7nIAFmceaIXhyDoxEXVgLj8H0bL4oo/u5yfPCP7whb2USY0v5w2NrxyVMBudZNbNMLSHkWJkib2L5m98VsXm51U0D7NYfGxDvLZImM3TBXmd76Obi34puRVdz8Omu41aXgZIBv2ecWTvVpDet5GcD2H5PonJ4xLWnlJP3KG5aJriFik3KQKv8z081uuPkkH0+qPlvH/Xl+78px6/96UPyERaR3nM+xwf/AmH7i8H+2uO75MrPxmEs+Ax8eWn8nBXAphjnLlyHNYMpcw03NlZ+Eou+MouhFo+lFdcpOcJzO8EsEDx2CS6CEWKB0V88T+PkVkIIllxkhyETODnmXsCjQCGItO4Mj2CU9evM2Vcxo8+uoy/+ugiLGJknsKU04lyeDjkxB9zvMHxnUm/nuowheRm4E7NIFL1wVPyYTLtxlDKi/6IE+d1A1KhNy5ewV+9ewE/+uAS3rrSi7OD19HvHIAjNoxojfqsHUaS9L7ABJon1S8SZ1WHiTWD5mFC7RAlFpnOVh4ppp6Y5Nhm3qjnYDNskinns8Bhc2jSPRxa8e/w4tdnOdHlr9eRPaqSJ+QJRjmSlRy8TFXOxQwcLeo/ynA3JZu3HWMKSxNiU6ReTGckNJ4F/k4mlTwok/QkMf/1LWSZiZ5zwDQTQa9rAlN5Wp0ZRyorvlOExfwqrai8WdhkonEYSSeUlDIQoEkdfH/C8fkwcscVkzNVIoryIqILKjj4OcESJWD0VpmTYpIhEzBFEk4wJFa2mDQ/+xZSBl31c4QWrN0jRSGiqgZR4FJ/cJ2cM+YiUFJk0SgZsgfRQbEIEYEm3ar90H61CUc6IU6QkuUXq0ydlqmthFRmoyVc9SgmS1zqO1XM2BE4akxUtKwmGtLg5+NMwxapjv2oieYnTSw/a+L216uIU9Q1PmEGXQzjonOW3+d1SMri/GyKrET5XdaNUwSmWyHjx5zPyydcXI/g6B/XcffrRdj7BZKzFD79b2u49Tct6q0y4kwdH9zopS67gQujfXCmZ9HrncJAeBZn+m9g6WEBg0kXFu+ROR6kUaMsKDO1VElMilsJVEmpzg5cx1jCRYuSM1Ani6ZatHaCq6kqVW41YTgc5/PyCRf4ZO9dvoL3zpzG6fMf4+L1XgwG50ztIrAQx4hzCKdHbuD8eB9cRI8ErVFjjivtcoIUmCWypfqdrKkoWeRw2Q0KeaJGZV+0jBSCjHUu40ZoIWpUQJIukNorI8NcmqQfJ7azSFJBqMDC+bx8wqIKDnLCCJ9WVYIUE7J4YIRcr3xUxlTGgfevXSEBJUfkJErkMXnymCBhqvGsYwKn9LiN2pMWcmS4zTu0MklpmUP8UVzSJ8gkF1Ldz9xjT7SaLsHfY6pi8JqdR+VXDDr6mmh3kL4bJrOQXAlQ3gTWuvBj34rh8ijhK+PihFUa5A2OW1xKsmYiSpRBpmpFmYEbICy+1dOHcC2I3IawlRZn4I0FxuFrBJEhkigoU7KsFAwnrHt2SJbnn7xi0KUo0MQIxVNDHBJ0QQaTKuW2+CwJsU0/LJPIiVKWuNyurBuzOY8pbETWiCwM0DKJcpCT6g+7UeAki2SNReJwmCvx9uUe9IccBiWEPqq8i63roaOb9OGlGJPLKwZdZoUMshwycKWJmqfmu8o4mnCamq55TGHDydbuSDHRcnSJhCmcdC0c2y7Cvlcz/tq6y8/xsw26hr4jeBuIzGEy50PGwBoV7mGZaovfUwLhhFNMKiqmcD4vn3CJFpSukd+qXB8n3EjjiNjX7lPqbadQuUvXYNRL6+QZ+SX+HCV66DuKcvlxlq7U/qSN0t89Ro1yu86J6zvzd9MUtXQDKo70HoOOMaLgS3HCppbNCZc4WRFbzuflEy7Qz6bzPqZJbZjQcrSW3EEyp8QLWxQDVVpWNy/tEK5uq5rBYKLotbYK6DxtYelpA6tftKn+YphJjBt63uCEZbV5Qd0BH5qu1HpQxuKnDQynvfAyc4bmo3AUfSZI00uGtr9C0C2EIYEXUsKQFuMyKb9L2OUJ8OX9HBZ+uYU6pZLgq0qNlmP2KhPaNGlZRrotv0V5xdWoa4KEKE1Y8GawmEiRX42Y36vUFzmihxJFgROtMeAqEpR0H87n5ROOtQKEnShVf51LVTJBF+VSRZiGbfqaVJM2leK0QIETsijEK4cMmsU4PhgcMMTo7d5eXJgcMZYXrDU5CX/dB1fBi3DFjdGIh5NNonjPxn/93/+C0zevU3G5YTEeVDMNkSDNZeZebcIJpk5XJWwK2sm9CuL0MW1ohTkKtG6b+BhcLXBZBWn0Vy7jMLPcBccEMgrKfSaAgwoK/DlUdcBfmiW8OVC+FUGD7lPcjmPxQZEiy6Yvl43AXXxU4s8l+nme7ka9zxWpd/c4XiHomEY95MFyA5GYFMmJSkvGJfaZPOi3ZbpCjktb3KVfrsTgk9XC00hTCaocnTkiQWJWlABeYzpvckKrTytY+axCi+foHsTaoxw2Pq9h44s6ou0AklyxBN0xwxiRz5foHpzPS+nlaxa5hKtKrrqV7ZahmADC38BV5chGnX4aq3mYBJImDavqfGl0EKf7bphtBGGrRXJUY/C1Dy1UKFOjy0kE52kIBpabBCogRlcPkxBFkCFM+m13V+UzaWn/T+WaLKkop/NSAq/Xn5dE+oHXt8Xgn2r8//v6oaf9U4yXvvQh+fFJVFX+0PF87+R3Tlz/1Aff5HiP44cC4d9rqEFADQA/49DEvzdp/UH/EDoIRq5yDHCoc+Dbha5/j6F79nMIfz/iEKR9F4Ov+8bMZpybXEKFFF89CAfTqTPnhDs7R/02A0d6mtnLBU/BCV/VjeKaG2Vmr9ZOCB0mhYWDJOq3KYeIqxtfb2DxcRFJ4nau4yU1jSC1TK7LxDBhOXHDO4GzQ/14p6cXP/noEl7/4CImkw5kqek4nThHiGOGQ1lOq/1dK5+lVitsxjAdGTfFlCYFZGuPE9iNk5yQXzCp2JyI+gmsxSDi7SASBPsgFYWPkmeqFMQ4ee41zwTOjQ6RU1zFjz68hBS1nfZW1eEgGiq+MBmeQ6BJYn+/ifV/2MTOP+9j/1920XhARkh6wOk0OEocYQ6VLmVlYfGLCYeqHoTLbszFRxGnMvDzZ1fBh+G4G4MpN3rcUzg9NoR3rl3Hjz+8iB+9fxE//rgHp25cQ89Unylu+7ITiDX9SDC75SksS48XkFsImIJsajmM1HwYJRpFEl98O0pJpM8FV8lXyKOTKxZceVP1EY9ociQ5RjlOc3x3wq6cC2+ev4C/PnURPz3Xi7Mjg7jmGsW0NQtv2UkW5SNHiCK8lKI6UFmfxFubEZTpUfLm+ldrJOB53jxnNFqKJCiwTNJ+pF0QqmRaLkgm9s61q8gz5XdpK1XL3bLZmFMNxKLLlOhinM4KR4sjzTHGcYbjuxP28MmSW5QopJXax1EZSU/uW87Cs5SFcz4DVysJdztpeIHcwDdPXsDhp1D1dKiIlzKGLEW3Cyh/ukjWR7KzR6ZHv5X8cpGgnx8fhnW3atSJCv4ql6uAot2YCilsxDf1fMJtjt894SjdIMyl9C2RrNAyHk7I0+n2U4i5TdkhEhdNOG7aokxtjURGvV8qhkiTSQHHb0kBF9H8asUUA22SJKllNTWdvdaL93t6YB3axqLSi8X7NUNn43y42bQTkcgrTjjc8CG0kjK7k6KTGgldiJPR9lKGOs06bFD254xFQ5T1wVXqPf7PzwdS8U+9R6a2xgcxkp9arbnXbWwQcsxZXrzbew25o5qpx2nzzH7c7O7OkelVyQg7D0qvNuFQzYvAQgJ++qCPN9bOnaGC87R0M26IfIh/Lx6X4azF4G3xs3y48A6FKoPFzxHbLpnvBvggEq/y76V7RQwEpgwCzRQ8KMin78qqWeN2+aOKKTrGzFZi2jQtcTovn3CAqBBUQPGLtWfzZtkVGFGKS7nBbJk+2E7ASz911Mmb5cN8IHXImG3f1RSSVM7qNWl/uYTm/TJ2/m7NWLh4VKKSSGOGgvOyc5bqpEqXEM/WhKvGnbSxGsySG2+ZMtXLJ+zMOhAh1DgZVIruNC0gtzDSncseXrJwzTuJU9RgXlp87zfLWHxSZXKwqZQrOPh6Hltf1rFANZFngOWpHjrCcUa9tjTlx1mJze00LWyb65q913tVU6qSYOgQh8+PmT6il0/Yl3di4+dNPP6ndaxwItZGGrd/0cL+r9rY5nuD8vyGZwwfDlzHm5cvYTQwwWznxUhkFhcnh+GvUGQ2ibWcaOOOheZhGjbRoUYVoRpcgYI1SRn03qVLKD1qm4ATnGWIDPFtFbMZI/PqEDL7ta/gw2WvsYDTnoODNx7JB3DFNYaPxwdwWk1w3mFcnR3Ch4PXcWb4BsZCE3BwCYeisxgOTCLJpCA1XKVYrewkUKOcUg9fiUpb8l4b9lkmELUkpRlkcjlZWUVyVX5UeCzTHWpHhVedsAehWgA/ff9DfPDxaZy5eAFXJ4YxXWAKZiIYcgyj3zmCD4duoM89jFidGWxdtQhVHDOoa6KqCPFdYjLHVKwSq6lyqm7BSSeosqeSTpQeUnxuMEiZaIr3OeHbpS5i8D5pJg9O5+UTDtb8CNX9WP37VWSpfEuP55E9ZjRvFpg25V8l9MVjuBoKIUUrtY5zKN62yBGSuDQzjB99fBHvXLqI986fhp8PXqaV5a9lTjhPSFNfhTZrZpk5VfdQkIaW6cMMOkFnkn7sj8+Zegen8/IJj8gna+q2LJrqpXoAVCdWhVEXrB5kaN1+9NGP5+9T8muyXMIsrShl3Pyiw++WTeuFuqgqO3EihJrH4mR0dJXdBMKLcbirQbPpo8YzdbUZlOB91IJRv1cxrRmczssn7LeJw1VOWLjKgNASRVQO3c2bLSmVkM4MDpq9cVm3Qlco0Cf9nRAcdgARQqBSrbC4wwmbtl2yNG13ScaXaLlr04N44/xlFJjdVEoQ/qqHwTRJMDuW+ACNw1eccIjWjTA9y1+1TS6YEVb6V7vZTv2QXiLJ+eEB+mySuKoqjcXsNw/rtm2WVylWuL3+WRVv9VzD2eEx2NsJ5OjT2lCMkECNBcZQfNg0CKECdpaJI2Gql5w0jbZMaOR0Xj7haDMAH6FJLqD0rPKnSRwMDtV+VT7KMJBKu1xelV3pm8nFKM6ODTMThglL4hTdG5fpPvnNqNmYKXMVivzZIjarIjSX98AiIvjJS9TsW3rY4Kp0v9e4Z5sA5XReYcItknISclXEVb1Mqz5m6mqc8GaOfllASc01dAWhgXw4vRw12weuCok5VyZCdqestfC4gqvuaXJbj4E4WVdbBsO+cfz0/BW6RN24jzJkTqmZ15fbJWvhVw+6eJt+qA5r3tBnLMxUyXfRRdPJTouqrFo1u0W0NPFVxWw1VQbaUcO2VNRO7tloMBVXicnzD/Om5KrtWlHMKFfQV3IThyskTFQgnGjuuJua9f3iGhMMg5jTeRWXIN7OB03EyhWEjYYjMJqjW6VupPPmdQZFjVbWZDPrcpE0fM0Q3UF7FvRDqonmfZu4G0P7UPt12jbgg9LvtSne4xwn9tbNJJU4bCYOM2HGSZakSWSf03kFC9MdYox4oYM4hOieqKNoYGwjbzrA5A6CN/UIVvZS3exFHPY1I3yovOm8iwmzH5fMJmR6NcKHS3LCTCD6PJNHg5bPkl7OUgOmSVnLTxpIE5mU6eK2z1T3OZ2XT1g7SKoPR/mksmzqoEzaSL4rBscJdx5ymVW/ZSbTvluBbqGNlwIn7W1EjJVi9P3UXqULac+2UfuHe7RsDM27dB9+fu1RHo27XHaKT7lDYo+GoPoQ7xbCFGkcGYXTefmENdmw2gJopRDxMMMLSXkYC9NN6nfyxm+FDjbftSFjMTWry81VCRpZpN0npdvFT6vonxnETHTCEKE6hwL0yhlK+ctXUXm2aHqiHI0Efb5GZcM44X09RSfqZHuczssnrOJ0mNCmYBM+GpegpUP0KwVi1UyYrkCXKJHUlAlv2nXKE7asDXIIZqyVz9uknA0ske3NWtPwFxxmf0PLXNyKo303g+Y++cftHNa/asFFqe+nPpR7eFvk23k3Gq8Ka2rucFKISgVISUgRB2gFIYWykJJFimwuyxvLH7V0pR1mO1q7xYnc+qKKjU9L5MY22oTAzr3uQZWWdp34eWU8ez1KmsrV48/DrmFMBkYwFx1BNDcNq+4mw+tuXHI6L5+wuh9FWtSzIJQw+8y0cJAooQZ+7U4WSAvnv1hAgz6qHSTBnPBY22XaPZLLaO8jt6VTQanuBiQRonnIjMZsp78VV2OGuTWOsyRPRJpvjFAh76hpt+lVfTi1FIWXXEIZTpMUnjrqcbPjrgnX72rHPk2fpGynG2gHtMjJlYnLOSJFkMub3spgziZ32KZLEfJU7dF+iFoX1ZYYqPv4UHH6aRa9U8OYiDvJj8Nm51/dKmoETHSPRLxC0PGLfpL40oM6MneqVLMNs4sfIEpod6h5Lw93LYipjBtFWtbihOyDPPI7WfT5Z3BqYADv3egz5MZLmFPiaBJV1Al63TeFGtna+aFRNKlcEkxSR//rGRb+fgMfDfQZGppkDEXlx0wsnM7LJ6wl80rmMNLVAiOoEQNTQ63qDLW7Bbxx4QrOjfST0KRpRYrOVfIEfY+kxc+bpbZJyleS8FQDCPDhdPO5nDqwwpix5uCzPRhLTPFvs2aX1FeapeV9hFOqnY0QgzgMm4PTeQUf1pGCig9psTRipPWwRc7KCRMxlPXqdIfoGt2AEl2ukeTSRTthfDwzgdkKBabwlHw496BpKpDu3ATCVSeyy37UicUqQQkxlplUlh+Xsf6JjRWzR1c2jahNUlZ1EtfvviqsMSV66RJq4dR+W/Zxx1RnpGwFcRKSI55hRMsuXrRo/HIoNIf3r/VhssgMyQeV37tbCXM2L9HyYelhEQscq0SOtc/KTCBZ4ybKluufMsEQMUyf70aEyjpiupP1O6ejCf/+2poqM7EW0ynTpchPhjdXZUdFEZF6Ccwy1YC6aSV7RC3V5j9tOeCsh82pHLXC6CFtYnZxM4atXzax+MjGMie8SKtqj7pzlDdW3vyqTkQgZFK8aqXSRKkcJ6x0z+m8vHqpyqFfEomWUr9a5i7JzzJpJhVHktRx9ZMK3AwmX4fSnRMu0l/FI965cgUzFU5Ye9P8bulRg5ovapjaxhOqj3tZLBGPF2h1bdmuPashzqy3wcQh6il2JoKv9hrRVw1O5+X1YflYgCLUooWV59OcQIyERv4rjqxljZRIvhcZHAw44a+r5MWpS71wVDnhu2o2KiNPH64dF4wVY/RlBaG3FYOnFTXnQcU7wo0onFwZFcZVLNeZwAKJUlXZkyvN6by8As+Xfvnz2eP45vVntYv0/KV//Nns0337pQ/9vzD+8vrL6w98fdud5P9/GS/Gt23zr349N+hzgFNiVGONUFEwLqT+jzr0/LKDbCLwlY2+bfCXvvQhfUlf1oWedyspRypn65DNRY5LHDq08x9h6Fk1LnCc4xDfVTpWKpbRZeyXZ7nptNOIwPhiBB7Knjh/NodFNiQmyZE3SSn5bk6mk45GFsi8yIvDHQnMEPyURi4yOmfRg5mMEzNpB6aScxiLzWA8Pk2p5DEFx8m0B+NJL4K2E9GaGyHVpReTCJeGkGhMmE3I/IqPwwN7PYDyFtXNGrXgQQVb/2UX+e0sBYIf464x9Fy7itGpQSQ53wZpb+1uHjUKZR1hVCVU/F0K39Sy1xJ8vgT85O+zRT+mOaZKAYxYHgzGHLgemsE13zgCLZXtguZ4v2rmNI2Tw8Eh9jjBIXJ2jUMG/5BDTqgI/71Gfv3jqX7MUDOmaVR33onR8CSV+AxGI5NwZacRKs/RCE6Eik5SYxfiVQ9iNS4E1VBy0U8eTqq8HkF5M4L6Lnn+bUq5jSCKq0Hztyopt7Y6dBLIFlffSqKwxcVT37TKHqZ6kESafD7cCXHRAnzAEBdAixeEpx7DRJHGsQOIcnEzlKEqiZRpRLUzq7ik6+jvOTUQ0KAjwVn87OwV/PTcFbx3/QY+uNmHj0f6cGm0D1cnb2LQPYxR/zgmwtTGKQf1sRuTST4fNbXaPFQ+pG2KHHkOiyPG4eWY5LjJISPLm+XJzyHjhw084B+hFvAi1g7CmXVhIjELR9FlNl110E81dG1gmXOQNGSWGiG5wIetueh5HkSpV8LU3YGqH55KCLMFekg+gHGOoYQbfQF6iGcSVxxjuDwzgvPjg3zYAXw4cNP0ubx5oQdvnevB23x/lzrm3StX8f716zg92IfzY/3omRrATecgBj2DGPKOmi57HTys0Lgq5GZpWBWM1aiTXAwj1vAjxOiq/3wezS87Zsdbo3y/joVfb2Dhb7eQO9D5HB3IKJmT1pF1NcznuFDdE1MB3oO2meeQhtcBxwKH9JCLY4TjucSQFwsqfreBYwy76cQM+v2TuOqZxmXnBC7OjOPc5AjOjA7io+F+esAN6vprVJ69eOP8FbxBg/zsXK8Zb1y6ako/Z/k5HbzunR1Ev2cEY6ExzMQn4EhNw5Wbozd6TVdziIo2tBA3xTzt3za+WETt2RIKD9soPO6g/GwBpadNWBSKSQrN/HGNQrNq9tVK+wVzfsKmYVWf0GKnlsJmC0HGjdCwan/xVkPQJrbpJlnXEWsaUpuQvGf2Tve6pg9Cu0I7OtthYTrswnR81vQZhwgTtM0yh46lqu5Q5khxyItVf5DgFCa/3MAzvOhIaBKDZtN7DrM0hpfe6Kv4iVs0SDtsdjJDOri/kTH9DWqZSXPoeJnqGdosNHska2r6zyGwmoV/JQ+vhnqHTP9QhsOCdylt6h/e+SQ87TiNkEN8M2/KCE4aJtBJoHBcNX3JwZUMMkd1lJ50TD9HnsZoanPIwAINvBKFtRwxkeYtevHexR68f+UKRuJz/F7FFIbCnLfOq2v+2gBSr1FqzzZVru4ZkhzCq2k0j8qom+5zLdRv91tUJ5EXq2NcxR11jf/rDKyNUO1IRZaZIJ4uwtFMwdngaFtwdFJwtBJwdWgMDhnFt5AwfSCBJf7eDMPdiJpzga5G/JvmqwTcrRTc/K6+42wmeM04f6YR5hPwqk1okdfQNspy2vQ/hbRDoV4SlaWXM6b5JbiSNbWd5i9W0fnNBrKHFZR286jupM1Omk4N6WxhnlCmrcb+gAPnZibwwfAAhiwv1Eui+o45xEPvNZ58K8+oqaH8qG42fnVwMsGF025JfMMy1eOEZwLRiaGTM3CEEBFniIVpsMyRtklkTBpHHsZ30+1Do/gXaAy1IdEwXhrLzwUJbBZpyDhS9OqC9jXpydo4k+HMvhInH9+kd+sBtlQyZKjv2vTGMmL7FcTJEOK3S0jo5z1+f0f1UxqDD6sdFkVM6eEC0nfa/HsB9t0CE2banG7SGbLuaacEBHN9hKdzg9dwbrgPw3EnDVw1G8WqYcmIBiJo8OydivlduzdJQoSKcfo5XPcZ9mRXfagmp0/OwGFeUAkutBxH5dOmwaf0Xp7hz3diV4pYFuPDRWjMEJNBYLUI72qBYZ/pFuI4Ye9KzniqDn34uCCOGrFQRwsaGlF4CQVaOB1sKtwpGk/ycsH8/F0VdB8XxHgU76XmNzVTyOOCXCwtqnbT0/tltJ42sHiYN4xnMu+BmzBmNg3JQKYCU3jnzCW8/TEhIuogxNDABzYCC0yChAY1dOjASfFR08BE4rZttm61J6KTWzafu7JHakfKV+ZC0jYn5MGkXAlxW20V8Gbql7D4MCkmFW0sqh0hrLYts6uURnKfk+JkPE1Bg4wZw0yREUBjrP/jDuxPF+CoRDkIH4IGeT8XQ0OHCwOEAgMxK5aJAm2zmSPHi4waQoefkeSfj8PHBQooavg907hHb+s8aaBzyKTETD8RnYOH9FIVT4vJTtAV2q0jsttC9rhDz6/xeYjvGzr61m2nUMtZTqd6br84mqxFVbSFcn6kmG90RuqbE2cnY2A1XKtTVnuI5uSjkg6NG+WQAeRdSkxeepvOWnvmicv00mny06lyGJNMLlP0poGYi1RshgxkjEQ+hBgTXZxGTHHBMlscTCyFew3Un7bQ+moRK1/NY/fXC9j5u2Xc+c8bePI/dvDZP+/g9q86mH9QxPqzBtpHBSa1DPZ/VceDv29j71kZjZ2EKfBXDgpkFXnTwGUtRRHSXhBFTKzmIGUjq6AjmGN6a2lGmjBYEFFCjqzEYhTpyLYStiBCjQXNR1XoANAN9wSG4o6TM7C629OdMMOCBhBfvMd3/mzRIMntIj2TcMH35Wct7P5qEVs0zM4vF3Hw60Vs/7yFxcfd5HPDN4FTN6/iVN9VvNvbi3PjA/A3A1h4VMbCAxtlhnK07UeQkOSj8ptKzmKaJD9LmtXYYcJkoh0ITvEzIXM4M8/PF9Wyt58yp6OLpGUlJrbqLUIZP6/dbpsixvQUcCj7i2+fnRjBZMGHEqFAfbNyGOFwhLCjY9/q4zJHZ3eEzd3mnTjxubJLhrEax2xqFmGqT9rmhDCYIqFAEbHwqIi1z+pYe1bHzlc1rH+SR+tOEm0qs2TbBx1ntOg5wQ6lMScwR4NIkEyl5qj+pnDNNYyzY33kzTdwmuMDCoUzwzdxfXqQxnOZ7qTTA/244RnHBYqNC+NDODcySFLvw/KTHDIbZBOMFO0HqytETRnV2zryyHed56SRa9qUptGl4mRUJTipOR1W1dHJMFWgv0Ae247QuGrX6narKMF1m5cYSXQeNd534YFGpgcntnOIUMpntLiPi2jdMwf6TsbAARpLSSO5GMJAYJwK65ppCH2/j8KilyrrMoXFpct44+JlvHn+Et66cAnvXLiItz4+jw96r6DPNWQ6Xa9ODlJ93aQ4uYnTNPS5sRtUXiPw0LBGaTGRemw37xVGlqLA3oyiycVr69wojVqn4Vr7SUICf9+mEempYgqmIYqGLOpd3QN76r/Q4GLQuHkaXZ+RVPaWfXAW3QjMRw0jMn1LyhuMMIuQocRXedJEThSOHFm7XhZhMU4Iaz8sm1680u0s6ocnmOTCVFjWcpgKK4DJDBMeqZaZEDHOflyl0uqgTVhofd5G47MW6oQKm+Gnfvwyw03bw1JS41RsZyev46MRde6Ow205kSS229tJcyq42zWmYowFa50cmF7mpcd5KGpm826MJefIZSmrXZOYSLuQXImbDsgCDajahZHHvI4MrGupsyHLIQzO0ftji0y2OQ+med8If1Z3mfb0lXzlwabtg96qLkrlGslk01Sr3ijCRI5sJdkKmU4IbUHSNidj4ImkA25iYoih6m9HabiugvJTdfkWLSYJhg/pmViAkp1nnkqMyU9tnhliWJXKKkFmcCUYwalZ4mA0Ylqaqwxz9WBpyCgq6Oj0slo4JJmHidn9syMY8k3hpn+aidJvOHaAVC9IJhHlw6opvUKcLZLvSh5XZGT1JAoWeD3tjqtWUuQQLjeIy+UNQtkajX/YbfKNkP0YoaGWFfFg8nXTcElcVhLUZ8S3rVaEuShkmn2aL9qk/nADO5IzlJlu03egntoUV1k74+YMBKmNDucn6NHCsgANr2MFEiFRUrraJy3Tfj1HYn5+iN574ypuukZQWE+gTRwrM9yre91GNHlgTrWDphdRnb+gl2UekVI9btGoXSomyRok3cqTgy8+rZsuEnlvndRJx9TVb65EZ+CCf1fXU43Xz/J+vfT8d2/exKmhAYxlvaa509qnB/O6chAJGPVQyLOV7GRco+I4wmQajSOqPLIIQUSHiZm2OSGIqPmRYOIKNfxwlkOmuUNcWIUSHYRSCKlDUJ2r6tzWMRwlCmXmLFffWonBw8XpdU3g8vQoZtQSTkOoaVn12TLJuzmTT2hQc13163W4lpj11fjEh5Q8ToiL8nq6nw5hle+XsfwZmQe/56/7MZ1xwUEYSS2HuhKZYWzRu3NkFoV1RUUME/FZvN1zDW9evoaBqAuFB40uvnLeKRpWVE0GLxxXDD0Trzad53rnAgczAdTpCOtfVbH0tHqyBo5Ty/tJn2bLQWPI5wrKR+6rFVYYqZ1YTYKqQUiBSbqW7tiYf1JiuKZwfXIYH1zpQe/EKLxZj/GwmukppbHvUi6TxH/UP4q3+iaYDCcxlYkawp+8LRrFwYc1vabM/JX7VbSOi4YRjPomMZd2IlDym02Abl2ZXixsZqLMrUWo5OJMmEnM3yXe8/fUEheBTEEYq1NJ4TWd78oZ2iYurtaPhO7NRCfKJiUnOlnZy6F2WMTqs9rJGVgyOUYPDjDZzZUDhh8+V20amkyKyk0HGLo9KlVT/hNxz9ND6hQDtog/sVK9f2o/Ek4qIdWEwcRotefFyLUvTwzjzMAALk+NYJZcVbWL2K1uMSZKxRXdYujukofTELV9wlQjgGtkKD2zQ5hh2AtvRdPEf4W/ggsdk3EXPbg2N4q3L/fiLbKd/uAcsbZujBfZsIyXmuZi/q5jWpLqqqaZihoXVhy5YBJdzCRVm3OmbU7GwDqFml0JI06Ad1LeCnM1GVO0kbykgRVOkrZG4ursmipgxOkcJXXzMG94a/XAQpWGrBIrdaRLnqumTP2sozJqMC7xM2onVAd0aCH2DQ+lEehdSqBKrHF6sApHjftMSAx/HZmxd0nj7pIfE9MrTGRazBK9V0bW0InaqdgcKeVVU7cet7gY9+mpFEs65KfcYVp1D2yj5ARNihoTMaobkyPHuEgWk3Nhh/mCCZS2OSkPDpgOqWhTGBxgdtUJRBqTBg2a+kQ3IYjm6Hd1CYpliNqUj4iT9KiUeC3xVomiRiPLsBVDz1KGq+own3BZ3X5qHUstR02pUwsoCFL7ujK8urNVhKk+bBB6JF2TpulOjdLq3WySM6ursH6HyVOGJnMobsTINiKMHIqiu0ykKyGE1P/2TSVNkWfYBKMkxeRpjhDxGXXEQzUK481MclXK57R68MinxYdpm5MxcIT8V3VV7Qi4qmGTWVWLNQZmeGnV1eesoo8yvUqRgg7RnBInVaQhs0w2FRquepe07YBezMyuFuGq4aw0Aj1OGV8HxnUyTarQVw8ZmNEDPi98i/rJGKXDslks7dcV6b1qMCwRq9XgrR5rGbhuDM1FpdG1baSO3iuz46Ym4mpQVnORMswROriTIAwld3LIk0FUHjcN9otJdEfJlFQjlhtlLrzOIcQpu2mbkzGwzhRoR1cXnbODnAhXVLyRISUDqD9buCypKdJuoINDnq0kVzEF8Cg9KkXvJEzQ0PJcGUO91jKyYEI9hBpq8Y92gsaDhX0ybLcoLkwkp6aB7UPbFHoEBxZxtnZUxNKzClqka1q4Gg2r9lIdyVJNon2QwuajLLYouaUO08RlbTVp7upVVFUwQ1zXyafS47aBDkWM7mXGLULQYQlFQpLOs5cpiGibE8JgPqxOkkjOOsmDtf0jKAgQD0X8E0wMUkChZdVzu2cj9H9tv5SPmeSIwTpgJPlqMJjMQQYu08BSebp2V5ElkVdnP40c4T3V4q0FU5ga75WhaWQd1s8ccPEonxP0qBv+KbKPPvQwMaYZZU157TeQoQVML0Xhsv0YSbowk/EYZRgnLMiDldTifJ4UnUE4m9lnJJACqvZgDp+KvagUy+cajcyZ3NC6R08nnNE2J2PgNMNb291BQsV00ceQ1cEneSohglicO66bSejgiYygd0GFMLj6gFKanqYWdOFWjRhbVpIjBgs6ijooxayco1eozVaSVi23Fu8ZX+ly4RhDN6Bj9fPdfT/VpFufdbD58yYleMSwjnev9mEs5mBCo1oz3tuVzVqsPK9t1ciRYxMoeoeR8Y6gIqHz5aK5TvtpE8tftikeKqaQtfebDjY+K2PtUw6+r35SxfKzBufZTcyS9jqKRNucjIGVgXXEWOf9tOWuxGBgQBhMAysBiUL5ucq/xWAaWYXq0r2aOW2ZJYarYNM8KjEJMfnRe3VwRnhWNbDRPRCmPS9JZpUilcAWH9jY+1UH9//TMh78wwrumPPbOlxTIS+1sfgwh4Vjfc7CwhFx93bCHGVqH0t+M3kypCWTxYtVeC/RUcS/JamVSB22G86SB7OWCx+N3MRPenrxERfs44EhnL7Zj14Ko2ukgP1zgwgWZii1qRopjLJ0BNrmZAycnA+aOoS4pEOFcnkpDayjq4IIYZVYhDEuf49wBAkfqhXXiJVq+oiQicxV/PCR5iTWmd0Zum1yYiUh4bLkbEmHJ24JjxXaYhpUdoQM/azEKM6s7pwGE5p4s1ScEmeDf2/RqEpmdf5NnfP6rDnBx5DWEDeu8Xcdg2kxOTaZbMWRJcvTTQ/yS8wthKWoVCvZkkWH0L6evtfiPNvHjDrmEjEem3O1T3JHQw0mOXqxaqnOGlmE8Fa1CMllJp3Mna607CY41SdoZLILNW7kdvPIEa8K9ypY/XkHu79uYO2rOg3bPWQnJVdmktN5n8pBjlCSMMfBlPRUz82uJY3R8zsZFG7zMzpuTqOq6pbbIDvg/3U0UnAgGmgqaryeqFqNCU8nuDIrolb0ZBrIJFUmPf29wM/WyJ1j81EMRlzE2ShaD/M0ng78kz7yuoIEJWV9TsfW9H0tnOZH25xQkiOLkJILNunFZf4s7OXonuSmflcDCHHR1451t9iV7cUp+bcsKU6NhqvQWFXib4XytnpI6OADKnzzm2INhAaOouqsOpB9j0mMCxQlvnorjJqCIsdP6ezBVec4zo4MYSxJzyMmJmg8bWoKd5uiZQfE4D39LkaiSppatZJwFhymDj2bc9DgYVOfyK+nMB6dhaceweZvVpHaTOPs8ABODw1iMuM0hxVTvH5qjZyZ3pwxvXjMF2RE0Zb/5AwskRCmJPXYPrPZmD9uEHcr9ORuc4YK01I74XWS9S2+M+FJBaWY7Rv3a6a0Nxqdxrs3buJnF67j3SvXMZ10Go9Sgdziw+a26TX75JzrhJwVJpHlOHrHB/DWRxdw6koPzg7dxOXJIdxwT5qC0fnRQcxZHi6UTrrLuwglhJoKQ1ch7Ca2nh0YxtXJSSSZkET/oq04nSQBizgfX47AX/MgSUcpHLeQe7CA8HwMU5FhjAY4wuMYDk9gkGM0NoXJ9DTmctOYzvCdWOyrO0/OwOo7U8HcV/aSB4cMNxWDECQIf0ufkDeST6p0KY9WplcSlCApqDjC0FJC8xacCLUiNEr3eHZ3x8Eyp0MVpur3CrTUJRQllSLu8zqFh3XSqToKD+pmO71Anlr+pIUi6Z+PNG4sSgMERzEWHjNjKDiC8cQ4Ym0/E1uMuOrBXGYKs9lpBCouyn0vUksBRg+9WIlvR+XMGDqHcczfz2D+kU495bH5rIDtL0rY+ozjWQlrT4uYP8qasfywgJXHpZMzsAA/tRQyraueOsOFyi0orOVImcYQSkt6cJRhbXYH+Hfx1RSxufqwZhKTvxnCReckTo8PYTTpMHXVNpONcDNFlaWjh2p3vTozip98eAFvXewxHZMZigFt26QPyqakKOgJreZQOChh8WmZC5VApO42B5SUxFr7aSyQdy89KGHpsY31z2tmH7F9r8jklmOyUoKTGOl6e+cBjfXU5ihR8OhgKsWPEqoUJlmMjpHZxGz9rP09iSDtlBQIF7TNySU5ZeJIi15MnO3WBXIoHVWYvGqwDmuIaetF6k7YTIomQ8eZ5NKbnDS/r5ON8tYy8VjSVnWHKtmBxIKOq4lX9jtHcXawH1fdU+jzTRlZLviRVDXNLlSFEgb+DhdjkThLrJaAySyHzXG2zS+qNGgFy090urF7qnHj8zoNXKF3yrBkLYQSMQn1DHdo8FVy3Q1+59aXNXNIVpirtlnDzxm5ur6GnkF2kChSxU6QQ9ucTPNfiiGrE+06q+quRUxSU31AhXBtrdiP66bQLoiISIDw76FVSVrCB+Xl4kOG150u8RcFE/ZKTBj2QE/SiWCbD1wgWxgMzuDNnuvmBOZMhQnsYQvZoyoNbPO+2gXOG0mbZxSFCSnWKpXbkYV1GnHxCf9OLG8yMlZp3IUHlM+PSua9ScO2adAl7Yw/sc17hwl1lcLi1i8aWKfMlqpMki2pYC8jqzNTQwaWsVWVE28XAxFs0jYn076aX+9yySBpmsO0feYNRGgbx/BdPrxgQ7grGV2ielPnY2LHNifvl/hAKbKQMwN9eLunB0MBdat3K2cm0dEbFK6p1YRJYur9VavrDPFeJ6N1WlptUbqHWpvsJx00icPabpKAWBdmfmpj4WGZMtbm3xlde+S5B1x8ipoi35ULyne44JTCRf5sbVrwEMP9XKQwk6oooPYDw+0g4TBIyR1EfIHcmNGRJ2tQ65UEi2BCzd3aKaFtTqQB+zU1Mis0gi3y4Iq2jNQRUzAyVnChflptvahQreqTGgHl3dotKN5huDIMt7+skksWuryYSU6QIS9R/UFMQB49Z83hymAfPu65gkvDfYQjPtDDBrKHxF9GiO4hL06rKHNcQfN+mYtDSa76x0ISsYUYIs0Iws0oE3IQ7hxpZdYHl+VGuOwjTkcRothxxubgis0inHFRQgdgkXKpoBVV1ZAerDqJvFkCSRJfClCCwxSrJDL4v28MfCJHCJ6/9E+twl8OwbwYJ3MI5lsvfUgflqH/cozru+MPPsb17dfzLz03+F/Gi/Ft2/zl9ad5vfba/wGzmbFnQ/bi3wAAAABJRU5ErkJggg==;" parent="1" vertex="1">
          <mxGeometry x="30" y="391.34000000000003" width="58" height="58.66" as="geometry" />
        </mxCell>
        <mxCell id="dqdw0evUzVBGal0t0bfK-3" value="" style="shape=image;verticalLabelPosition=bottom;labelBackgroundColor=default;verticalAlign=top;aspect=fixed;imageAspect=0;image=data:image/png,iVBORw0KGgoAAAANSUhEUgAAAJgAAACXCAYAAAGek6JiAAAAAXNSR0IArs4c6QAAAARnQU1BAACxjwv8YQUAAAAJcEhZcwAAFxEAABcRAcom8z8AALwjSURBVHhe7P1Xd6VXkiUIZkSGYFA76XQJF3CH1voCV2uttYRWDtdaCzpFMERGZKSsyqzq7lm9pqa6p1c990v328zr/Ix5nJ+wZ2/7ADKYERnkanK6alYk1jrrAhfAd7/Pjp1t2+yY2fmL7/0rtRHFRGwevtwiEm0PGtdiqB7EULuWQnYjgmArgGgvisxOHNVrSRSvpPCzC5fwUX8fRufHUTpIgZf5wC427J/F8elxvHXuAn78QR8uLozBX11CdjeO2vM1ZJ9tIHaQR/1ODrntCJaLfkT2c8jfayC6n0Wg4dXFBu1i3mYY3rUMfOspBLoxrHRS/DkN/1ocka0UYvt5lJ500LhVRH4rgvcHBxHZyaHypIXE1QK881NfXcxdDyKyl0VoO8sLZJDiXXg6Cfh58eBWDokbFYR3s9j8uINwN4jZtIt3lEHpcQPJa2WUrmW+ulh4PQ3fRhqBHd7yWhInZyZQ4AU2P27j3t9s4vZvV5HfjGDtRhwZvrbuZBHjhxceNZG+VcaxocGvLpbfS2C+FsI51xROTw2jb3YMpycHcXZ6DJO+WdRv5dG8mUb9RgrV6ynEtxIIbWVQfdJF5k4V7Uflry6W6HK29koIbBcQu1bByZBuPYUcZ+0HH5zF6eELaN4roHabd7MXh7+4TJmlUXjQRPJKkTNss+lcLLYa4sXySNwqIXGljDcvDFDYWUQ200jdLFE+RTR1oatxFLZj+OmZfkQPCqhQZqnrJWy/rH51sWgngDDlpU+L8x9bdzNo3M5h0D2L2JUcYlfLCDT91L0kylcSeK+/H5HdNMoPm0hcc+74y4tlN8IIcao1m5mbFbQeFNCQjG7nEeR7satFlPbjaN/JoHY9iQbvMLydRIkTkOBslq//3mwW+IdR6lJkN4fsrSpnK4farTQqV9N8L2MK27xfRPsWhc4J2HwoHUyi8nQVyesUwc3fu1ia0x2hzMK8iyzlJmGXryUo7ARSfIz8jRJ8NT/vNoPcfhKtzQCu/HIdB5/X0HtURHEn9tXFQp0Q7yCP0GYWudt1JG820b6XQ5H/WL6aokxyKN+gHG+kkd9PoMoPqd9OI7vF5UZxVG7+nswiFG6e0xznHeTu1bFU8pkcGg8qOD45gbcu9iPLRd65R5luRm1Gb/zPT/DR2DCye0ksF9y/f2dBzpojs8ydGuZqMTTv5rGQXEaGF0/dqiHWcSPO0eUdbzwtY+dVFRvPa2hzsqTUX14ssRZGgBqt9Ze9VSE6ECH4aOF2ANkHDaT5ASVCUon/tPWyho1HJVz5eQup9QhylFeZk/LVxagaiaslZHihnJbHXU7A1SQuc1mVHjeRJdTUKbNwl/BT8MNDCEo1/Khcp7yuxE33eJkBuxi/3uY49R3Hzzi+x6+T8yOYCM/DW1hEpOJGaS9KpU2gcyeNEh9BiJJYjcJFfCtTLYqcvXf6B/HuhXO4MHwR44E5PeIExw//IrUaxNnlBbw3PISfHO/Dm+cvYyI0w9nzIknManxxBYWXHc42lZcwnlwPUr5Frooioly3U+4FXazJ8aO/CFZ9WOkl4VkjZBNZlxsxuLspLFQj8G+mEN1KI8h12/h0HbndGCbDi4hezRNlcojfLMPfin51MXfRjQg/NUK18KymEd4jpvfi8HUTiF4jxm1lDW6kNn4qt4d/n79f5wIvIU4NaN40HXMu5sq44F3PEOSoV/yHwCphe3oU13+1iq3POrj/95toUsc2H2ZR49LKbseRvV0mZOWQulHG5uvW7z+mFwv5WYyk/Tg1M4Yx/yQ+HBtAuBHEkHeOC7nEi8TR4sKvXCO6cr1meLEYTZ1AoOUghnOxQN2P9V+t00CU4Olliah5TEXcaBE5JPCf9V3E4OIg74gXo5JmuTYzd2uIEmESQpPw702A7iB7p4LU7Rrqzxo0vDGkaDtrhO2xgg9JyqvxtI4Mja/UxFv2mLxkL+N8TbXTX10s0Qvx2YtIE2HTd+po0oy1bjuwLeskAChxiY0FZ1C9msBsYgnxg7KBaYwfVCWYfnUxGpMk9SYtQ0uhFnajaBBpixS2HjPF6W8+a6NzP4fmrRQxje8RXaPUgNh+gajxexdLr4cJhkVCT90uJgCUJaryNUkAiBI0K3cr2PjlDg1NFruPyTeIItm7VT5RCb3H9a8uJtBL0FzlCTWh7YyhpuCnfC3O2aMq3Cxg87NVnBobMhGsc1ZbT6rYfNUgrhWQ2jTEcC6W58U0xenbVUQ4QxUal9odCp2P2jzEtdJVzjItU5OyrN+kVeeardxI0h4Ivn9PNcTN6s9aqL/sIki+0XnEFdAMIcMFndlJ4djoKC4uz5iZm0kvY2RlGmk+/t3/8tRANEHe9uXFskTK7G2qxv0W5ZOjoPMkLVzIRIoPJkYNxkv3qFfNFcozaXe4Tm6x8biMzgPaU4LolxcrcMYKFGb5UYNcI4PO3TSKtNxZGo0L85NkORQ00ePg8yY2nxOFKbfNZ4R2Pn6ccF/cMzPnXKxFU5Wj0uY4YwE+5pVP6yQtaVS5gE9evkT9K6FKThHbTsNTCcDfCCNY8JCehlCgvMWOeKG6XYxfP+Q4wfHHoPjbjo84fsDxF38xn3XT/iUQ3+QjkzLl99PIkE4laGTj66QOlJ+/GYS77CVrXEJpl8YmHEW46CJU5eHPDyDRdaG6G0Bwnarz+Q6SZJh9Fy+hvp+iLpY5+9Rdql2eQBHpReCuB7BY8WE6swyZ2mDdePFPOf7Sbkpfl1e4BLmqZlLLBFPBvkaE1p+0rbqMGK1akNqyXAlhthjEMMH24vI0yeUY3u4fwE9PXMCbp/rx7uXLODM1hFH3CKaC02Ydy7wRXTtJCKh+3ELlUQ2VB3Vs/O4aolxwosyt62RzqxHdWInjEodzc0vJJczklvmHtM90D1J7RH5youh+iSBepAUo0BoQtG1k4Oec+4jNAX1PXA7z9+52nGrfsb+pPOuRMJAbUWlyW0S/rRiOXegncBEeiOUiaQWSDhkDAVmH6OivBo4UTLzA9OIv/HUffJ0oVtoJWhSaKZooXUCuR4imKX0tj+KDDl0SWpDrVbMisYMSqSYJndgOgS3ARS3qGSGXTdwQm6mQNyRQ4vLylf04S56RIPMWCIq3lsk50uQiGS69Ehllj6rDW/kXN1Zy0yIlKB2K9dWqIUeYazRNGPd04lisE8aJtO5OGq5GBB5KyreRgp/Q7qUzImsWpH0VrysTxppPGmRIawhzeqq0J+EW/YugTAPXNx9G6FwksY4TkGUSvJElI5O8la/fmKewgu2Pm3j+z7vYeta0Nf3gdxu4+etV3PgVp+VGAqcmh/DR+BDevXgO06FZDIQWMB5fxkfDA9h8WsJYagWbj/JkrmKqhDiaijq5dIl40aCuvXn6rAF5ZCdjapKjnklySdqjwiYlSHjkrXz9xsI1Lz3IBN4/cxpnL9PTHB3ApH+J/hw50NM2JpbGcHFpnDc3jPnUkilyk2y3eJ2m5wpNMle0Vp0co+wu+TlXYp1GsnaLwE+d1bXneePFhySyV+S+5Ql2bTNTaY6K6BCvwVv5+o0t0JcOtkMGZnH+UYJzL72RyNPk8Bl6qu9dOg8PF4isSY1cQDcU7wVR+2KbSkwrTMWuPyyT5yfQfUCjQYnJM6vw1d+O4EJgyRi2dFbUqWRTSYkRKNtP6ug8rv3hjUVafn5I2J5AjliSrCbMpwqSRiWvV7D6pID3T/dhYH7WrFWN0hlaXsLJyUXeEBcCF4BIX+tpC3OxJYzQcZM7VOE0lq7EiG+0Yhtk7ETyEPVTTl3pcYs3VTblX3tYxfrzL+3uVzeWWA0jz9WToqQ0/+IuwW06d+tJ0omSMYLGPSdoUBVL5ygR8hVUiFOqUeqKHkL4lKH9qd6kqeXvxcC0MiPEwZ+eOc/rV7lIyPwpsSJvTLMT5wPFix56CF/ynq9uLE6dEeZovrUas8SVIEUusWdIGOQ4yjGU49OQQl9LIk2rkCY+CSJEW0Sba9ShAvWseLtIbzRljKRF6xpuhQneHlu1IWJg6kYBzVdds3dpzk6EzlSBKsBb+Rc3RguqD0mSOhtBJTREaBzldOpma1R0eVgNUqIKV5gukj9II0GHKUxHSzcm5714nxKpufHO+++hRoPb5o2VOZ1nl2Yw4yKpe9TiNQkvXFTlJ01Tlwit/TBXuVSEt/L1G8uRfHjpA4joBTd4M5xKBUiCG/R27zeo0PRU7pKak5xId2q8SUVWSjdSOPi0gnt/3TbK0H1coj4WscrXDl3x9n3axh0uAlqU8k6UU5zG4PI4xlaGMc7hCo7Dn5yjSYrZquatfP3GpBeKZKVuUawkh7qxpSZdck5PRlz5VpIfQprGfy5Tv4pXCRUc3Sec+nYUCZoYH8E3dz2PJPmeXHcbBxnERTipKjWxVkpwNuHCoHfePHJBRI6fndpKILb2R3CsRAUNtnxOzICrMn2dbgIVVOYleaOKHC/w07PnybEXqKSUIkeaFyzwQ4O8YJKKm7/FBUCq52uG6dKuGN6lNtOYT7vs56n4DBayC3Bl5xCou3jjYYJvmA+dINVOoH3zj9xYdpsUpu2nq1GhSakjRyMcpd6EOf9Z6pgMcaBEgKQeNuhjS8feGxzFifFJo9gKswibMledUF+Hktl73SAbrODKZw30iGsdrmpFW/Y+rjvBD5Hlq3T0iQZaeKU/pvwFujTCsSRXYJg3JO8ksk094ipLE8f0AYpBysGXTatcy2KBPOrE+CCxj4ZYN09dbNM9KvBD9l/XSU1L6BJwV59VjY/1SO8ja7Sd98qoU081jYrslA7oUdM6lEjAeStfvzF+/YRjmCPJkf+vOCIcfRxfkUV+ic6KGv/XHA6l/m/+SwFvNz0MM000ziJuSXoaSbKCKFddkHxKfF965SmuYCHnxzK/dxXcWE5cNHBO9xbNcAeucCHQRzhLyj1PUF2jfglqCsQ9cf40r+kh35djN59dxkRiEYGGD+GmXzr2Y44vpfYDOQRuLumZlAuuzDydiyW6QqTaVQ8yG35UCbCd20m6lFE0xbWISRUqbJaso8BVlaZHGWwE+GARRIjqca7iLG+2SvQXFOXoQ3grQfzgo3N46/wFfNB/Dn2D53GZ/G7MP0fsixtv4730c8ghsa8fBuoeuPJuLJDJmiNC45zdCiPe8SDZ9iJS98NL5rpUj2IsvoJLnjn0zU/gg5Fh/PT0Rbxx8iLeOteP46OD6Fd8yzeCNFdZ5WrKbjqxEYG/5sf6X2+jRMrd+fk2oaVInCzQPJEpE2A1K7wXL8c7dlf8+uFcYgnnPUs4tTiLY2OjeKv/En52+jx+fOwsfvLRBXw0NoJBzwSWcgtkCiv8MPrX9K0zN6vo/GoX+acbKH2yiTgtR44EIEZLsMbpy+1GkVwPI7Ye5bTT5NFoJwjYSfKwNN3qKF8VolnOuhAmA+G9hDjetbvi1w/nYwvIU68KBED5k/F9hzFEqC/hnSJ8pDTedXpIZAbmIdmgh6TtEBpxecqyEgWSv8rznvGtJs1XkdLPEbwvUbpD7klkiXVxEtA4+VtaYVm+xun0lK4kEaqbxL5+Y/HVIMov1+AzJyNjYTOfAnq8IU+Vjm5HQb2k3ZyHxn2ZHpWf5ia8nSKNSdKj0o2RW12toPerLbII3iA/rEjg1s2dmJhA39IkQbjq3Axvrvlxz4lB0b9QuDzkmf3DG8tS5LkHTdsU8qyRh5GTxQ9kKykhKnP9eZcfWrYdgDjNjyi3n8Y+Qp8zxCcOKZTO3wXpOeXp5iVIn6pU+gZ5W5nIfnllGoO0s7l7Ddpeh4Pl6ZgolKxpFfnschHxXr5+Y4plVZ51EOXTKF4VInvV9KxQSvIhl2o0JQ/rdN1i8NCxDVCiYrtirUGartRN0iROaYT/r62d/H1SIPoF8tgVgZqKLlCXSCypk+L5ovBiLbp2lGqT3eGKd7Y0vn5jKa4aOZ+9X2wZcdPNiTDKU3a36FfWoqh9vgVXncyBfqbPfEk6GZxWH4e8cVHsEolg+W4Vm19sosIpLJDJlg/idO2CmMrSK79Xs6CwbLL2Y+SZS7oFcrYyoYX38vUbC3dCnPsilnkTUnwpsvRLbNPbjcNVDuDDsWEslsLY/LiL1edNbNEP3fm0jYf/sIX7f7eF3edl4l0MZd7Q1t0UmpzGTI84R3dOPkKBOifHw5SfksqTySRFr6g2Ka7cifjSH95Yfj2Au/+4jTu/XUdJS34/g1f/cRfXf72G3ZcVY7cfDF3CewP9mCINjnf9GKf3fNE1DQWsZTmypC1y7Tr3M6jReW1SobUFoa3SscAczs+N0zNq22pX8DV3p2xeuG0RUh87jif+L6ZyNUYQdcNFEJwq+HE5tIjTsxM4OT6C/uUxjLon8CFR+qPJQQyvjNkGwASZ6GR4AYku2Skpc/N2wbYRm7yZNr2j8nX6B0RzRe4yZLIxrnwxY5HRFBeQVmjqNnGNNyoPqfuw+Ic3lqaN/PDyZZy8cBbnhy9ieH4Mi8UgL0A/sBfDTGAaH0wM4BJvMk4KXtgmqtvuV4bKTR+RKy93kKXrRr0iDtY4dYowS290Y/5aAO6qnzjXMJ0SrGSIafIrE9e44Mh6q3wo3svXbyzED/N3Iojt5AkPOepWAd6NHPxbJIv0BT21GPpLXSSoi60H9C35oeL0/a4p/ODDM7R953FmtA/hTphSUojWiQvLK89Tx2LNIHw0a5n7BFVOXYK+pG5Ke4LxK4QgzpjC5byXr9+YK7WIRZoMObva1JDpMNeKC6JDRT83N4K+6UEyhYpJokQGW6J/Gd6i7/ibbfqi/Ft+v8EF0bidpr5kUeWUVijJDj9wOObGSMqHvKK5mkpimfYw4lyVMZq2PKUshst7+fqNaYtwqei3iK5C6Np4y96rmD2r83XAv4ABguQqvaL6LVHrDDJcnUuNqK1i7etqI33teYm/175HlG4bzZGixdSf0xMjODU5aSYrQ6WXr/rVjWXoSOew9bL5hzcWawWpU34LC/jpVwprhP6BzTxq9yuIkdK8f74fyV7Q9gA0Tiy4MZ2kkb5BnZGbz6W/+qCEPi6YxaTPginaLVMEuXEQRaoTpHVpEB/J9fi3klqS2BmnnspP3XhpsYuv31i0G8RC0fdlWCB5TXaPqHxQQoXir1yJoXs/RyciTcc3b7h0nCxkLucxJBcGijXUuBJHY3NcMATk6zRH9IRidHJOT43h3Ow4zZUTExPyCzIE5IqXpVdDqN/5I6sytR7CUjno2DtKTbZQNxmgoa4SyRs3k3Tb5IWnbXOoRJ6lreTwGiXGp1dcVq/KLsiQW2l3RbGLEgE3Tw/81MQoYWeaU9my6+vG9PB6IIVUc/sO8eS9fP3GksSYpbKmMmPRGO2u6yYVY23e54cRBrT1VeUNaRoVEpfk/G2SSUpW+pKkvVx9VrfIoLarWxx1Sk03tvqI1qRDT//IDF1XlIdczExfClIlbS7wXv7Fja2F4SL1DW7mEOQTxPkkkliYYq4QOLXpbjvTCi0pRM4Vl+cT+sk6FUfVh5jEHhSIb3kD1+YdTXsWDeLTWGABy7SzykEQzcmTTGoBiGUkeHMtzkTcCad//cbE2xeLAYtbKAwVp8S07y4YaD2oGjYp8UFTWadDIeDU8PHGFH6SmUlxVXYp1dL9OnZ+vUHY0DaetvNSuPGqaB56kUY+RBusJAFJ2dkX5FRuCGAtqPIvdIy8fIk3puhOgJKyhABKK0RjXlfMi4a5rhDnYQiqKM+ZNEW7G9ITRRMV5K1zek8M9GFkZsCk1eaC8deCGCZR9Jf8yFL5temgVSzKpIeP83NqfIj8rjkj/0JidOtnucLCVMwg+ZQkpuCKNn7bj+uGR7qxCqdQ01g5iBk+5Q7SyNLoZ69zpRIKtolFx+kfLGVWLGCnnIv2dRr0qzHbLN4g9t382y2Lhe1/VsXe6zJVpYQeH0DJCbyXr99YhCZpgTcWIHs1wkc9CCqliZy+TTTPEYvqtwqUGO0gbaQWQInT2iSYKjZ24+d1bH1Sx/rzChU9j/XHRQsQa7qFZ5U9un3Uz0W6hdOBGfoAl7Dkn4AnNo1wdpHXUVjrj/ExYo2LAKup0x6omKyiifq5crOIIp3g3hdX0aHUbBuTelbjUISmoWAeb1ZKX6RFaPBmWxwN/q3CosW9BFp8oJJis2SzLdIixW7lJBd504rrVghBZV6P9/L1G4tTjMvlEKJbRHtOZ4KKGSKGBWnMm5zKwl6EOqM9VUmKN8GbKV1VLJY62YohS4bgbaUchkF/0gJyZBXxjRikv1KVKrGw97iAH9HprVL6Sf4uvcn/pWee3KC33/wjUxmjqVmhy54jV9fefkJ71dSz2EEZzYekKATAOeqNbkQwUaJ0SsSiycQKPhgfw3uDw/jZ2QsIrdH80EtXjpi89dHIIqo0R2cn58i3SAi5eP79//s/4cz0KJZKXjPeKfqcYXI6+Za8l38hMZqk5VrINoy1L5SgUVYgTsG7BrHn9MQQ3h+8iNJeyqZLMY0yXTPRpegWJURzkqLNE3x4Sj46xk5cY6UUwnxuiV7+Iqbis3DlFrFSmEFyM0jKHaR1iND/VNAuiu6dP7Iqk3RGlgmwQuL4NToMBEst5SgpkAC2QH7uWSugTUqjp0xTRz6anMBMLmAJgorf52huxET9FbLanhdNrsYuIUP7SWtcDOuPy9h4WsHuqyp6NF0KBjbvKt+I/I46KpzkvXz9xjI0G55WhDeWQ+fna5zCElcmzQglJqVWklyK013n9wqjz8aW8MHoGGayjplJ3a6a09K+T++Hdnf3Fc3TkxJf69h4VrYwZ5tKvv60hINPGsgQ0Gt0VirUPbmO0sE/aisVOV6uKG/OwTHpmGhPiBKr8cMa1xMGE4pYK1CscOdwaAFzhSB9yJpJTQCbpS42KdWNj+vENN4UpdK9T7JJnNqg1PY/aRG/mojSNitSnuSiE8sVqdSmBu/l6zemXAJXlbaSzqs8bzO0ROf8vaoBbKgbxsWVWbSJ7Moxq3J5nxwfxEzeh+ydqsVsay+6lky693EZey/4fzRPSpzRdK2RnXYeVS2q3X1S4UqMWvxVq7dEqyKnWCkIvJd/cWNUZBclJmMsDztHe+dMJ23dgzJ2ntfsVek9cscCzQBO9/cbVcrT29HNZSm5NldwnnQmQlwMdqNwl+iEkOdF6NCsZNzI8jXT8SPe9nERKeMuZkZeACt7zXsJcnx5Y4rgKUXWw5Hl+GNB2/8zRoZjjuMtji+/FLXWzf2xPIj/s8ZJjvc5vgylH339Nx+11i//W7jJ/9rjSA5//OsS3UZvgwtmIwFv1YsgHfM4zVh804moR9YT8HNReWhS3RUvVsoeuDlWaH2WEotYiM1iLj6D2cg8FhLzWE4vYTG1RGq2RMvkohO2jOy6B+X1BQt+126msHo7jq07QawTKjdpDLYfEgIJeT0iTc28P1o+LvZb/+Emfvu/PraM1+wqwaO0hFR1CflVH3L0CpK8z6TxAYIG/ydNNArRynro/C9kVzARdeGyex5n5ydxcnoC74+O4+2BEbzRP4SfcPz49Hn+fcT+P7edJN7btpZSjKTyyg6V2n9NeD84MTWEydA04S5Cex/CYmQKflI4X2YepZ0A2iQtXQ3iepcP25D/w4fK7HLQoGV3FPGP2j5abiuCWNOHeMODzFoQiXYQYe0C0OWNk0eEaepDHXKKzZSxPze/X26REXIy5opujJGTXHLN4PzCFD6aIHcZGsLPzvXjjbMDpLM+2zO27VzRVX6veGScjqS2T1J8aH/Vh1n/AuZjbvjrvBeS+OL9FrqfrmH3b3dx/X+8i1v/+R7HTdz9X27j5n/YRuNxFXkKPaMQJtGVMtGulsBLO1sCsK/tbv0woC2QdbpJfA2XFrGcIO+Nz/Gh/YjUvNAOhY+mYYVQP5vxYjLpw0QuiLGsD0PRFfStzODk3AQ+oHv+7uUBy7v80Qdn8IO3T+MH7/D13T785fHz9v6xwctmzy4vDWPCP47F6CQC+SnE6gvIUQtzm2EKXUwzhxxpS/VJG+Wna6i83KRBLaC84XfiW/Qps7RnybUQkp0wbRodC05mvEejT4Mf3S4i0FPCPInlXh4JpS6QJqXuNkg25QhXnBiFzB3dQX8jCG9hBV5OGmWijDiZISUzyxR9DVx/uJBe5ows4L1z5/GDNz/AT989jZ+8exZvnbmMD4dHcH5xCiOBWZI9CrPsRlias0sjTHZaJPMo0PtWvCzNh4yTlcRINMP7FUQOmgge1BDgCF+tInS1giCplDZrQ3wIPz39yvNVNF70LIzl5YMHVuU+Kj5bNE6Ye9hG+m6dPgj9iZskBqRP8iPkUsrW5rdIm8hQLnHZ/eTMeZzmxCmKVKbbKcGJMYXoIsYobKVtKCgdI2vSkGPvXyXr5jWrXB0Kocmzo0y0oStCoU3dPxSYj3jkr7jhq4fQ+/U+fBvyRSvwkwVpt8Z2Z/ief/3wlX6Kn36xn7/zbnLQ0/N0k/D0UvCspuBTpnSbeMhXH9/X3wX4f7417fLoGvRhKKzAHm9YbH5TfrZzXXmPof0SGRjvYTuNzq+voPubAwSJp41booZ0OQ4cgakERTwzUA9iMuXFKeLUQHCZdNJJkVeoT4ECS1O67lQH5OjSaM9DrC7Fv9Pv6/dJinj97PwEcitWXPOnBRYkQGa3I3TAwpzxLgWUMq8yKAeOD6QH91IQHqq4R8KgFiy36XDtleDbLWKeWCHXJbbLv11N0PFL8X/p/2irjJoRptEIU7CpG7xhLonkrTqSd+pIE1tSd2rUoCbZXJOv9DbIg63OhEtFvLj96S4yd7t80BofrIgKNVm7U3kuwfxmlMs0hbGlUXx4vg8f9F/EmalRE1DxUcMyhxSCVEQmSm0q3FPqAa/P3ye026BdLQrOlZijseDydo8j6xr/dhqWpxXytMNovG4jwRvO3NZOFD0LzkLqqkIyZSgGrhHl8goTB7RVJ4xQ6CbEn/2b1JrNAlZacWodhbxGbePQvo40SYLPXqU3TWH4FH/gJGjDys8JUjKkUu71voUAqGm2UUVNVjhAu2OrT6sWr4quc+nSmMiyqXAnRd5/amAYf/HGSXx4eYj3Sqx72qKTm+DSyzkBZS7ryssOSnTl9LM2HDLESIXMG7TGCv61n9fNAFAmf1pggYqHHx6lo0Crd6vGpUgs4owoyVFapnCnYmbynvQA8qAUovJIMNS2laYcmRBq1M6r/3yduFGAq0aN1f4mneeAwg6bOQvThzirQXlfGvLIFF2SNvN7H7XRv8Fl3Ivz2lG+UuBcwt71lDlHGy+adI75Hi3hiGsasZbfvKsgrW+c9118vs4J3zKnSNF20zD5Lby2NK3wwNmGFNDrZ1W4yCCkG1Hz2BSYPNwB/NMCW864LLFXWaXaH5AK5x8QbDmrwh8/BWW4Q40ShklzXNSWxVYCC7Uw5so+zOX9GIt7ccm7hKHIEpcyNYbCUl1YnIJIyRrdrJJbNWxPts3Z3vqkg+2f93DwV1u4//d7ePRP+zj4RQ/rL5t8b5P+cgWb9Jkf/d0anvzdBq5+XCM4R2klU+i+bKNyR/mWcdvtWVTyQ3qO1txlGqbPiu45YT4FrhRYUEpk5o5jUJKcgMxNLc8ctatM6xzDsKKxtS9zhP+UwJbInThbt+mGEliLd7UprP3Xiq35OME5zw/cfN3F/s/XsPfpKq5+sYYbv1jFzsdNuq8NRKj+H00O4fj4EN4f6MeHI0OYJXFUutHuJ2364pyE7TBiHdIXYuZKfgWuAqGAVq5F/ztQ82AsvIDkasSiHcrSUC2mSt4q5HsK39QI9g3yP4UMazeSdJGV1CqyGYer6MX55XmMkKiqBEJpmcpPVthaQQ9paPFhw2oTtYWrmIFeBSmNazkjwLPhOSSclJQ/LbBQzWcg2nucx/arlpVJXPusjr1XXNe3Eli7FeMseq0MIEHj4CEpXSiQiuRdmM8sYya2iNHADM4tjEIkWBuaxycovElSktlRzEVniTsRnBwdwbBvFudmx6zk4Mz0OC2zD5svKMwrxDEuzypNvGoZtHOhVOOGiDKF1CCLb/JV72ujoXhFAuP3FkdNWfQvUg8gRD6l+LzKGRQ8ltCie3pV2VsFJeVWEOglQGmZMjgj8WWjKqvPK5bnQ5n8aYGpmijJJSnyN0H35tgQ+dfIZbx76SLePncOb53tI+nka995vMPxLvna+7RK7/b14dTYACaCMxj3zuDMxAjZ+QhOzgzTDRnEpaURuPNuPoSfDJoYSaHLGmu/XCkPa3c57mUsaURb1N1bSUu21D66ynmUEqEIuRi9dkwqt3IW99VegLJK7X25UHwNt4IWJFQik4pSFXcRd9OeVY4rRfildP4iIUdxGUFPjoYgfiWDtedN2y5q3i0dxef+tMCUTpPoBZGiW+NuRtH9fB2Vj3tofr6Gtd9tY/efr2Hv3x9gi9+v/mKNpr5n2e65mzU0HtQ4K+Q51KBLwTmcmB/FBZpmd95D9Q5YgFr7D7VbfEACalE5l7w5XyNkS3Y67cJYdAGXvdM4MzOOk2PDGA/N0+2iMExY9Cv5qswu5ZPrVXtr2sbKUcsKe2L8NBTNIOZ5PZ8Ktm5XLbipbTBtvcvKCtdKT5qEGqV5aKuUcMO/05LNd2PmMRQPuNSdoPmfFthUbAkzSRcd7gCtnVK06xZMD5GR6wOtWudGzSKzYap4yIKfOdINmu8btCyccSVufTA1h+NTk1aO0LrDGdPmDgWlGKQeOs8Hy2yTk/Wi8BC/tEOe2eLDtujz0WJVaOFKr3dQftIjCNMA0berU/NqV2jBKPgGtUyBUX0v66i9GdVjam9P+3y9uyS1u/Q6qFESmKyjwtqiK4Zhj8j/+CoGYKUNFJqWa4vLMkuXrPmAEPSw9M0C89Pd8RQ9iNJBXsz7yL3IqTZo7ikUOcjat5NqawtOG5fiWCsdMmOqdPt5y2KUqoI5MTqMM+OjNPt+A/n6HYWgyXO0/UbhFajB0coyQvRZ3aQGjrkvG+eybRjDmyJKJLCr5EMV4pp2OrR1p0lRDF9bMEW6YsIw8bAWMWeOn/3epUt48+wFXFgao/XjNR41SaSdfc2oWD2FU1RxCi2jKtwF+qraDtGbkLtV4LVUvSyuR5n8aYFF23RYW1z7lLKr4CdXKZuGqX5TrFhrXlvEmq0QmX3EyCs/kO8pGhCnoPP7EUshHFiexkx8gSBOTeCDWt6F8Zs0tn61id1/dwdV8qnq84ZlpgTJsxTjjRov4ufx4ZRyv/cJtZwW630aig/HJnDRNX/oN3IZSot24iY8lRDHNsIYXJmmURnESHjeEprKViOQR/LGYV0CeVnxYd2EdLSrHJf28fmC0UXsvq5i43UD6y++jcD4wFEKLNIJYV7pg7y4OJc2YMXQ5a7IobWctR3tQqf4SkDlg1ZJQWRZVLgYJPtWEoJCPlUJjJgl3NGGh/ZdhwKLODE9hYueRSO2KhnQbGsrXWQ4Ti3W0indr9o+bH4jSAykhdSexe2ULUXVw1aFa/vOfoWMSd52j5ysnQDdO2X8Kz0yQA9COJbmElXSQpX8T3W02hnXMykbTdWHqgTRPpuyrXc+/bK29l8XWIKAF1OKBtm+q+yApqWySaOIV1nyF5W0OLvkNNGcOb2vh2095rIkfqgYUyxZoCnhOKlG2gnPmUXTBvVKzo35uAtzaTeWSn5ejx6F8jl53ZgGSaYYeIN+oJbkSsmHvqU5DIcI5nTf6sQsbcUqN6FILdOrNhpdNBynJ5Tseh4nJ8ftXgvEKyVLqN7HSnIoIPGwGH+Wn6pnsx18ukaZVsxZ7pwMGRHK5BsEJgu5HkKals5V9lsxrVwSc1nI8FXzox171eoE6ETLpRGeKT++dq9ifEnJYdqe1Z6MhCZAtkIkkkzbc6YAa9rmvZuz5AsFEWVQxMSVOKaloevKclUf0Om+XyZOJWx7eP1hHr2nJSsM0Oa6KmFrvL4is7pWWhusxDFFgNUxQRokfzGwnjRQ12cop6dADBPoa1IM9LVqNnmfe2kqS5wTTQ74bWiFIqHK6JWKaz9Iy0IZBGaSBfq0OJp9aZcsTticYkUfSCu4fIq8aWFJ91HBQLjNJdSk0GQlVdYrgNYGVp50okxM0zZgoB3i9amlNhmcdS5Lpa4Kc2rUsPYDPiD/RzlBPRqQzj1OhvI2DoWmIt2WMPIgBrVRmKLWXliexVBogR6K6nMJ+pwEWUJhmarSGs97hxim5U+BUYjK3srTP1YClXb+MltfloT86wJL8QMVW9JDLypPg2teaT2yWkro1GaaI8TMV4PvK4pRsLKQmH3YkYD0UAojayhxQJu6WqKyeErPSHIZKQ1I+CKQt+Rhjgidc1nN5tOGaZTyzqNdPz0MPsxexGJhVm8tLVNiwu00cZLv0SGXO7XxgAKk1olW5B604KqTV5KyyIgViWHNj7v2fVYcTJEYYliCipDhvdTIwUSE06QzlMmfFliSy1EsX46slmSCuCKyZ7kpNPkZ0getfYtc0AiEFSfj8kwTFzoETKUWqfyk+YgWjg6x9nvlwijurmxXJY9qeRlbp+alNqMWe7OsIS0PCkvaoOhC+lYdedICUYnGs1UkH+4h8uIW0i92CfpO+bc4l3BTmqul2eYkNUmOlS2Z1Wc9aKJAF0jpS2pJoJL8tLJFuNQVxRCuSQG0arRkEzUaKeKX4KLybaIVqnTK0NqI6S+UArxxapP8L15QS1JZtIqcCmekyiYwCjJFlW49qpm7ouWjAqUaMUDVndVrxDVqlSILTvydvI3sXSFg5Uv7JTBiVowPYElqvJ6WqCxv+0UHe583kV2L4vL8FAY981ZKIb9SRfhK95QmKx812vRheHwAsTN98B8/g0RkCZ2Xq8g/7ZK28HqiDoSPLL2S+tNVRIjNSXK9NJ+xRC1be033qO00JpFTn6D2UyZ/WmAKHmb5h3qQ+Rz9SmqO6h3l5ZtZFiPeIckjfinJTcltVmp2UCatqFhGp5azlqRAU5ZRTLx6TYlJzgOqN47cGfEoaVqO1qjCz9mkcG7/ZhuP/nEfd36zgWufdrHzcQtrJJCr99JoXQ/Tv4yieRCxCEWXy04Vh1o+ytkW81flYo1LXda5ocnbSSIhT4GTlSIxPeddwg8HxvDh5AKOTy/greEp9LtduOCdxaCbnklyDmvUaNEgeSOUyZ8WWJa0ItzyQU74YiHAWeasUyAhaplm3jYOSCqlbcbIeRNqx5OnMVAsKUX88xLE3U0Pgt0V5KlFPS2bu1wqvBFlbln+2zVlNCtpitaIZLZ1i8bhTpGGoogOl3WXY/VhET1aRfVYUuaEEkdXJSQtRb4n8NemRZFcTLgrzGrw81qcpN6TEjlVjZ/FyaSjH8kvIk6vIlrzIVShK1Zz+iWUSZ/q/P8er6UJUJMjVVMql+73KsD/hIYRu9TbSmnfrhophpYJ8UVLMLJPwdxz8EAY47hHqjclBeCSVBJWjkJovl7D9d+s4tpvu9ighmjvsskHVA6UVe/S7VBBttLBlT9VJv6oXKVEU340FCZuUnvK/H1hnyCsCAIfRHjmEGAHuyTQ9oM8LSQBnnSgdIXYKO0iblY4NGFKR1eanY8cK0Jtaz2kVlKDxLUsLMTrtkSIeZ0mrbAZEmEhhUiZ/GmBCbtiZOixtQBWKkGLkAZoahVbF84I9JO0iL5u1ELU2iYTYGau0T+j1REPq3KptZ9UrChczDyvzCE+sDLdFKEoXecD31Pxd5UPRO61SSec2CG/01sPYrkcwJB/Dmdnp7BALVcVaZK4KsPRuS9BaWnTySbj7z2UwI9CPzFccE1gJDRLakTSTVipUZNdpBnjoUV0njZR5Gf3zY/jo4lxTKvy1DZ/w3ylBaWxy/FahQOSYY5o91tEXAX4ETJ9NcbxtCO2URA7UIRCQTgnWhHZpw9JsFTKvIV8uURzt2roPWsYxzo3N463+ofx9rlB9E1NmKuhJCThloKDZZlzFROQKGb2Mxh1T+G9k2fx4cV+nJkcwcWFCQz753FxaQZnZ8ats0Ody6NJjZLjLr9Uy6XAJShf9aOBCbhSKzQiMiYphGmUktvELBqWICciwslNH1TI6xoIrSawlJjEVGgCk8FpjASmMczXyegsZjPzWCosYCE7j5X6IoIdzzcLTDMl8qcK/6USiavAnqRV5UTZ28SET9dJ9rSZQPLK98O7smj8Ha2MnGvhisBXBLhF091TBjO1Tow/f4U+5xq1qRuBh5rkXSV1qYbg6XJWH9QsqlAgZ8o/anN0UH21ar6kBDYdmcJsdBKz8RnL3ZhKTMNbWURuK0RXLGSdZtzlRWqqNnHCNDQxYp8ypnPO0n2QwdbjLLafF2hc6Ce+KGH/dRlXXlew87yMvZdlq9yVB7HKZb71rIytb+N8Z6lhtmvU9GOZD5W/W7XNDoVyiqQUiTstGgL5X1yiFJS8f4VM5Ju1STLFtSaitEBjQ7jsGrcIa/ceuRQ5WY5YlCJ7jq3HuGyW8HbfBbx56gLGEj7bhxQpVuxKpXi2g8TPrdypYPNl1ZZbvO0lVsWx9qCIzccE9ccVbD2v0pLWcOXnbQP5Lr0LhZOUWKiMM01Wh8Zj+0XNuqxJgOrXKOssoqtWeCp1sGjt4RBPVL3179VY/+sCswvwD7X17mmEzEcUqNsrl2D2NrkKCaaIpvy9o9iVnG8lVZeIVwLU+gNqHK2fMEO8RhEHRUMVbw/SQk1wKcykVzAVW8RyNUhCSTZ/u0zGzVcKLn+/iZD2KKmRnSc1UpWoOdi7n1A4X7QoxAq2X9as8+AO+dPepy1LB5WwZFwksA4/U8Ld4d/tf9bAlc9b6D2mG0SlyPA+tLmiqIZaGamK1TaEObQ5rJWm+6ZM/rTA0sSbxFoEoXbAknGVgyANskIUWszKM6djR3RH8TG6LyKE1DhrZkjiuveqxlkkPm0nkCDlyNPKiRs1iTmabbF7NXaZjS3jjT5l4vRjKuuzPo7qgab8fcXh5fSrc0PtUR2RGoGfvu0Gl84uhbNBL0Lao7RU9WbaoLZtU9N6FJKoyPbzilXmb3OYRaXzfuUXXRx82jBaI6FIGMrDUJs5WVjtBShooE0URYVVwHWY7vSnBaa1n+HNqefGUiVg/pacbIG7WL9mv0BsckK9BXvIJJeQdo7bTxp8mAKCeReG5kexEJtBjIJ3qv8VpXB8yfROAsPeORy7NIRj/QOYyfotbcBSuO9Qm3hNTZT6DbXp8zWIQau0jleoVW1qTOYarTInLblHSkNaI39Wm8mqy1JOuuJa0c2UbfcFO6QSxMylIjlYL2yapHw2lRdLa+WbxlcDKPGZVYOqqId20LVS8oQmyuRPC4xD1dfqczXNoY4DDY4ex+qf4ehwqAuVir/ViUoF4H/Q/UASVD/HMxxq0yDBKaFs/s9wzHKoA6TK+JX8K2WSUv3Bl96U4JQlrD9648946PnVkEGa9a/nuv7b1799/f/86yjd+ij9+s91HMnhj39pd0YNXJSJGGjQNSLBS9OJVeGJGjkW6N4UyFWSu+RZZO0JlXxtJRBdJRPfiJO/haEuzJ6qz9LSl/JuzGVcmE+rpVzYquwHwwGMx4II0W/zlZZJXMPwN8NwhY7RxPuQWlem9QLym240r0Tsfpba5EufbNMFox+6FcGcbw4nzlzE4Mgw4kWfEVRrRPSoZDE4RUGKpDEKYCpSkaGTLS9DjSdXyOvUPGaFnswC7282u4zxxCJdQTcpSAj+qpceik+UQvglHBeeS3h/8PWDSf6jcvJDLfp6vGCED6hauZg6Xa5RIBw+OuWq4bT8fA43P8iVWcJidB7ziRn6fHOYj83RIV7kUJ4+2XyerwUXfA03ypsujmWLPjRvJrB5J4Ktu3GsPyTZfER/j5xrTYydD17ei1rpXOvlKn77v7/EVRJQ7Qylmx4kikvItleQXw8io7rlDVUJaY8yTlKq+w0j0ArARQ42k1zGSHAJF+jQn56dxIcTE3h3eAw/uzSMNzj+4vg5XHbPonCQQobPe1hXKnol6yjWIMH9gdB+eNEzZf3+Iu0gZim8ydgCHd0lzCTUoJkakV+03voakbLbOvXE6x4kV70o7MgRjqJ2EEX7Rhztu8p9ECGMok5CrA3Y1h26STe0AZsydi3WrTCM7WRTa1WKpUpxP33QKO9De43RTtgKLdR62b9GjbcwOh+KPqGuY2lO17Sh63Qo076BirwH3fP44Ufn8JO+i3jzfD/ePn8e7/efw4cXz+H05T6cH7qA/pHLGJoewZh7GqPUWlfODTW0VXyO8hClErUSxZLQpGlfW55/2Tc7grC0gO6Cr+iCKzoDf2YBsboLzesxdG6l0OXo3U6jdYPLhDea4Y3Koc3s8MFV2CB/jEPbVRH6jamu30rhI82ADXUujlAYoRaX72qCLF0dRlNY5rJcofYucjmrldKAdxYXFxXimcCxkRG8OzCAH310AX1zM07ISCFpaqnVm+07uzwxFTVQyGr8s6iJDizBXQgQJtT5t4L6ix42frWBK//hBm78p/u49Z9v4/b//Tbu/U/XsEXtLVJY2XXtnBnLF3FXVZiEJk2Tln1dYLPJWeII1zExbD69jGmOYDdo3rz1fdWg26CKj8xGmPimIohlJJoriLeoFfw/VXuoufZKle5VLYIFYtRk1ovRqAuDgXn0u2cs3//MzBhOjI/ivYFBasAl/OTkBbzB8bOT/XiTPubbFy/h2NAATk4M4fzsEAYX1appFKMro8RIvxM20gYxtUzapkCghioKle4Q3U5i/W920HzdRfmhOstVUX/axtbf3kD9Sdd6s6iZW3gnD89ajs54Dk1qqxpohajVlIe8HAlNmqblKUz72rL8UbLnR6LtQ6SyAn9uBq7IJMF5xdIXFWXw17zwloULPkwmPJjIEMBzfowmvej3L+AMBaEOcmqJ/na/hNCHH757Bj94y6kC+eH75/Dj0xfxDn93fGQQfTNDGPGOYSY4AU9qEuHyDFKdZQI+/VhhyR4B+2oRJTrnFT5k+dUWyo+6KG2FiW8RZ39TUQcuaTUjyawpyprkCiHAU4vj+xUEesrzz1loXVlCuev0gekPx29UbcNYISUFFpLaCVtPwkNc9hZXJDC5hKo5lKejUjsR2a8LzE9MGg/Nod87jz73Es645nFiTm1bxnBsdBjvcFm8dYGY0HcePz3Bh//wLH78gQZ/piCkLapPvrw8jhH/FHFwDu7iIkJc0tGW2qj5qJ2qSaLVosOswzeKD9tofbaFzq/3Ufl4F5knayhQMKXXq8g8bJjjr2QR9TzS/miGy2b1QQENWT86yEoR0CaIwtJq+e1vUaszHgS4DBVni6gDyzXtcqvLVM5CVNrgVcMoXVubx2ofs5IPYnpllqtLmZJmJeVPqlhSbtIfF9hKbgWX5kbxl+9+iB+9/RF++s4ZvPHhBbzbP4jTU+O47Jm1Dv2zxJgANTG2yWW5T9pBLNPQ1pRaR6qeJ65I7V4Z4St1hA4aVjYTOuBDq2zmSvHL0pkAZz1+o4YOhaYHUSNjfzeO4AYFdbuKKAWrbf7Co44T+d3PYVWlz1w+ThwrbluDCtUEWiFO6ADevtSPybwf1WctahaXHTVMwtbul4Sfu1u1fc/orjZ0SlB9gHqV2VEYV+K2CUJ5fLPAlpKLGI/MIcrlkCZuJXVkyC0CoYJ/vGByN21xMGXvxPhB6sCsEdpRULFk5TUB3pxKbnybKoHJfDnUndQapK1nrIGVvadSHCt4UDpSDqHNHLw9GpweH+B2Ga1P1wxjktSu5icb9pqjNnTuOJ1HVDWnOl5FimVslAx47PxFnBkfJq/yofC4TU0qQNUpcWqX9lEVisrfrZvWaQKOfl/kz927ZVrpEHyEHcrjmwUWJEYtkTfVn6+i8KQH72qGgijDu0UhqJaID3tUI2R5+5tOVzgvv/dSSCqn8R7VGanERnVGXRUoUAj8PxU26P+t1kjX4DVVZxRQRTdn2TrtKA1BO+raN7hStuIGVZhs//s7SN6pWDPo9u08BebUUiqkrkYiIthLBT+xdBGn5yax1Exa7E7YZUtPW4V8VTaPQu+ZG1ymFJaixUrkK9wq2W5WmpwtS4NEeXyzwNT2wEscy95vInm7Zu3M9GASlFpkmyCkJdIKtdA7fDgVcy3TIrpbOmEowZG07naeNRU/OBrlUqu0uk4j0jWTJpjgVpKAnEJYCW8UvgKCVoSwzyXLSVB/3fTNOlqfr6Pzyy1UX3RRU5IdmbzSQ20flcxfAT9xx7OzxNuRUXxIgzJdkIYpO/pQwygcBT4VHe58SoUgPircrpQnJfQFV5NG2jNUmpVJqzP6ZoGliUnqM6me4GogrH5viturMEsaoxohpzBLxVcUCl8lmOj1BhaaUQqIy/ZA2YrEEwolqNZ/wiDecITfh3g9YUbubpNLo44ER0qR1rsNpNQI+34LWTsqhtjFJaRwuB608WoD5WdbSN1soHKffEp5riS6YvQqZNVmsHIrTpOUfth/AccvX8JEcsXqjFS0oK1Ahdm18awlqQo3e49aJ4wTRvq0k1VcRo5cMTljhzF9s8BSFJia8Su2LjVdbiXgMc2ioPjq1cYEP8SSbNWYjKTTWhMeZvKoi26Vy1nd/pTnpSWmfUz1f3LaFTotcQT2qpFUD8UwNSDEaypfQ7m0Kv9TxpCS+PTqX0tQy2rUeoF+AeW7FbToI5apVcrYqdrGjahFDNPhRduoPb80QQIcRpGGwgTDe9FxThJ+4X7dsneyt2pmAJTSpUzFHK2vEv7ExVZpSCiPbxZYRtVhlHCes1h6XOMHONVsyqZOK8mNH6xW+cpv1wavkoKDe3xICtJmjVqi2sogjYCHroybS9oq2VYdDVWKlH4Ob9HC3SzYsrP3ZQT4O+2yK09L530JG5ViZYVg2oHnktXnNp406WsWzWf0KyeXrpQ0TFZygeT4R2+dxo+PncNEbIVLuG0CCxMG1H5dG9GlJy1qXseOFbJKNg4TJDFNRwM0H/L1eeNbLsmNkO1Jqg4nd7/BGaaGcGkot0I4YKaZwB0kWEsIbgK8fLwQhZSgWgu7PG3O/CMuMQrb1YgS16ilEpz6Tkp4FI5yWrXklbeha6mNh7RRFlH4KUFamhUfVp8t66a0cFm2loq5lGZAsJ9MLZPirNheokB/JrqA6eQSlqteao42bbjsiU9WS0AtUopW/kHNtMzqi6QAVAZprhIC60ooJiOo0ougPL7FklwLccYixlG0pCQwAbBSM81yadb1kNQG3YRSHn3kTKIB0ijtZKv28eo/XUf99ZpzXpFKA/l7q4KjsEUftAyDnIA/KP3jCPA9FbYqL9XTjpqgZWFlZPzUtDonQ2eoKMwzGVzAfGTB2sKpbM+/Tlx7toby8zU0P92ilaT2CKMoaJX3aaJs31PJdXxPmqVVI8HFCTtp+rdF7aPetkSUbxaYzofTVr7SnMS38rQkq7/cRo5rXRur9qHCGz6Y4YIMgx6MlnG5HsNCjQLi943PNw3Ql2pRalnY0bQ1LkdyL+Ng/J8A6YJf5zXZMqXV1OBNC7NkzZT7r06AylEt36uZdex93MOVX29j7SHhgY52grywcrdkTrgEuFQM4mI0hMthcin6h6UnKsCiMPgsmlwZEpUvq2zmy4RgPqv6voc42eH0im06qyyH8vhmgYVpadQJSXWEOrpIeKVcB23mWr03NczqsvXgxBk3H3CRAlqkJs1X6LAX/ZjMeDEccuOie84EFuHfRiiMGP83QcqgbMUcl0qNWNIgTVh71cHOZ13sfrGOW7/btVrJe3+/bTnze79Ywy5/1+VDXP+iiWf/uIkHv1nF6h3Riiiaj2gA1NmcJFZs30sfd57umEJRIQpU5zjJ9dHuvXL/Ndmq6FVBllK5lD2tijdpYZ4/t24XLMQzRiykPL5ZYPIl1fZTyzBEt2GZxNPdTRh26fCt+D6XDb/XOSrCmQgFoKPCAtQKHfqicM1gYBHHx0dxjFxogN9LYO1HLRx8scqH72D1eQvbr9vYfE0y+mkH137Rw+N/3MG9v9vEw7/fwt2/2cCNX7SxqkTffaeffI7C6PDnrQdZbN5OoHMtbjlgRR3YQMEo61ERC8XDtMuufqmZK2nbFLZUcwpMeSCCE6VsaanKk7C0dK4eJdTU7umIiyqGvdM4OfUtias376K7kUGBjDp/h+z3DrWBF1aNkaoq1L+r+bCOfT38pz3s/3wVN75Yw9WfUxBPamhQ3ceIKR+MDpBAXqYP2o/zrikLaau4dOsFNYsMPblG60ZrHCh7sJhbRojfq+yvSCCfjivlyA2dxKSkOLV2UFOyuoKOFEyF1tDqJq9pW18Z2mL8Ogw0gfhaxKpMLrjnaYCiqL3oOfhF31UapiQaldOoOkRdlfU7pZ+rwKFAI6UMap0tuJyydrzfLDCFdVp0QK//dgOP/2kPT/5xG1c/76JF/MjRYilPdO1xFZ/8D/t48Lt1XP/lKm7+FQWmRI8HGXNTRkNzODZ0iWx7wBj3m+f6cGF22M6v8eaXsUImfdEzhxkSy8Eg3ZipEf5+jGQ0jfadPKZSbriaQfTuZ63bn2VLK5HuLgV0ELchgTUpTCXvKnJbop+r8yVUxfvepYs4dvECFkpB1F+tGU2RdgmTVfWRFuhTm8TL1IZBKfMSWIqGp8hROFDFnCWifLPA5BrpcAplxmy+alIrmnbaxtrDDLq3ElwiIQTqPmTIgQJdP5YrbqvGXci5MJtyYSoyjwH3BE7NqBqXY0IVucM4NT2KIdcENcmHmdQKTo4MYYyCPcXfXVyatka6zfv8jIekEzQKilkp917FDGqIqvJltTCzatwDp8xP+f6W7kmBqeBLoWppWawTRrjmR4yehfDKggW0yMKyKOEkzmuXaMzkIon9WzUuV1S8GUacmt1+UsLqUzsp9ZsFFm0ELCVc9MJdWsBiaQlL9P9m6L2PZ/0YTEg7Zqzhz6nZca71USsEPTc/giHvBMZ9E7i8NI4TkyP4YGyAwhrAyclBnKMAF5KL1MA4ZuMu9M1NWDR3YHkGs7FFzIbnofMwVDmih2/e1fETFAqXqQ4MbXL5acm2pFl8VbRV7dUsLYmAr7Rz5errUKPkfhoxalpCUQw67XK65d6JQgj8S/daKD6mwOhsJ28of1/FGmULT6u1Q+VW3nagKI9vFliYfqQimD4um765Mbw/eAnvc3m9feG8U8J8pg8/O3ce72j0ncP758/jvXNncezCBVx2jXHZzeHywridNXqCS+3E9BDO0C+bDs8iQCvqhJFDiHR8xKK49SDXMQfr95LoUGCqUuvcUPdjLk8KoS7tMaE4KUnSJpXcaPtMGdJKn7JjXqhZEp7Af6XocdrcbCbpfDvHA1knW2qR3KDq8zaqj52uAqpuE4mVYdAZIWL6KutRuQ7l8S0wjMtN63csMI93z57F8XNncLq/D30D53Bx5BIucQmNr8xgJu429i5mrtBLjpgwG5rHtGcCE75pE9TxcWrW3DBGg9Pwl712uFx6TbtKWmKkBcqjV7nNHpeW/LiDDHT4pnCpoPJm/mxdo6iVlh+r+iT+b53/26DArD8nhabKEwlTGyHa91zMebCQcSO2Q2G/6NASyvHOWStz9cvI0/HPq8nH7Sqd7jKxjPRJYWulb4lrdr9s3P1tNMzPWYrAUwvQMpbQ/cUmqq976P5qA1v/eAX7/3wNO3+/h42/2kTn8x4aL9s0y3WSxwbaJJM6I1ZnU5wmXp0k0E9GFhGu+HgjMVgx1T2nJEUdMYvKed2IY5EaoQjuZNKFoeAczi9yuU+M4uzMqHVa0l6hdrGkXZbNeEsapsxGWnNqluq983xVuZ72UBcLtLx5N+I79G8ftAj4SpF33DvlkuXu11Ci861+O6IVKuBK0MfM0I/NtkNIk56oloDy+GaBabdIXQXUsL70kI4oZyi8KXemQB9SfKZE/kXnmMPTzcK7SnygyU6rmu0OHeL9DAbCUZzNr2MonqJVdFvBaf0uLd2DPF8JuGLl5EvCHH/NZ3uGf/H+Kfzo1Dm8c+EiTgyog/p59I2fI97NU7iqXstYixtr9S6BkWtZkbw0i8vazqri56Tp1gUrXnhLy9YlqvhEEVdysF1imEJM5I6iFCYkBRBFLQT8JK8hHRIZX6J2a4P5W2rYWGgRwTY/UBUTJJwKCSvkrIJ4WRQnx5XOqoBURJA3Eadzm6V5VtuC5HYSlyJ+vDM8hv4AhUXt6NyTb3akFcKbpG2CqKRFfe391LDMetyOhtIyLz5bRenjLVRe79CvKyLT4xIhga1fPaQUvIaVyWgI8IldSuZVda4KWUVHWjQYWdU+3m+YhomYWncnWkk532q8bgXyHBKWzoIo8jnqnJA8eV/3aeXbCWw+Mocgl+VSwWvnfmTvOnXS9qHyuQiUOohbGdTGa/helAIsk8l3H5UxmyBpHezH8eF+jCyPo0LMWX1UslRNLSVZt+IBNYPYoxsLkrCmuTw6f3MFBYKxMraNSFIj5EZtftamsFUhR0Og8hZValBDFZ5W0aoJi7+TRqj352TOj0tBF/rDy/RS+LsnHWf/kUP3q10jgbwOjrVaSU60CKx819LtknUrV07G2rcN7+jgHhXKrxAHgj1qAYXh15JUqIVapYRddRZRzbfiVcqxVwRDzYnUq12buYPLU/jw8iBGvHO0XKreoNvBmVe9pAoTVDuZankR5rJR4oe3TQpAs67cf1WXqBFqdI9eBZ3m7lNiIwG+SMCvcQlKUwX8JVvScVuSKpnRRCgr+uz0MIkyievAJSzRi6g+J+gTzGPaHTokqEpAzoq4cmIcps/lyJUiXO1Qe1W1cthR4JsFFhKGrYewXKSGbZLTEPgVvFOUQuGeDImg2t8ldRzJozrNs9PQqMSlqvPitSPtxNRH4CKTb90pWLGV1X5Tw6Rl6W1aImJIkMtiKLpsUYMYraWFYUQB6H4p2qvE4LVXTvMQVccJp6zHIpdmnpTEzjnge6pPV1mh+n6N+2dtF/2diwOYTPtRocB03ylz7xTO0bFldL65chQBdqpxtRnCyV4lXGzSk3lRwg5JO+XxLQTG5agwibfsQ3A9aWZX7alUL6mLy63QA8oxV98wLUd7X6BJppzfjZBnBTEeXMCgewqhtjwHCsu0Q2ET8qvHFez/uxvo/dUeSk8qFr7xU5ulVVriR3F8zfzmxw2rYjtPrVVfxePjk3ATLsTwdYSGhKbIq5Uc70SxTAt9gl7EeXLBlVYY9ZerxuRlDWO8VxFXx/Gu8PraAFFcn4MWM1Dyo9D04+A3Oi7mW2qYaIXOglGemOJTai9ugT0LHGpjlZhGLRCGWbBPAcFdWkdiQvth0dj6yPwE3jp5BicHRujErhhHkoYo9Vw5/MFakB7CAk4uuHFxzsWJUZ4/BaVJoZZZTQCHOjPp9IvMehQXZ8btAKdx7xLi3agVxysdQGCvSo6iohoUYEOdU/bCKNBtS6m1KImreoPpiKMYsVOsX1W6CiKa883VkjZcJt25VcAaMax+r4itV98Sw9TBXkd5L3FJ+lbp/XN2juJfio4qqKe+2VbWvJsi7iSNDOao1jpLQm5NlG6JDmOMb0QsBUmW7KihvFyfUDNE33IKZxdnMRbz2OaJtdrig1lfDBFN4k6Gk9V4VCVtoDC2I9RQlQVmra5b15SVVKRVwtK+pAiu3BuV/MVJLwKrXLZc1tJWBTm19CQcHeWkhkVOlxe+p2fiM9TojjUprMxOArtOz4pvFpiacyj0oiQ0RT4FmNZKjzgm0NfMqDZa5jlD3FJRgzQve6OCFnmbigOs/w2XkeqxG7RoOqFZmmcPTA0TlTjB5SVyOuCeQYB0QkUSmn2BsnbUY1c587x2/W6JwohhNr+CIf8kFvIeEms55GTx8impXdr8UHcUD2FkkH7usYFBfDg0gOmMj1aya5ZRJYoSnDZ0RVrlIlnPCq4WRV1laHJUjvKVLCEpjMYDO6XkWwiMmJPnbPn4UDoVVdIXS9YSjHOGlPUiA6D3tCmiGxDHUY8ccRfFulSCYu3eRTBpeXRmh5akHVNA4en8yPmYy074nc944O3EzMRbofq2sywVWchyuay/aNIapjHgnafT7yJtWUZ2gw9EgWlJajNXQ8VUiqmNeabw9vmLeItkeDrjp/Um6FNgZil5fWXviFakaQRUWSyBWaMPcrAktVDdndTiXkaE8vhmganRh1TcS4Fp60tMWPF7cy2IK9qSsg7y1Dht0gbXUxaBzd6ookPXSKftW703l54dCUMhaZnaARQcKoxXN8wyDYFO609sRq3kRWeKaPmH+XDqpSgM05ZY+yndLnK21DqXHl0pGQ476v6QvGpJ6nwbYZm2CGeji/jJmYv4gBq2WAmibIfZFQgpWaNCWiXOiUFquyBtdvAyxqUZbYWQImEv3szxet+S6UtgqsHxkh4EuSR1McXyxblEH1QkL3/MME0eAN+Tahe5VHX4hYikKIS6ojT4cOokoCiChCbfzzqjKLalMA6xSG2QJXS1dpDFSnLmlaCirS+5MOqYr7Y0yjZcpXu1/rSI7sMCl7gKvpx4mTZzVemW3YwgUqEfGV+0PDY1vpQvKdIq0FewUPibI62Q8fr9rija0suQ7lS53HU4bZP3Tnl8s8BUvlzgGpYvGeAH6iGkTWpWpKVn8W+yYmsXKuAX5eBN6AQkNdzQWSjSCPWvaImwCsNIVLUsVaOom1Edd/t+0X6nkLKSTUQnVLiqCbE+EuRIqi9f/7hjgi+Qa4n4yh/tUFjqJtC6R01TCIjXV1JKcTdKtyiNLgWb2wwhtEZjwGsotBOjj+ucQkE+9/Cww+bhchTwq9NLkZa6Sr9VxbGHBfLfRmAh243x1enjrZJWSPoUijZBhFfKS9DFrZUM37PlSv5U5o2p7YGWhXKrVNSpVjIqjrehgnc+mLWR4bCTTmRReyGzZnoYh4lz1o1QameJy5xLsnqdD8Nlp24COnxX9ZBa9qq01fJUGxkdYaDEOk8jgMv+BfS7Z+Gq8V4U0xc+8fr6DBFU4Vrhbp0/67M4UbLM1LQ0nym3puS8MIp73xLDYh0KjDfnp8C0VDTrQeNayqVQD+e6aZdZTg6dEygjULxVsmOrFMBTcE+NPtReQT6kwsvmR1JgZS4tZdzIdKuvmOXFd+l4U1iaccMUWS4KTp2lunRR1OTIBEzvoniT2kxBq9FHi5rk9N9xhgjsQsqN0YAixUHbzVIfV1nHEPE4Q7qi7cP6iw6KAn4yfxk1G1o5qg8te436HJ4a9M0CU2hHRFAujgQm3qWMF8XE9cHCFdMwLlOd/KhXqXWWMyXNEf5ZgI+zLq3SUjxq4W69d2QpuTTtWCTOYrgbtqWvdsdm4mUhCcwRehJ5Gpg1Mv3aTWp6L4BYN4DMFpcLXSN1etLmiOL+NnRt4mWb7689yKF3J2UBSAUKlQagXmgK8+iI6cYrCkzLkjxPQwJTEDGpXXNySBkoTTzl8c0CUx95WR9PVUsywQvJk3e22KUFSoOy5ShqoaUq0OcNVThjbZI+WStplPYGVZEhQSmCatEKCYvaYcB/iGfKFPKThxlH4jWt+7g4E7EzzyUpX7TH5V26U0LzxSp2f7dvtd3WrEjaxaE9yCrBf+1eGtdeFHDlBS3p9TiSO8S2p072joIE2phW/F6Fq7l7zuld5kdyqHeYOru0yfbzxHB9LuXxLQTG9au8dx1xKOIaP6QVdra/lgmXpMBeeRaqftX74jaV+1VzlC2EfJcklcKzZkUUlobohKKjGhY5Jd4pkqoyG8ej0JKkoMSJqGGKXmhyJNz2kzpdnE1EH19F7ONbxvm0gyRhde9LYKQoFH7Llik1W8c6ygDRFao+61po2jpp2mYHDYiFd6hVXBWykFaSTZyLdZPIdWhciI1qG0F5fLPA4jTzwhhpmHIf9BDq3iRfMkKVVnhHqUpKkjuylAr3FGklW/TDhCMK6ajFi/WYMA0j/khgXLLW4YmCUihFPSz8JJte3uSRxRKGaXkqdpWlgakoPkUyPOwexTsnjuOjU8cRrridrgEyLhSOgoaqVZ+ILePs5DhmZqcwF15EliuhQtAXcZWljFi6KCfviQ7hdBJtrNMenyNNrV6gO7iQd9nJjyLLlMc3C0ydUVS4sEIM81GNZT3CarnAD7ScCKqy0jJ1vpIAXxomUqtZ7zyWwMj0yZvq0i5FJw67CmgowCfcyvJvVOylcI2KuYRhlqDLCRFQW5oTH0aJu9ufd7H+uISF2BLOzUxhKadIBbVJ1tG4GDkatUn3PB+ewfT5c8ieOIOVS5fR4kTWPtt2LCS1Vlnd6kBcf76GlCZlk77xPlcNv+++aJhxSXQC9CfpZXDiKY9vFpjAThFMFZV71ASWS9KYPTVJkVa5RrKOzsyIvKpRWt6WZPtxlR8Usw/WOZtamiKs6liiE5f1WrnmMHPbAeJyU0/X9NWcWawsR+aGHHkSYRLLNi3c3uerxMQcLtPnFHsfcE0hvR61hhwCfS1HWVs1xV27kUCPn9HYC6OzFeTnZ9F72cYOr3Htt1u48bt1amMBm9Sga180sMXX7RdF/kwP5QE/nxOliezyumo8R3l8CwzjzeQpNAUQvR063wRExe0168KWDIEztMllukfNkvXk0Ps5vt+8y9miEywMFOu3Y+4osCqtWvVGktqgFlkCfWrabtJcI21q5HmtNnHl4It1PPjbfTz4hx3c+Pkqrnzawfqzup3Z174Z46CgrtEoyUreIUF94OCXrLMmQSTWfFdeX8FKtcXKbNJwUVt0drynGsFPRsfx5sgUTs4u4u2RGZyYncNF7wIuuqcwEZhEquPDBh3vwt63dI10Oqd6VixkVix3S9hihxXSXdFGgVwKJboF1+hDrhP8lVhHDWy86lpnuPThWZHaQVI3FFlHp6UfwV+br3wQbbyqnlG7RxU+5MajPG7/uoH7v+3gzl81cfXTOva+aGH1WQVrT8tY46u6OK0+KlCAFawSlMX2u3xPJFnbayK26iJc2aGnodxXLncR2zjvZ8Q3gTHvNGYokMvz1NLFy5j3jsEVGMdyeAK++KyNfM+H3l1hLu+R90d5fLPAYl0/Ik0flvIeEsqkWUYtRwtTS8MoMDt7XDxsh+AvA7CrjB5ZSFq9XpgYF4SvuYQ4zbO0qiOCeYg3ohzla9rApSXijekkWusdRnPevFdCR61g6CuqJcwqNctYPemJQF69w7oUgqo1dHCjWlhp+SsBRixfEQy1XFZIfO2Zik2rdvRFpLCEWHkZce2EVb0Ilz3kdX4UtyOo0p1q855WH3LSiYWKVDi9w76llUyQ4Ubo3y2XfAjS3Ms1kiWUo60wtfbzrP2xfMuj98XD6BrJQqqzW4xCrL++gubzHgXBh7tLgWhwiVqHFN6UDIDek+aZdnBpNamRsqg6bVKC1BGtRTJ8q6wVLuq4VgpeMbajDRWL5PIaqrSTky9q0eS1y4QGpUbJaZcWK9Glwf/Vhq9gww6Q5P/oZ3kgsrQ6c7TK61r6ASeT8vgWoL8VRZGW0lMj09+QL0nXSKEdWhzhmdqoK+Vc5l8RDOVbadnmSAIVYy8+amLrF+u4+dcE7F/2zM0QyVQA0bqUS0gEcQUB5YyrGs0ycPh9WYdWqmsdhaWND4WDSmLrxBNFWKWtdQpcbpYE1RWj5zLVslfzW1loLSXtG1iyHbFM549KY5JbSetIXKHQ1UPWPpfXdISVg5qttdRw7Z5DUzQZlMe3wDCqsI64WC5SYKQMEpL4i22EUEgqOlC5i07jz1ynB7BNU619SYK2QyvCFnJRi2U9YEU+oIRBrZC2KJ+iTCwT2Mvf1D5Acj2OQINLh9iovmIJau5yLUkKQA27kbddptS2UgJoLIhNOTnwFHKOD5zeTVk7+gSxSs0kleziHACbpCA5UcQ5eRQfDat78AUr75MG2ZFk1DRlEym/X1t1aX6Gmr8leD/hthWYfgsMo7AS6855ZsFO3AhfgEtMS1BcSRqmGLyPlCNMfJP1FD9Lkwg2yO4rpBVq2dd8rHx3J9dC+4XqT2/Li0PpRC1SkBpJaZpcTs2R/HXttgf4uSHLHzu/MIlLKwuWH5GUo85la12btKtNP7Glc1q5zJq3qUW8vqIV7soKTlg+hodLLowi/y9HYQ8uT1mXqJ3PephNL+H42Bgu8j013NWRZAn+bZpYlhXdIT0RUc5wlVEe3ywwMf1ENwh32WfN1rRBm7vftJ1ixZEqz9tQ3n7iVpkamDaOpti7Q1xLdixFsBex82EXCl7buREe2EmSXFo5Muj6vbKlFuXpugRIXPuWZnBsbBzHJsbw/vAI3lGF7rkLeI/kU61RlVKgDkwtpUCRWwnHelyOUU7uoA47KXnNVQrX3Dg5PI6FlJ8OuCaIHI/C6P16E6//n3+N/+7/83+Dh5b/g4EBXPJM28EGstrihHaWUS9qKfeqN3dllr/lkqRKh9tBrFT8FsLN3WuR7audshOr0gkuoR26MVyeTumcYk0UFF2j9WdVzCWWrD77zfNDePfCIBbTbqifmJLftJSK1+kVUNgJznx6l3SFs3ziwkW8f+YcH3aAbH7cDq4f9i/g9OQYxvzzUAsFZf00KCxhix5SOBTu+HFuchL95FKKsugzlGsfWU1ZcYLqvgO0+AlCSvoGn+FqDR5azBlSianQJMZD/JzANEZD6ng3xwleIDuYxyJf/Z1vKTCnB6KfrpHPSloUobSuwPTBFM7RxoTcFvlnFlQk47dgH7Ws+7SO2dgc3r5wiQLrw+npYVIUtdfjUiQYq5eYTidWvwvr4UUqoJyxAB1wJb/FOONZ4psOAs5SsDG+56MGejWqIawU3HAVqLmZJcylliiwCKKkPsoFm1cbiMKynWAzl5nDZGwGs6k5uPIL1BZqYX4G7uIcIuRamb0QrWqI/C1EjA2jflNLmhp8i9b6mrQ5Qrb/LQOIaoMg8ipa4T/0JZWlo/h36XkHpVc9Ck7hHeGXw/QVKS3dpLUisK+SQ6luPE/t7BGnjLgaESTWcXnGejHOetjOCXZ3o1iqhKm5pCVPWyhw6ecft5F/2EbpaQ+1Vx0uxxSX2AJmIhOYjdOpjtNfjE9jPjuDaMeDypUocuvEv/IiMdBF/A3QvYnS8DjRDGlmh1i3/jCD7Sc5bL0ocZSx96pEglzhawW7fG+X761a+DuLjSdFuk3fMntHTfwT62ETmMBdvMuq17gck7eaVqqnuJXiY9bYTBpG0NdZZwLe9tMaVCg616D12i+bwATWCpfIMmnocINLrlm8PzaK88sz5HJ5FEhH1JRSp/upy7kKp+S3VuhfapM2WF9CsLpEfPUi2lohoIcM+Fu0hE6mtbwIsn9+v/FEpz2Xsf6Ig5Z7+0UVOy+r2KUQVvmeEk3UEHKNf6eNWwul01ApRqdzjbUzVadhojy+WWByvnXqyjIBO0qMUe6UypHtpINHHcR0pDU5mbVblvdPYWq7vf6kSQe2aIDZtzBO/BnCTHTeSKoOYVbvVgNWLkd3NYjTBPg3jvfhBC2WjjPTKQqK7mbuKP+M16HbpdjY6jMudXItMfMMrXdbGvCoaMLYeFI1YehQ591PWvQQSuYhiOm3LXjpJMDoIGj93daLisXqddKNNpe1f3rUNFIRkIpidRzKl5XlpTy+5ZLcUO+cgIWlU7cI9NcKaH3cRf2zdSTuOFnJil0pjiS2bxpGTdAMqchTxRHRpt+OYa2STqhlss6J10kNOg3i3PQk3rmsc48mcH5x3qIflhFI2mKhYk5SYE17ngnL1xLL11He2uXefFrClU8a0Bnha09Kpjn7/Hnvdd1IrHXYJDnu3FXWIgkpf955Vcf+x3TuP6mb5bQ8Wr7qFBsl6qnSROcAFPeck1cLfE9kmvL4ZoHJTbHq/EaQhJU3ekOpQMQlAruioNrI1XJUDMx2jA4xLE3CqZnRDNXuFu04Q/XMkZCUvKsEOjX0lxVeSM5bqweV7c0kXBaQVOKezkfTBqu2xrSJ66kFUVX1LbUksxkyKnHwixZ26Jxv2jKrYftVDXufNimUhjWMdGiHfE4Kj67YJpfd/qcUKP/mCjWxQEHp6HrrsEnvQPekNIOjDpsaqipRxIXy+GaBKbSjIR4mgWn/Tpu2ilRKeKVHDTrfGVuS6nau6llZSZ3hZnuRtDZaBhKS4l0Fqr1+VoqAGLVYvyKuc+Q5/cvTGPTMIcilXXzSsp2b7J2GCUypoim6XKIe8vfKBzFqVxlXvmhTiHTSH3x1GPwGBbdOXGrzMyUwRTbU51XgvfOSmvXzFvY/b1K4XPZ01OOHZ7Kr5Yya/IoZSFAKc2uJKrqi3XnK45sFJumLvC5X6NWTRqjrpcLF2vbKcbZ1gJJTQ6nYO/1LcjHxMAX8tlQ9wiWjHaEo/dD0Fe1006mVADm0DSd3SK7H6Ylx/OUJcq+pCduNLtE6Wtydww7Oo7a1Xq8iTQOijEht2qpf686LmuGYshoV+FNLUmtNyuXZpcDsaH8u073X1Di+Jwd+/XUL1yhoWT5lAumMEguTU0CGXdpj0OD7Fr8jBCgaTHl8Ow1TDwh31Q8VuWu5qR2CNElLUYxf0VZZx6xShx6pjI6C5PubfBg5x8Nhuh+T45hOr1C16b4QUyyfnnxMv1dPsktLk/hg+DIurEzZfoFlNpPQmsC4HLXbowzu1j3iGjVBmx1XPnX6xO4SvHukL9o9F9CvUkjK62hxMkSee3TLek/offAzPc0AMvQoWo9rhnG27LgcFRLSAfvSNCUpHzX8VXhHgivSkac8voXACHi62AqXpLJ3UjedVCBpmfJBZeqtGJP4lb+vbGQdG1HlklTyG10ngueUhyzaPUHwXyIeOLlhuhHNnDjZStmPU+NjePf8APpmqWG7BbpdbegICjn3VgD6gFb39TppStWitDvPuLyoScLFDPEyLfdMfbAVlzuMzen4a9WIx2iIVOMd7iUQpBOtXDWlSak2SR0TQm0aJFKV9JaqjwN2tJgdLUT3yxJcKDg1D6E8vllgio3ntAlSEQ9LmRYpfCPLZYBMcJYDLjxT2qY2LZQHW75TpoZVcEBw7XHm28QZbbMp5mTYcDVFYZE+UIDTkQX06cjqixfRTydbybkllbJwIrQcdf3s3QaFWEPzKQXHpVYl809x+UfW6fSr+Go1SgoThpu+5krRTyZP61wJ8Hfqo01IURpVzo0YrX1hLYZ4ecXOpYzRMdc55IIHgXuWoC/hyGLafuot+rqK0fG+KY9vbFak1ptq7qomr2r2qqavav4qSf+5DQnrG9thSWA6LV2npkuqOkU9wyG1/HMb0qxvbLgm6UmK+qW646pLrrrlag3/uQ0pzDe29NMPevNnHO9zfMRxkkPr989xfGPTSH1JaFqaaicsbRPQ/bkOPf+fbEv6+18SnIb+8M95HMnh377+7evfvv7/8utfQpnsgYZw8N/Gn+840oP/Y1A/EVnEIj2xsFrJ7jj7zipMUfZ+sB22nUL1DlcDYu0da2cvv59Bds8Zmf0s0tri5ffqv6SevWH1QldFNq/pPxzaL9JGmwp13CUvVugiL/NzlzIuLGQWMZ9etP2h2fgiZmILFvSe4+scf57l63R0AVN8bzo2j9nkPBYzS3AV3XYQthpJ+Ktu+MvL1lM9VF1BouOzQLeOsdMRUtoZUPdsO0H8QCVgfpS26KZf0Y5BAt3bKXT52r4RQ4ujeUPZI8oTUhqL2rzRE5WXe71o7dxWf7WDF//lMT7+X+5j/UULiV4YyW4AqY4ffj3LygRmFkexsDKGleAUQnwvVfehSA+5rOOQr9CLPdzydpIZ0lAfZKufsaCUtpm105t26mquKbVa+/X0kuldh7v0sFtRLJdDmM+pQbUXE2kvxlMejKa8GE56MRDzoD+0jHO+RfS5F3DWs4BTK3N4b2IUH02NYirlsn095SaoTE89l+NdJ69A4V+qh5xnMVP5hGLsIl8ioVK8I2X7k18/OLs4hqHwHBYVRVzlzdPdV+K+K7+C+azbDp5cLPqwVPU7o8zvi1SOghsrxRUsaxRW4MqtmLIsWo/4BbjSS3BnXfBo5FzwcfjzLgSKSwiUlxCquBCmIkTrbkQbHE03YhzxlheprqMcua0wctthZDacsjvtCWqk1wNU9hDS/F16J0KFVzp4BM1rITSuBFC/EjZFUh689uB0HlF1n+/tBNDc8aHF71vXMnaUfOtmzqrsGwdxKlIcRS0iLrLCrgJnnPArTq2O7ZhICW4X0X7SxPYXW7j2Dwe4+nc7WP+4jgYVtHwlZq30dA5lpsv7570WN0MoK5FNmwd7vM7uYTNa/d12zGLmSvzIKbtHv+fn6L0wF/dMSn3GZnFyZgzHJ0c5hvHh+BCODQ3ivUv9eOfCebx19ix+duoMfnryNH56/DR+cuwkfvzOh/jRm8ds/OXPPsCPfnYcP3rrBH7yzkn89L3T+NG7p/HGifM4MzGCqfA859tvySY6QMGUnoqubG7qhyIzFzkUcJA7JFdISidl+8bDU8wcfjQ9hLNzIxgPzSLU8EKt3jXiXT8VZAGzoUkshKfgJmosxeYwF57GSmYO8eYK8ht+FLcCKG8FbZSIFGVOenk78uVQIptqhyRQncJsmxESsKKhKhglmmhitEtUUeuFa3E0rqkNA9+nIhR4/VzPa6OwTtShYmnCnGtHbQdIBzupC6ciqUVlbyuhRckpGsrx2OfqVyeWa1lkr+WQvUrU1dlxVKAUV2+SI84JjhClA70QPE0/VspeLBFhFzPqvOLBXHIFk5FljAaXMOhb4sQv4PTiLD6cmsKHE1PoW5zHFFEj2OGz8lpSFFUnW6EHEUhDQdUKlVlhc5UcKmVMGzM6OzgtC0HZaFswtZWwQ/3GqVynB4bwQd8lfHRpCH1Tk+h3zWKQSDRKZJpM+qyr1UozDF8rjCDRJ8YFkr1VQPlxHbXnLTReNtF82UD74wZ6n7Ww/kUHm79sofe6hsKtnLWPjfQ4L0RGLa6CBhX88CQxhf2WORScGONQkEaKptjDkZL9q0imN//yFBXs0vIY5lPzlmahhuJKGws0gyZgmax5nT1OcxSoeRBv+6x4TBs79Rtc+Qpc2kihdUub04fjhhozOcpSOVCWpVrx8Po9P3JEoPxmkCOEgjKVNiNUTinLoYJQyOoNonMH4jQHOkAwsZlAku+lqDQxCiOkKhxlizZozms631NBWB9WaH513/PpFWtZNp1wY4JjLO7GcMyNgbAbF/wua+x+am4GJ2dn+CqUmMFHVJQPx8dxbGQU7w0O453Lg3j70gDe7h/AO/2XOfrx1oULeOvcObx9rg/vnT+L9/pO4+1TJ/HemTM4NXwJY/5Z6ymep0JbTiGVSgdT236LcvqIiHpGBX91SkeMpsjGapjPGkGM1EL5QXoWP58tQdpSuF1C6V4FpTtlFG8VUSSK6ufKYyrPix5WP9/E9t8c4OA/3sa1/+4Odv/+GjZ/u4f13+xi7a/3sPZbvv5mm687WOVr75cb6L7uovu8id7DEulAlopF87uuuaesKe/4mqXMKaasEKlCpVI0RQCFaApsHQV1/lUUk+b9aJ7IFKSZStMkpazxHrlX2Q1vbhEr6TkspWaxkJjDSnYRsZbf4L3ElaaTPXRof4ocR30JkryhuG6MNxlVGSn5lr/JQaj3d8LwUmE95CCemjOcM2o8mE0tYyq2hPHIAkZCCxj0L+KSEsOX54kKMzgzN4UTM1M4PjGJY8PjeOfSCN66OIQ3zw/iZ+c4+gbw07OX8eOzl/CTc5fwxrl+vHmBinCxn4pxEe9evEhzcgHHLp3HBxp2SkgfTlzUSSHn0Dd4DhdGz+PSRD+GZgYxsjCMMS64Mfckxr0zmAyR82mRKQMu78VyJeCgRY88aDVOxCDiHKhjZNooRpD0QjLM0qzLtDrlsuRQtlelxSPlUoIGFaobQoJD32sX1zYFaUrVPDrSDiBM/pt/RPP72QZqr1ah1pupq0WkyQPVlyHLkblWsFPX83cbqD/vWQGkeorGdvMIqG16Lw0/h74PrGet4etyV01lieA7Wd5fnoiaoYKTGunsDc6RT+1YSIWoH9qwqHJIyQIcCi8PcAjFdNSfONkRH/uDL1OwZI/Ejsil8yw85FLLuWXjU4vZZZLuRRLrWQpZg0SbDsE0lWGKyjAenMNoYAZD/hkMeGaIgjPoX5zGBY4+tbObnMCHI2M2jo0QFUYn8P7YBN4bHce7Q2N4Z3AMb10exptEibdoBt4eGsK7g+QWgwM4NnjZmip+oMaKauwzcBEfDVzACY5T/P7sUD/6Ri7j3Nggzk0M4cLMKPoXlJk3iWHPNMYCc5jg/U5Gl4hgLsxlV2xbzEwIHZC0MlSIJgWareKtLEo0FaXbOZTvFVB7VEHzaR3NZ5ywJ3XUH9VQfVhD8V7VTktQpVf1Sccms/Ksi8JjTujjVRSfrKLyqI3G3RLRm2gu5eLQJqiSbq1NO2mBqIE2SFXLbcrFkVlX/ZL+VgVaRGkiW5joHGxT0bbUZ6eE8BYV5rAntZUBquMKh7KDLH+DjpaULXeb93mvDvXEV6VdlAqpbgfqVq4uLskbclKcfJBgO4HlbBCLSQ9c5NQ6f0k64OXw8Xvqh3aHtDOU49AZkorl6xzJIwVT1PVPK1iA2uqm+Zuh0lxemsBHIwN4o+88fnzqAn5yuh9vnCFCnCZCnOzne5fwozOX8GNygjfsWIlBU4r3hwfxwcggjo8O4sTYAE5x0tVE6MKcJn4Ul+hNXeYYWBq1DlCj7imM+WaopFRckswZKu08kUymbZncR+mj2on3NIJEQHqjRIqIZSxmrLesel5rpMmn0lyBWY48eYdMh8yJU8Ok4RSUKl9EPTfUij73uIvK6010/+oAa39zA+1fHqD0YhPJOy1ErtURuc7Vf7PpnA18p4nkXY06YtfVxE05JkQrTpjStJTra4UgmymENhKWF1Kn07BOs7P+oAgd6W1nN5HMq5jMFIxUQOivM01UnKuTWiNUtjl6gv3kdWdmJ22BDvoXsFilN3e4h5u/r5Y+eSqXSstVY6o2FkUrD9AZKKqv0D0pT0WtDDNEObXBj1ma2mGqmg0nk1Rtg7SfGyTXC9NpixN1M7RGymRSQrY4M/VDCqYDSrWr9n9MwebidPfp+c3T/R9cnsCZqWH0jV/GhYnLuDg9iEuzwxhYGMPw8hRG3DNUDAcdpvl/c2kqRcFjCuGlMuhEMj8JY3CNpoN8KUPozd7g5N8uoHCPvOF+EWUKvvqgZKNyj8K7U0Cef5OTohDyrcOMGqXsc/VpXFHnqjKCu2UE9qocNfj46t0p2/Bsl+DdLv7eKPC9HDxc+b7tLPwaatS+QbPQS1jbbJVRKT2koMm4xYnjpAVpItx8BjvGrRFBoJtwKhKJBMouVYcapZeoECZ5o2rnu5SfEb10LPp19UTiM1AB6jedrKsO+deXR5iQUqipnp39QlOYJcfVwWHKixGZ9lJ+52cm8JOP+vCT42fwHk17HxfndI4TT1SqPG3bcQB2NozKWC1Nj4pF5FK1uR3uf6AGEOpkQQTjgpDyK8lKjbPUNUeFz2o3rqEFEeSCUEnE2pOa9UVvXEuacqlfns6WSX9Vq/bdFMydX4abZnGZJnE+vQQ/zUj3k1Xs/+0+ej9fpQBLNAM0GySFahdZfqg0FNl8IgURI626fcKtNVTQmTR8kPBuAer/FOTQ0QTeTY0CvBsFuDmW1/I2VvS6moOLfMBFXrBCrrCi18Ohzv12REs3bs1nfFReDSmxRmA1SWVxjjjwrznHHRwN/Wy8Qy1LNKyDf86GmtbrPAq3rm1Hu+StxZzam+gUFJ2No0Y6MinKxC1ygnVygB2XsJk289P8bAsbf30V7Z/vOKW3O3yfqFongra5oBriXvQiS5w0G/KaFZYQghEdhF56jdFErhS9GAsu4NzchCXe63U0QA5cj1ojidyjFjL3qDCUsxBJTXf0vQoArCsShxRH51Fo0WgxCLXVT0HNF6V8SsNWmrc1yNcrfy4S3Zt6FjoP+e0kouTEAS85+cocouEvG01/NwULkHCLUEZa9MAyLniqIZQeKbl1l2ajg6VmCvOVONztLFY6WSx1M1jqZeDSoBIsd5M23KtpeDmxR8OOqOHk66iZAM3bUdMLVX/5iHA+mj1VyvsOFUidI9Wg32NK5ZzcYoPX9nSckw7sJJfDz9Hf6DSXFR0hQSWRYugzvxz6mQoh5LKjbrjqg0QgG0Q3FSJoJSt3VAgQ3NZJC2rKQeXi31ovfJJi7wYVkvzHjpMgeijtqPKiS2/sCrb+8SZN7T4XoYMuatxdp5fXJHpZr5sDBTHJrcjBFONSWz31vinQLArZFNx00XEYp3c7GHGjz7OIj2bHcXx6DBd8dCzqdJqUTPyQpo/IpJQqS9QTB1N2o36mwslMqnRaTWrVKK36tInKY6cln0ysFMsZ6mdI7kZl1IFPKSpf7gYVTXm2NOW5zDLSM+NIj48g45r8fhQsSBdfXoxOnvErG5pmTglz5ecdO4DJRyj1rSesoMHO6KCQVSSvVyGHTaYUihMqNNBhKTaIED4NIone9+iVyqDcsqCUqBnDfJncoxrGio6zWEtCx1lIedTLX+ckOQjDaxNZZOZUaadJlhIIuTydqJ18v1wPWa26NZ+0MkWtWKeJiBp+2IFQXMXWGEkrWTUImhT+TkKX0liEXocT0HQmr9NsHhCN9Xf8X2syeUOJhJw4msXOz8nhvtiiZ7dGftS1fmU1Ev8GPb76nSKVi17jvjIaaRbpdVsGJJVKZzEVOJSALfKvzoDDnMjj/Zfwbt8FvHueHi/Hh5f7cYYcdiLlMn5VpMLkqWTiWaqTkDm2FohqJaFkbcpDnWrUmLxMvtZ42UX1mZOsqIZQegYtAOv5yGHIRsX01MJYIPdVX90CF0OaIOMmD1+eHEFoZfp7QjC6pSr+UiPLAD/ASxfc0k2ftE3YhhZEkcCGznnSCReHCEGF0YFaMmEaUjDHVFEZNFSqRFTQq/7eozNXlIYvj+h6nVyqTJNI/kEU0+SrIUrpfo0wL+6lUk1yDSqLSgKMRHNIKBkKLK3VSIHq7DzVW6jTgg6bSF6tknuo61XTzpdK3lRvIo4bHLeJMvdI2DXuqGlojaNq36dE5PXeTSoWzYa8LpkU65S6z3s49NRCW0k7j6H0kBP4fIvmc4OmU11ryoYQJXUHJLds0iutkseUya+kTGrYoPoJBYULxr2IbtdSVkA4F5zGpckB9I1dxunRyzhFJ+v0OB2kxSnMZH1UDvLWx23o9DQzb1oUlIG+1+Kw0gnKQOUO6pGi4hw5NmqEfMS5NHTfRz1O7Dn1v4q5VVYQ5byrLVJpLYpqbgm1+CzqyfnvR8F8VY/1BND2hGJX6leixnfyXJThqvP5pEwq1VKb2KPuYQ7P4ntaQYcQLTi2sxD4EMqGFYdR8ymtHKGHauF0ioicgTBfdeSmnblFZS4RAbIPiJq3yXeoFLGDisPhaJ5UxGPH35HPBaigISpTiIINke85jZ51b/o9FdrMssyijsiTGaT5k/LzOex8G3pPUnSf7oOvQlShof0Pv7fn5cJRhYK4m0pshdh2ZBV/p0WkagU1BhSXUc8FfS+CXXuogp8qST5NpaL1NIMqShLfkllUDFGopniYAq7aikrwPlz5APpdczg2OIx3Lw3g+NgoLizPEuFDxsG02O0oUX6WLIfV4Sj+RQujz1U3IYUn1OhVLX+rz+iAqNxNB7iR8FvaNYcO+VAPU3WeTBAZlaHcedqw3HMVnXcfFrH2soG1V010n9a+HwXz0kXN0ERqOydAyPY0g1wtFbQ+pTv/XK2QqCz08NTlJ3eHq4QIo95SWcJxlg+f4crRajGPb1+9S8ucADW4Icmnhxeg9+fn8NDD85Ds+7aokFQMoaMePH6zZp7fUjsJVzNq3d6shRSVV3WIy/UwlunVrbSjDk+jOfW0Yl8OkX8/kdAvbkZOJuUQ0pWJJlU6JOp5JSUUyRcK23FdaozGRaKCdp39eNR3Vf3jtUj0N6ZcRC3HxSfP4bDOJ/xb5d7rRCx1dVKxQfya4mMtNJ+3sfaigc1HJfMi1Z1XZ6LNUcbTWQ+WVb27QQTTFhIRrEDSH614MeOdwRkdEfthH9441od3z/Tj3NS47QOnqQw6XbT8hAueihwmZVEyQYwLSmZbG+/W456KVOTflHgPxYfNQ09SBVwy+c5I0ftVb3yn0VEOOS78Kq9f5/yqoELxwOrdgqXBV78q6/tuCuYpuS0arzhNmMLwNCNckVQimo34tSp8VAqdFem4+iLT4kScSJk+ooRPpN2IvGMi1T1FQ8LXEJn39hwvUArh6/D3NKGaYFMiosIKOdQKuZQavVVJTnf/aotjk2S1YTGb5WYcrhodjRY5GRVIJlcOgOMtquunlEbD6UalI8sCfIYAeVSAymxnMZGn2O/4d+pyrOGQfXE6IRIFzwmL6H/0d0JAmUUqVZCT6fSD5BD/5PV0X4qLqf5KJd2qM5CCbb1yzo9r30gb5xIF0WEMg55ZTMcWEWr6iVxx66uhc31danZZoaO1S5P6qIzGiyo6nzawrkOvfr2J8rMuUYxcikoRo5eqkxcVQFXvM7MKsh4car+qWoriAx06Ki9SSOWYenFN8TWzJvy/CN+T6c9fyaDBUaF51DaRGgdYwxNtb137ssvVdyT5fECdY57myor2onZups54s2aUgmStFN5YmRBdpodSuEVuozp5eVtUKp11Z54NUUyEWitcE6lXcZksTWCWXlaMApDXqI5aHh1y2qZpaMTtRDIdCb5UjZgXWaBLvvn3V7Hxj9dQeLZKbpencpHMUwndVH6dj6fTZI33UeEDnGgpkNApQHMqsynOpIMa7IBUmkknVkSkolI7zV6+PqQ8AToI/i2aQCkWh/5PbWYtIMkFok6nISp2WAhMUy2ldOJRNFeUkzhkh0iz9aIFBVplIhWR99eDWMpQiZIrCJS9FmRVowQNmU+r5+dneIn27t0mljcbcK/XeV9Nom+byNXiQqtTacgNKV9tASVID3Qul53goaM69Z44GFFLrWqlYCrRd3rKOcM8SC4ezZ1QOk4ZhRp0jNI+RIt+AkwCtXvql6eO/jkrFaN+fHcFUxws1vFZJ33la3npjemGVE4qT0w8K/ewhe6vd+ma76Lx2Rq9qapNiuJCmiArO+Wr9a3TKpfZ2dR7HBSAJtbHle8m4tgpujRzy/QiXfUIFqhc85UoRwSL/FkHx4predez/F2U5oUTxFcppP5vpUVzySGnwSOvk0qmuJU8SOuBYAoi5aB5433oGL0Y70tmU4qgrv1HuwEq9cpzEooUeJlcpnqvghoRoE4UrT/hoMJ0Plu3jeOd313B9q+3sUHqsPa8js1XDVz5ooPbv9vEg3+3h4f/dAUP/vEKrv9yzY4MLZN3pSnTDCeurr8nIq//Yg1Ncht1+SldiVkj10AlgNn4Ci575nFmYYpjEpfcMxiPL1mTeylG9j6VjU6LecZ8DvN+ueiTpCtqdy5kk9Lk79XpgFDBSPbVvEzOwJcKJnIvbsyFrgoxNTiMr8aQIHqm6wGibQJpjkg3Yi3YtelN/fjuCracWbaj03V2qo8Tp7hUiqtBK1LeiCLGX3qGnHQFJM28cNKsqT7RQSdlCk2kRBo6SFIT713XK71NEuhlcqtFKskizZ2dr1gNYa7sN/PgKvswT44yEnGR3C7g7OwsTk5O4sTUGM57ZjBbDtIMZpCksmfoXOS5Covkf1UKWIHN2p0iKjQP1UdtO3O78zEn+dNVbPxiHVu/2cHOb3dwhRN867ebePgP23jyT3t4RIV4+B8O8PR/uI6P/9MtfP6fb+OL//k2fv4/3cCr/34Pt37VwcaDHLlUEmt3c1h7kEf7Js0JFUbHDuo0va1nRVz/vIpbHDc/LuPaswJ27qfRu0GluhpHnWZQXKtE85cljciQO6lI0+qmlUqkRE4dqs6hLSQVntcONCJ0CCJI7yaJYlzsJOequ1TsKrab5mJxFoziYSEuYDlc4oGiNUVaAJ0Uk72n8kCFV47CMI5V0hDqCn2rD+vY+mINW6/pDPDztXX30cQolXwaU5wP6sd3VzBXdgme0jLC5AZJ20/jjXMidRC6h5PqppLoBGa/TMaeiuK5+q+TIN7I2VZD8UYBBa4KdWbSZmuWD6S9wCydAx1yWaJHaqeM0kGoUVhVdfvlKHA1Za6qI0GDf1czQj8cXKBSDVti3YnpETt2URvfx0eHcZFe1Zx68VDIHZqh67/ZwMN/v4cn/7xvKLJNRFl/VMDmgyzW7zrpQzWS6dpeHBV6bgp0qqFlS/uEzyvWA3HzSQ7rD/gelUiZDOoOFekQNeiuy9tTW636deVtxZBSBS8nQd9b9a6uTU+wzu/VEa9GXlWn2WtwNPm7Jk2kFExnxylMYe3srzjDCbwm7FpqjKRMisx2AolNOjjydGmStVOhwln1/ndIu05ddcIS2sBWfOvoCMjIHpWO8lezAZWZF4hk6rRsp4IdNjiQN6qogBROuy5C8tJB1s6903PECDCT0QWcnxnBgGsCS18dGfndFGwl60Kg4EK67adAsuiRWG/o7Myft3HlV11c/3UX+zQF66/aaD2mN3O3QQWi93e1ZvuD7vUiTWWBylKi6Wjj7u+28fI/HuDFPxMh/nYH9/56h+/t4v7f7eHxP+rIyl08+NsNIkQLuy/5P4+0f0chcWLHwlSwiSG8N3CJiqVsisv4cPgy3qeSvXu5H+/2X8Sp8cuYiswYWVbr7FiLZmg1jDwVQAdOzNNjm0yrBY8HS3kfFjimyH+G/XO4uDCOc9OjGFmZtgO26iS0a/eKVCKa9FYQk/FFDEcWrKWrmtj17max+Thvh0/UVKzLoX6VnXsZG+3bKSIZlYvmTi0walQencFQV7NPDk2emsNYM2OhGZXO+osoa2KfDg2JdJX3oHjUcHAOb1+6hJ+cPm9nKJydHcM8ET5DZWl8so7Ks7YReQskk3tZnwIqydEmtrxENYgvks4oFJG6rXiX+BZNoswiSb5QTPEz+x+iWJ7fN+8oG5ceNBU+1gkgSmums7ekdNSP765gAQo61vJBveVaXPnbHxPu/3od9/5hj9ziCpViH4//YReP/24dD37Twa3Path9WiTPIFLcS2PzTgKdqwogirymsE10uPmrJq5+UccaTUabiKJemBUKWvnl6gjhnFCkHixhROm5+qp+2zgfCkxTsMP4aHzAxvHJQXw05Zwj+MHIAN6l0h0bHkDfzBgGXVMYXp7EuG8KnuIyomtBLJY8OL80ZadXjnHCpmMLGPLO4KJrEv18//z8JE5PjqKfK9RT96B+N4XNF+qnkrVj9RaKIXLBMM1xHAWiV5tK1ONQm12dV6jsCHV1VAdZdWRs3iJKKSX7inqsULH4aghGpWvyfXUjUmm+2oYoz15pyBrWTJCKpYb6amqjPUpP3o1xzzSGF8cxtjKFmagLXvLUzM0qyo87pjzOVpGCv4eeoXYotNtAhbH9RvXzu1NGUcf1KUxBHmb8S4HWo8Gfxd2S12hu6XBFU7QKhYBtxtcpBzU3VD8ZxcWoH99dwYJVKZiKIwjdB06BgTo0qgRf+fDp3SBy5AWmHDeo9TQz6f0k4uQPUf5PZJ1w3g5DZxTOpl2YUSZpxo0pvo4nlzBGVBghKsj8DYcWMEYYnojPYzw2SyWYwSgVZNQ7gRHPBAZWJnCOKHOSMH18YhAfjg04x6BynODPJyaHzISe4uvFuWFM+KfhLbiRUrLjahSTapgxOEzUG8aAbw5DwXmcnhnHibERXJifsny1MxNj6Kei+as+qF36OnmUjoHQ8ymtusAVX71TgRrR6vAkpXDrGFVlptpRqhpUGh3QKyVqkWu1af46HG1+r1Z5dnAA5SSTLA4mj/Goo4iyW4+6mautgQ7FVKuFLD87vU+euZmwTiuxXggJcjUds6oUHIUdtOVztFeqYLeojONckbpQ6bKkGsX7LZpJ0g4qmbqlCLlE6BOKZ/JnndhluWFUtAwpUb5F5eIiLxNR63ROOk/K6KlrysMv271/RwRTI9iG3xLgrAhh1+lN4616MJNawGBoBpdDcxiMLuJSZAkXgovo883jrHsWZ1ZmcGppBifo/XxISH+f3Ol9Isy7l/oJ8xfw5pk+vHn6DH524jR+8sFH+Mt3PsRfvv0B3jh+Eh8N9WOASjUdn8NMjArn5+dw9Z6ZHLHjYj8adw4l1kmoqhsQkp3Ulsr0INFrjCt8Dm4qtdKL08oQpfvvJoKNhdWdbh6+w038QMWDoBrdEv6VZZpbI1pvkA5QGdRcTac+S3HMrFFJWlSA1qES1flznWZPXEpopCFOphCEDb6voY1tM4FKi9YCJT+tWNNyKhnN4FHzcuuQLCTjUGMn8Tjl56tjqKq3lBAZ4PMEWmrYGaQXTE5Mcq9zfpXBIbQyL50KpfiWficFVJMnHfSu/Ufbh6QHXLhHJ42mT1F+S+Phz9pukrLaZje5W5XceP1FDauP1dyT90gA6Wgn4nEVLSob9eO7K1ioRgWr+5CS3SVsK+F/ilzoOHnPT4+fwg/ffB8/evNdvPHu+3jjnffx07fewxsafP9nbx7j6zH87O0P8c4Hp3Ds1DkcP38JJ4eGcXZ6Av0k5gM+odYyZrJeLNFzXKanulgl36HCDi7Q1FF5RhfHMLY8gaFFIhgR5yN6j6qiOcFxUog1NYizc6odGMU4FV5ZtyEiUKTut6GUF3lkpT2nC4yQ4qtiCzVV4WRf4/eccJ3norOL27fzRKOcBRSlIGp0J7O/+jCPrjr7qWcbzYQOmRCpVy6XnZ2nTWxeX0Pfi0spE1WK5HSKVsrO4eDn6Gfl5qu5lf7GkIv/qwY0UjIVqKTWYgjUApZwuUDk15nwSriMbPEz6BFWXnRQeNggnyoaqY9fyVq4QUmV8vgVA1P+V/FhG9WnHfMkdYC+Gtmk6DUeDbVokxepxMUECb6OV2nQiShrI5xORYL34bRH4nOQN1I/vruCSbl07nKSkKwVpYqf2dQKBtxzGKFZU/jAVfHDxQd2NwLwcYWFiHZxKqLy0JVVmpUnSVJZpFuswoQSvRnljSkSX33esq2OihyEx21UnnRQfdSkKcpbDV645rE6Rl95mcKdI6oNE6n6cGzkDI6NXqCJG8Zl9yQmQrOYjy/Am1tBrB4gvEfM05Pp0eax+J9y3+uaZE6odbGm06JOsVlOSoaeVmaPpogKked96yRfdXFVDUGIzx7k8HeIgvUwlspBq9ZxkY8FOkTHbfW007EJas2m3HnRCSGRuJWjXGoeKGXUsMMhqcimWFRq/Y2abx0NU1DesxRTVU8JmirVLyzSuZgnvdARC75GEIld3iuRp0TZaS9RcTBtV1kgWQSfQwFtmUt5hkqVLj2RiTzcKpIpvHa4TcTvlc6jEb8pz7KIAs1klcpVoPcap8OkekiZbHUD16B+fA8KRhscpimJK5q/Thd9NWSVOuF1wv/LFq78u31s/fWu5Z+XpBwvV1F9tYbKq1XUP9tA+xfb6HA0P91A/bV+10X5GUmpDj9Ty0yuLO2BaSsmcqCsgyrytxq09w16rFXCc4kTkUOIEzmeCqIvkkBfuoDzqQwu+r0Y9s5hMUHEqgW5CCJGiMVrdGai9ZB/VESLaOP0DCRh5mSqYXWeE6l26opQ60TQEaLyR0TEty9fxpsXL+JnHG9dvoR3By7jPXmoF87hnbNn8PbpU3jn1Am8ffJDvH/2I5yfuoS55KJVNhVp+ux0GK5uhR0sz15xMZlBoaFWvg2iFpHL9vfk1HAR6O/UQzC3z/8xROTYpgnciNmh4j4u4sXMMuZTi1CTWp0vop0EpU7lH7XNRCrLRDsMymRVv2tLfyYHi9BsOh2KSe4PI/mGVDSP2k3R4XpmKhUPU4iCv1NYI8LFFEy4EKKDpdBMjhxcCKvWVqIN1I/vrmBW4sVV4+LqiXb95F8qA/PBo1PwCMn1lzphqoGQMhrWFFzVKXo5+LQHuCmXmV7KfokPyve38vBvKWqvRD1ljTrDy/8LaGuFK04rR02+dRS1TlZu0FQJZTytJAZicRxfSeK4N4Mz4QwG4nHMFehp0nyX9qhYN8h3OIGNezk0qWDqeqeTbTSZ6gWm4zJyXIGKKan9qYpJVRrmq/jI8eZwYWoE58jv9HpxdpzEf9KKVC6RT47Ra5sv+uCi0F3NiJnylTYRrUFkI2LG2o4ZVlxL58ApHCFHqEhEU0qOQg5CT4VcDMlI5G1PT9yGJthiYVQ0K+Dl3ytV2smqUKU5F7MG+Z6qyFX7maGHnVKA9g4XJJVGxwvJa1SQ1HLC6DnGqXAKNyhoqnQh8TDxLDukT4pFOTvjq0i+tgHVgD1GVE/SLKarAaRqfjv/RNXk8vi/Vy9yOjKPSbr0KtEPNmguiWTq5LeoVvqKPsuO84aVEqNh0Kxgn1xl3qwgV/CdopejG1f6iiDckvVEJvlwCgpGOfQqL6YgL+1BxRrYKWSxUvFiiB7myblJvDs0gPcHLuIUvcYB97R1/lPPSR0FsvoojxYRRCeY1alUMoV2uIOR5zRNDk2fSvL59zrgQds0ESqnajzDFGaGHlX9aQu9z9fQ/bSH8qOaTZry7GVClGNfIUIXHnetv2/pSQ9NkubVFy0iZtE4nnLpVSQsztZR4/WjQaXS0eM6YcPOateQIsp8EsUUAzsa5jTwd0ILmekYPceIPHKiiNNyIUKyH+V7TmvbwsOWvUqxLF1HwXDJl3Nh3++pEIUmT+EJmkcppWJetk3E+bAh5aJpTJLwWwbsbgZlOgEdOgRqlKyGhFqgnSdV2wrrPv6yq/R3U7CVzCJcNAHLGUIlTWOIK9VF72wx70VoLYEsb0gFEuoUrW0J29Cmoml/UY1EddNSQLnCTglVniinoS0lbSGloHRmr3LKdklM7ylnqYvOyzbaD8gbOGHunAujbhJ8knl5lx8NXcbZiSEMkfirXkAudI9/2zVTSH6juJSQjFzHApnGd+S5HRLyrTAyRGIdtpNs+6znQkDJdVSmDM18+ZMNFGnik1wYOrjDkiU3VQ5GdNDGOO9ZJ6FEyU3Kd+hpvWphQxXSd6hkCi1QcZ1DiNQS3IkbNXgPcpIqRNAjR0MeooZ9b/8X54KiV0oTq+Ng5CSo1vL8yiw9ZZX1jeK9UXrRMxOkB/NYIpoq5UbHHztFH5S5snYpWwVLlTZ9lK2rdKM8LY3Dv5wQhR3ITcVyhrNdpKHjb8LbpBC38ujRg+zQk9bWlfqONLnoV5/W0KOiUT++u4KFCP/Kyw+S6Cs8Ee8SwWgulwpEsDWuMK5swa3MnlJ2nJwoxWGUmkxEOsxFEgJolViKLj0cs/sWd+HKOVAOldxrZWZUUaGX03pSN1Onc/Mj5EgzMRfOzkzinf5BItgQLsxOYpbeZ6wTpTLliF5Fm0zHw6FiGYpxSNHu8D0qWp4Io3iYWm9GaM68nbDVRE6RZwiRAz1+FjmMlEgb4RE+jx0KwGfShKlgxQ6EI1eMkzeq1K1K7637rM7PL1kLYgu2Ejml4ApJ6CgbDZ1bqyxVkXdTJDoERwp1xMFUUZTjENrKrKsnxRL51qW5UXxIPvjG6Qv4yYnzeEeR/KlRet4eQyYtyKIOKpdsqVDa2LY9RnEsWQgilOSvLSWlTCt/Xwpn20PXNJwIvs4g0RAQKBsmSzlUOZd1Ojxm+vlMPbWIf1G3Qf347goWbdF8NPzWtjjDlZ8k0XeX1ODEb2nK2t9SoaYOgXJO+KNpPBwyiWkSeW1n6Ch+oVmcCqUhHiDXuvJUD+3wAglCHEDHkeWphFmuGvXsD/Ie5ugdDpAn9S1MWTR+2EuvMbZEch8gWeek3ivQTBEppFicZMWadEieCLWzFUP0upG3rM7mr3bR+/c3UfxiE569DJa6UTuLSStcSq88LkXEE0Rj3Y94imJDlnNlCqZ9vhIVjKacq3nzkzq2Pq5ae3r11A73QtbVZzHvxiwJ8jzJuYdmPr7u5NWJY4nEqzeGvVLZ7OwkDlXFl0T4+X6KDosckNmkC31Erbcv0gE514/3B4dxdn4GM/mgKU7tZY/I1DZPUXldymRVRospGJ9Bm+BCrNKDOp9fR0ByzqiEQi0teu1ZHuXwi49Zug4XVajGz08HkKWDtf68hP1fNLDzScMaF29yUD++u4JF2lQkKliEk6xi0BTJpQ5idxmCJZ2VwAcRSVcGaFhmUN4Mvxc8S6mkPIJjPax29mUiRfh9GpbFqve0vaFosrOjn+b/6uggbUI3b9KE7JN/VLRdQgWbHMapkSGcorm4TGVTpbkUXwghb1ErTXEl6/1AmNfPaiyi0ESOKzR9Q8mSHSJSneaO90lTnbpaRuaGzkwomtcl70v5VEcnzCrl25kATgQXgs6KETVoPGpgmyZSvcK1wzGfcuGD4SE7QvztiwM4NjCKD4YmcGFhHp6CzxRInEuxLnXYt4YsVCY951H3HFNAhTvoJOhkNFXX+4orWIzNYSk6i+XUArxlN000f09eVX3eI7dqWcwrZpxLdET3Tg4m9OV8COny95UP1rCF4aAclUlDysahxaQIfozf24FBvSjyzQAa21FrFr/1WRPrLxtYfV7D+ovvyURGyE8i/JAYX3XATbRDDkYTuUAEU866g0pEMGV/cmJk6qyaaJ3fk28JhsUTBNVWHCETqkGUCO+kSErJZ8gblEka3NEEEsppVpsPSSZf6EB9TiJRKFIPYoxc5PTwIE6PDODi3DhG3HNEsRWE6bLnLFGP5JhmUSgm1BK5V/xJHo96QGiCz4xP4o2zw/hp/zjeHJzCu5cncWp8HuORIHw9lZ2R0JJXpW+Rlxwqk71ySMmOhky8um83iL49tRK4Q+RYj8CvtlWpJXjIDYOkFlEiULIbRnZNWRYK7sqbdEh+lZ6ms8EtxdIguu1FLT9fKTtSvCp5WOdWGuvKAnmQQYf/W+WEp9ciSFB2ad6HgqZKJhTKqjZAhTIhcijxXmczW/l72rNs02LQQaFFUTdvgYNtC3Gh6FWop41wKWScyN58WMHOpx2sEaWze2nkrmTsex0Ssv26+f0oWIJwH+lQyTgUA9Or+n/NF7zwr8Y5Ic4EqE7QOWPfUTQrEeONCqa1YgTHlkvP3zvoQDea/2dR46sO2plnyVWneIzSeBr3SsadrOqGXlXzAUknV5IOklx9WsTqkwK6D52jF7QHKP4j89ggf9GE65RPhSnkWcqbVLLcRNyFC64ZnFuYRP/KjHmn04qMUxEiNFmKgps5JEKpUNhezZR8fTikmMSZ91m1+8xamCG/E7HttAwVJUX0ydAkluQtKttCCMu/UchBaGdKRuVSQxOFWUqHKKaCW5lTtWr3qx17JYSZjMdCJSPhRWsCo+8X+L7kpVpH1Quo5CxkGbrkv0TihHLtKX/liikGVnmiSH7bvEnVIoizGRoLoTmccAXnaVccTOlWJTTvlsm/SBeoB0od0rE72j5a+744mHW2I7HXSG+EDMXcZS8WSyTF60mudHmRRUMuO3iTEC2Cb+XqvGkFAhVBFjKoEEFBQP2N+IIFWe/Q++FrhKZIZjXBSS2Qt8n0yCVuk+hbTImTVVLfL05GxVx8TpgQihOlKL2yD4QOOm9XCqWhMIXCFVIyRcv9RLph9yw90DGcmZxAHz2zvqkJXF6chto4edsxW70JLhrltisWZEUdFLidKb5/pHSiBVzVd+qoET06D6po3eKz0nHQpv4F8sPjM6M4PqYeHKMY8i0YZ1W7KSGWTt6qXnf6nSkGpliXla9p8Ht5oXJGPCUvpkOzuDg7imOXLuGnJ/rwow9O483TfTg5Omz9xpRIqFpMFffq3pUKbqgledPMHTlPUh6VrDmn4pcNhRUyssF5MhogbslFH+Uii+6nkeGCL1FRy5zPAs2xTLb2JO38PKIZ9eN7ULC1MGJc3QmaRpVZaSiP3MXVE9rIGPRqH0vhBxVpiLOEaf9DQiOugAwfPKeSKq0MTpJCEVphAcJ7YCNuTUEUT1MJmUynTo0u8po6FbZLF7l9nybvMHZkXuHdgp3TWRPXohLV6SEeBS6tY6FeLTzheHHKglB7SXXlU06TbXyrgGHDGXFOengtCj/RTSVzUig7uZor3yaBzxLRs/GeIzQb2uvTxCkyrr2+Oknz+sctrmgiBAUfboWsKd18NoCVBp9rNWU9vbLrAVSIanoWBWJNsYTMMo2SKydP7QP0s9o6qZRNZ2zJzM7FFnFhfhzvDgzgzQuX8N7gIJ2daUsX1wKvPdf+ojapZSEUxafnS/mb4ihcwSFLIv5VpBcpJ0Ap1VKmLxHs0DGzwbmyYpE2zTAtVabmtxhimXxWux9KhlRYhfrx3RVMiGVtKdUMjoJQL1ZPxY8lIZg4mCaCUGsmUuSYK0jBPpV1SeE0WXo4rS6tJsd8cvB7FYQoP9/hb0I95cVTKW+QL1DJWneLaJlXSHPCoeNRLEJPTuVE6UngiVCWjaDtmMMhQu90DHT2+lQJI9ffznGmQlaJihWhGk2WCorNHJHQKoYkrqj7FW+x+sCbnCQigo/35+6qMkroy2eSd0wEKxERGuQqDXqxpshEICmPGu91eb+r93N2ZlfPzrqhp6tcMZpLGzf5TNedBETxsYoNxcRkatVlJ4xEi7KmF3lhdgIfDAwSuQZxaWEcE+EFuBtUQiJp4UkP2fstylg9v1LGf8VptWC/JPlcDIr4K5xh2awyh0IsowPOOIrmi64oDqYN7ox2KAguGXJCbbPZfi6dpRplS/34PkxkEDGax0QviBy9SO1HqgGwq0wvkmRSRbRazVbVzaGT5pzSL5pCPrC8QsXCtLq0jRHapDJxWLMR/mybsfw7/a1WlFxoFajq/FeRdfEv1Q/KnS9fo7JRqZpEMQ0pWI1mUN6j1RJyco66BVr6CydcplHopai4iL6cgDb/t00FFeopHqVN3IDVGxBNZebNXIgbKo5HDqkQCyfITJDe5/faodDWS4OIsPa8ZWde6wh758AjeopEKh1fr2O5eo84yBW7XBw6k1sHiutsRiUmKgtWi+coxUd0QITfWjeRi6n9Z3Uvgjq96KalCxH5+HfqMhkh+isb1XZKaPZkHkP0vKPq9EheqzQdPYPqTOUZ5h7Si3xEBDt0uhwO7KCYOTOH3NKqrDaTKFwTvy2jeT1HBCafpJlU9kmDC19ZINSP74Pkh22jO7UeJIxHLAquvcjFMl1nTogeQLEUC65yWBEqbb7qAwXPyprUA2lijv5Gw8r+RfiFXBwqdg3vagVVaSLrNH8VM306U0j7YMpw1T5Y97Gzga1z3WwQOZRi0+CKsqxSRfEtmq+wxFemMbdHgSmSTpgX2thZcPy94k9qURkgoQ7QadGqV0MRZRjIdddmsJ7PhE/kUmM3bcwLOXJ3G2g8a2P1VRvdZzoFLO/sI1IxZOoa2i4iWiq9R1xS6KXsVx2ep814ZcS2lFYtJONQNqyeQQvF6StL5VKL0Vs6bVpH04bhUbgitYCF9JKd1CrZlh51uDAbZgolV8vnIjfTaddCMBWCZG4UUKEZVZW88vhNsQ5N41FIQ88oi+OYzCxyVN7qzSIXdwrhRsB4uDI9tHAVp6N+fHcF0/GOUcJkkqvcuimTZOtkRLXHDq6S5PMmlGob3MgTmZztIm2vBLStwt+pOlvHsznxJUeZvhxCNA0KRdXTdiw40a76gG7/A5odeWb0qrS/p9QbmT0lumlvrHHoJWo7xg6J59Ax4fpZQxzMIudEQGv5TbOjhEnlVmW29B5/R1TTAawRPqO/yUGTYAFWLRqZDfGR3yf3mhSZTZpMBWSz9CAr92jKea/yWsu8piLzZWW4av9RynU/T+Sigt3mfRk3dBaB0KtFNDs6ZVZ/2yan1Ll77TsKZagBsOhIACOBResI+d7IKD6YnsaZlSXrJbtYoxm9y89/3UXtKZGJ9yXuZcjL+7Oj68i1FFQtUKaNV6tofbyGEr1O7cAIndUGQl6mEDAtOmNKxkVFtI53ie5VmkjKpkyFN3TlAtKOg/gr9eP7IflxuqjqsyroVwBQTXWXyMOCG0oXqZKnKNDq8CoroeckiRRrlWhbQhAuSJYyWX3i4QhvHI6jOkUqZ5KTmiHa5S1XS+hDt52fqa7L4ltNusnGvThhDU6IuJjTjpw87cvhkP0qUUEZFjYOg5s5ktMcr5snmimzQqQ/TBKuTomqXNLGdlShCYvey3TQdJOTqPuMmqhE6aRE96SAFeSItI0nNJEf14lgJVSp4NpMz+mcAP69KnPM1HJkDjL2+Zqk5k0O5exLwcTJ+L3anDuD7/M62uxW/zDFwrI0TRlOqFoJ6D15ztqnzNAMykNXsztxMO39ulUbWqfJJ31JHKjCizSFHnFe1ONZC/UXClNULX6m3q0ZKpMpFl9NyYiISv0R7VHsMZpYQq7sQ/sGlf8B0YzyS+oc/rUvj4H/bgom8yTeJT4gEqqtDnc1gIViwEh+RgfianuFE6Mwg1a90zuC3xMFlPNlCEZlUzcaM40yo/y9KaMGV52GlFAIVqTS6ijlCifL+sbTVAg95X21hFSHKGCmxrxIh9jb4PdCCUMzmU4O8TRLkpMTQMU6Iv0ynQkKSy0R/ERpM5GH4RUzHaZQCldIUWRGaII4jvb7VBvaeORs/PYo/CZRJ7+twwo8iHbcyKz5UNkNoXUjiu6dBAdRjffW4j3Z/Rni8h6Nix0O84TJyThaXCC9u2lsPMxi+3EeW49zdBqUkaEIfwQpcq0cFULEXUPoutKKYoEOmFoxiMjn76p3WMOCrM1P1tB8rZZSLQMGRQBkLp1DOg8HFc/JaM2hQPNYv8OFQ1Ivs6/uP4rlaQHLq6R+fHcFU2ed7FbEwhNVEkwlw/nqAZJ8cjAqmKL4yoA0JZHiSInIrSLkVPGDsp29rb1ItQ44KsYVuRfahYRcHNbPwTaWC1xVFZqdGjrP6iTPVeNZUgptthpiPeRD00RWb2sUbL/RUR4HvTQxIvniCTKRlt9+aCId/qDNZ21Ck9/x/SQdlxD5l4qK1VhFnq8FUzk5UiRtdMf1HpXNkIyKpg3i9M26xcGKt1TPqbPC89h40cT6pxvofnYF7V/eQefvnmHt//IZNv+vn2Pjn+6j+3HXCVNcjVG50g4Po3KJ+AvJFMeTU6L8/Q7RbPNBBvtUrGsvirj+qoiDFwXsPM6iS26njXIVgRTuN5w4GBEsToqhQmgtCOOR2hLi/SWoKNquy/Fv8vd0TK7aM9HUi9gbSh96knpmjqiKQEjwS1S0JhdbkxxOp04rjdu24jgkP+rH92AiV0OEQ6eNtiZIPMZbPQpTxLmSdYMFBOkaa6glgBOyIDGUe8wVJh6mGjwFWkOKeXEi1TLJmsVxKBCoIS9Nnk/5fg2tJ1Syx87p09r8le3Xto/OF27ILFLZpHDO5vahSTTF0SRxIYi7cSifTMplee6cPOWCqfpJR4jriBQVzIaIYN5WyBqxyLQbSaZg1Z/BiDB/dmJKHJo8ToLtmRIBcuQwOkKmRA9VToRalU9lPLjgmcNJ1Q+MjZA/jWE0sIAIuYwQQMUkQl7xMONp9DA7D8QbM7xXWoUtndQdNcVfppmal8WohSzBMUBvLsy5iNBsJqlg2sCuWbpO3UxhkuZY3Y2Erup6nZIiUa65W3RsnpGvvayh8rCC/G1ySCqf2pxmaYUyN/hMVChtjIt/aX4WcgFMRZfgKXupVBmsPhOiUXZqoHfwPSGYMj61kZzaoAdJcyVS7FEBQolmhZxFGQdSsCOyHuUNioMp5iUvrCBCyZVu7ZP499o+0qpSpNxKrKRgpmSKm/F3RIcCJ67+oEb0KlN5OHEk+FqxinHJU1OowrIkOCyxkJOrYUjG4YQnOKhAyiHX6RgaWeXcc9hRKMZjEoiTSwiRVziJHpqXMJHU0Iv3blFuope2TqRklm6klU4epkYhed5n7XED3ZcNbLyUmSTXIeIvJxcwujSB/pkxK1SZD88iXHHTWYmY+TPTrnCFFEymXiELDpl9hTdyXMTKsh32zODkwGWcP3EWix+eQeDDs1j46BxmBgYRDLtQJVo1iF6ljzeQvN80y6CukUJiNZBZbiapmHEstlLwbZO83+kSzTpY7uQwW4pjvpbCUiuLZbU/7Wbh7XEONrjwaBYrtBKxtRCWMgvwllYs7NN9VKI5p+nUwuQioH58dwWz4104lFIiF1wK5yp5MZf38oboZcirUpiCD+dEu5VM6ARTtRdWfNKxjjgK3Dnl7jKdTvWwerLakLk0BOPqI+KpJ0LnGSfuKSeQCKY4mNp9KzuidZ8PqTCDoZgT0TfkOjSJznCqcpRnZflWNO82xOd4HfGHkniElEymhoiQoGcZpylQLrrSidSWPHJFSMzJIrJ92YGRJl380XYcHrSsIfLeL1ex+1mLipKHj4p6cXEa71wcwht9qjofwaXlOSwXfZbr1eS9ylMUeh15k3oVf9Rx+bon5cAVt8h9mx7E0gtIRWZQCk2h7B1HbmkUGd8UilUPOWYevdc99L7YQpemufOii87zNnqvutj8vIedL3rYet3ExrMa9j5p4s7v1nD/H9Zx66/auPp5HVc/5fiMg99f4dh/Xcfex2ra0sXuz7vmHRf2eE97SSqWwxW1VyqHT1aN+vHdFUyrSVmldsY1H1yusxRsNkcF6xDKlbB2Q/EWrnSRYu1/yRRSYUSMFTV2whSOI2BIp9+bp8kVczhE/kWirbEKr1eX+32vbNsviiLLkyxpu4iToaFNcOMDRDBxLstK0N7eNQ6igBFliy/xf+i11UjALWhLYakCSOVkCr466dRENv6sU+Ey5DGFG1RscpvO0zbWOVlbJMd7P1+j0Fex/XEHm+rz9bKNnU84EZ/y96/4d0+5KKhg+e0IgjU3VvILWMnNw5ufR7C0iHjTy9/R1ed9GXJZHExI5iRImoereJ0CypRzi57vKv9ujdfskgo4gVk6CRxKxRaHE2WokCtVuSB0wEOPirT1SQs7n3ew8bpNK1C1WOVIyo/BmAdT2QCWq7RArThc9Rim8yFMZv227RfoRDmfEbgaQTvUTBVMC9kVLOdXkCJNWuPnb5BnqvOitVrf/p4QTAKTJ6mA65HHZfV5Kp2SiVQQkiblaAtInqQFTolKUhhF8VUeFSGBt7bhRICgUnQOib3+x2nplDZzlLmlvPEWGkqB0QPJc+XEyETKI+zSbHYfVtGhq92+V6LgSfS5+rUBfjRU8+jEm2hCjJQ6k3gUeLW8fL6q2keZDuJsio63+PebTytc1U3c/nUXD7jiH//9Jp78wyYe/e0m7v9uHXd+u4obv+pxxbepbA2sKzeK3GadDsnG8zI2nuSx/ijDkcY6vb6Np3nrX7F2n2ReikGlb9Mz7JFzKbovJdO9Cr2sjpIKJr5ZVU8LPrvaDuh0fxuUgTIuNMnyqBt8blmVOOfFXfNiPueyoVM5XFk3psML1k//7cF+/OzSRbw7eNmq2M9NjNk4PUp+ODqMC9M05UtTGHJNYHh5nGZ9FJPucXhSs0i23ajuR9Al11URsraIVOGv9Gnqx3dXsOxaEImunwTVh3DDB7867vHmF/P8XgpGlJJb/1W6jqNo2ioSMVZJu9J1DNlkDr/0Gh3FMg6m/6XyaVNZJVWt502iR82UIk3eogzRsA6CMlMWJm9SdqgPGaW5UMhSoKM9voYNKheVUcPZCD/kZqqFJCHXKPF7/SyE1LaHsi/W6LFuPS1i50UZu6+q2P24xlHFzssytl+UrOPOFpVo80WFylTB2tMSVh8XnfI4G0UqjYYKUApYe+wM/Y34WZf32eW92SsXj4p3FWQVGsuBkrXQIQzKB6soWEs0rlOx1J1HCtUkcis1Sddae1LG6hPHCVIYyVd0YY5mdMY3iQUVH8fm4E7MYzk+h8XYDMc0XBxSmlBxEbGKC8n6MtL1FWSaK8h1vCitBVDZCqGyE0J1N4L6AU06rYFSofQ5NQ0qmkaV31M/vgcTSXIf6wUR7ATo1QQQaAS4Qpyc/ADhV70NjoKoGgpVyDwagpFT2V4kzWSUf2chCiqTIZ0UkKYxyr/T99rslpeWv10jtNdpBktm+4WgyqQVci7TuVjuxMwZUGAwfTVnAVNtr/Q4URpCBBFmJ6LPV/EcIoeUrELv5+iQT/E5oVtDoY7DghCFQ7SZq03y+k0Fc8n15FRQAe1vDQ1llrWDQOWw/dBDDigng9esCzUtviUzKIUQ51Lsi+jFxWC9K3RPvDe7HifK+BcRVEFlnWan4l3trToo5cTDFD/r8Npt/o8zeA+87zqRT2dNFrjwcgSDgg7ZkoIQddTRR7sg2oWxwlkOnX0kDmWtpshLFcBWFq1CI1qgHS607kMpv56fC1Aoz6GsFCmVRoXPqUH9+B5MJHmBQhTq0alMCvWoUNm6qxKgK5vgRDu78E77ScXB6B3qlZxK76uCWO2z5fJLoazTC119xZu0KS6ltMArvUt5aIrRFGgm8wd0rbmipRD1h0S1ZyTRz9rY+HwDB397FVf/4Rp2frWJ1ecNE7gdGciHb/F7kW29ShlqnAhnS4nmVqEE7UlyyNOUQhiykYPJ9Mg02aY5lUD/V6cSqRpJZXEKQ+h7ZXIo91+rWILXIZ1HQ01KdL8qRdNkOVF6Df4f//7LLS1TvizNvEy+TKUzoVJMVSOJSMtzlvlTouVR/WSNHLIqjkYF1FmY6kqtMIwVifA56lpYvFbjQRFlLo6cAqRS/tspVLnI5NjYToN4qBavTDKft0jlElXQc4vfitDbcxJlW7y/1n0uGl5bCmdDi4OKSP34HhCMD2pEnygiNNMJYG5rFUBU2yQxvqWN4TIJvBTLyYqw6DyHGpspiqxostJA5GU6jXX5eyqhNlQVG1M5mJRMgUK1dizQpJZvaXKJOBRQ/k4RtUfkOq9a5D5NXPmMZus1TdUrNeaoctLyJPkKUDrcS0IQnMsElmkOq1KW+wrM5h0B7zgkX+bRlJB/r+h+Qecn0WtMaeykSfgzyBEl1cagdLNAc+w008sf8DoKREr5OEr8Xq0GcvwfXVuooMCwpQrZOAr8ajjm2nFSnM8XKhgHI5JklQ1LdFHmgs6MNIeESqv4niZfaGwEn6NCJS5TRtqiUlslZc1Gu2FMRlw4OzuFUzPT5oxJhj2a8zZNt/7WQjjkoFpYvz+EVnIcRE10fxW+qmBZ96zfi7dqETnHZn9PHExxL5FInfEYXQsh1A1Ysas2u3V83NGpGOJRRtzVPlPpOPQYlaWqvCnliysmppSepXoES7WwKacVgpDDHSUrKoKufldmJolaHR3CRPNQ2gpwBGkyCOPaknlYtvo8VRJ9ueoVkiD5dTaxaQYpFJlCG5zkEtGqTFOnbIqaKsbv8jp0GBr3y7YjIOTReddqdBekJxXQSWPdGKIb5JlUnBgdE18rhhl6YqNRL8ZiPiwUwwivp0wJtXeqA1HjOsNc6UWcCDMtVC6hkJwPbYKXtWFMJFIopUqFkIIptKISNck6S29dpktp18GmHzM6MjG5AF/dQ/MZ5sTq9w5Pk+csZK7x2dRqcyntwtDyNC7OTeDS4jTG/HPWLMXN+VopB6yWdS5DB43eoVv1AmsRq3DXc6sllCq4FHjWfSjO5VS/O8+T3qEl0898Xw3xlPBA/fjuCqYPjNFNVU6YDiSN95wTZFdqQUTWCbVUEqGYU+/omEvbhiAv036Xmm2omljhB+v9uasCVvIumtAAUUy8TN87GQBVZG9wEBFLt6RARYfnmClzlKOgsAWVIU0k0tHHBU5sgRMpkiy4VxDQ4VmOOVAjE7XjFsqoV6sKGVp0IJqPhJL8zF06F70YvPUQFsktp1MuTMQWMR5ZxFhkCSOhRQz653HJM2t5/CfGh/D+4CW8238Zx0fGMBJ2WXwvuZdC0iYravlclqpD/tWjGezRxHRlEu+l+ZrGKkfnjra2hFjkR1y4MfX+oKzlzaoSvEqC7SZxV8q1akFPz0xiMbPCOSAJPzxiWpmlRSJcej0ObzUAd4t89V4d1/7DHfzq//FL/N3/669w8O+uYL7ktcZ8isu9xWudmZ/ADJUxRqUUAgtlLamADkWOyp8zJFUpndKcOPQ+lT5D5VfQPapKMyo89eN7QLAN8i4hGE2jStcC5F/LJR887Yjl4jdf9lB7uYbcvbaNwsO2cS5tgKvnVMW6uahNeQlhbbtQgZSDrz6iKlAwsr+r3YASdISJOvXVHjbQs73IMlc4f8+VNpdz47JvDqenOcmjYxyjODUxjkHPHHxUdkXqK4qJccizVNZEhgJSewA5AmXtXd6TUvG+6NGm6NGmZQapGErVGXDP4N0Ll/GTExfwY46fnr6In53XybiX8Q6HTth4f3AQH44MU7GGcWxALQwu837GTBG9da5+mlaZE+NZVC6Hf+l7kX7yFqKtagZkzkok71565QPeGXzI5zk+MoEh9wL8ZR9NNQn6VU4qkSRI5JmNeDEVDsBTFueiclJhmxwZKlmEHn5slQjP59747Q6u/o+PcOu/vMbj/+03ePS//RprvzuwE4XHvao9GMFlF+83OG35ZL6aFyEqS7Dl5/37LM9PyaSq4fRUPfBWOMoeO4h0qbCC+awLs9lFLOQWsZR3fU8kf1cEn1pLBAvLi+TNuIlgHpoQbWqrElub2koYVDsAeYKKg+moFaW+WENZJb/tkoORp6laxc4y5N8pc1SxMqXECPVUXZxR9J8msqM0GCKNHIxx3ww+GhrghFMBzl7CT7USz13G+1yN52cnLeYjJ6RkXEV8RqRbfIFEVkim1B9yp6zSV4ighjRbWqVJZEl2I/SuFhLa3hnH0DxRyTWJMU68TtyfI6KpgFaHwHvrAfhbYSqGOjb6MRlbxjgRbi6xbGc6xjdoGoWeHNqGsgPuKT+NNHmsslATGvLM14laq+SxlOVseAWDCwsYWZ7HfJyIyImPW3MT3qcatKirIdFGDei8TVIUWRAqgpd/56lRAcpuLPMeXUkqQnIZi8lFzEQXMBWax2JiHt7iAoJVKm91kQqzCHd+Hq70HGYTs5iK8TnjM5hJzmI+M0/FWcQykdNbcyHQXkaos0xTvYxAfZnzTwTd9hLlgnzO0PejYIJsRdHjNJMyj+GWzxBMPbJ0MIKqhHTKqwVMFXLYJYGn4qmri4oiSo+VB65jTor2nhUTUKEsVecwRGHZF0rso1OgsIZSUCyRT/yIJFMZtQupBfKLSfTr8FPfFLnJAifdbaS2SBSyPHGReiqXKRiVSi0v1fdLvChCVz3Mv1X2qlqFy1MzF54LRwmVUU5i6mYRhccNlJ+3UH7a4L3X7LX6so3aqw6qz1VXqKPwdH4SB3+fJzLGdohGTSppwcOJWsI0J3c6PEcF1Ym9MzbGiRpjgSmM+CcxGpyy46iD/J+ctmJo6rVbEe5QcYrLmE3NYZKTromfS85hMc2Jz1Ip8nNw5eaoTHz2ElGzyolvuLlAvDSxVMo1L5XRy/kisb/iJ/ejOb1FM0hzXRWSPqDX+jBLxyiLrWd57L0u4uqnJRvXND6rcFRxQAdq/2URO88K2HpSwLrieqot4P9vPcpj+3HBBvXjuyuYyLPIncykjvVTS0rXoYLp1A8dzau06Mg+EWqfiETSLq8yd4+KpYrj12vIv+gifuPQ09wWqVeKNV+pbFJOS/Hh99pMzimbQh6k3HOSYgUVt+ktqglHgcquY4mLtxtoP12jCe1SWCTqFJ56P8jzUfReKJYXJyKixHRwxOrhiRlq4lbwYTLlwXDKi4GEBwPRFYzydb4SMRRWVbnO3dYB65mb6l9WR4rf2+lrN/V9E7lHXRS0yawaw7tVyodmXAfcl3Rw6wyWM1NYyU5jJT8LD9HDX1qEv7JEU7NI87NIhVhGZt2D/LYfxZ0gqvthNK5EUNvjYtlWeWCAXC5ApQvR44vRMyZ34wSvPy5i62nZGinvvFAAuG5j+wXHyxpHFXscVzRecbyoYI9j92WFf8PB/9Pr7isFkssWQF5Xv1U6Th06TAr+WkCYCmWhGFINOSUK+mqrygLJj0qcC44n5e+JgxHSFfyzg8oJ68F2gBDqxXKVJJ+CtU4tt6tUlMP4F1+dnPAa4tfriF6rE5mcc3GU2anQxFHiobaGbGgPU4Wi5Ge5B00iR9vKwRTPUqgiSd7hascwmPTh5PICTi7N4rx/ERM5nx3PrL3IVXIbBVqV4Vqh2y8vLkXzKtOSkgdExNLi0PbJmbER/Oz0efzlsTP46ck+EvcRTKR8VlKXfUDO+IR88kGDXJLKc49eMBVODosailg6NYfy89M058pd08lj6q2vWFbpCk1gTx173ERHH1FSpFztApLWzrxBbtUjF9ugJ7z5uGLHFW9wsjZf1LDzuom9T1vYVhncM16Xf9O9T/R4UMDa4S6Bte7kM+pIQKfXGHkdF5UmX+X92mXY0qBSbfJn1Sxov7Jk4Rp5zmrgW7LrHBXNWDyQMnNiXPw7/UzHyenh72SemGeuISeKfFddhKgf313BlMkqHqYqlxQVTH0qVoo+rDRoVugN2qmpJPt+NaDbVKZEkSu7idbna6h/to7s0x7it5tOYpsCqlJEmkONo6xWp1qHyEdvtHS/ioYCq/TyVAOpqHagvIIZmpVhktTBhRFM+SaxQv4QKiwhQ7NSJedp3Slx1elkjwJNJM0jlVIxJJXgK73XUwnSO/TgPBX0xNSkdZr+YGDIekecmZnFeIr8aiNtzolaAjiVz1QoonGKSKahNGo10HN3aRJ7KQscl2hWO7xXrWxlReRUBtfxIdGWcoUttNLjZG49I5p83MDOqzrWn1a+RAMpwQ6VYfcVf/9JDfufqtdFHatUujaVS8qk1gfqHNThz8rvV7TdqtkVR6NSKOgpVFFTkr1XDY6jzAgqKf9Pqe5KGhVQKARSpadYO+DC3Kf5pBeroaLmwnaECKpBPsu/Kx8Op+qcgwtEHrLK6tSmgfrxPSgYJ1ixmbQGb1JczEdz4GtHjW/pPGoVDiR1qsddCpmcpXl4JqEhAb1KHeapCherHlaWKL04tXgU/1JGq5qNyJO0tkjyJqlwytvSBrdaYirgmKeyKNFN+4Y6Tq5yO08Xm4Mrs0yuVaVSNfmeYmPyJq3fKVeeotXqDzFDwn52bAjv0VN87/IQTs1O45xrDucXZzDoXcBiKWAKo415dQRK0aNVlshR6b06CKrZno5uUd+GAM2uzrWM0xNWN+bWA/JFIqkWovrDKk7VJPdZf1K0/cy9Tzjhr4lSNF1CmE0inoa+3zZz18D+Jy0cfNbiawNb/J1Moprq2b4lkUWFI1YYQqVr8VlbfE4p2ypN2iY97l1eX0qqcfWzBrlVg4paQoGmzrxpDiGP4oaiIKIV1kad7x1Vlms3w/jpvzKUEOkEab+nhEOn+lgjSc1P0XWO08sJWF5+ZJMOAFe8YlzKjBCKaftHxyPrtDN5i8qx1wa2vEQ7FZZE3yqPbNDzpKIpdUe57grGZogcahisrQ4dCqUEPGUWWDRcSkVYLxPOlQmhDFIVhij+pd9bAiJ/r41sndCq/vjpVWdvT2nT2R0d7ODj/Xvohnvhous9m1i09khLNPk6sDTJxZK7T0fjzmELcCpXTtmhd1SmpqOLu0jfa5lpVy1lfJ33RgVTXE1mRkcj6/wA3bOU6+CLFq7/VRf7v2hjXYhCDqXsC3GnXY4tKtcWlW6bv9t5TYSjmdx8TgSjeewQwbUNdlR7oO2lHlFsjZxpla9CxnUh13NtzFNB/7/tnflvVGUUhjVGjYhGJW4IBLqAEnaqIqXTGYYyHTptZ6bTdrpAodgKLiBxQcU9bv/18XnO7TUmakzE+AN2kjdTSnvb3u+971m+c873Yz9u/gRBIanv70BUS87NYWWuzf7WKyZTCW7ABMpev2yeU/ennp83ADKoKwlV1tKpWrlbYtJ4C/Dj/gnmloVFhp7TYwe0G95nOixOr5YEcqaWgzds6dLU2TblvqONqu3P5nOGa/dLTCRmNFvTMImqWHGGjpGnESjOvrkwVM52qhyheZcnWJ+CKGbto0uxkrVdkAj/YN5sPE+vznxZvZqTdFhgnXyd/RyuS1DQ1vnniTd73+SBGLk0GntPH4+dQ4cy5bFjz2C2hB2bquRZkLNfrESH4GTm7hLKVZjGS3dw+vXJiGzzFDJ8SX1PVdrqWwOJ2kIlJrk/7ay3b+a4cx1qlcuyHnclLK3OMxhR4HVIYfDi+1X+bw2iXMWM5r8hYaFaNupi/pJI7Vjn8xso2yak1GFfv8f3YEqv3oOk3/Tjxk/LcRMi3/yZj1Evyes9aWLyGvZWoK5ZgKlKbSlVOSJK+LEjpVLNfGjdcVBcuI/uhTpIz4LIIqH9L/VFThNBWmDm2Tx5ZuRqLXMwVjY4gC5PhsDZtWlWGE266W01xcR7xQFMHoQpqSRT3TlgRJEOB86uZEzOjDXhvOtEq2CdO3OxfFdTYrmMR870cpyjPQDH25U4OjUWI12iNsxUE4fTPcdsvNXx3drbMzvdwaTaDW5jiI6/T63bKR7o8Pyrg/HM0IHY9doQftmxODFbSXW1y8ZDCqy1t07dvkKn/djapfm00cMy8Ll7S7H4Ffisx8+YyWy6ZyM5gcbkqk72Bou8qWkkqrvxZSc2CfvX7xHu2x2E6VuDNOngq0KYsiLKKwi3ykMhjPIkSppRgY+18V0f1cMVQckubV6Muuojcb8gqvxhBfMIyTCTlhd5XpKZ/y7ESaf9ffxE3AaH+7k9ZbWwVSvW2BcdVzjwEKsYJ+WeKi4A99J0kS6AMyncQbBuDX7cP8E67n25ActT4JFu9ki+5WwKnGbnIKhUphfKbiFTD6lK6xDsxmy2rc1Yl8+Tbqt60bbGU3ULZxxnvsdCOdbc6M1uaU/0d35Vn0DBMY1XiMymr1XjdP1EvHjQTPue2LF7b7x0eDCPlxnrns2bsmxDLgtSqJrlM9wwfQ03iZNw/G6rFzI5+srJo/HswVfj6YHheG54OPaNHI0TrUoqqd1C7ki0Pi56CRKo1RQ+mD2eqrUtYvNfr8Xy99di9dtV1MnxTUZbjdw7XYdA733bAZAM0qyhMMufG7jMx6JVuh8WG+cJHq42sEXMDqUOwUobF2HmFn6kExn5eA6yuwMxm5vtLZQZU/wuD8zbzaiuXIjRBXxiFHS8Px5jq/UYQ6mb+qW3p5NMtcvno7JUjQvOGLk2Hq2rVfzEajRBg48vrlWxUrUMUOwes9m5C3ETqpk+GoolSctKDys54Mf9E8xhafovzrtSYrXlTpm2XKeOgs3gq/i058FL+lE66UZedhOpAtywaW6q20VuIWUtvhn/m0ZoKhu+mXkkiOkwOxtE57jmKj7NxlZex5B+GeL0+MN6/GGLSLblOcp20U2NZIMstYFUOqAZEHCDVTUz6zWU90QD9Ro5Eq8cGo4X9g/Ern0o2IGB2HvySJxCwXwAZvk9O597lo+Fkvph3UxXaBJbniQnIJ99BnNfLWcja9/A5hNntOojtVClYlDu4qd83/u4BNcbORfWKT5OjPYIGM/VrroHugRB+kS5ntYrFsX5GAVnLAzoOTIdv3etGTUe6MrKxTjL592aqvA1tf75nFM7db0ZUx430x2Nc5OvR7N/LpZuYd7ewe+c9zTdt3K+SJboZCIa/xWy5FYgPtgk/tg0Cj8HwYwwbf8rxhlYw2bNHfdbBdTE6qMhOPBDgi2CafDPCOb47WwXV065uJvfluu80R3PSYbmwJy/at+jqQbVTKTDbhPtJx73uwB5VAEVq59n5Zg1rxBBepK/mX+rKvIgeGvBuGaPBb6MP2Izwge/ELpDtO5tzKtkBI1N0SxyXFuOqSTLje7fHH+UDGK6beRhEqcnRmL41OHYC8F2Dw3Ey4MHINtgHHzzGGa/lgljc3DlKf6qbnY68+6cszyZHwXLY1iScPMx9+lCDiw2VWGR4vRGk0i7EdXlAvW1Rkxet4N8koWEXCsTuBmYNd5rkKnCgzrWHo+KgORj9jq0RmN8djQaKFIXqzHPg9XCB665XUVAcrb+epw9PxLnLoxElSClPnUmGu3RaC2OxwxR/vR60QU2cRlSLxnYVDNNYcrEwkcDEIsMU5VARo6srWbREvXM2SXcIcECSDD8WtsDTU90MI+OcoAfK6AHpsA4OAmGQEmwx8FfEuxh8Ah4DOwEz4P94Ag4A+rAC3eAP2QByGYlcxsPLlxj19o1d+3lgFyQE3JDjsgVOSN35JBc+sPLT8q8R8ET4BkgMw+Aw+AU8KLngOytAmVyGw8+XGvX3LWXA3JBTsgNOSJX5IzckUN/SjBfpYqVJHsKPAe8yB4gWweAsii0v9t48FGut2svB+SCnJAbcqQk11+q1+9fpZJpS/0m7aoXeBIog15Qe7uN/x9cezkgF+SE3JAjpd/1t+T6/csvLskmZKfwYtv4/6LkQcmLkifbr+3Xf/166KFfAclecYx2rqj7AAAAAElFTkSuQmCC;" parent="1" vertex="1">
          <mxGeometry x="690" y="430" width="102.01" height="101.34" as="geometry" />
        </mxCell>
        <mxCell id="dqdw0evUzVBGal0t0bfK-4" value="" style="shape=image;verticalLabelPosition=bottom;labelBackgroundColor=default;verticalAlign=top;aspect=fixed;imageAspect=0;image=data:image/png,iVBORw0KGgoAAAANSUhEUgAAAJkAAACYCAMAAAG32Yu7AAAAAXNSR0IArs4c6QAAAARnQU1BAACxjwv8YQUAAALxUExURQAAAJ+fnywsLHl5eQAAAFNTU6CgoAAAAC0tLXp6egAAAAAAAFRUVAAAAC4uLnt7e1VVVaKiogAAAAAAAC8vL3x8fAAAAAAAAFZWVqOjowAAADAwMH19fQAAAFdXV6SkpAAAADExMX5+fgAAAFhYWKWlpQAAADIyMn9/f1lZWaampgAAADMzMwAAAICAgFpaWqenpzQ0NIGBgQ4ODltbWwAAAKioqDU1NYKCggAAAM/PzwAAAFxcXKmpqQAAAAAAADY2NoODg9DQ0F1dXaqqqgAAADc3N4SEhAAAABEREV5eXqurqwAAADg4OIWFhQAAABISEl9fXwAAADk5OYaGhgAAAAAAABMTE2BgYDo6OoeHhxQUFGFhYQAAADs7OwAAAIiIiAAAABUVFWJiYgAAAK+vrzw8PImJidbW1gAAABYWFmNjYwAAAD09PQAAAIqKigAAABcXF2RkZAAAALGxsT4+PouLiwAAABgYGGVlZQAAAD8/P4yMjAAAABkZGWZmZrOzswAAAAAAAEBAQI2NjQAAABoaGmdnZ0FBQY6OjgAAABsbGwAAAGhoaLW1tQAAAEJCQo+Pj9zc3AAAABwcHGlpaQAAAENDQ5CQkAAAAB0dHWpqagAAALe3twAAAERERAAAAJGRkR4eHmtrawAAAEVFRZKSkgAAAAAAAB8fH2xsbLm5uQAAAAAAAEZGRpOTkwAAACAgIG1tbbq6ukdHR5SUlOHh4QAAACEhIW5ubgAAAEhISJWVlSIiIm9vbwAAAElJSZaWlgAAACMjIwAAAHBwcAAAAEpKSgAAAJeXlyQkJHFxcUtLSwAAAJiYmAAAACUlJXJycgAAAExMTJmZmQAAACYmJnNzc8DAwAAAAE1NTZqamgAAACcnJ3R0dAAAAE5OTpubmygoKHV1dcLCwgAAAE9PT5ycnAAAAAAAACkpKXZ2dgAAAAAAAFBQUJ2dnQAAACoqKnd3dwAAAFFRUZ6enisrK3h4eAAAAAAAAFJSUq0EcdEAAAD6dFJOUwD///8u//8b//9cCP9J/////yNk//8QUf//Pv//K///GP//Bf//Rv////8g/2H/////////KP///xX/Vv//AkP//////x3//wr///9L//84//8l//8SU////////y3/Gv9b//8H/////zX//yL/Y/8P//9Q////Pf//Kv//WP///wRF//8y/////2D/DP//Tf///zr//yf//xT//1X/Af9C////L///HF3///8JSv//N////////xH//1L/////LP//Gf9a/wb/R/////8h/2L//w7//zz///8p//8W//8D//////8x//8eX///C0z//zn//yb/////E1RGAF6+AAAACXBIWXMAABcRAAAXEQHKJvM/AAA9GUlEQVRoQ+W7f3Tc2n0f+CwWthijItKILlLRiMWHVMRG4Q216PJ1e9el9jaScxu9LqrnBnpFFffB4ds8VHWErl4E09HNK12CLo2WbonSJhqxJkLXxLp0ieVuiDJE6KrjiTVMovEkmu04mjcRt9NUTKfVFKtp8dd+IcmS2rLr3aR70nP26vgcGe/qO1/c+/1+fgAXLx0+fuGX/oPxBbgo8MzBmNDFJcZU7hsV+vNwcenqVCSVM0XKXyErvKUoxcW0JXwq77RKFhu1thBS5ouLtqSV+xu8kIn95h5WsVdcNFnl7TGkqcsHKd1GOhaKi9LW0ht3Z/k4YpGTmb4aFxcXBbFyK7QOhgKfuTylvccXFTnm4p9TyKRp3NMkNFJcnMZCUA0nZXSc2fdUFTnFxVlBKUWVREJa4j6UTYU8vqh0wjBwEa3HtKRi8XFK5+S8GvjmmV6UGqE4tW4VF8eIGr1eskwWJqbHzJAVF8cJX9kxyNzdMEKM1Wp5cfGogJONcIXYeTic9rmm/vifI9WPgjuObh50B0ZsZhYXP/vb/8H4Jlw8ZHz43zzdhG+PP/buS1cy16UN1cB31kL51NsjI9/19ZcuzS0RKnEiMRRn1VWU/i9//aV23lH2hBqudnT7LUuUtuHaXlvhNjOBk3l07ShDmIdri2raF225tp0kNrGRasK18sOrS4vXVObZzLd1Fw/BtZMylj09xMQPQqYpqK/4DdEUiVn9tOwcN6YsmWC4xosM2a6fqfEJNk4kRYNruaQKSuhSIypFAsbqAVzLOCpbjqdI1pW0pGM8CNeYYmDEEu9rJSey/SvzOlzTRaKqCWMuC0ueGzIG1zTTpvK6oc/thFuZLm/vwjVZRXng4OOu73arQWI4xTyVqT3GHjqsr7vPUsZgrW7++NM1//Z434eLlX7n5e8wilkvreNam5f4dnlPlm03Skop6ydUt6hN5x+sbKxQ/c998uswT+Quy/ne+pVHK0tL199YOj69Gx+Ekk8psQRKZAE1vvzzxbztM3lH6PCdvVYj4zttXpURn48ybWzFRKqGFKfzZJ4UqDq1XbnJtXN+t5NxPC8Iw67+6LZFbNvQRpKn8SxeluVsd/eaCNuvVw/e/tXBHzojG/O5rikUaf13n8zj9g9eHW4a+fK54+PyytytIE/jxHOYYRlItKGWvh3vwqebQahU42NlnDB6+f4ccZjvmlqHCJKh6Yr/ZN76ZV4kklSF5Q+jUEEtOXBix2UrO1QhFGtu5cm8/Aov6IIY2cxLwxOQqhHSyGOGa5i2pmto9ODJPH5SlLAoJU4UJGHo1xiNjWrqsqyDFxFWUTd6Mk++LHOqLFRp6Ic+0zEVm4yL0zDtl6c8V1Z1+8k8dVKWXZ+v4MBzTKbKHdrrTASxeYFoFJfLxpTxZJ4xJkg0Q4k0m0Z+mFa7iZPWY8/wqy5HqRN5T3+XTIiyJqquyWA0SZmfVsy0Ug3m7GR2cY2T8eyTeeykJIaqXFUM3ZGoSOMgr7UaFjbDuL7f6x34+0/muZOEC5GQ2i5lxpFF6qQV4dW+gfOV5tBo4hBqsSfztNMSiRaVYOiB6fv3JkzPTpuxS3mZy7Y1JbdC41/+nZdh3ks3P/ydxs1i2v/DcfM7dsc7RbiP//Ynn+LUf2J88Ae+AsHUFhbFTGqUeVmPoygKHa1PoYZuk/L4ztLSXfWf/Mkv3HzpplJu2cw1iK402ip127undtYWLMdSVzfTr35tSDO+50d/E6a1ajUpn509tjIztzRz/d65ZTUe7DFDZGXZkhRDaTyZNr3052ceZiVfFTmRy/luuyXEyDDwyglJEbGybj6ZVuYzjhN4fq+dSR1eygVe+ryhU+3yOpCZjpD9ZFoNJuRt7kreliSmOImnmUpgGu7MUSrzKtzMk2l7PIa2NXCnxeWCyYtyLso912A705KPqKmkT6d1ZFnhO+VNs5MRXlEVSUavG7Pem5/GmkBMWX0ybZk3FUVorU/daXeIZsdnem++8l7v/zDPqQoSTI3Tn0zjkVaqR2e98SO3g7rQ8cr7UZyWGNvsECoYmvL0FqLSa32rvrQ3e+7W5KYglWpVL1V9M1RaSLus62rwZJp1/M7SysJbVyauTXaoGydhkIZB5LJ1WSKmThX2ZBr52fNJoEvB7OUsduzNkzvXKQs8w95TVSmjBiFPpqn7cG8itk8eCVNTl4Zf27fiwPWcWBEUTtEF/+m0kiALorLf2k4CFnBUMqKw5DrprUlREzVDCZ9MM2KRKrzcxmUWGN+9JyKjt7JqWOrKNkUSMbSBJ9PEWFBg7esVGzBpWkTYAK5jmqTX4DaJrj5dN6+KicKJQ/XID9iurMqYtcLQFrbWFUnBsmo9mUZDUcgFOayGLHRCBSjQT6qRgydzlUiENpyn01yIJfKVgyTyjYLXVDtI05JxpAygpyH5aTT9QOFVXkFB4gWOyekyNrIoiao9SfIYIeTpnToAy4IgjCSBbTk61KvHrthxqVRBGCtEw09/VDckYULkhmIv8oilaMiKTlXjYDvzNE3ezg++vW62iHhJTcI0CC2mfeI9B01fj83Q9vHe5IXtmvtkWscQUaaIPhJD33DCvjSNS2nVCKOmhFTdCZ5O03yEBSKprw8HYWRZtuPY1STyjMB1N5kbRE8LCdkKVVShD/6LGwatPHuA0kpJtuXoxM9tcTx6ugtSVZVlUW6uPHB1Cy1c31phwCgnme8QPytvb+89maaw3FSQap/UPSIi04/D8moDYcntNoeqQ9Vm8+m0UEaKiMIbd0NqzDHNYrbZ6/Ylab3XpS5znq6bl+pTRV2qTiQdWdcN667Re7NvNImro2cYM7WnLUM9TRWIOqC5kets+aY1bAz39e8nBwOj/cy2GPvL/6CYZhiqTF6R6jvzEdO2YEk+pwynhsLJYpsKisDcf/TTHwW4fPkLP/xUgfwnxg//ZgH5Lz3F6/+bUcx6PG7+nsfTQC/dfPfjn/3AR39v4xe++f7HtPDSS21t2+gY2DQ0X4kIw44jKR2BQ3Kt0ck6uShiZDqcrm2K99ce7VXSfZDajk0MURKVVqPR7jS4X/57P/krP/U43M0Lgj6/vt5oyaJKbMdmkZfGuuGYiaUT3EYaVgSRWkGEJU1jrkk1ncxubG0szV196/rCg2vZum7/2l/8g3/gj3/9cbR5b3pzYt2TdVHOxBbSRepZWJq/dOzO1tLMwsrCxtzSytL1t35s45EKgsZESFQ4R1YU2kcpxggxifueL//oz//mk2j87Lnj926vra1trC0tzK3NzFx9a2bj1Crn9XqpVwo8WywZisibgviKa1lUpRYiTJZBkRtSATOTHemFaKtTGQ7qoWOIisBJnayx16nBeoFSbHNZm+OVNi98hu/0S8aoxgyA99vjbVNF0N2GKsmqOGB3XojWyno8SEdYTinjsmx2r91oN4QMjfMt8GYdgW9wQu4mw6XSsAzuxb23c+uiBXeq8HVDIUjho/UXouW1NO/wXMarEs5qjbz2OjSFqeO8ULRcDu2UcSIvqnLlDHZ105IuXBRtWdeIapnE0nB/Er4QjetEQtZqZx0Oi1xrz63tVtUs4zotsRVnooBFR+CRwIvi8KBzkqPs6P17ZUPBGIsGpRoRHevFaNmyKytv8kgGFHfz1urq6iBfg/XiIBQPZaNIoirpum5/7Ix2zTLtyVs707aMkCoZSFFVknv+C9GWZxloURVLOZ9Lnc5259HJYye8dPCr8cFrQ/uf+vSnPjaQOroaluLY9Q3XNpim+oRyAgdgaIjqkLjzQrTt4Iu/+H2RU1vGvw5GsxmRyaPHT124Vtvlb6hry3e70fpiVHHixLdKYQDgY92/lTmKIqtYB7pViGpGL0Tb1I1aY3evvD517cLpR/fWl6/dfzh2+dqiuLlArye395MICNsLQUW7ju+4hiWB6EKCQmQLIhE8FFZfiNYw12fe+JE//8bC8bIUDX7q3PSV06evXGtLOuhchxgejoOYqa7NAjfwXNdCcBdAtTLlbYMYBBsmeyHaunHpY5qKVKwgkZfiinFufqemu2nomBitzG3NLMys3PUY80Dhu5ZhynsNwZYVGXZAUzUq5eTFOz3NX6gQ8JMEk04mlSry0txbXlyKQ1sjumSZq7mqBL7jJzEQBmPJxfExWcaYGjKSFUzUEfvFO93VLhwIYIQJVkHGRJ5+fea2lYZhGBxZn8gxgV+hcdcKHdfRwZmYF5fuzOqaSsBFUfAfxAm7L0Qro1lPFgUJRIsgobhn7czMXXKDwMd37j+CekOgbr1gZedCGUjCALvjGNgiCpQUAlOmKgP/XjQOXw4FUS6iYU0s1Vmx+lElctHDpZMyJwjgqCyfu7bKPI9ZeuPR1sq0JSgAH1RVwUESu/RCNJ7OhgCUosILqsRX+1yWAjMHkcNcArdDgEYp01DiQ4mAy5bH1jZmbWgTAClNVgSsai92Fq/NAnZzqIBmJJSqMmwBeC8Hbs+H1gHFgq2Uuc1SmMZBETBkDVRABPwKUhDIKPfFO3WnE2g3pCu8JPDxPo7TfTeCfwaLjoCOMZHNNPATN06TKCpFUzttH5HcNBGlKmyD4tEXoknOVKTDKpgyBsyqvGI0qyBESqXAZZYCMknChJWM0ZGLnw7T1AvqaSXEmsoSBypIo0h1whdzazuTMUAYciXwKkqzTqNKGjPXBk+iI54AGMmeq11ceVAOk0qk7B45qdqKpltOpkoqY+pU+mIvGMYF8L0StsGpSWq1X22mCXMMJzBcy9FMqHalWknubax4YRI5TlCq2GFl5JV/PjD6jf7Xu/WKHpMXoun8OS2XoBByQZD4pMlHoMtDNyqR0Iir3f2+/ZHB0d7+0EB/tZR6mmsYJIp3d5en5hend1uiBVrzhWi+MmYVnsMEFlKU/Vjd+QmrlJaiyHU9n3nVoJrGlgti10uTNHZYmliOoweuphFYjQDGi3fqSOOOqiiimauioiQ9HFdSzw8cx8Wl1MpVx1bh70gHv2d7CpQMFJ0bHr3RCjUoZ5/5nvlCNBkd32eM2CnPZCKV+gxxflc1Lcv064jeAbc4t7Wyq1hQvFG4I9vewwnPRF8z/1uyccc0HVXTkPBCNEs+4UqgDpgINkuOmtatR1PYYJYliDpfkTXGAp2r5Y3N9W2VcO1Oe3N7m+OwZVaitK/XX6+nyQvRePzIwzoiWJChHnqxdH5dhTslgjqzdjXUHVc13AQ0AlWs9GCgF6bVUrPU7etWBvr7mvtdoAvvhWiifCIwUByAJZGJWgmR53pW6BN9bevOik2wTTI91lXWG+h2h0ZH6tVqfb8yODBcNx2gCeYy+8VdIPiUJyH9IJYEjEncB4aAGbFnmumxrauJBwBEJMPHwx+rQDYHfaXKfncwGH21mxBHMwzLAGh5IRqHT/qqICge4Gg/Tg9Gbt16YENbMW1l68dcw/dc30wEd3j4IGhWKn31vl5fdTludl2bPn5kx1zrX/zML/+FLzyO9pKtTbgAiDGoAcXG3d6I67u6H/uVI1Nbc28DaCLdbqYu187yRgcQuiyWd0ViRlrMbJe5URqxf/2TH3zfZ5+Kyw+/8/GvfOT3ON7/8v+r5yG/X+OpSP89jKeBINS73/GZznca77z7dNE+/PJHfuqp5v9djw/8ztcf+5ib73z2Q3/pn37w6QOj39X44Cf/7I9/8+UitUYWlGVBNzQHylq1pZQ4udLqtPRsFxQ0qFSw20F1c9kZ13bubXXr9ToYVptpWJCUvNXY28sF6a/+xi996CtFasf3SEfu8DIH0J8p2epebbfd4QQSem5c0StRVA9DZnnucMciDqXgIl2Cpb2p07d2NpYWNmaooms/8zf/4W//zrsQ7CTkcHFztSZyClCK5bIIAMyxPc12NKB+8PQiAomQOApCbsBsXcPu3NLSwsLcW2/M3JpYvYtN96//u9/4gc8WwcZnVbydN8CehEBQjkmxoeQ1WclkinXbpWK2OXb0ztLGzIpggm4zNELV2xd3zfOf+9bXvjjaTFPLkH7wT/yRX3kcbCJDU1PHPZWoSkfMBCKDXnfk9vTpR7fXFubmFuYWttaWZm68df3Ohu34oGIUyvUQaKzzr1sq1mgVdMGvfTvYppI1pldlSeCE2urs/OVjt2ApFlbgRt648datBxNT8+W2mZZGUyfUXdtSEfL4Ho88lUZUBXkvcXvZs2DO8pWTd++tza2tLG0srM0s3bh6dWbu6OSuGfUDLaVVw1EdRDlTEvxqpFNVDonfVEB8KjagNOjJWsY9CzZdXtuaWbn+Y3O3JhZJmIZMB/WUC612o9PKeYmOcHlDIkJM+DABDWjaMPkVWQEbAHepINk3Df1ZsNX10yIL91PPFPk238lzngcbBA6Xa3TyDOyQIGSfQGLkiXHomUQzjm7tdUGUKaqvgQqkMQDrs2ANdNFSZAHBv4I/OH/sWzqdDtfmOS4XgFTlNidmBxVUsT2maerE0Yf9EsJIAYrVTJLqjc1nwXaNKVXiwImB4+t0alNtrsVzKG+3Wg1e4KWcK1J0jLPNMDbBvZHO7Z2HPRBLhuKdB/ZUa97q3rNgZXYFi62M41pZzrUb3ba/mXXKWd5uECRbUdotMU2M2sNIr+DANu2pmaXr+wpIQtXVCRi/VVJrPAu27szjLMvBfwoEiLZMK1bJ1jQqiB1JyCRQIuB0swxERJ/pWZbtTo4vD6iqycCfG6atV4xq9CzYpWCaqMgyNcU0DU3jmNISsr1yK+cyLOQyRISeBdMnsqprMNPU1tYuDFDC25Zvm8zRfBApz4KdjiapCHuYZWIGA9E2DnY7kGveMUVJzimfCXJbEEV5IDZvOXbn1O2LIyBkqGbaRNeNmLrO89t0pyEKz8kgwLOs02i05YFWu9XIRFmUeFXlRFDSoiQQaZixU56T3Rn9/n6wplRmCJuUqHrwPNikt6oQJy7+hRxxnUZ5szNY3ssyhecEHqpW5QUwDprGvFGDSbpm3bt3f1hB0KLgTwnAmuGxZ8EmgnldlOVchIqSOo12efnKvVO1ci6ook7jMGkOfGrk/K/2et/3vb/uBF+SHDK2GRxooPCRBx6ekBI96j4LdoUsI1FQVSHjeHANndr67VMnV5P09VfP95+tfu5Tn/rY2R4ziVmNk8SzmIEdnQ1qhiJKngMmGaX0IX4WbFbxYascJ630Vf2h13oj6NSpnYXxesJiqtPT+4G7HoC9SEM3LcXM0B10ZfuMSsFeeI4OvrZOx+Rnwead3je+9d0DfFt75fXuYKnEsnN3x06fbNTsmfkF+aoddicOwBqnnpcUcpeZRx7dHyQyL2PfokQTcnM/eRas43Wb4eDZgcEmSWxVyjeXx8bH7h+5NOXtzG9Ib4B/8UMv9sPQjWNwHT4zEBqWVGRgQQc410Ut9Z8FyyVdbjW2d5c3L18+dezO9Ors0eOPxs9dUbW1+bX8Lqr7bux7INb8KHDAs2FJ8YZUJGHq25QauEK7leeZyfqFo/d21hbWAF7nblydX7114sKV6TJnCabP0jSxIVbsMcf3Qz9gjpU3siEVoNLbd3VqaiGKn+/mHvFvvPVjP/Jf37h/OtOrw/rE7KXxS1OzIjHA/SDH8qgfQkszIIAgBnNK9zbFM4oA1jgFzjPUHu8+r7O24vGf/9xQNUkjB7AAl4zxiQs13qgErqnvLk8cv7Oyct+zizdpPrMM28pXybAsIySlGjIAkpAXPwvGY7wKBIcQUQEZsB5wOxfmWwxMk2ZZJ7cWVm7cmFsyYBejIGTFc6f2JhnCqiyDVYTeVAXVfY4aFxbNawZRBFWHgNAFqXpvTXFgC5mp05MHI4vveeWgh8wKOB/nsYz1PWcIuokoMch6XW2S/d6zYKtlZdqivIgdBYAVefTBzMJ8FIE60Kh50bVbnCiH5zF4KbdQzrFxauzKoKIophZjkTh6qta9Z8FQDa9CX/JgLyRZJiGyxh+5UAdh7LnJI0NGEpKTs04U+UD6hutzW7euj4CHo9inGjG1ulF/npkikSkZqyo4cLOUKSaZWLrKhb4XRZOzt09QjCSNDlXt1AgN3QBolXeWbr9CkEq1ADBNV8VSd+BZMBWZq5IkFxsJ5KSpyJU7bTcMIy/838cOLEA1BYe9aO3onOtYOmXcwq17o4ZhINE3sW4oXG+w71kwcPjzigjWE6uioKjMlZYWToCjdMM7J9buU0hZw6Vube3hUSgPuFPHN9kZ8EeU+pRQXT3w691nwYBmpgTAeRnxkoix6kUuM5kLhnp5fHPc5FVqGGkX16PUg9aEItIcPEhJ2TVKlmFZalWqjjwLZqh0FXZRUXlZr0iSDTDjQTsGXnzrwa1jCPHEIAeOuDlBdR+aCe9urM2MEFhK2SdE16Q6Cp93gE3ieRF4UCVoD3jN9pMkCPwoidjeKn9EQ5pM5dIQd6qxCHVmGlZ+9/ajYRWrihbbcJ9AU+x5MLi6zoPe4kWBU+Tcj5PA88PA9xij2hisf8MSoz7ieU0PYMPV1IWlpY/pKJeU1CBYznnnxWDYXeVVQZIAiHleMtKkXjj8CEAiSKaFWpYAzvc7aqmehKnDVGe8JveD/tBoaiGTCCUxfI5nBmbzwLGwnYqEVeSoZhgWsOOaAfNO6RhhHfcPGkPVUhQHkWvafpiPQikhLQG1BrTCB/azYIrmzhJAWE6WZF6SgC7CNAriiLGI+aclapmqsD+odtLUT9PAJ3T6wf0zisxr5r4BXKyGiq0+z8zwd2W4CMykKCL0plNK05iFcEc2O4cwiFyll+jAAQ6gVOzSE6u1VzUKG9sFPWEqgsf4Z8GQ4a4Xxc9RgniBqGBJof7Bv3qO5ZzCmq2IXFpyyB4oxxSYIEq63nkkbTpev6kg0zI99lzsITNYNCQkYJXKikzB3VbSfaeeRsBE9mldxTLC1ZJ87Gf/tBG5QJ1hNbZeRbgTsH4TVLzi09LzNSPM2RUU0BUKCG6FAlyFrutFjqszxxlTwbwrSh2Ae/yaX4qjMKg04+ATBlawVIL112QMBuZZME03tmUu56mudCSZOcDTpXoQOLqnm8ZpC/OCRJqesXDriJckccm5faQsfcw0TSaPwlZ6zoXAt54F0019WwG2QfK6mgmqDSUWhIEbQLEzdkIloDjQ/lA6dtJwK9WQRVv5udZZQA1Ntnc3t2mImPvcVCg6XZbAOBky3wa49R2W+okN+BAZpkVChxjIGu55M0uX3SR2aBiGXjhaf+VTv9j/1TfPDvcqpaqjPAsGRbsOmSlIFUVBxk6VBVBngPaR4zhW/9kvfvG1fueg5HhGmKYMF5jil2Sdv3zp0rULm4u19ab9XJ/ZkrguCTwoawAiUe3DzAvjotF9i9lJ2quf6Z4dPbPfGx4NmlEBTppmNsut3c1ry/PXNmtcUnqhA8xOtsnxBCscJ0LjehIuz6dh5AfgR7y0PlSvx74d+hHsZTVmiheWSmFF4DsC4LnlwMTIe04oAZUbApUBnUVFkFBdan3fe5Q4TcOSA4XA6hBln3meG6Vu4EXUgm73YAFcYhKD6iwOINtnwRxsd4pXCJIkFAe2zLg7dHYwCGK/Tp8833Yc3QBYTaIwTRJAbtjr0DEJhhuGeoxS332uNTxdaUuagiRJVSWJeL6dVgF/PKAPaz8C+LMNMBPga3Tw1qaki5bDXJ9dXYmhFA0Aec9+bsRMnmQyErGsUE0C8RBGkRtDtdmhV2eYLwv88gNZkPyoFMRpYPpHjxl+GL3xxf7jW1M5wBaVzNqzYLYicy5oFAYeTZRMK/LLm6s2XPBiyzh2e2MNkHWHYuBkLzl5P0CN+zaj8mf+xnsnH+yBxwDAQ8/rzFIkHnxk8cyfR4puund2dm57IIThnvy7c9ev3rj1cIuQKICMZ++tBt6eH1CxLzCy2l55c7FcrrXEZ8EYoH9HFvEqArIDVvWvPDhdgwawVYrIhKm4hPHtqJ3tljd3fSkH07FZrglIs/1qvd7Xd3AQVp/bnRBLxds6/LpBAWs1VNmeGod2YqpUM6xxlTqea3iX5vdq5XZD0wXAAi8Mq/XeQTfp9rq9/SB9QWuYRM6RIVW3MeKQasbW5zpZDHpTxaeXlh4wxTaITodTSaSdqNo34pXqB6m/33/Q2+/19+oH1ajCgmfBFAqWQsZ0D5SvzANyntu41fZcV1ZrC8dPY6QZescetAQnaXa73b5e0qyU/ObwQJ8InGO6tv0ib+pMUg1Z+t6apgggHwNTCX3XDw0irNzdGEdEJ9Jle8Cn+93+7uDgwMFBWk/cgdGBV6gbFEXNLPa8aAHykYpEqQHIoQgEB5bBbDsyNPX+lb0T4EA1U9/s86LRj1Vf6YHiqZfA94wMDg0RcDuabpo2M54Fc7FSnISzUwLmHiZUCshmIbNdfmfrpGOYhqyQvig5M2D3D3YP9iuwaKXz/YNDTAN5Zjl29IKrs4kMskySEZFhNy2zLzFC0E2gODsbRy/ooA6tvvREs/8MbF2xec3u4EBf5fxAF36yeA4FTGH/4N/96aeZUcoThZNER1HOq7HVv3t3A8qBMe/izsIpwzFtW2Oj8pnBvqRa6u5Xhnq9ZlRLR6oOYAYwGAOh9eU//LefPKWqa5gHpCWKp+dgIO3m8s4jaoOsDjoLYxMGMVRrpDpsv3bgRxHFEieqsig0hLFKCxlczbL8wDf+yh/9a+/7SBGsahc9DmrVQphqzBltRp4O251op27tjJVUHbYHDwSatN0pizwRZK69pxK/armma7hB5FdD88/8sz/0bz/++KHju+//wIf+/tNTF7/L8cP/+KMfefJA+ua7X3//08fKv+vxla+/+/RR7c3vfJLvO44XHvv+/2bc/M+xcP8ZxovP3Itx88PvvvP1j7//K083+vdtfOX9X3/53Rcr4+a7L7//sx/4wod+/O9/h2NJ/5+OH/7h9/3j3/zoNz/y9XeevZARJM1kmy2s7GaKqIIqsGyXJYaiA0qCHrUTR2M+RUznRItTpc/8b//NOg341u7ubq1W64hXNmudzc1We6+V8cLlY3d37i5rhnFpY+v2zkqrW63U+3q93n6lAigP8texqUJAvBX6TeB4SVbbEGWv1ir/6z/zk//sg3/off/2sx//dmo3L7R4jSmLqsirzMQOxsgQOFto8DjPJLnT4TvFWZ1aZ3t9s7y9WSsvN/gM2IJQSsMkiWI/6cW9aiUC78zj8+x//ltvGzgsX7wwvVpG4MMxAfPhMOPxyQ9NUyUx32wsTq1eO/bg0YOdrbUrWnFYRcH/6K/8yz/603/t77zvox95+Slq3Dw5uSupi3uLjVoutzNe4uUc1EC7Vm60G+VW8epDUICGAFITkM+uf5Ak1SBkccJAmjHPB0+rd7CuEaCSrCXrxLCM4lQGLL7rgoFkjslAna8fO3Z/Z2tlZWZlbmWpOCe1NLMwd+Pq1bkpXQG9pv2LL//MH/7lv/0XfuALn/02nt2cuDzNGwZdn93b3V5taA6ITs/1Yp/5fgQuKir0YhCaloGUDCxznttYRLLEi5JIVKS51CpknyxwctZZX58cP3H/9ilMZbPwOkDTli6LsL767PUbb8y8dfXqjYV7xyZWeVoZGX71f/3We98zZCwrQIHOX/7B7/q7/+Cnf/5XfvN5ZuPneMfSDKgkRfId8OcxGBQD60TZm57c5jgO5KFCqII1iznY0Kgk5432/PSl06ceHb1379b9ndtrC2srC0srK2tLO2tbaxtzM1OmBiLaA/FsYl4CMasKe/vd2I3CqF6vvD76RdsEn0+BrogEHlaSZf57fu3Lf+JH/8i/l9lUC8mN3e0rpx4+2MWolol58d5fJMXjGhA5JvhQvrx6ZfxEcWZta2NjaWFl4dYK5LGwdmPmxsz1ubeuX5+Zuzp3Y+3h0YnpMu/E9dGxCd3xQNg4JpYFJCiW2m5UHfWxptdVKjm2RTCyZIqQEHwM5RzXOCSzttLe5nKp3W409hZnL587eerInTtbOxtzKwtzS2szKwsLG1uQzdLCzMr1q29df+PGyt1745e3yzwt9QYGRwb6+/oqo4Om5oM0lnnX7Yhy5n2iZLggLUyqwspYpg1SZt8Gu6EcJIhSyUZYhj8IvDzhxvfandZhmeXL6/NLMzfmZiCFGViKlbmZq5DB1aWFjdsP7x0/MTY2NTu/3RIJY1E9DgLLkuDmO3KeI92wu6OepXJcxjNHIzyXuyDseSl6NQZVSQ2dEpkKu+Mnj52b77pIAfkmgA4UdWyoBKuyqvCcPN2AshUPyWx+vjy1dXVmZuv2wwuzqy1s+EGclEqxxyxTVJCYdaS2wJE8awF6dRpC1oE/Aq9wvMAJfDtzOlyed7KyNOxJglAZ0UVZil8L9Uhnug4y1mktbe3cvrd7xi7OvBSJUdFRKawZ1J+siuH5kHlMOySz1na2ePnNfQvHasZz8FPwP5nrtHMRbCVgRpYprRzkVKu21+p0GnmHa0BbcErW6mQ89AJk2RFzTo0dpCChcjYRJFI66+sRA/+mER09XNu5vXP7RD9DGIALJJqaGVjDuqpRm2Ac8LK9fiU7JLPdTb022USi3G7wIkAa18myFp/nDa7dETrtRrvGN7KM7+w1WlyLb3E1Iedq7Tafcx3HyDJRzIWOIGRggSRRUUZ+sSvxTnrGMSKHmRrIdXzpyvSF25N8F7Q4Bl0Pzk1w9JKpIVM1EBHYCHMbF1YPyWy7Y7euNTEHwXOgDKE4EtmWax0OcLdtZJcAfUU+awH7dLJGniudkzVKOJ6TMo7jGzyHsGkEsdtcn/7MeXfwTC4aViUZRartQlqG5mzemJtb2pg7MuRAN2AF2kATXGoU72GUAv87bWpeOnfYmi22g+yKjwEtxBbXKZaiw2eiImV5LtUkYZHfPmhe29P4jpSrdQebtqHqmmlbtmE5TnG2MuNanRbcVKetcNZrPRfRoP6Kobm2CbxkB41Hj+49GHt4uuljjBXYS0mSXJPpBJS8DvubrYc+dtVDMpvK7PaVWC12pSVDl+U1WB2lzSmUANXrUf/Znm34at5ub+/tNjKx0c4FeX1ZgS6Dfc1hJ9stgYfK5nOkEk4RJD6qDjsAtQ6goW2i4ys3Fha2JvtNBJhLDOgLzYc7MzXbYFRTg/Nes3QQHpLZNSEoX+qrp3Ea+sC/qHgsmktQPPleu7VLArnR5veUdrm9tw2ICLXHY5GTRl5HeUvki88CcrCRci75WqbIEoJ+dYYG+wNmyQ1NAyhzV49ubNydWB9xqYaBqQix1Ei3DE3REWyuEmIHzFpwSGYX2m7jsim1eZ4TOhyf5bASvFycZ201Wh2FKuW9VjTyetCAUWs1uOJMby5KuZKJgBIiDA7LGYL25ItTXlDg4pmBYc/WLp+edUFRZeVy9/ytX/1qkyEZUgGMpUpkAhvK0Kawt/6QRlngH9YBfLC+7OvQRL6vgRuGnzMEoKgAZQVStQDGNmn/CNrd22yVGy1ABgmDYgKfCrsJPQw3JBWvKFVRRoKIZfj754aGbN2evLBqEYfpGiYNDamvAhEgMMrAAUpomphSggjUHdcxTWZZh2Q2VjO3Zy0wf8g/YyMefliUlGIpRCHLOnvL25vryw1u/tompLYLACd0iu4oXqQicJUIuNV3A99Lm699/nPnh/rPf+pzX/3Wm83QDtoNXXUMm5x4dO7Uw0berwmiLKtQ9YYUWZCughWdmMhsqzpf8w7J7Nw8vbLqaKqSaaqKi7wykRfbsJt8O293tsvry7NHLt3fOre52OAUBZvYDqvNg9dee/Ng9DOf/9Vvved7/6vv/+9+6BejPieJwI2Xhs729+r1yPW8aB8kkkk1SkErCYMmpAXLi1VNCWHBdGJR2FMlfcVSjtzTD8nsyjRpY1vmwaojSeQALzgDG9TyiQFwZIJyMSaPnjoxdvzIhVX97c/8+m/9q6+WUtvFcC+au19JLNvqzPOAaD7IyCCsxlH6+BkgyEzGLN3UZOxoRqSfKY5kqHBrApY8DHBDiGoiqni8oZ7YUQ7JbLHs6FUWNvv7mnFJo4hoRt83vvS1b3z+F7/0mU+8/eZ+k/FXTp949Oj+nTt3Hi2KMrWZtXexhS5PkSvXT5ai1C8tnppqRm7dt700BanJQtcN46hQQcwFTDu9sbB19cLHCKgLoAFQeCKTdUGRTdOmluIPFe912CGZ1VpOUP/0n/pT3//d3/v2K29WS5VSadnoSwBKgfeYSQx+b/H06SMPxsaPP7p78srU5bK5eXdhvr22ptSu36b1ahy2aov1kl8NHL8CGcWeXan6EehPBzIDfTx/dGKiZfXrMgUex7JKlw1dU2WkEQNpds4xtxrFh2RWbmmBl5iqFSSeo2MiZNx2jW/v1crr66urq4uLy6sXT14YG380Pnb61MXJK23NWN9aWRfW5nJjZS5vVoK0RWMffIIbhuBYwmrVC8PQYZFuh5EPgEtY8XJ7kCCkQZEV/RiAHiWabYY6NWyFsih1D8lsd5VoGtPKy5ubq6vTIBxPPrwDohkk69zcysqp9enVxVO3j48dOX764rn56dkW1jxhbW07mp/Q9k1cah7A8gRxXLzg8GGdosAGOesU/w9sQFFptpI1WhIeppKG+BwkG1UCHfyd6Tq2bkreeS/t1fcPySzfkw22fGNtZm0BxCKI+bmVt95640feemth6dHJ+dPHV6eWZx88OHpx4uK1qdnNPGuLmvHYfABje8Un6g5JIxc2jhUPpJhFfBhRHAdxCEbAYqbeAB/WUD9jWyDWRKgzQA0b2IY64FxUNQKX69uH1Vl7l+psfjrb5kTNBpI2dctPz5/te7VvIHEqhgEY39m9cun0pfnp3RqHmFX0nGtZTFeKh+aWJbSFzt76ZMOGKipyc4qzCr5dfLLgMNvU5by23TDooAcMX7zcEsS2bTjwS8BKuqqYPVlxfeeQzDo1zdImt990teJ4jWE4noN9DRhNBbI50CI/aD3cmBg/eWW5zBE3SqrVFFbHMnT1CFgmsE0ba2srOzs7S/NPtg/2MQ6DwHdc3XF0CxqvsVdblshwcYgccByYmQsoJioGUCpMAQ8rUyodkll2YU+n09sDoiBJRNUpaE1eFIoPU0CoRGo91M3dyXMT6xIy3cKBJoljgz8lGpn4kR9bu/3g6KXFjul5fa83WrCGNtMtFhVeM/IeL6nrGJCj7ctngNEpqHf4nTygNtS+aWqSIDp5RjwvPSSzC8enZTS5Xiqe4augFjBwn4SB0hQkyxWn5FhjS0tzK9fnTScK0jj0fde3ANqpeoJ9dbg7vHd51BFlgXfDUZ249SgtxXXwraEL7QAL57m25YOjNs8U1kkSiw8rJA8RIhOKQLHJpbOstH/QPCSzvckMkelrFQV4UIZ0wGvxCBKTC5VX95tYH7s9Nj42pbrQc37A3CiAAgFbhMdzA4RNuQaEgxUtdM42iVmJo6jkQbG57PHespJ8HRzhwo3JERsVNkBWEFV9C6pfN5AuK8Sl2KlUDw7JjK7yOr62GvLg/TABwanwxcN8TV9dRELohEjbuzUzs3Cj4/lpECVeFPmxfGH89GbjhAB0JmD4CaryqGp0m1CpVvEsW4eOBIQH/LdieuTOwsa9U7UhC1hShOoFLk/gv0C/ICpxPBuyneZ+95DMtD3VNKYWS6oIhgbEDKGWblkaqlaISupUx3j11ukrk0E/g92Bpks90Ih/43/8X95Kok1dJBTWmMK/xNX9882ASLsXL65rzABho2kmdDDdHZvb2Jq7fu4VHZQJZQLwuxobJsEaoC3skKzW+4b6Bg/JzGwhYkzPJlAB4HBBP8pYElVVUkCoypFnI9u5dOfW2sL/cMWLgLSDJIkddf3U6antMRHcLJgCTSUiZ6TeQL2xtLFy6vT9U7AkhQ2wbYthy9jerbUE0GcE9rG4c1WqaBoRVaJCt4LC7a+mvcPWDGUY0wuzIeIpSOWcF1RZgBYqHr4hxdXrjs0u3X905JEjOyG0nOd7JfnI3SvHtvbO8QTpoDmoimD/K1HFQZdbUHo0fXy4BorNMR3V0HWDIJXvK176o0UCmpKUTNhaAvJNM1DzVRz3dQ/LzORlVZ6aTkS+eJML6g4hXgHtCJgIC91puqYLle9BVftQaXGSBqk9tnPn4fELpzrQBoRgaBYQkVW1EghqEMYlEBmPMzN1w9TaElqen16+3BgiioT14kWGTmLQZ8rjSkAkRjisJPVDMjNy2JNr6wn0jAR2TkSaYRi7ul28LJFTsz95jPnANqEXBKXEBa+vHD92YuxC7YhUfJ6jq6Rwt1opPgiyow/GLtzaBRovmrg4+qO2trfmFlZWrl4Yxaj4IFHQCeVL8A9k2BIK3tkbAQQMDmMnU1S90ubsvoIUXHhBrENKqtjhZYnT6mzAYWGSul4SBEEYRFECCtEFogk86Wih40H9dgRQhG4p7Dnq1Ln17VwNAGAcxzUc09IV1Hiwc/fWRu214hkcIJGGqVTBIIKKb3sErEgS9Il3WGZ6DsJzdjmReQB+AeCfgEmRQdpKSJQr1n7ogeFLAEBBpDpBweEwCreonxKDwPOzeL5GVWwH9oBKjP5SElTDNI1CQD0YhJKxla0HW5PZANy2gilYFCzFkg49STSK5eLzJ+IemhkVCHGm5xPEy1D+PA9yTpC4vAXeFvlNqwmWMQFtA4vluEkCy+G6DDINA2NMFHLYSMvlgQKDejLsmpbk7TebzQAUZOAxSI7oAHFOlHpcP3AkXdZTU1XEEvCNLBvYApcXnjdZ6B2mz/QO6JH5ZVsSEZgmsHWawsPiFV+ZcWrFqdqyU603q/V67IRhtTgWYVgeyB7fPgluEUgGUJkoBtuP+wr1UCklcVKpFOcBYsA/UBxxzDDha8MagZIHx6QiOSYGlDXWLaQqTbENm945LLOaRf3p3YSHngbIoNhWOfDpnCDLEq0EsYFZ6gdJqeqHaXHQCNqB8BhcknZaBNcgg+kAFlSdptNlmFXTegRtEqdxDDUQp46PTt/bmjy2Ir0OnUgCkYSWhXs68C4pulSlggDEz+RDMgMXY3vX9ipIUASFUwgqvsKVpLyAEDku3hEE/UnqF10QBiA1XNhNamqM4dNQwwqVeUTB6Jp+s78owQhwJTLBqoCcjP3E8u12R8KGjs4D5mtThod0Kh+YgHK6TU0qq0Kn5OsUHVZnyHD82eUAuhKMN6wAKY5pIbl40kW7YVh8tM/8MACpH/oxbFVx0Ao0n4tPq7B4BV8QVSZWsx6o+uaF42MXshJATBwmsZfA6oWlSpJEnnBe16iutEADm/aADVpbcyj4DjQyjGDR7EMyE2XDd6bWDUnPwc3ADZnABMVTSwJrGLmDnlXq36+XShH0ZXHSyitODBUCUT0tijkoXrVwWdisR1WX/E/O8Hvk977NEigz6Gcf/hJUkmpS8aRPOMDGYIShAnDdcjTLBQMqClrVsKAcD3saarSZ6V3eTcRMEUA8SsBOXM4BYkiySJrmIEN2FUob2i1kqeeYBfMUX9b5yilBg64hUM3Ay6yZWZZ1bu3W2p2NbVi0SloNSyXRCDHV/FI9VD5tACxTyMtYvtinATnBAPLAl1cL1XRYb6qGbFiXaw4YQYwEkHJUqkFaQE2SSOrWoK/7YVJiIM0c1/ccA/ICJGCao5wGItNUlZfhV2SvXhn2Pfni7DqneCwspYkfgxxyx2dOdfITly4mrwOhgg/AlKCvfjcNdZxL5c35a/TEVJAGFj4sM9Wk+pV1VhwoBI0uU5+s5o4AuAG13Q0GXcUpSqwSgkINfc8FN4TN4riuuQcIgPU81xCUpn5Q7asGj7bWlq5PwC6C0wPMYJpnK7zcrqlZ9LrtWRrlhRwWQE/rw6+8/aVf//73fv93f61aKYVIOCQzDbbcuLxIgZcxKDtBBK6VZUVUOCD3pjXgIDMJoJzDwPJd14mgfGxDszXXVjrlDieacTUZGH37W/98qJs2242Ma+sBqPK4FIFEM8NSGPteBJzgsL73/sQP/Z//yr9w6SJHrx27tLu6OD81Pb/e6oW2SQ/JDMyNIk1smkTRJVHqdHiq8BxoWyHvtJVKUmGym4KJDxKwYY4LNiDyTNDSzAe6GvjSb33rG7/6658fGeiPWLJf2YfV9ZO6F1QrxUFO3TJDsARuyfUNZ98pr84vbpYXJy/PL16bvnJlfn61vL7b0JPQD9lhu2kQmedPrhO+UEGwhwDpkoDyHJBWxqVqlcpeUt9v9tIAOKBQHEkIgtDQdCNt9nX7RkdHhl8fHD4zMtTrJpV6t9urJwdJtR6FsWNQQGko0PSg3gQvv9naK9fKm+urq+stQaam5QYexGRBwMLDeJOZqkwvNFxVETgJAZEbcqFWANl5QSqlviBu3hWs6q6TpGHaTNNSmtqKBynCctjBQRikCWiQUloK60kpjYvToFW32H8oSoRdPwj9wNMM33YqHlSDpYE0l0Bumg6xgVs82AWolMOe7OkGl/NjLQbIKokchxS7OFjI5aBqJZJYpoGbjUrinx+KIvBFgOtBXEBvEMWxZkT7Cfwu/AH5amlAZFXPLwXFkb8wStNAo7ZtF8WQgqoLQQv4vmfa4DN4jdmO7fglN4H9B5d6qAoCilbG2iUAVnAA0NOuTjDgGjg8RS+yQR7sUbdSTUCrgN8Mkv0IJKEFslujsCWF9giBl0KAYQBz3w9gHnBnChdNx1IxZZ7j+w5ID+YJdxfGwcpbNrZcZrvgeYDsAGjd5JDMNMxLaExIgMUlBH8FNFTySQ+coKQEidnzmQN+yQ0DuHsXfCSUR1EayYGHJW6z0xElWZi/NNbQHr98c2xYCR/EAzMMLCJsqtwFKQpA2ZUCV59cmqRTp5Xy3hRnFJ+0IlEFdQtFtHjY2x0Xyxod7zgKEADMQ5qv8orA5xLUqOG2uzbx4shjfgTyGcRgcZzVCforNiBxpwxdNnHyxIP7O1s3rhWgbqalpJTUw3rk27qmWqFvXTxyYl0FlwVKqGHp7/25VDx9Z+1uQ6OBWXzcD8LJY5Z42LNtQwN3flIOI0Ov+6bmOgEozVLxaJAqRuD1So5wd21lZ2WnBeUA7abp4AeYJAba/ZWdjZUlcJNrMzdmbt04wmeSHbrQwnADgfVoZ2WK5rqDxk5Om0kVpKf5pf/+E1/6iZ/9XGNyfrUFDSaBDORarb3d3cXZ9UMyMzWQO6eEkOM4kZOwuE614lC4UrgCs8T2Q2FjY2tj59bSug3UBOUbBTrofs2SH01NTFyZrbXKYo7V3bGybOHHxz2gtrDIhJMnxoUME1kW5eJdVl7Lty9ulvc6eWev02iIvCiDgABotEw/TQ97rhFaRJNP5DYnioW3dz4Rg8YohKcm8lpF3zfp6qOHDx5eAjcELQQCQQSm78iano/ptqkz6tia6bGmILmN3ay9Wi63W429bTWq1+1Wp93hGwKHMLFNI6pWmgcDvV61t9/t9vegrbq9UpxWwqRaPey9EwNXL53IQ1qcRZdjY4+C3wLYlUGl6T7rOnhoM0s+/VtVkIOwjY8PfqyPHzs2ceqU4xer6Gs6rJXvJP42hjYgCmg7SAQZrm+pfMhKpVIlrNSjZrUSF0Bc3e9Wu92BXgmAub4fJUm9r97fOyQzKoGMP8WlqHjmJkS0rLgCKh46YIKNVAMw2Dt6587cLS3yIiB1VRIwvTyztLGy8tCyKfZocdrFooHuDwdenkmYebET9/d6vW7fwNBBCri2X6+HKavCKvUP9PVKUnqmv79bqlYq1QDIxNRNALfDOgCBuTqCE6h5JNNXnT27eIqmgBMkxUc8vmWtHh2fzCTFDBKXGYRq6smjd5YWbm+csMCkaSZIeqnMiSwapp5CWLrfP9qrQFrdgYEzg824XgUHntZL1TDu9p8Z7OuvUJDJAECgi+3iDBKIUFCih2TmYOj2MbkEKqiE7Ve83JbBaUpK8ZmLVuIUEP1gfpkb2n5Sci1KdW5pY+Pho52JCUMH4AfjoWkMz8rxgR3LrNIbGhk9aA73Hwz2DY6M9B/sV9II6LfJSmcHhwdHh4fqRTYsAqpy3eI1o2YA6pqH1RkM7aQSFQDL80pr1dVBagrgnSTR9ljxhBp8o2vYzI5Dx1axamiihPNs94QLygySMwwrdrJaNGhEfNh35s1Xh6r9o30DI4PDQwPNoFqKK92Dg8H9Sv/o6JnRoZESLp65qbyACexk4QgK8X7YbmIsKceRq0JdKbCzKiMcyAxKNXBEsdPXq4TULNJnQRSFzCjo5Nrc0srOjxx/FVrV1B1sCJPhm33zOpim3tDAaC/QS73B3gH03gCIgPrBQLcf1q452H/m/MDBYOC6pml5tmmCFyheAIVOYLHv+cHv+o92E5lUGRcjAyMOiIbgEKQakUQM3RlEdt9Ar2pC7haQohcU7wGYR1cf7sw9uHXRgk4BZ2UyK2Sh3fQ2bXf0zOBBbxA2D7i2Xm32xf5BAQ8HgyPpNn3lbLevWY0fPyc1CHioxzfsBD5Q2a/99b/47/7gb/yBH/jjzzOri0AjpwQmS8WnxNAFka2iHAssIDSN7Hpl9PLG2trCmuzZxYOgIAAZuLp2C8B3wmMmtSxYbUyrw5WkR6LklTPdkaL/0noKaFFvOknsgloykCy12u1tLmKxhovv5FSleDXqgG91QFSbzj/5mT/3N//kP/zkb3/hd76d2Ut1QFrplOSq1NYokdO9VgCwTEMkCjlN/F7f2S4zNc0GJQvuBEboHDt2e21na+US6C8euJKYLA5KTq/reAeDJVvguT2O62zvba7vbmcg3p1A6lhSu0MScz2r+iYYfDCY0JemG3mF84ed1X75r/693/jJX/qVD/3UV54dJ7z54Xc+/tlf+NBv/6V/808/+cFf+v0aH/zgJ//Yn/2BH//CN7/y7SN7MG5++N2XP/6Rz/7UBz76+zt+4QPf/J33v3AAsxg3i3Or77zz8u/zeOeddw89znzzv4DxNJX/gsdLL/1fsE/Ms7d0TQgAAAAASUVORK5CYII=;" parent="1" vertex="1">
          <mxGeometry x="123" y="511.34000000000003" width="102.01" height="101.34" as="geometry" />
        </mxCell>
        <mxCell id="dqdw0evUzVBGal0t0bfK-20" style="edgeStyle=orthogonalEdgeStyle;rounded=1;orthogonalLoop=1;jettySize=auto;html=1;entryX=1;entryY=0.5;entryDx=0;entryDy=0;entryPerimeter=0;" parent="1" source="dqdw0evUzVBGal0t0bfK-6" target="dqdw0evUzVBGal0t0bfK-1" edge="1">
          <mxGeometry relative="1" as="geometry" />
        </mxCell>
        <mxCell id="dqdw0evUzVBGal0t0bfK-6" value="" style="shape=image;verticalLabelPosition=bottom;labelBackgroundColor=default;verticalAlign=top;aspect=fixed;imageAspect=0;image=data:image/png,iVBORw0KGgoAAAANSUhEUgAAAJgAAACXCAYAAAGek6JiAAAAAXNSR0IArs4c6QAAAARnQU1BAACxjwv8YQUAAAAJcEhZcwAAFxEAABcRAcom8z8AAMnuSURBVHhe7P1Xk2ZZdqaJoYFuAIVCZYnUmZEZWke4CNfy01prrT/X2iPcQ+tIXZlVBd3AYNDd7JmxJmdotLniDc14x//CO/6CxefdXgLZQFeUTRWnh4YOs2Me4eF+vnPWXuJ9917i937nf6LdgN0ITVi6GbZIfcEGxzmr7catvp+24nrCYt2ohdshS65GrXu3ZJmNqP3xx2ftvfOnbTnitexmzLjNj9zNFrIhe2dsxP7049P2b354yi7M3LTcatxSq2HrfrZp2acrFt8tWukgZalhwGazHsvfqVv/5ZaF1pOWXUnqZhfdzZYbIUtsVc3TS5inFbb0dstCqzlb6oQtupa23EHNMvdqVj3IWXYYsg9HRyy/X7fcvYqlD8q2PDX6q5stVgMW3shYZD1v/iFfN1K23I5zo4L5hmmL7BQssVO07tOq1bnxcjlgka205R9UrXq/b937jV/dLNhPcpO01R4MrLjftI+mbll2r2h7X67bi//uwA5+0uaJwtbbj1mi57fG7bQFVhNWedy21GHJPekvb9a8XbLZethGo147Pz1mN73zdmVx0q575m0qNGe9+3Wr7iVseL9iKw+bltsuWGq7bOWHbSvea1nzQfFXN4u2/JY/bJt/LW+ZO00bL69aejNspb2s/d4PP7Azo5escZy3wl7cMmth8xcXLciTNZ8NkXXBqqz6L2+WHEYtzjfTx1XL7NXsOx+ft87dogX6CW5ettBGzvoPynxACLWp2x99cMZyRw1rPu1abCdnO5+1/9HN+hHzrfBJ9wfuptWDmK08atrlxQlL7RUse7tp/roP3UtaZSdlF6enWZCCtZ72LcH/l5HhL2+WRxnzh01L7pQtupO1ladNq6FTlcMMepS1yHbOiptxa91JWXE7YrWdmCW38pa9W+Hn8/wc4vjFzbJodIz/LB13LLlfsOadrG296CHsFh9St/BWxpr3ija4V7LyftJ2nlYssVG04Re7ltjn+w8qv7pZpOuz8GbOktslaz7uWZXHLuxErbCZtMKdqsU3U7ZUWrb2EU+zlbRa32MP/+1t2/miasOnNSwg/KubBVpBJ/jwWs4JNnfUtdUnDescVa1xmLfW3bK171ete1zgaTtW20Z2h0kr8/plVrh1XP7Vzeo8kVYyf69pqdtlW0TDS/sZq/FapyYn7L2bN62Ixu+96ltyELLCWtx2/tMDe/fGVYw8YXPZxV/dLN6LWWw7b3GUMcnN5hopqx/lbD69bKk7FcvfbVllO2XR1iIqUrStl03b+bRlfWTXup+32j9egNQgat5BwqlH/ghtv5OzxhF6N0xa4rhiSeSWQ8eKt/PWe1riVct28E3fcrinNJ6luJv41c3CXa8Vj1sW38tb8qBgHVYuxwovRHxWfNiw2uOBDR80cD8p85SCtpBdtjIK3eIDq+jeyomhX3A348+fcr33W17f4fod/hkJL9pyPmhZXHO2HUXTI9Y+ZgEOY6xgzGr7GD+yXO6lrLyVsOx61H508YpdnJqwkakRGwtM6xVvcP0+HsNjlwPL9vaN6/bGqQv2/o1RGwtOWKzjxU3jDL/YtNTjGsaetf7dukXaHqs/6Ds3nkT7xxfczapc//r3ogSRmWYIj5pxPiq1UTN/P2PzNRagizvHY3hY1fYXawSYvI0EZiy4ncGOMa0HXUuvl351s2Q3aUm0P7Se5mayw6IFBykL8FrZo6ZFscHUQcWC6ynz4TlmkzOWRcHThxXLHmIld5xjPLnZTGIGHctahkdO71UIKFF7d/SabX/ZtrXPunb8V0Pr7Kcw8rT1jsqWJKBUH7Rx22kr329b/0XtVzdbzs8jh6BdS3rt/fFrdnnpmn10awRtD9tkzGtdNL5KDG3gdgrbMXQLJcZeo5sZHGMW+83/I5m1Izb4uo+radlcM25tPOxocMHWnrctjYv+09PnbTo0g8JGrIp/qxNoEgSR0IrEULdAZO5XNwtUfRg4cRFvUX1StyavEm0E3C+OFvxWuF2zlU9XLEHwTa9FLIYYGo+HrGjPgjxdsukC8MnNIi2fFVjy1tNVBNu0+h0c4R3kg8P7cOyai6ctfJyvFLY+rmYu4yHwoiJbOXdVbjvHeHKz7ErcKnc7+HLskR+q7maccyzupgm4BYthryVCXOM4Y727+Psd8AjuKLFXct55+NQFk5Obxbu8Ck+WOCzznwXr3y/zivh/YkAf1xNk1dZertnmz3Z42pLtPwcSEGdTXL3n69Z7VP/VzRIsdfIAZIPuBBBqC5RT5ka5rRBeNGEJnnT763X74MYVPiBh3Z0I6tC21ZcN23xZsxJR6pc3y63LMWbcCvm5WW4taLWjonOO/Yc1AkiK0FfEv6X5mrQOrrvL/7fxwgVE0X9Y/dXNMqsx67zsW/VZywWUtRdN82Feue20VfbL9taNGzaTDoMvkrZUDtnI0pTVd/P28v/+Y26I+eFUf3kzvWYCm0uBGcLrrORRhoXIW55o9c7oTUvgxjOHBQtUZq3JwnRxnPufDm3wkKe7X2Sh/pFqpFdC1n4+tCqIxreast2XXSvtpqywlbKbAJcE+CuOXW5/VrfdT3u2isB3PukAo1iwPsEFj/zLm20Q0hL7ORfqvYC9jVdaTSI4n3hu5KZV7resCA6Lb6SJj0XzguVCRa+lB/hAkEB1z0HQsrsZf36f6x2uf84V/6bX21z/iuv3fm8iOU+4KlmecKdAkl6P48di1jxuWLgb5gqZp+a1ufyCBRssGO5nqVo3b2baIoOS1deDFmpMWWFlmbeLWuWToVU2s3bq7Dlr7mSsg7Oo3ymw+kneOGvBTtDmSh67lZ03XyNunrrH/NVlveEfcf2Beyj9ubw0YqWtrPmqhICdNItWAr9lLIvTyPFQsXrA4iDV5GrJllspu4rbv+KZtquLcwT1EXvr3A17/9KIvX31ml1ZmLQrc5dtLrHgdD67GrJgi0i6Rlhh3ZrP2tZ41LL2NxuW3qkQ9yvWxqOFew6u5LjOcZ08XKwetVvpOZw2OJH4kwJrR3jjzEEDky7x95It8WDZg6Z5cOjB1Sy2krUEEWOpFbEQ4DXQxy286IDTC5YnbK886brYll+LETmKdm50DMye42cBGfiaxpMeqA/txl3UDosIJfgLBRMucHrxe8vlJYsK7K8WbZHAKaQcgHKk+aXMLqgO35y92wCEdC0HGkzsEQj2q9wUV0Ms1L8z+w2n8WEYSOaoZStIprARsRzAbRGI9PHUTXx80TnH1D5g5dNNfH/ZKgSTEgbexEHwKN9+MA+6E0UCQdkl+CuzUyW85az+FFi+UTZ/N2cZHiw4LNh0xW8LSE/SymxhZluEwH7KOYjqo67lQUwrn6zYzlcDi/ZjNnjc4uGydj4UstKDDvctOHycu1t1EgsTXtPFqDVxezzKtx9sPj1rD/58zx7+7dB2PxtaCmdx788Gtv9V245+OsSua3Z2etTeun7R3rp4wTwZn92ILtq18Ky9e/UyziNvNxOLePSUrRGP2oSQIlCutIvZ7mf5d8E+vHLNYUjfIGZZx9+QOAaX3C1Zaa2EPof+6YMVVtKg1LC9e+6MfXTptF29ddMmQ0uQGET9rGO3Fsbs7MwNOzN505aAeLkhlHYPNoCfkf9Nr0YsD25sHtfA4nUeKOvAffkA18oyCUJPxudxcn2gTxIp8f+P2hbndwtwnRI6l8JIeJRvP9hUeNJCYIMEYDVK3Epz86hQMjqWPqpZtOez78Od0x1hdQAaH5reiFuVKNL48abVHg0hCjUrEDBKIOj6naSVAHhFcESTe3oxkLPeGSvcQ3eBUhE8QB6JZW7jIOFJ/actGxIveJRvP1i0BaPtBOCNHafASQKIHyX2A4QzMN7BkxKSBCVO3vp5YE7Y9cV5Ozu1TFyooptJuHrLqkSoifCUXV+aPJEYVt4+KlmX2NHEL+YhJ3ksO7yJgcC3YlhrEVDdJ7h3HztC8u0Hi+OrksOgRXZz/FLWYsRiLw9VxNIiSHDlcRX+lbc1llVoKs+19qyHXyPyPRxYCKtNYb0NFL1K9Bs+hgnxYHX8WH0vY2lg8nc/OucwkRfDEW3NwwAqju+VLZKZh178M1YZ74Vsw/mVjHlxE90X65ZDQUWUE/ieLGZfQaH3P1sDfwNZiO0JUFqGCJEDgFbudVlKmOmDOg+NpMBItT04H+G6D4fxlJdtBoORdJZAgTGF9acNACzuiCgST3uAQal/+mDhjh/2HsORpjB/0Tr0BUwV24DZo285GH//YR1ckCXMw2tg/3lCTV5LgvfO3W6ARQvAobwtF2ftNKGouBW1Og9W3I4TKZZsMbgEHgNeQiSSm2XrvBqwOgXzD+JgDh4MhMSjfPvBMizjEm8VhTIHV8AXxEi9WQSP3nu1aS2i+gYWJZy285I4eAD/vF0A85bt6Mdde/AXPbvzkyFOtW7dRwXrgT12UOj2ffwVUu3sgUvQszyM+uLcdVuIzdot74h5ohMWSE5bay9qJaycR/n2gw0Ahb6GD6dXBwO3nFIGBwUrHmL+T9ccrqsBbVv4Iz3UACMpojvDZw0LNEIWXo3bfDVsNUw/gUQyEOI6elq7UyZg+wDnCX4vbuXDODxk2S4tTiL9Im4lAxWLoBZRC3dcrPz2gxWxHk9l0dErHzdp3O+5mCZ/k9ivwOmK9sPzV+xWeN7pUP9Rx3oguCK4x9eFEQD280jQ3w7D0os2n1swbzEAxejYUs5rsbaWa45ryuYzU+atzLkNjsyaB8OCjB+J8zgy/u0HawPeA0CP3F0QLnrQJI7Jn/n1phCiHPqXhO6l+0EwO0sIx7k0t2znpmdxkE18EYGecFbAYWorpoEfOyQkDR4XbOvTGkgwz7IT4niYtReycIgF7qKO28nDTNIrAbdDxaN8+8EEPUNNHw6vgmWixCxDjDfPgaCzLGf/cdHehYz5m9Aebp7filuoHrdT4zfgABWssYtfqgFnqsDVuO1/2eGhcuha1TqPSrb5qmt7n6/hlHl4DKSk3ZutpGW054TrGdxrWBPCwqN8+8H484dcl7miXOn/ileA6xTXr8AifwRnBY3/a14nkPr/8H+CrSDWsmAVgnIbk8+hJ+EBescVxIzDWJsXHDabXuTn5izUStt0fMZiHaBza9Fi/FxtK4wyxwk7XYJ+xC5ev2kLyzO2/UkXipm3LNZcJBoMsHhvPWyhbtyinbSNwTeKOPIyzpZH+Tdcv5Tav5oCykT44XE+bDEzazH4/hKOL1RatMJ62EqQje5x2gaAuepexFYf4++IbQlQhyy2DOCLdaJ8FaFrWKgfsLwCO8Qmux5yPis3LNoPzl2zP/34jP3o7Md2dfyazfkWbCw0a/FBlOjiuNtZLhES9+f3/fVlfM+STYFki7xZFzKdXY9YsDZnkRqkYi1rS5WgebtpWyzH7cLiLft4csROjY3yQRfs7QvX8XOX7UdXL0BERm0uNgXNxQL5sN4dgEAXgAD0Gf75upXhgqvf7BKHxRlAv8O8NUEo3ppPD7bI9T33VPz5/dnUop2HkX44M2lv3rhmb1y4aO9cvm7vnr9uH127ZacnbtmV5VGWctrqgL5E38/yQdPuw3p+vG7F5+vW/+YA99K09rNVCwGdWsCj1ErQAdDybtmmUgvgsZZleNACKCO5BzHh4TL83wyrI7DKs/i43nBPxZ/fX0wvWQ7aNnjZszQsqfVAATZn0Z0y8CdtcQK1byVnnn6CIJwGt5fcUUgYSS7zdakTs+h6zgafblnxSRt00bIO4SuH00ywrB+PXrHxwKw1oOlhmHOQqBIDIAbB+1GuIX6suul2G779YGliVfuzTUvt1GwZvCSCoQ8O8MGBBnFsmEUKBR4qb4sdyDB0zjeAkBAdtCmlZfHzwNoK6nyzBhnZsJqD1An0smZvwjc/mh6xxrM+9xSCyQPZm+7IoAqjqgKjimlH3779YGVu0ni2wpoDqYEkYkuRTe00wsx3weSPGuCmOvFTsbNsgfWULQlIHvfMz7LV7g+JsXhy2FWO5SohsRL6VdmKOGg9HffbjdAc/1e36oPeSaQgYjQe98FzFdvkgftbDl18+8HEuAt8uI4WtPElahZbh6rVwoQncPkabPlpx6ZKAQv0gNwDOCho14vUvPxdyNTHg/rWdK4EugBCD4HUF7wTMPu4BSsxEAjQBswfAloJ59cf9ZFYAT5aweAwFHAbz/LtB4sTnLN3AIKfgSqQQBoym4OFe9cS8M0CbBsS8tmKzVVC4LQEABJi3Ayan2UXfltsoUt8SB4AUOMafNG3Eq4iBTTK49+ux338LszoYdsxbx2VlIFa5bsdyC/4jc/uwDN5lm8/WKSDIwXiLLZiLBf+h8AtzO/FUXq7CQu2kwTsUZvOB2zwAsV+AkF5UbP9r1ft5b87tJf//aFtPCvZBtB5BWI8uCMGhV8TK4fa9fjQPEZVf9xjNQQS4JTApASMPIzOJXpBux6c+qcPlul57ck/HNjdP1+1Atirjw68+ndbduenq7b5El/TCNrpW6P2g4vnbTo2Z3EY1XIxZle9s+YteRzIK2H+bTx8H/LbPsjZyj046W4Sxxm3a55xuzQ7DgGps3RVK95tWxboVEYFJGltEdRPoPW3HyzdJwRVl2y6uGQz5YgtlOJ2M+iB4I7bdfTkVmDKfojzPItlTUd5MCQ5VwiaJx+2ZDfsNht16rLysGZD4HYNFq4NR+2SC9ZE12HfEF2d3BRF81jC8qOmRWHpSaJFAett3nVA8dsPlgcOX5mZtlOQ2pGZMbs6ed1m8n5HrYL4qDHvqJ2fn7Cp2KIl2yFiG6QXlp2FjHSB4x1AXw4KVz8o8wAxB8FrEBd9v36Y50WSvMgSmK0MTy3jXFna+01YUxt9LlqSmCtuybN8+8FyuIGwpIYvWu6mQKMFi2zA97YIH1A5Xz1hl8qYeD9m3Yd86FEea8vYeHjJfgTkPjNyw8aWJ6D5uBAxqgdNdywlNqW98zjoN4SB5DCMIoyqhO+K8CIOmMLMxAl6gFKe5dsPNhObtsVS0JHdwp2OZUEYPvhlAMQ5eNm1ywvjdmH6BihB56tVlk3+LW559KXxzYrze7Wjtq1/1kVK6Nm9IvoVJ1ZGQKcFuxJZtIlsmKWsYZVlaz0ZWgx3E98rEpKKINuoNe87dPHtB0ugvD6gcgaSG8SSkijmyZFpxko4yCveGRv1z9nOpwNHdqUTiedNS25UHd2Poyd5nOrKM/TrEEsEjcgadSDVJdxcXZiBts1xz5rFMQw9VPV+FxdVI3Ik3LbDxiu3z/+fP1jEJrNLlt6ro4xVK6GkipVx/j541sMwfPbD0+cs2vLZGrFQiv7WxJxNpWOW0xEIP5vH0nZe9Ozs2E2bREKdoyIhKW69o5r1bhNF2gFeuEzoSnB/4ikAIMVS5g/L1n1Qs50vBv/0wdL88HR+2W2+5fZr7qTaBdjdktXxTdWdhO1LWrAaHZ9oW/u9GzdsPDUP5UNChKvsnSaGULErwVvmR5902J/fQL/6EbuCxM5MjVj31brbTWw9JZgTX+X5fUPwHNitcfzP6FgSz58Y5JFYlQ8iMBMnxS/l/RtYTwuyO3jcgP/pLELH8RnQaAqa1nROcnmQcAdp/ScNHgQky8MP7qOL/Ewd/3YKKZ6euelOlINrOfxYAwTSdDuKWZytOOrP9y6+/WApbhaWNfJQATx+7nbd7ShHt4rWRtmTsOXOA5j1fhpppR2D1lGEpxGAV7Z4uCKxs2gHX21ag59p381Y70HRWiy5eOYK9K+AgRSlIsRF4bgkP689D2U6hOpeKxO+eJZvP1i45bVgK4EpdxyvjHFFwFdZlrWAdHLrUYfXW3eAK9pe4gPrt8Fk9YB7iQRLLgvTWcna04Hld4itB7gWLG3tUZ1o4bHZks9aLwZWRVIpoosOqTtPV2HwJ065hTrwLN9+MGFz4X5BmBhSioMy/LiL8Gbeeo9b1sYy5VBr2kxBIsNHLSh+0ZbqfrexJ9auB9OhTufZ0Na+HrDkWbfn0ThM2PbTDGw76PyY4FHiDk4WR5viqgkmrfNzOGWe5dsPFkPH9GBB5dMIuQJ9kjxglrdoETpaSGcF/endq1gFkdcw+TIPGQPyBAj6KaERJNeDpLxz4ZSNz9+0HtLrPSxZcb1sY1NTtiSrxziCPJgyheTEda6WwFeuPmsjsX/G87cx40hPu4JVS3MJI+lI0DuIWx0dy6MnGy+6OEuWdjtqnWMIBL8jOJ7WNuaDjvVfDG0H2HRxbgaKt+SOy4pYc20nbIPbOesg8aOfHdidv9qwbZb0ztc92/+yZRVeeuNpzWLdwD99sDiBeBJC4iOmLROadCqSJCR5iJPtl00rEIBr2nPAm2uPrMjXLMG5dhC3x381tKOv2nZABFh/1bT+o4INH5dsgLTq/E4DfSysBqx9J2u+mt8mApN2ZvysRVJL5o1PWTA947J3Crwkz/LtB9PemAe06kO0SVhL6RikicTkPvRG2h7vfrVrW886fBiKfwji3IlZiQigpBtFgzbSbBxX3IesP26ylGXnNrTFNcDFNLbTEOkwP4Mew7JK21leNmfN44INUJf2vX8GKAbbIMyi3yXceHmgDDrg7UfxOXkQadmKYPf1py23gVtFSQdPUFgdLaNrvga4HvOPr5StA3QuEYb60LgMXj+Ccy3iSOv8XPd+yZr3MvbDs1d4GaSPD2viwwqEtDwr5Kn+M0tZQAEXa0FLET6UZyJq5VcKG9ipjD7FcRcTyQUsDVgDEs3tpiyL6EfAZm+P3LTvX7psf/zBxxboRnEPSA7rrN1J2RX/lJW2QvbBzXEMIWcZXM5//H//3+yjWzdsvuhFLfIWhQxn8XEx2BjP8u0Hy6xAGORg8cq+LvEP/yUH2Hy0YvWHTbs0cwsS/LFVCOqFPYI85l3kYb3VZUvz5gUiQnQNCWEsWZj1LXRnkQ+OdjI2C7tfLMzbTHoetLtk/sqCRQc+7hXDyokCWz4eHnRx+M88WJqbzpX8xK88kGTT4oQZl8C1WbAK+jF4sWZLPaAzoUnnmTmo1jtIaiytXUgCP8G4+WLVZaEs5WBG63Fr7MWw3ixLT3h6VLTdV13cQs3W4AYdDEObgU30sYK1KulQfpJn+faD6SAhs1lxAXbtp1sWZGmVVaDTkT7MZikzixPUASu+idg5EZm1jyemCOIeAj3LgRePreZsFT2sQ2KPv16zrVcd93XjhRAuugr83vm0Y3d+DIMSnEJvi+sRR4qb7hTeHUB8+8Gq4KPZwrLzynEca+ZOlYdKuYCutK3KTgSQWESBa0AeyANvOJ8N2kwxaEXQagHMpQOIAh/YuJ2y1U9aNnxScn6tidTqRylYVM3u/mTDbuNWIrCixCBkWVZK+7lNrLN17LJo/jPl30zaAlahk1z/AHMmJOXx5FWkNQRjZdazdn5xyu0053GabfD5e9cv2Xhm2RJSYGBy6UnTWe2dH/dsjwfrYIUNCIaw1vqLtq0875gfQLr5SR84FHcndhWQh1IHWpBjfY9n+c8ebBuyUPRB3XtWftC2+pO+gyR6uAYoYkUO82mTN4QrguO9Na9dGx8niENq0UElxmXxY8o2ybGsgZbfAu2wzRIBFnPL0Luo+SA32V7MEs1lBxrrxNrEIEg0wc1g+VnUiWfxcv3ywbSDpxTZBa4k1z+3afu/x5XgusX1Xa5f/tGutR7uH+c//O99vcv1A65fbqX/4s//4Xet9Z//R3jI/9rXL+Twz/+56p02XzMA9ouZt+KzpaoXqB+3HMaZWgWAKjOwGbLlOry4HbP5woItlzzmBzEHCn67FRyzudSsLaaXbTGzYPPJWQuUAhbEC3krHvPye4VVv9XXlqwFGKlDHdbv52zzXtR6GGUXz7L3vGyD4wwIHiy6m8RLhaAHDTv+d0f2t//Pz6y5W7Bk22uFVsjysIFcj79DssR/yhCu9ErUchCzUJfvg3c9sM6J5JxdI2TfCCzauZkJu7g4T9Aas++cuWgfjE3bmzfG7Y2zl917KzmqiqdMrbi8AaUYSeWVHSq1/5bw/tWIf8HmEosO3cd6fvOlF8ybmjZPcsraoPxVOFIXn94Cwa9A+lugsORGCJcLh1oN8aCwQyV/roUsCdoKVhct1QpYouuzWNNvqV7ckr2wKfk23AxaQLsZEESlneT2GjYHe/B34zaenbfRyJxdXZqx05OjdmF+1t64dNG+d/aCfefDizab9RLuTyDrOtRbecnaRypCBsJtP+ArYr6K1+2kTIYXLNJOWhmKVXnYtZWv1u3w7w7t4H+8Z8f/8wO7/X8+tLv/1yMWZMvaEIdUL+R26uLEJGSiUy05L51syYF963Tr93OQycpW0pJoUbYdtMnAFYuDHENK+qn5XA5VpAnOqYTAMjlbrqZtuhSzkYzXJrNhu+idtfcnRhzkODs1zapdsD96+2P7vT951777znl78+Pr9valUfujD0/bx2Oj9v6Ni3ZjecxGvSMszpxlO6DUxrxl+svWIHBLW9bgdpmDkpWhZKUnPWu82gAqA0dW/LbC92rEszQoQFvusVbQGsTGxmHSgk2PJQj4gT6LugYd2ym5cocwALP7fGgxoJAfAFh92LMIqDZ/G5h+AAclFs+D80MniFUZcQpDSmZWKPqWc/39eCttM7FZ++DyZXv7Y1b0zdP2b773vn33g/N2fnrGPpq4aZeWxgB8fpvJzZmv5QHVYjK3MVdwfHlfDxexxKZyNeo8IAH9Tt9yR0ML7gA67/QssF226uM1WwZKBTayFuChUwdQws+3wHJ98wHlvcTXpRbmcdwFfNYssQ1me75msUMINdiwtAO3wJx18Cu4nt9IWHULCAWinowH7TsfnbVrmF/j0dBKgIfwWsaxveQOiIm4nwS2ZQ7LjgkKb4Z4hgxflX2TXwlYF+vJbkYkMB3oClDoUPefCmwxN28JAEAALdr+q7sWAPMFV4u2DP/1rmbdYYmnnzIP7E5fBduUbRVcB7UgjPlW1GVDL+LfljontScL9QhCLdoiXCWz33QFLv5BxsKrysyCVuxUzIN/1CmQjgh0LwlaHNjH33XWEccXNb/esJW/OOR34UFoUXUnDqYUx0lg4kG4eMEC+Mjlasrenxyxy4EFqz1eAY2JTyfdjlcYkw1CylrPVyzN90tHTcfrlYIrptoAZqZxF6XlWUvPu+KaXy8wDxShfadsAYTW+mTVlWZEN/MQuDjqXYbUlczTBdtuqDCiDKkruNy8JIJYXMnYQhOGecSDQVEkyDCrmturWRY6o0y0IPfJ7tatfL/Pi1RAe2uWPGLFj+uWh/Bl7rYs/6BlUV5GyYJKS9GLVvE9a9/cRjNavFzR2g+rjk1k0WYlfymnIYPwpr1Tdnl81D64ctk+HL3qdnhzwtoPBla+1/l5qQm+D1KZw+/qiC21XWCxG27XZT42jf8DWXrGreCZfL3Acqx8iSgRR5v6X7A6PLTwchZYKg6X4MrzECFePsvDR9GO8G7FFiGRKZ0e8GL5Y8wO7fENs07btF8qbdN5YZj7JjFJTzdhaShWGWHE0L7CfsuWCQgeLQz3ifBiAZ4lQjCQCWpbQFnzXgJE6k7JVp+3bPtJBxYddFE9Dx/QlmWW3780PmF/9MbHdmbslkUQeP5hzUKDpKV49sxxw1G5KhxBZ0pl/Jdy2LWfq4qsKmRZO969Fy0XAJDJrxeYMvGF5b1Er+aTVcwDZ3jYwIzA9jyM8rkLMPLgCi97p20h7UHgSOeqQYuhfcF+1pZqYRt+sWn7/4BG7FS5V8I5XuWK+bmPDl7ju2ULE7q1Xa9UnZj2ezHDLL7Mh2/zrsrcE7wo5o978LTRJrR4GbNVgsrGJz2r7saIhD67MjNi4boH04wSqVNoVMeyjzrW+WzTKvCO1EHRwpsZp0EhfJkO0zLHWMt+wXKH2mgsooF9tzEZrwQsNQw7FqjcX2TyGh8GdlLu4iICU31DGCrZfLFuvU92XC6uh5fwISyVt0UwxwC+baYVsVtlaKXO75txWyhjGrmwjUS8Np0lmm6glZhzFPPM75WtcFi1LCbQfb7KvQfWeNqwlVctO/jppm19M7THf79vT/9hzw5+sgLpb9j+T9ch7E07Bg48+KuePf6rgR182iSKKiM6aR3YYA7I04DiBmt+W857bRlYkuiEnKlpYZKYnfYHk/sVTLEJ/W1YEfqrPWzx+iIuIb6dw+lnHaTwlnTI6BjkrxfYXHLG0rC95r06K1MAMFZ4Obj3fXzLnRpmV7EivufOz3Zt84uebcCtD79edWlFK8+rsM6SpdZyds07Z+fnJuwH58/Zm1cv263UvEuHPPhqaIMHZcsACZqYWKyh1JM5CxIQhpjKKr8fqvtsJDxrsW7IOgDZHE49v61D64wV8VktouJAO28HiopxK+6g0ZjREN9XBBKFWnE7uzBlE+mAO1vuvFqzjA4GVI+Cw0/AdJVDWn7QQXh1i+3yb8xSJ/oVGLWy12Zi85bDzSCTXy+wClGrsBl3CV3aaBg8r9n+F027/5OhVffCtgEqD1YX4P5o2DAAvfbbYtkLxFi0SdD0zeCE+YsRG48s2g+vnrMbAOHLizP21s3L4K4rFqlEMJuEXZiatCW07yzR7Pz0OJgNGl/1WP8JmoK/DBItVUlW3YtbWfupuwm+Rq19wP9vC0IoeSPuks5UZ6MCsAaCbOlAVBm/aJofhJ/cK1jtYd/iwInQBtBi7STptvyQYIDQdcKmoKKS09ydikXii5Zfj/HeBKSj38Aks5hdEqRb28vYRHzB3r52Gepwzd5CS05du2E/OnvWfqTdwvc/5O/n7K3z5+3dixfsjQ9P2fX5KfPk/XZ9ccw+Hrlmb/K779+6ah9N3bBLczfMi6kk8YPK8Un0oidJH8oq3ktAi5LWv5uxzSdd62lH+3bShvdLCAhgibAqeyn+jQY+1NYpmgatWnsMwkdQda7yHr4Up1/n/5RTNJtdMA9CK2iL9Rg/OkATcfgyvSRCbbzsWOFu1Ur3icw4+uEnWxYDO3af1qzDz5RhMNrBQia/XmBpnKrSpdOrUVtuRK35WZdraPXP+tb56dD2/uGOHf2Huzb82Yq1PutY74uB9V6uWfm4bRUcqXxNGB9wwT9h5z3Tdmb2hgXxbwXuq3xfHSftvFqxKlSmDnypoAGhbgyft2xT6SXzVeN2cXnczkyP2Yhn0WbTPksp5xeHLu1p3ilwj5oV0TztzEtQCcBrBQymLNYy5uURvapFHO1SgKg9GuBKCDIEF9UoBxFM9anMsWaVez13JifKVHuE40fY9f2yO8bafbn6eoF5imGbg6dF+z6bLXpByTjUw5Z5wSs661W2feqwBjrHgYO3lLmjXJQkD1rYzbDieZx/2E7NLNqFhQWbqUZs9UnFNp93XB5wn5fNbYPVdgCjAwhyJwINmbeoq0CJmLcRIoKWrEGEK75YA92vwO3CVt8W3AlbH8HURdoRVJn7KI1J0VEaWFWOAp+vY47eEdFS3JZFaT2DIQBNFI0FYAtoWv0ZkATTlBAFWovKkcdVbD4ZuF259Zdd/PEva+/+ywKLgpRDNdXteM3fIJQfVAnvYCmEVIGmVHCUaShF8ahDmC4SLeFdTRyxIh7Rro+TnQb8qQTi+sKs4516ge2XAzRKR29JV/FV2UxYAaeaA3v5EJYO3ZXyngdW6CVq9wd8jwXABLdfDawCZtPeZ/M4TyCoQPDTCDDO33kWHLX2SFefNm0uvWgf3rxhPzhzwS4ujBEVMddHTauAHQXA/eu4HBY9RzDLQ7mU369U+gjBIMb/97l/jb+XoUhKgUYmv15gwfoyfibmcgy9aEcOAUgwOqdOEx2j+zm4GA953HEYLQShrYDadQAaB2xmoC0lfE4Yc748P25LOZ+Lcl0io84zhW+ad3iwL/u2+bdHln9cwTzqrgonANVKg+lK97ssCNgPwVXvV23nC/BeK2Rvj9wggCzZ2dkJa/MMOopU2XB5Bz+HQDsg9wwM4+LcqF2Zm8K8Acc4diF9geHaw6EF+BwVzzWfn1SjC4sJeoT0fd4lWwihXSUgD8/7q1LR/7LAQk3Vr8UBb4TnNquO6QiBK5FuCbjRwB9U78PuRYBZteBq3J1Iu3yOB3XrP1LUirks51gXEwKO1DEVRbOKjs1/fkJ9aXnSLi4u2EXPvM1hwnE+J8eDtyDlKhmpPOjCInD+T3v4p7TVYB9luGPzbsFWdBZ7hOAPcwSOKv+uW2Y1aMmVMHgv7TJYMwosLEACDFZ93OX5T7aQBDPKBIvyEyAIMEbH9tnbNZe2puP+zmMUAJewii9e/+w30LBIx2fBuhcy6weABlmVrjukUZ5lWtldrJh8gDiZ8lCEknWSGUWNm4/qVrudsAYrX+dlqrezYCThJMI/Ea+jik/8Tw+MN4ffWsr4QOpRW6rgt/gMpYFoR0FHacGNk5rUKviq/7hqc7klu+IVdAFUlj22jdMW1ChuRq2gPbgdBDQIu83Kj0av2duXr9kNz7KDDHk0LAaVU5RMQ+OU2aHEMDl7Lwtex/y16An8cBYMt4lSZLmvCuCQya8XWJMIoTr+PI58sezHtrWLkHQ7CMktcAqrLkQsapS/jaPEz0iVO89WrAe3ayEkZa2VlTiGz6oDEYYPlTkCPpKG3MYh8wLrON3iIX6Ml63s1V1Kp4qdEqD10CY0DOeswqfesz7mjL/Z0pEdgPUBWveICHuYJOrqvlnMU9s7IWsdQnH43VCBxU4DhomSyidLYao+rKMADVKeYQq/VX3WI7gUnPDkbgTKC7iDMhiuAbmvHmR/cYj1OoFViS4JqxHxZgs+JzBX9oWT155U9pibAiG8w7hLKJLTD2jrWukOCKKKORQ2lFnQMvXYaPGSOkHr89Jy2HlAZw0GobqRKrAgsx515DkIB5RpCFyW4Hrp29wPLtt7ObTuQ14QrVXuxhaku3mEiWLebVhADaFXuVpH0BplJiCg8dQS0GTaxuMefHCNgNR3gDV/3OT+/C6+tPtq1Qkvj9aloEfSxCSKkIH6xdpeIi4WtfrLeqj/ssCyUlEkn8GZTuc9FsdBKitL1YWiF3GcflqVY7ygLpWrKeexDCGvgZR1iljjZ4aYZx0qU94HpWOGwlE6OdQevhJaCphQHcolGhIE+2R2q0TJnMtqrqtehkVqPlrD+XbxK8JY4KrGEqA3YatEveoOaBxBDh9V+UrU3FfiAp8BE1jFj64+yIP8M7iPGibZsllItc6Da0T5Cii/8ylOX+SbRRIeywNWVROYbARsAKBVWojOB5DJrxdYFB8malTlpXWuK+nLV0nL5PhjqpUBswTXUGVItbKpQytZa8D2O89VST1w2ffNh/wcD69kGmmYMqaV7ZrhxXWQXEZoIroqRNPOSBQfJg0LE/blb7SZF0db0nuCIimrwQAS9zYs8HjP2l/ddfirehjHRIu2io/r3gPMgtPaLNLmq47V76YtuRF1ab8lFWdDuHN30Saia+fpCvhSxW9NS+PHFOGjcjO4hTjIIL8Ztt5DhIgLQSa/XmAt7D1FtGmAtZTQo1YPSrKI4xAT20SQxx1bAlupdYHynH1AEHUScXgGB90+LiFwHL9SAPBnJQSlmh/lB/ZUOcViFHUWzVU/wCSJqMF2FNMmihHmRWFk5jpEz4H9Vj9ft41P61bBVM+O3bDRwKIj5crYXX1cs67L+kXD9xOW7ITsGpy1PjllmSs3rVaKWe+TFSs+BfagvSo4VgKc4FH5EbCohynfH1oBQF7lvbe+GkD8l+GyIADomg7nkcmvF1iZ8J0GgTe56WIR50+oV8aAErOVk19Gu3J72mzLmQ9fp5ZHyr1WhlSD6OcynFD1xp2Mde6pPAwkjqmoXlfVhNorbwENXFEMgs3izFNrkOqjpm19umJHP9uwe3+9bg/+ctM2X8IdXwBVwGpDmdheyDYJ+z3MWkR85VEJs04RDCqg84grjRRkUeSsod367Nxa3AratkEIRSL6meVZe3Ni1j6cXLB3xqftRzcm8Hfzds4zZdeWb9lcYspWXTps0j0XMvn1AtN5X6IfNl95yaYyHgSjXDZAKdhkmUhTdUi/4vyZNvgiAD4/eEclug0EUUfFQxBsT9ODqc1ZFl+lTBgVRivlenC/jOOPEvnarqBQeUnrzyDc4DRVPXbxRytKbn9Utt1P+tAqMBIQpaFoiJNfQ3jtI7UMIVqiXRuiXNCi1BDAKXy1ieDQPrWG6DwCr+GPYvUlC+dnrYxLiVS9lh9genWfxXs4d/lcTG+Dz2lqAwBMN8Ac1/GdSuRCJr9eYCvYfHkD82h5IcUpbDtDiJdZAgJZIZUXa6s3f7vhvi8NzKCN2r5O8eENt/3bsZ1voDTfNGyAhmjlpV016EYX5C7BqqYhi3l2MNPafhazRdsQbud+A+AZh8S3oVCEe6KqgHCOyLv2sI6Aui5vdBVI0bkLzHhctMETgC6/22XRykQ3pZdX+UwFG91P8ECaHOlnLAAvbT1AC+GiRQUe/Ks0vnGctY2XHZ4tZ7uv+vhe3ArfQya/XmCpVfxJY9liw4DNl/wWRSgqfZDTVxKsnKYyJ0NgM+2x+9FA+QS1nsoRUdfAXIIWg5fQICJl/zGEfS3oUtA7yvDGEedB/t3HDZwvPm0vZzFcQLgdME/Fa154bLAZt4tL43Z2ZpLAg786BuqA4FW/vYZwlETbOcbkbsNL76Zw9hGAbI9FiNit6JItFoJAm4RVcCPykwvAjFuRBSJk2Zowg+l40N68dtXmgU3JNbCgDlr2lSKYtjTRPIPTLyPwFM+FTH69wJR9FO+BvjFJNTjI8ZI6BlNlfPXegMil7gp5okuDcNxymle513Hbvx2ildodXVqYtO9fumHfPXXRztwas2iPl8afZNGS7v2mlYATGQBw43YT/hm3qwuj9vapM/bmmTN2auSqnZ26YSOBWRsLLdupseu4h4BjDRVYRPt+wYHeHLBCJjwavGWXJhZsGdbQ5d/qBxMErafWgTREdC9OvLhVcsVaUQB2er1gE8HrNpuYtpveURsJTdloeJpr0qazszabm7bp9LT5W8vmqc+/XmBtOFqc6OCvLdtcCc0AfeuESDhMtQW1z4dwvRqRTEi/BV5CtQVqIcAi12rQpfCu3Y4amrGC72rj/FVs31EKGf4w3I7wMCHzsDCJNTR2rQAZHlgJfKVq2rygwOOedYiQ2SP8Zytht8LjNha44Urgoo0wAWkRgu8xlfYW1wNWh5p5K/MuVTYNr1x9gHnuKTDw+fi+/U+6QJCkbb+o2u7nHQJK1Q6/bNntr3Afr+pcNdsiyOy+7BEssBDYxODJb4D05TxVv+erKCXbY3WI6xLht4J2JYAMMRB4fBuIgc/SabFazamCqPVsQPhfcU58Iee3s9O37OrimCW6eug6DhU/go+L9gL4kqhd9U3bGx+dtR+evmjj6aBldSCB5lUf4j/udxzliqwVMd0u10kKb7A6j6+CXh2lbP2pFqPifNjWp03b/bIDNSsjHDTwacMaR+Ax+GYJ0xoAP9Zf1mztOZaCH00OdUIvSpV3JYEi9aJuDbCn8p51zqnDYYFlZPLrBbYGCu4ewSf7IVus+t2WrlLq0u6oCi3D9BzUAOVr20dkOeXIN2YKTNDZYGEXM+XBC0SZNlBDRUcd8UG0sIbGRqFCNzxjNpaYNV8pYlGcsfIE1Q0hqRPtR13rf7JpITBTqBux+oMCQBUQu+q3uz9ds90fI5ynBRuiAcOnEliLxWoANvNoOX4KYW2/QNCQ/e3nbdv5pGXH/N69P9uwHrCkDsaUFaXwq9oOkhvK8+zK+1cA6h4pEpcQbu71AhP+yqwmuUnaQj3xrp47XteORA6a0UJlRWhV2CnCnOfnhZZVqtMCQB5+0QMbIYCVmMW1S0skquBQh48aRDelmnatAAyYji/aD89fdf0tRpJLrhNE6QHIm/tV+MwMJF2bfMOXK5bushCwg94jItgXHe5VdI2z9j7vEU2rCKftzEf5tD2Eu/KkZPe+Wef/u2hcydp89u2frREF0WCompJV9EwVhFMEVJeIyrrUpqcM/hoSjZXgWSHiIpPXaBg314afBDdd8MK10AwgRP3BwAlIq58BKCb3YAL4jcbTgSVvq34OUoy/2HxWM296xkYXJmwhMeNSmwRgpeZKIHHlSHC2C/Nj9sNzl+yDqzfsVhrTfzLgGrpqMpUlpdCowec7IHW+jw/q38/ZAZpU096YKI62k46haMMYFA0OyrMFV+LQNO6v4ztMOgruig/SFgM/Lpa8sIo071Xk7wQ02Iy2onXCFMeaGrtEXky0oAiJENtC+2gdMvn1AuNS9bX6XI1yqeNAhavF1f4XeDW41IVKxd/qRPU9rn/S/UASVD/HD7jUpkGCU0LZxL/Aa5xLHSBVxq/kXymTlOqf/NE3JThlCeuH/vhf8KX3V0MGadZ/Odf1v/35b3/+f/7nF+nWv0i//pd6/UIO//yfBaBEEUIcrPttuewBwDWsBPHV4YU2/jKQ2gx4JboasdiKiHSe8B2xYDvkehvq/DCkquga5D2/CC+bt2Uolhc+GG35rbJdtECzBmgNmS8zaf7Ssi1WIuC+opW7U676OdpZtkRn1gqrXqus+117gKlayHrf7EPBAMQ8QzAbtHc+OGNjExMWSM3b7c9WXf1SGxzWewDM2ctYdifhNjBbwKDiTh6MVbQFpb43IoByny1Bz5YrITjkEl+VojUPD/VbDmgSbvoFKeS/5MflzyW8f/LnX83lvK4DZRw6tMDLhLphS6yChHnRtArqB3wfBhBs8WLtmOt66SkuWbgasrnYrE3FJmwqOm3zKQhxdtGCJb9F6lFbzM9D6D3QroQVBnNWHC5Y807OhnDPzftJWzmGmEOetwGdq/ezUBTl7EOnQPe5vbStfbllP/1/vLDHf71nuWHU0i2fpWtLVoJqpToeK2sHeB0graJq8FV6DSS/GnONgedYuLHorF0LzNm52Vt2eXnezs7O2vcuXbEfXh2xP710zX50aYTvTzkMWtyAuKMcyEPwStFRqEGC+ydC+/1roTlTn+5YW/3z4zYRn7PxOIKAxgTLS5ZCgyJlr8WrAfPn5izdDCGUecsOVRvvtyo0qLmf5KULgNSorT6EquynrbobRUtB0fC/OnxOeVgqfVILUvVmrvGAynzU1nhmRSnjIatsgfYRQpjnSQM645uAYi0goFOctA+AFRXTmYH24ZXvWt1Tvn7U6gDrm94Fe+viDfuT0xfsu6fP2ffPnrEPr1+x9y+esw8unLIF/4JdHbtu1ydv2lx02SajizaPtqk9uDKBkIcglaCVIJaEJk37lnn+wQ2kXIQnanch1YnYTHDM/JlZt6LDe9AObTEfJOB2KduAChW2xR3TUIkk5ho7EQKcLAOBj7Q8FqosQ23Q2JbXkhDxOKarY7wEHDGgLJtO1Ep3WqZGeV401su/5zCXseScTcV9dnpyxE5Pjdl7oyP2/UsX7d+8c8ZO3Rp3mqSyfWll97gEE2i61rX6fqwn9xCy2dicjXmmXefjym7LUjAA1Xcf/NWB7fzDoR3+p/t273+5b7f/50O795/2bPfP1rEkuHFXiTFuP1/AXVVhEpo0TVr2bYGNRsagB9hwK4wdJ20UzYpDP7QRV4E+qJBTqZElOKLyGeI9j0WqS5ZEOElIdbwRROA5/AT+rJO0QC9r85hkdFC2q6EZu+qfsQtLE3ZmZtTOTI/b1cUFhDJp3z1z3n5w9opdmVq0P3z7Yzs7Om3v3RixNy6csw/Hr9mYb87OT162Ec81W4jPu/Rylye2rXb3LNJaDA1PWISXTWGy6rMR5z3W/2bbmjpFegyXhSOufb5pnT/bcqdGcShVartq2X3lVkDuoVfdOwXLb+V5ftfeSSxHQpOmyTz/CXD913WcYwJtquD4POlb5klM4ZznLIymqBm2l6++CsJspSzSLtpkPmwTxbAt1dJ2Nbxop+du2Zsj1+ydGzfswswsGnHK/uD7H9offO9De/fsqH1w+Zb963dP2xtnz9mp0et2cXYEoV2zmfCEpepeK/QDFqlNWWUzjl/SOWYZLtl22YJFnaB/vu3aRZUxv8EdEe6Tk6jsegzeGnEHOJoPkN8IE4hwKxsFC3QzltgsQsJXTN2bC/DjAkQ/RABR6ntaXBgOqykHMfhnAB/tKyxJYKKEqjkU01GpnYDstwUWaQZtOrFkN8LLdmp+yi75l+3swqz9ENtXOcwbFy/a986cs++dPmunb9yyD6+M2h/84AP7wzdP2+XpJddB+NT4dbu8MGo3fLdsgiCgdqMlSG56ELZY1+uKnpJE2MJOyVIs0OCTLWt+vma1L9et99WhxRBI68s9K37St6RyUVW4vY9PfNB3W+XJraS1jzOmuSTallFvQO3jxXsECCJooB21yaTKkTOW0faUzh3u1Kz6YOB6cum0u/6w41rIBDfxkQQMnfBHakkbmRtHGQJESpd9KD6pYknRpH9eYEu5Jbu5NGXff/9je/fMFfuDP3nH/vBHH9mFqXm05oqdXxiz2ZTHJtMLwAH19g1ZGj9W3EtYcj1g1YOCpXiJBNpRut202v1Vi+8pLXJgkf2WRVF/9Y0L7RTNv5F1le/K9y/zMu3PV10isrcdsSUVbg1zTpuqRx1rP1u3zL26Ow9Nb2Vdo7Iy8Ea1ss5VbMldpCy9mrUfXrhqH4zeNE8zbcPPNyyonlAbeZfvry117bjkjtU8oerOWlUJomTnrNuvixOkMPWTztuvF9hiSthp2YI4UO1lNR7UccrKiUhbUoLY0OZgh4fAz23mLXenzUvwkisZ8w55mf0mf0/jE1SMoIMTHc4mbbFLENku2zyrXzjs2iLOPaUc/n7CPN24LfNv3yr36Kdc163lVgzNatnK11suIKRv16z8vOu+qt5XR2rrD3HkK35gAM/VB+PhU/1lv72JBYwsETRyi9ZSBjVmp+zC5G7BgtrrwwQzdyqm1mN+lyScsSgLXHS9NwonWLHqaoNfLzBPcQHHHbPq066VnwxY5Tw3LdiyBIIgFsFneil1gjtp0nbSs0W9zlT9sdzh5dv8Xyfhzis9rTggl99vRV01SO6w434ms9tw/1axgo/V9wwRkkoDWWk1G1FnTc8QP4nZ+pV587BtW39/32LqXoKWNJS0SySvgtHSwIwcPk3pScvlsJ33TtvpmQnz9fJWuF/HjFlsYIZ2hqWh+btNK91X36ssi992OR3qvJI/LKHNBYtFZqzhW/jNBFbDEc5kZ9yuZ4KV8PfTLmXTj3mE1k861YXWiIIIK4QQdfQudQ81VYVRtjA/Fxhk0R4EgQ8JrhT4/7LTsAV+xt9V27ws9wm7FAPvIOY63UWAMqpLCqMJJfWYWWOBBimLsdpxXrb+ac86P1614RdbVruLX0P7h5iomkfX0CzhuizP8j6B5J0bN+39m0TW3LJl71cRStfln8V5tzhWoTTO+sumNZ4PXN2SNKz+oGvZLSIloDVb85p/euI3E1gVqUfBX031GHeldiVXLuPHrFJbVfxVzaLQmMiq2vulXLu/1E7d4odNm23GLISWlY/qtgTeKhw0MDdwFv+Xw2dFhtwDzZFWqWOHUjPzymYkamVVOIG/KjzoWPJOGSdfsiCBQsl7yttovlq17qd7FkVLakqrUmbOetx1k3FtLAGaoZrHro3dtCuTt+y9yxdtOuO3vLabcfjtxys4/JZ5WCDNR0rfLrMYORYTX3vUdJ8XakZsITNjJZ45duvybyaw4pb6loBrVCGBORT2urbUhQ5hUpXjISuPBoFXtCWsjlnqLZxQmhK0Ka2fv1uxEv4ltley8r2eqx1S3ZDK8FSyorYTMgH5PRV2yaTLCE01k8ppVWa2AoUOWbwIOLlbsSCLpaO9kqIkplMGYqwgiCIgWV3DS+sEHUCzUqFmkx7ozzgmOWJLuJbCg5YlVPKMv6qrEAvhd56vWuNJ/yTl4U71pPWhoiectY/PHqjR90njhdcLrCQuhqlljouYZcOVmhTu1lwI1om3EmgTe2qrr06+ZXBM3ZYxJTnvJh8c58Xyd7q8cN6W8F/q/RPA+atkUE0CT6JVyWIIKAcA1gSV5CaC2yiyMGApFXsS6iP4PRWDqT22ikATCDeAEHVG2nradqdBmkazVAcwozWiSCqSmArO2YVr0/bWmetwx2nXsSKNsIIA2TRKIHhRVHLyKywILWs+XXGpm1kCQwoFUCeL3pOadV+6duyvF5hWabmsXqINKxN+1ak8gGnoDFLVYHphtUBTUZaKs3yumFTtQSGsrKC3R2BQ0xu1/EfIM2VIeQ1/BeqPa+ZBM4xw9PLQKejMSRpCDlPBV2L6EddGuenSREVlwsrbwmnLLagPuEyn9qRuq4/RZKL2CIR/sRRyCSvCYbOJBcB1xOZLS2gN2otviqvukvsoRVPCSUOl1PBcvSwzWIg6TbmMR4JBcz9nNVxE47bL0X+9wNJDOF7L79Izq2oFz8sIq/gU/pVdzUrrfLKAX1I+vTL3VNSunDF/H+fNpebmx//+rjU+4ff7vHBPfS+jaJvSDMBfCLdw3DG1rdFYIZmtFqZCpJUAvcoIIiKrXnupEbJl7p3ZUbOxnOsgU0MLNp820KygjfqnXF8mTWyKDwLuuTKP0L6Xa3w+fgt/p46m6qcS4XldKyaVy+AnBWJVsKVkQBWghoE8iZp6XOdM432Qx+sFloCLhSHGiigJbp5klTpfDS19gHPF70iQeQCpGp9pdbJ3ERg+Jr1Vg4Jgeh18EZGy8tmAlWwDQlM2WfI4LXPQgZ/NoqEeIESEf8cAmjFMVNW9ChBezDKINmmij8YqFfFB6jDYRAhNqNHws6FtfbOKDwN+iCSj/RUIeB/BSIDBVsZOB7w2kkTrgUQbX+9aap9FRtAyRz8gVkN+NOyngLPXfKioovRu1nL8fK4Ws40X/V80iX+9wJRTkcDnqB+/EkyUcJIDA6lp3xJadgIuTzqnqqpWWGwSYUxVQjZV9CLsrM0WIzaRDNmN0BLaxb22K5YkWIRx4g1wj0Zpie70XuB8X/D1edN2gQwbXw3s6K+27OV/uGPHfw2EeFG3za96dvjNuq0/adnDv1i3h3/dsxd/vQVJTrnzw6p2T540LLedsOxKzHwlv+uh5ivMW0kd6kR/wG05nH1NTl+pDkR/1UepQEPVbiplziilHniigYDeos+CTbcf9nqBBWs+1zFHGYYB/NU8kSYMdNBwtxS+ILaFSdzrQytOet4qNEfQkiymOl8PWQjNmctG7IOxUXvr2mW76JlyUa4BgNz4vG1rn6AlOOz1T9o2UBLIj9fs9k9W7PP/cGSP/27bXvz9vt37yxXb+6rptpK6B1nr41PU27mvBLqHOVu5k+TfYWvsp6y4CknHv6oiRHxSVSEtyLda/OV3c9Z+uYoZ4ntB8vLD8p1VMGYWrVTeiBZPPFVupniHz3tUsPHQnMNzyOP1AovA1DXGpwQ4TPGwZciv+iipLkd1R8JWa9CNnR8P7eDrDdv9ipf7smtbnzWt/aBkFXzDcilqV5fn7EdXztsPzp+3j6dHcPgRu/PTDdQdfrmbAENBmomC6U7MJuLTVifyqjNtC6c7Ep6wxaLf9Y5TUpzyy9oaQLIJtFHK1J2i9XDKHShbCc6nDUkN0VOX7zTAdzSybGcWJl19ef3FADihqSmYPgJUZUgS+lPG1FU35WYz3m05wRVQiOJmzOYy8xarug3E1wssXFlyvZYe/t2+Pfr7TXvyt+u2hVasQJXS3DzDB68/79iX/3Hfjn7ate0vWnb/LzftzjcDW3uCwIAhy0XNC71h71y/aB8CJP/ogw/sBoR+OjJrSRz4QmnRLnlnXOLbtdC8XZydsFOjl60NlFE3yuv8nI9A0rmb5sqAjZSVo7kRBevjUzXFoINTVmM0zVNSK0zt0cmc4r2wvX/9mp0bH7NbmSWra7IG/Fc+UVbTerhqUeBI5/mK0yylQshc1Y8xTqDp7AGUNUNny+W3vl5gRZyjmj2uPC3bOlhk7WXVHv35GmE8z8omrboZRCALrtbR21q2parHlit+CPucjcdmAI5LNgL+OT8/bh9Pjbgd04+nx+yD8et2Ze6mm9rqr8btLC80mViyc5NjmIDHzgI0q0cJa91Do/CPGZxw/bbqi9AqBFRRZe5OxFYArVUior5fB+1XlCmkUkClNWH2yt+ItoIWqnhxD1HX/VeJy+pmrTFLysNQfZE4poqz8vjm5iMFqCocmmCX9cAKStZ++BvCikB5GcZetWQvCGNfND8fPlnyAkKTdg1hzJQSNp7w2kwiYu+NX7PT0+NuI3ASM7i0eMNuLI/YLcDjRxOj9vaNy/bR5E2EMWoTwXmbT6sAP2OTsXm7vDRj/gb3Ci3zu7Pmzfpc7paKFZSf2sPEVJjQxR+pGKKLCfYI95V1zBP/pK6cag6sJnLrjzuugq6OlhX2wItQpjqRMQYhT/58G0fNX5XpXVaN5yEaK+B6kIeRZAkCJ4IrYrJd7czgBtoPXWfZ1wss2lL5ctaCDb9dmBu3N69ctA9Gr9mPLlywU9eu2buXr9h3Pz5jf/TuB3Z2dMzeOqekuNP2Dv8/GZm35azfzk9AgK9fQWCX7MzsCNp10eYTmnS5iBmpCVIQsyrZgJcpQJ6bh3FbUw0RfmrrSdeau1EEleV7NdfdSd1PlGW9oXFAAFRNexoofQqB6hitzf+pFknly5ra5y0DYHPzbgtaE8fkpxScsliF0qiKoP/a46bl7xJdVVrzbGhFIEbhtubPthF+1mrHLjfsNxBYHWd7u2hjwVl75xwO+/IFO3f1vH14/kOb9S7aZZ2yzGkqQcBCrhFH3goPW1CMvo15x23GP4m/GrUPJ67apYUZG/HN2nh42uIQ28ZWwWLtgLXUrQDfU0FrUhv4IxB2g5dxhaJrYZdprcEDbUhyBT/TUSMONCdJ4Bg+aLoIWLuNOd7GfSAkFSIoXVxtEHNEwfm816aS85ZS8EI4MQSgHv4x/q3MRjn53iebbmRWBoGl0Dg1+khCyZo7mG4z4KqHkcfrBaaab7WW8jVUL1205hc966sFMJFw9a+37YDwv/N3e9b9qmvtz7s2+GwVfDNwDWzVw1gp3xNZ+Jx3yk4RHWV+SYTVI8J27hZs7VnL1p8p6Q7aAtkVVprKLthEat78dcgzpvn++BUb9S65gWfxQcqdSqlEuUfEVgqmUsWFxCUsJb5lNuP43ZOGRYmVOKYedeWCWYh6BmCttFIBbm0VqTYqJTD+YujmRkUB6CLieUByFc7aAJzrsHoDTUcerxdYpB2xgpLToCQFIlYNCqJ+O8ltdUgqQjPQElB5YC0Ph0zZcheifqfttk5WnoDMiZKL5bpdKK/ZjST8sKBEtpgVMbvVZ4R+DbMErkjt9bKRZsi+f/6S/cGbH9j7N8btux+dtgsEiOvzozbuuWX+UsANX6sdwhDQMDVD01DMKhpWPcwSGdEYtNGV5PB/JbBWpBqwmLa4IeW5B3UWXkwCvKjt6aMutAyHf4g2Qo1UzhwDo2k2QqQGDQtNWxmf1mThkcfrBbaUgyjXl2y56rXsbs1ymIt4nfpsqQJX1bJRMIuGAIY28UdEoDBCSqLurp89f78WC9rbI+N2KxV3kw+3X7aBBiBtHkKDuFSkpTaoSjHwlL3myS5aqneSbhCBVhWf9iz3bGCDr+8AZTKW7RMVCfMdBFTHp7npYT//qmHFBf6vDTYTn9RgaGUr1vGDGUxM1E1j0RQlhfjV1N+N1sN8XZcBBKmtI21XV4AWtW00GfNuPXIZ1K8X2FRwgpdYMg9Ux6+zPczTNSpDrVUTqWxnlRqrAFS1jVLpCGYlktsFuE7GZ+y965fRlktExlkiXsY690He+AS1JZfTVjZ1HjjQxDQ0czr3CJ/yl7tW1ZDqbcI7gaF+t+PSMjvPK7aOALvHGh8aA6tlHcJXq1XVEynFMoegdp933aCBcUz6SmjRxlJBLIDPIThEeU6dNqngSwnONYJHUhoGt9R0jyiuQYVgeaKmJm8rB3f1hetY/5to2KIrspzna6gPJgKBaztHRLt2H1L6QFNc2viDsjNPbTvr7wrTK/C9BDDk6gIYjAg6EV50Att6ia97hCnuJ3DoOHcwVAdBF/GXy0WgSydKJDupllMLWYV4tcVWl4GtTyHamJXyJdTCoQOoVuvszErIpYp3ELqq79SDR0dsmltxdnzK3r16xSaJlI0XPSIgfuygftIzl8/VhoLmDkhg6i6lbWptNOTBcC2CkXrfth7+hhqWhguqH62yeIJoUflhF/xSc52pVaCVOq65mklViDSedCyPnwsTvnNEmj5C8cEnf3T1GjzyCv4r6EK/2iOoXYKK5FX+omluYe7hxVFP4QIaD4e8DGaqEmYEF2cBYnxW9qgKk+gTJACXGp2Lz0usBDDzkKXXwwgx4nxhl59rEHkboPb5pMf+5ONzdnps0mbyUWsK6W/leA9tS8tSCBxgvNxRBSWAiCMs7ZOppirSTliunwS4ZuwI2oc8Xi+weEepRxHXb8Kn/fh7badJUl0dT8VQW2EWzRZKoHmpQ5koThSCm0Qj1XQj3g/bbArTWBzn7zFXrKmotqrmjoDP1kNYxN/sWufrdctBd3LgKH8XE1/LEvJZhOOGMx1Bgc3PiMb3snZxecrOzczae6PjFqxFIOJq9B/Ch+GD0L7hPRaFxZwhQr8H6Z+O4fhX5Q+bltVWtMA4kVolzCWwmfb0tWX1i53kCJqXIYAVmn7b+kkLof2GGpbqxkxVucrnctMTgQvaEVVPatUYddRlhJtrYKYqdXXclr/dsep94MLLjsNII3O37K3T5+ydi5cBrAv4lpCrPtMek4ZSJ1jJD8an7aN5n52bmrfQClQFyqOdUVWZaKf1pH8F93xFBF5L2sXJUbuCuV2Zn3BTnIvQpI3HJ5NmBVhV5lcgGu88alprJ27ZltdyCCJ9r8a9qm4zUgugLXbN45fACgS0GDhPKe5uXAP++vDTNUBr3s2yRh6vF1ig5nEofB6TDAySrouAehPqMFadRdpPV3m5Ni9WIupgRkRMHXL0Hq9Y9a4KSCtEO2W/xFw6wPrDjrUJ09p1KCHMJgg+BGR5b2zULizOgcFCrkGIqvpl8t1nm+6kSD0r1LZK3abzaokABSrsxmzzOUJ8WHeTPVRToL4V6uqkch8FkxzgV5E5rCyhbbXyYiHQfu1c6J6qKC6B8rUpKcCaQ5M15r583LPKMcRedZjHTVt95ZrV/wYCa3isyirPa0oIq6KNRM8g7g4iNK6w92LD+YEsfi2OSqcUadA+HSKod5hmXJRY/TUwl2qx60QyFXyplYIipep+gvi5d65ddUM5zkGdljsnTYXcJBKV4HDvyoOBtR6vWk8FWysRHPiijUdmzIc55oELNQKIiuIbYDrNX6wh3FQ/bTd80/Y29O3S7JSNxBdt+MUOwaqLH8MHYxnaZdVORfYO5gkU0qxbUSd9dmJTk+halhrCRnAbyOP1AlOTj+TAb0sltRsFM6lNgSorWH1RiQoIWBtxOv4S+1evCWGxLGFa2EXFUy1UW22qimiEdhNcOfNdTXMiUEBuM6DtJcL/IlcAdL+IAFWMryL5AMheIV7Tw7QH136kYTYFu+KdttFYyKbgpEoNWLlfsR5Qw+WjwUe1vSMePOabsneusBgjY+BJBPD5OgFFhbA1d8Smln6avZxG81zzEt5NBfrqAJPD9bQA5U2xENgF8ni9wCJqWYwJaCx6dJ2X44PUEkEcLEbojSMYjReS1iX4oNpRz23OCWqsQHvqBwlbw9EO8VktMQVojArkq2iaozXgMHUa0HSWNPgph7bUj7sIR+31quZDUDqWE4xpYf7luznbAMRqn6uKvxmovQPRVki8y6IUNkOA2BTQA9TeC9hCyovARuwHF87ZXDkIDlOviow71dI7qFyx/XLN4bAW0VlbP8KVEl4J9pKq+rAUIimmjTxeL7Ci5jrA+JdKXjchQV1KdMqjYqwMWEbt72Sqimhq8qjTHvV+WH214UqF5YC1N6WuKEL+XT58AKitYKqFnYRru6ek3RoAVLXfNTRX9UEhTEaURc2QNOc+RrjXidQKgFQJIq5ZCD6y80Bnh/i2hxWAq3hvxposgPLBNF0+047aUmrRIq0wmhtwM/E0tSi5WcRSTqyhAY9UI7YT4K0WDIBhhJdaTVid59CeWg8AizxeL7AsNy+uRc2DSZYPWs7uXSEpqyMqIZihpA5NQdKRlo7I/GC0LCYhcp1b4/cBfxsg5eqRGjlm8S8pBJZwlEOdBFTHrdptdXlStW50TZt6FZwvL7SvFyAqE0xULj141eFnIeu7WghBlJOqNRWNtu+hvXyWWsloIJamYraP0fBHFSJm1JK4jgTYS8VaOhmSBqt/xcnmYR64xKIDi/T95QGLByxpwC01crYFbkQerxeYOjvJNyjl3NuBGilFCG3SwYeijObQKrFDfkzZfNI8nSQNCQZdNCzVB6zexkSewMfuFZz5uDYymFYFjVPrmB6r28BPFNDECALztMNoLn6QiKWUgcoDGMW9rhX5udVXPRs8gNIAH9afonGPSpg3QrqrDndwSWnZHZloGt+JH+sm7IJnysZjXpsu+Wz1y20iOlGUoBRBm0r45MYzaBTAVakD2stXcEnBJZNrLDy8VYcpPy/9e73Aou0gfogV21DTa7QBWuFG/XAz7SPVH/dh9wWcZdXlU0ho6gycRTM0lEnhXfChjKBaRM2tF31WXY0zTpp9qIGGm4INsi5jftFuxJabaMbTdbfvrlLD4rEa6+KcQfA6tpcpa2pZ5xG4i4CiHQppW/V2nCvhWjX08JelraTNZ712jUg5q4bjK/hHtFMdD+L44ySfq0zD8mOoFvRKRa3NxwMXXOSbK2v4s7LPhkTyAp+PPF4vsDxOt06oVt97Dy+TIDKqSVlce0vKP0DF1U/Q1WujaWov5YpPMaeiGkAiuDbOuOMcPsLcjQIyeTlwmBoKKTdfZLl2mweE9GpAUBxnm8RsFNoFT7SjENsquT45w1eiRVm3ZR7p+J2we9y/xb11OKI0dtEm7fnLlyno7GPGjf2oVYmE5cc9137QU49hJTr9qlr/81UrYpYp/GTRjZTm88FkWrw6fq0K/JFpIo/XCyy3Ch2CHC8UPbaE41RqkJpon/RBxdcgsPQetEL8kugpYanXVxGkLk1y28homKYfiTtqR0FbO444AwzVZmoNaLICt2uBsEsIfRE40Hw0dMkmIuC6nwOZ99tuK1qjwfL4qZ1vDmzlZ2u2/Rkgk0VQg0p1RtELitDvPm/Y1qOU7TzTgQ0OXXm0j1sIvmdzQBeR7CTPX38+BFqo906b/+vyOURp0EAVV9QnSLVREj0/8ni9wFy/B7RBEy+X8C3qvVW83UajFDHxBaxa8U7bNS7SAe5JBSxRkA/ahCh3wTgVfFgVelFAWOKO0irtuWtyfoZoVgYGlIiaGeCLChYyWyfpkyG0W01ElA4q35IAzOb4vRakPnN/YNFHuxZ/ddv1ReygYS0cv4ZuDYEOKpCo7Gr0cc3WXrTwj1A83mXz60N3kCs82X6xhp8EYD/tA1n6WE0WINsA1GYsyBWHz6q7k7rsFXAdyOM38GHdoHPMnorf+RaRVaUiae9emTRKtNPuZW6/6s75FCV1zK4Bha17mOZ6xDVYGz5uEBXLOH0wF5qlWW4yJ23NpLh/BQetyv54L25xSLJ4qZvxtkNUO8RvEsGE/pv4m9xWBA551X7w3js2Pjlm/sK8c/QD0HgNP6YeZS1MeTy2ZON+n81OT9lUeA4nDiOAWmmqo3ZeNORHeflNvqexuerhqN5nfoB0ZB3y30q64VAbuIH6gWuF9XqBqX+rihiySmUi4og2qLuTWkVVUV8dGsxV4Wk44YB7iAT/hyO9W7fmfbUyOGlCWwGH1Y80vBMOCO8TrtEg6/gw6A41Cvg71z6GwOHB9DWzKQCI9YD9tDsqPzl8tWWDTxvAirpNh2ftwvSkzWWX3aKsIcgG5qijuR5RWIFqMT5vM5cvWWf0lqXm5mwFwZdeYX6Ym9s2ggtH+LwSwUOJNYXdBpbQcW3rd7/etDzMJAEPVkRPs6jI4/UCS/BCmhS5VPZbGvIqX+JMUjsEsPvK464Fhgm3R6YW7mpYpObXJX6nhRMWjSnsxt3eWB/zkHk7f4Zfy20CLvFzmdUAYLbl+nNJuHXuq1G+mmmdgJKoCD6Prxl+tmq3f7rpouJEdNnlrV6eG4PrAmQRVuUQPonp5IiO6g7QJcD0+bzqesC6mL8GkG5+sWaP/+auHf3VNte6O+/c/UyJLWu2+qxkR98Mbfi04JhHATfQA4tpOpgaeCOP1wusikbVwCAi39pf1363bxWVxUTU61B7X+HVk/0xAVnlW6QBneqTWsNX6ZBCW9EtfFgb/igfpiCi7RjxSW0xqwdibR9ijw9T7wi1fxk+6dvBj1ft/l9u2f2/2bDbXw5s65OWtQGqWy+59666nYDwAcNNRTEEpnl+Be7dll9FYDohr2PmaoirICPspvHtDayigNCXyiE74/HZH1+6YReXfPa9q2P24dS0XfLN25n5EZuC3EcbS9AsWMbmb0iNUgOVxQRtMjFnyzIV1FVUxddXuiQwAWqzTPj1873cbtPlhmnbZ/3rHZB9yppEIvWDWCUSqp2U8Je6a2rzUMdjOqHWvpiagZQICqJTa5D2J3+1ag/+vGe3v67ZvZ+s2t43fVt92YQa1WzzkzZmksYvQrgR0hqEfBVqtPWy7TBTEuzXRLPVSbizB8RAeDXYRP9hycJ9v40EJmzEM2GTgVt2bV4pC5fNh/nGMO9p7zVL468XgqNW6PmtAxjWqXoeV4I8fgMfhsBUCDqtesdm1EUrPzhGM3olvOaTgdM0ddV1icHQojA4SntJQuThXgRKgoaWpyzU97mjf7V8aRLm60LjaFwZf9NQjRC+beVx26VH6sxRsw41yHOAYPY+xVT4qt+XScvJrz8V5krBKPKuEmTtKbyU/08OAq7DZkf3Rmu7aMjKM+DBAyAEkTBaWrBk1WOpZtDS3ThfQxZr8++e19oEInUHHjxUQnCJxc5A6zqO5COP1wtM1WD+ls/89YgFiGAKua4NljKe0R6lO6olqWaop5TKiQ8rQ2MKwA9111RntyTRs/bJtnVeDhFEyTafddz4OB2AqPeXyLQcfpvvafdClXF1eKVOm7W6YgxdpS8JKxGAmvhH9bhuEw2HOPg+pu36wip/DICsht7q3KmTJaVIVQVFAKMa7q1qN5H8+l1cxb285VgkHZZopE8DP5njs7WTop49mjizzTOrudLPp/a+XmDaa6rB2JfKXkctFCU9+DDXVnk35zrqqh+qEtCUFl673zHXKVi7GCthG3y2aYPPO7b304atf4UZohkNh8dOGnvXcfodsJqGNmnfqYr5ViHWaoimLeIiK97ChNWlTtxTLbTU00x9p29/vuEOcNXqRdW6A/zbzqc9FgGnv87vQ3uUNtDiM9RPVm1PdWreQNCpjZTNloJWFtBFi3PcTwHHHf0hZGGvIZhu8yWLyyJU+Tnk8XqBZdY02sHn8hPSO6g7EVDbu2HCcGQHpIyDVUlLbA1KtKNdSm3zCk3DM+9p1yCMn4r9/KRIdImXYRXVn77HzwxhAg3XHovoiQDXnqteKGHLlYDLXkxjQnlo0kIFfIam9h51EGzTkqsxwK6cfMpWH/V4YSI1fiqPUw9CmTTlKtGHDuFC1G5GKVs6J5VfVcfQ969ftzfOXLQon6FOU4kVBAyXbGMZOdewKEYUT1sa5UjyPIFG6DcTWJgPj3a9cElMsx1Fi3jQo45D9GGimY6+tNef1CyjrRyCBNfAx4RzlAbQhVbU0Ka1TwYgdKIXYT+1JiFCpnXivRlDUGU3yL9+H60dRE2LtISf8UNfwqDtyeSSnZ4esZGg1xL4zxIRVcdq6tnaYVG69/Glh2C7ezj4g6jbpdjQmSj89qp3zsLtoKsSqWMRDSidqox97ZCtftaGk2ZdQevHMzctgYUkEVQbnBZXCQ5mndUBihadBUUev4EPQ2Dd2xDTPmorfPVYEw/q0BRupqZDz06GKSmX3jcgGt3tWwTflsMfrD5vsqKYajMAwPTaDFEogTk1UPs8vq2CY05iOiWccxUfUQbJ+3HA5xen7a0bN+2DiXF789p1e5e/f+fUafvg5k0LdtNuoK36tvbwWSLa67CI1SdlaFbarofmXOeCFnQs1vDbOxev2SSYbZVoKt+W7Aes/eO+ffr/+kv7T/+f/9V8RPd3r1610fCCS9GUiecQTpLnjOrgRDsw7YgtZF2B6esFFu+FLMIvellt7RzklP/JKilDp3DECh3woPuqn0bTgBnailEtUBF/1OclJuManjJnf3zqgn3/zCWbSsw7CKEmt8rWqUK4q0TIEtgtj8b6iVxvnz5jb390xt69ctHOTozY1eVJu+GftTPQoJueKfwYYBafUjqIn/TWx7xbOP1Ay2OnRkZsOhhylbirmHsQIh8bEpExtUg/hNZ6XdGVon0UIO4vLYK3xm3UPwoYnrGrvnG7GZq00eiELZYXbS43bZPpCRb6N8xxleMMt702X/K41HIRYTVVU9Wact07T1ZcP0EVC2gjsXSn4/bftSPQf9YyT85r3zt93n5w4bydGr9mIUxbfe91DN/E2QtEZvEVPUy7tAqEafpsue7DJ6YtjzkrCTmj7B4WINgLm5u+ToROr+T42ZhNpqZtPrNg08kFAKyaww1sKrloyyWfK0xYzC24evCp1JxNxKfMD5yYz8zYUmHaIgjP12ABdzTYOkW0DPJsUdhJDLqmMeERAhTPydU5+g1xWIEIGWl5bQ6k72lF3LmdKja081oE93S+3HQCTOzWTEVaZRC+dktzRDvlQGi/PQJaTunICtNRqG5ikgKzrSMoEIL31Hyu6lagN7Ned6yho6oNles8waFDm2rPhxDnDtwTUlwJ2ajvmk3HJ20mMY2wpl2rwFBzwYq8dIsF0QTleDdosZ7Pnb5rv0wz0KWZytzefFrGz+Vt42XV9onit7/s2t5nahDXsTtf9Ozg8zZmDnaDSfQeCAv+huS7hF2rL/0sAgvAH5U/pY29+oOhFbliaIaO13L7ddOUAzcKDB+mAi4NM+6/0O5rw6ZqcX4vB2htADyF7NWRnGiHk00N43Z5YcreuHLFdSXXIYt63p+Mnmi6A5DmizVH8JuQ+joCCdXnzVuctnjHg6Z5rLQRggbFTJPq1Y9aHetEwlvKtoY5bMISbn++Zps8T/9JwfYRzAZCa6v3K/BBHe1Wnp6kYLXgnHWghxJaSkANpYEKFyKP1wtMW8yxrt8W1el8C64Id/QOMi5lIH6MaSi/Ct+2zEu7zL7dslUe9q39vAO6blu8H7fr/nk7N3kTjZizNsFAoLB5BAzBL6i/81I16A5x//WP3rfL8/O2rCxDgKrIvTb2CkTdJaKlRpl1WfX+Y5hFx0cg8gN0AbX3tQ/WQDBlcFjbVl6W7PDrFYR7cpo0IDqr134NX9eFVKvv4bYbCk3gUveBNQ3DB/KA/ZSXL7CtXA01jRTFUvNxlUMjj9cLTDlWSh9SKrkOaSsP2xbbwYkCA3b/6q5FDiuOiAusSsM0xUWHsHki4ICX9uM4vfiRMvQog3CKm3FAK9TjkXYnWEE08vzUBBrms48nJu3s3LRlCSDaLNQhhcumAUb4wEvR1QzagRsApNb4PyXPDTGVez9dt4MvYBFEwkNI+t7nLdv8tG5rz9SSPmFrT9BqBFuGx66D8zZe1mwPDdt6VUGDko6si6ArIa+0EYZ3gtvUnWA1wAW4xd+q4zvy+E1MMmEa+bVc8eDooTpQoZO6aIQEcFVreGXtaXtaPfBVgqw5awkoVAaspA+q84JFfEgdqqJh2GVNmsHkqqJWCHsqOgleGieCxWwu7SGYZNyRmo6+NLGh+2Idzjp0YLaAsDXIQOmaQvb3/2LThq/KzsxWnkK7XjVt/ZOGrb2oYfLaDud7T9FMtHr7OYHoYd7uIuBjrt0vTra81Ws7pVKbNWUq6SygDGANObrWx7VoQJX28ZDH6wVW3FQaZMYl1ar0WHOMtBcWgmDrBCl3rwxY1Sly2jxCxLxsHE2soV196MzqgzJgNe5OvcUThczl/OtgooSOrxQB5ZMacRsNLtqt8LL5IPZpMJ5mSGqDUlMh0ixCRukJIPw6lKkEoOw/zNrB1wMrQm3EQ7detWz9RcO2P+9Zh2CjfrGusTfAdv1xFQjSQvv6tvtl2+7+2YYdfbOOS/BZHpqUBdiqXYxSswr8W6kBauegNAeZsvgs8ni9wGo6AQL3LJS8bodS3S+VCqBomX8Akn+16gpB3bkkP6exEM3HQ6vie+RIDz8fuuICNcnOQD0knAHcT/lhHbSs8xB81AnbtYU5+4N3PrIPxkfcEV7hYdNl7WRB3ZWHHVfIXsUN9I66Fmx4gCMp6z8v2PGP19CcLg6+hLBqaFTedj85aVWqXYzuw5ztf9qxHVD9zqseRFrVtXW7/2fr8EV1SS+h9TEoFeYoyga90h5aFtOUL9NRoLahyr+pD9MwzjSaMF9cdrsRSptU8pxGJLqGGPgqbe/odCd9GwQPX9Rk0A4mpC0V8bSpTMDevHEVzLTMw/FAUCUR4Rzm2oQYF2AK15am7K0rF+wywFTmLZNU0YES3HS0p4KEqtLYYQ7KiFTT7jtf920PJ7/5QnguDVw4mW7Vuo+gtEf2rGPrL9s4+IEdfrVpFbTaBzBO8k5dfGGbn1OyoCYEntS2gxG1o4x25XRqzvtoPIfazQ8IQMjj9QJz06kQykLR6wo+dTYo7coe1NzpcIZoUkCbdCSm2Rpq16BRFNUHGiDQseJa0Ca9kzYXnrMlAKNWSiumDrzK6NHDzBdA6KMj9p0PPrYR35KpT4U0uflsBehCpOXBy9x386eHLAYEHPPbwXGvwSQKvFCFyF2Q30HwGtfqw48qoscQvPbso2h/RpsF2vhUZhAuRU3V1gg83poXFBAGCAddDklSXBk3pPGL+fWQCwZq6SDhIY/fQGD8oI7D5gpLFtCkPuGr+ycV+INXG/gXHhqnqGy+MEg/B4CNYPsFfm/wFPzzSmMusoTzMmEcTLah/aeo0zRNSFYRwnx62c5eu2q35hfsPCRbRVJF/I9Oo5UZqMRjLUQWf9nDcWvyQp37ZwDPgW4IjUtaUDllw6z5qmEgkM+WuDwlP3QpbF4ifLAUtqX0okX5ew3XEi8vE7GjFse8y3BHUTWB6YQ6wKyEbHi/imniv/fjtgZ/1tQd5PHaZkVqvfk9LjV5VbNXNX1V81dJ+l/aJWG9th2WBKZp6ZqaLqlqinqCS2r5L+2SZr224ZqkJynqP9UdV11y1S1XNvwv7ZLCvLaln/6hb36H6wdcb3O9yyX7/Zd4vbZppP5IaDJNtROWtsnR/Uu99P6/ti3pP/4jwenSD/5Lvn4hh//257/9+W9//v/yz3/uyhQPdMkP/rfrX+71Cz343+bqF3NBWyx4zd/0WWI1ZtnNjKOwSkb3VH0Wg7IWoLvl7ZxpQqTm5OW2M/D+opX2SlaCjudgfuq9FF6Jmb8fsYjKC9bT5m2qoXLIwn2+3w65ViG+qt/S6rray5m36Lfp5IxNJqbcuc9kfNaWC36bSy3ZWHCS65bb/A6WI3ydt6nEgi3mvHyd4Zo2fzVgqRWdfUXMW16weCtoOdhnqAabXIMtbmpWvo/P81kRuq1jFKUZ949L1tiJW3M3Zu2DuK0+0LTwtEu0ah1ErXcnZR0l1N8vW2M3YfkVr0uoyu9p8+tkdvTWXxzYq//1qb38X+7b6suOKSdd52Kptt98qTmb8YzbcmDWAtEF80amzMf7xcpLlu+HrbKVcvkAalBd5p5NmLWmRGmzXNuZ+a2opTfCLqtOm1CupHYrzs/HLbESdX0F47xnuJuwuaLPxuILtlSOma+ZsZkijLuWspFUwM4H5+3j5Wm7FvHadC5h53zzNp6O2Zn5WXtn9JpNpBYs1FepG7JgHbPDhKW5d1m1gUOXZijyLGQqTijELvAlECrF+4Wy/do//0oNoyczHpvTdDkUItQJmrfiM2/Jz9ewzbHgU7llmyt7Xa94XyvGgibMU9KWgdeiragFakGbzyzabGreAuWA+Xnp+eScRSr8Pb9kS5k582TmLZjnhUqL5slNm7cwY4HiHD87a+HaoqU6AUuyONle2ErrCavuqNgboa4igNUIAkApUGSlfqsvqU4vYgMvRhE01ToP72vWjoffXbbKRsAlkCndWtM83bxFvrb5d2c7ZPXNoJU2+D8Wt3tUtJW7ZVu/X7PuIUaDoaRXIu4qbWuslvraJNw2bWYz5vrXtx41bPdnO3b03922w7/ZsZ2vBqYkXLUz1naInrG2kbH8IMz7+FD0GEqlK2Hd22VrHig18+f359L8oBJGm13nvVxmoIw8bUsoy3jUY5eWZuzs7KS9N3bdfnT1kv3g4gX70zOn7ftnz9q58Vv29oWL9vs/fMv++J337XvvfWz/5o037bs/etd+9P5p+5Pvv2ff+f4H9ub7F+w7P/jAfvThBXv//A179+INOz85bjMo53Jl2Z2El3a1QagdVmSMfNEP7cyc4dKGg+iQqJCUTsr22uEpLhx+cOuaayOzmMGz4GlKaLOOoFKDqGsC5MuiIIlZW8TLLKE0k4Ex82TnnCU2d5LOE5TVwooFUGFoFavUVRgG3dc+Ai1vaUiTH+sLYZ1Jax9p+BxC3Ag5C1XLK7VOdnVKu7KgkLtyaz4WK2ANLD7fC7BoMbxOyrJ4pIIyEXezKETctdXSYY7GhnXuVEzp9KlhxJIscJ7fLe8XLM3nZnjGFJ6jca9prftKFo5ZTIrKO0fXYxYcBM2DksvbJvt42UHBlvN+jMeLZw3bZGwZL4vxZKN22bdgFzwLdtXvsw9uTdqp6Qm7ldBAh5ilUB41DFChmoo8agcZUzqragyUp1vCI2lyoubGqR1ZkUtnDjoH0bFggqjhKXrt2vy4vY/yvHnqnH14+bp9PDbCWk24SYkTCb+Nxpcx+qgt1sNEiQTKmbP4WtzSeMP+J6u28fWOtV91rfcpHvcn69b7vGU7P1u3rZ8OrP2ybIXbeUusZXiOFOuNUbFm2oHX4KwMRox+aNtvlkubE9e4tEkjRdPewy+U7L/oyfTNPxgJIKTlcfMUPK5JSo4FS+NBlOeR6KRsOeezkdAtrMnjXGhhVVZYckVlmkytzCNVFyszfO1R1V0rhBzNLGgeJKxOGCpuBVls/X4QJUy7PmqZvh9vE7USAs30/FZkURpYkObYqTNCAgWJ4s2UzSSvqtSwNCEvhncoqNhWnWJQhGCLn+Hy13w845LN5RZsFm86nyXElyI2DwS4EZ6361E8bClu12NeuxhYsou+JXtvYtw+mJyw0XDILi4u2lvXb9h7o6P20a0J+8Gly/bGhUv2vfOX7E/OnLM3zl+wty7jPc6ft+98dMq+e+pDe+PjD+yND9+173/wgb17/px9cPW83fRNsjjI5rjmDqPUdkgFMir0q2JAJbyY8rBrewXCe8zVq7kiP670CqEQaJFblXJnLNLVyDuM+IFS8hpWvVuz9sO29Z8OrPdsaP1Xa7b51a7t//lt2/mbQ9v5hzu2/++Pbe2vtq33kzVb+4tdW//LPev+ZNVaX6NUPxna4M/Wbe1nmzb8YsW6TxumwbEamV5YQ/EJjZocEu4GLYzM0Q/tKWuLVFulUjTtAMqjaWPrF5s6/0UvJs3710uEP/Vgine9rsZVAy+SLFiQxQqWlm05O29LXH7CYaBKKBsELCNL42czmpXAgqv/pSovEwM8AhgsyhUHx5XVO6kbx8pY7EbAAq2IhVT814ubBuXP4h1HItM2EVuwBRThVmzJLnmm7ePZcbvqW7SpeNiu+z12dn6OhR+zN6/etPduTNj71yfsjbNXWezr9talm/b25VEU4ap95/RF+/6FK/anZ8/bm5f5/wsX7E3CydlbY3Zm7KZ9dPOKvX/lvP3o9Af20eULNrEIlluatgWwyvVpPPnoeZvA2OZQyKmgupyFbJpnm4zO2kLeZwsl9SQVdio5j+Fp8m/eO4+HLB5qfHLJUv2URRteZ0wdl5CvnuontXfZNY17CeMxQnjZNNgQeWFA8h45FyaRGZ5cSRJeZB1EvoXHDSt/0rEihqzK9YJaexIVknjtAh47zWfr7E3ludVnXWu+HJoGUSqFaBlv6uvhnTZrVthruWbZ6jLuHeTN3yOCrBM9+L0m92uoqwfrslCYB5MvYJiunbkOLIpcUjIPl7aXL3DJi2nUnzDZL/DYP/njFEzjlwurSYAs4aOT5EJAzbgtAfxvxaZsLIxLBnCP+KdsPDRjo6FpN5phJrFM6AigAJN2xaNZPer0MW3nZsZtNLDMwkRsIhS2a0seu7bst4+nZ+2NK9fsjctcmpNzFXc/v2wX55fs/fFxp0Dfv3TJ3r5+1c5M3rJz01yTYyjHiL1z8aydun7ZPub66OpFuz41brN+wpV3AQxy3S6jkMrTPD9z0y4tjNo1zy2ekWcOojw5cKXep+xz7ffSeIjGEYuhI6vduOVVPPCgZpXjgmUB9o3HVVv/nPDyxbrV8cpFVWc87drqp5vWeToE4Det8KBuvc/WCT9rliHcZh50LHO/ZcV7eJk7eTwUeGs9aLXtuGt0VgRP6gBUlw5K5b2qeOFEN2SazK7uw+VdiNN20gqbwAm8mbe6TNjEs+yr43AeZcuar6sKORVqlVxzjsbDlZOmH7qUXwtO1dj82uOuS06OgFlDkLPgNiFYlW8oUxz8p+csoqiRbtoCePVZQu18AShUWoJ4LeNggDnrv0wr18lQikszJLWXrzmSv1Aw7br+egVTxuASQFwsbTqybLd8y3bq5pj98Ydn7V+/e8a++9FlwsFl+8P3zvG9i/ZvPjyPt7hm38NTfPfsBRdKfnD5Itd5+0heAiD6zvULdmr8ip2fvmFnJq7aOGxq1Dtl1xbHbCa8YDcWx+1WYMpuRWZRVMIZGEcZhvJo8zyLzkgXIRUa0Z9aUyp51cpqYQPTSe7AcAil2QO8Aliu+bDj6pTytwvWedK1OuEkgxAT/IxrWoQgVQiWPW6ARXZs5ceH1v1qz3o/4/rzfWt8uWmlZysWU0//HRZlr2rRg5ol7jQtCmMM45lit8F1d1tucoXLcHrQt8qjviX5vmo95S1yO2VIQBp8BYS4m7Xe3RygH6VBYZQIk1wR4w24SRMq+1Z2Un0P5ghpyEIIPJUYxrpoH06MEK6RVXDOZisRV9up+ociSq0GJmqDo8RsNUkpHXctwfOo94e+qiNE5SEyeNRFHhWXpqZ+IzqYz/F+SvdQlZ8qoWPrOZc57s0umj+7YOHqkotORaVV4EV/jsGkYBpQqlO1/20KluuXYHUeW2CBb6IEb189h7c4ZyOLt2ya0DEGzR1dmrJRQtfluVG7yvcXswFbyPpMQ7bmwDrz4LNQG3evtFhwWgCyEISFxcEbKcBuQbls90q4eJgSVxmvUMJj5G9nwBUqimtZGXefgsGoO72qp9UdS+UA+TsdhFk37ypufUPdYFjYwx6WKcVpmRdLW1jJmY+v0d0GV82WwTBLPIt/LeuuJVz/osIF4WuhGUEhlDeIwoKTymrHg5J48G6LNb8tqgwJFr3Mzym7q4XydQHMtUcd185Hdbb63erTvhUfdywNLorunZR+qgVj+1iFKyVr4RmbB1lXuViATChzQq0x8utxKxIOUxCKAgxVJaUJwtjV+RlY4Ef2xkfn7PToiF33zthSNeIqrnufrvEcfVeLK8VQzpAfOfsgAy5ljwikrA6V56uplarOY3gv1xsP4K8C6yDQR4qpNh5qrZbgHiVYc/uBimzy1gFTq91kTeWtrJtGpqMfv72CzadnbS41ixcBB+U9FgYXtD/p2vHf37XhV7jg46yryV/98Yb1P1u1qjJYHzZRmIolYUcxQLuaHlTu9ax6f8C/VZisDhGa74Ki7LcsQuxfRIje1QJ/r9vysGCL/bzNdTM238nYIl/n2gmbacZstgGmQ5Ei62WbY5E1liW5UTYfChIcpCyygvI0gyhAyDwd/WzeQoSN0ErW9V9Xo/ogAFn4I6ZOjlsVvhYJCR33XBrbsgwunG9FuT8MDFjgHaCE/aQlttX9VR078q6y/Rc5RbUXAys/6FnhgPe+3bbGkxVrfbFm3Z9uWeMzZIS3yBOyMniYzn01GEQxYXKaIK4k0dx66ISdExpreNYU+EweQqUU6v8yr0FJgRmgwYhdWZixMUjIbBIc1oJwHdasDqDX+HiXpYcyqV1JGoVSBXtORU38W6V0ajyhtCHN14mr5wNe27WBUpjEiPS1dPdkooB+v3akFG5V5eetwv/F8l7ze2YsEYbwgT/Rj99ewdRfL9YRyMddFgD1VSwLTLH+0yNeqmsLrZTNV5M2W0MBGgmbasS5YrZA/A6ulXjhopukMosyaKbFsvrHd+JYeso8feg/lhLh5dXwRp5JllRmkWIsdnDAPfonA4087bjF1op4iZp5eknXhz6MZ/J2Eq79egilTO3g5vFki3jLJX5nngVY6skiUWqUbAFysoRiaUiSj/tqXM4yOOakMwkWvKUq2bJrTSUrVgs+1WPLC+QO6q6/hJ4viAdUP7BFnmGBz5fiaSCAcqzUg6b8rGMrf7Fv239/DyXbBodV+d2iZVikOt6jeagFA8fsngD3vNtLS+G9osjZx9fISdclvMlsBuWKLNrNmN/O+xfsnVs37a3Ra3aaqLHYTlvxfsfUx0stjtUwRLOMhLs0F0TKpdCXIaQrDV0p6RqcLodQcA4g59Kk1C5ZoV2hVIMGUntADW2UAyE6hNTmPX4ez5qMz1py4qalxm5YbOqXrd9/OwVTT1VV5ytJ1g8rCmLdSnIrIcQIoFSFDOq7o4Yfyt3XJCx1gFJliL5KkSIsegIvpW6ZMUKVm4LF4sj7JDbljUoWwZuk1BcWT7PcCMPAYuZFgItNKVIepSMEbfJzeI8wnk8l00F+VvfSmIsov5/eqbnwoIYjS10Uuh1xG78JfraI55GSKFSpK4Km3Ejwsmo3FX8fBQe/xbewdJQ95rBMxuETTUgNbiZMQwlK9zoooXrtZ117LiVGq59aSrjssGr1F0PrfLlq/a83rPEK0P+451o9dF+sWPtx09Vcav6SEvYae+qbnSY8Khs843qe5YZhvsf/oTBRPPHo8qSd0UwmiM/bFy7Ze5eu2Ltg2vdGLtmtNLhIDPFR3VovV4gcA9cQRa0P1UZMrb5UteNFHpJLydXnt2CTLauxfjU19yXEynMp1VZeK8/vlfF8GZTMUwvZbGrJlgH3Oi0oD+LmR7G9U2OWifyy7uq39GDlJUehi1iar+5hwRDA/batfrHrauUX8BZRvFSOUKehMyoFX+J7Gj6T329bFtyjUOTh+xq9Ji+WIMQVDvFSeAzVo+r/lvkdeYXIDt6AUBqSMhLO8ppzR3hRGm0GoJ4Eq6ikScrRfDi0ylHbomuafAgwZdFLgPbh0w2rHXcshyULP4XxOmpEpX5wanKXZAEiWGwMa80dIejHa1Z5smpp3iuGEqnZZxbQXn00AAI0rfl83bovt5y3iLOgEUKdQopGiQTWeR8WQ/1/1bZDFY8Zwk7t2Tq/tw156Ftoi1AM6C7cKVjjftHUwb6MwtZ3s+CvqDtmUtvGjDYy+wH37yJkQNs8c+EZu3zrql2ZHrWRpWm7MDlq51ngq/x9EpzrZtbARJU1KyOv3uuaBiIKc8UxFIVGPasqmZSM7kIk7+AMiNCpRl3qaaBqp9KRemlWXbatusBWkV8CpxJp+iwDLiwQxXLxCWskZmyr/cuE8t9OwTR3ObcWd3USWbySF+amKsk8rEXdK1JgGClRgJCiRHE1whNNFtbSpT7CGnbTYgHVrCGKh4husejbuHNZMAvZfgwLYlHkDdSH2IPXLO/LPQ9QCMA2IaYIOK09XbPUnTbKBlA90GfmzYsX80HRl/GGKrbxuxLXgsvyDwO6NZ5KZWRe3sED6FXpl+Zyidl5h7h9nlXhLUK4DQ1PPLDC8xLGsMS7ahCRjzAZUTczfi8q7zmUdwbQ8/OatBTkq7zxErhNP6u+Vo1HQ8B+3fW4U3s6ZemW75Wt86Bsa3icdZRCOEyDcFWYpA6Lmv2qsv4CIVKJ7y1+J4UBaobFbDJiVxcW7UeXrtoPL1+yM3O3bKoYgLScrIUaEqqvizCnYEcLHNh4Kvmp1ylh7skATzq01ivw4hOwmZQSEqMm2fl7DQwBfAmOKz9sWxoFjMJ4szxfi3C69+W6HX6+bvvgyb2v1mz9c+71qPK7UbD6Jg++QSjr+SzUAIsBomtPNOBx3fWPOunviSWqYFtFjQgoqVoXlE/WrMuNdoGtJPbU5Flt4RDcTh33TVhSkws83JwwEYriZyFV7qZCpToCSmFZATxZcqflNv+8XbyjwhweyQeGig5QjD7KRBj1gIeE1wR+dTwSQ2kC4DUNEknxHuntBvgvQWgl3OFFlIrdebbK86olaAkgDuuDkboZaPKsMDEvbDMJW3Q1PGCnGJjFr0FMeF0VhqofoBbUNU3EM6pJkDDacheCoIpccGaI59Vitp53be0V+FVlcy5UguUaXhvL6JB5yXyNiKlLgNLV3YE23ixUXLJJz6Rdm5iwy6PT9tYp7fWN2o3FOZvJeGGCqv6ogfM0iQuiJKzMpXFiLpRrrwvioDbOGchF6WkLUgDhethhvfBaeDyFfTU20qWooLapmipTJULV+D3tz1V5dxXlV48hRIdpV2CBfvz2Cjafm7ciDy4K7a0tQ9H9ziMoDMRwocswsqVuynwonoY/LaAAujSKTNdyP+qwmLyEuhCoe4rrNEzoS+BtPIBuTSn1CJijFJrfJkVRdyV5RYXcIEwuhiKF+YzKw7ptfLNi+3+5Y72XQ1fAtdxK2nxF90DAYqM8h0Y3+gD4+rdwmrppqqeGWnYJyHvULoL3CALoA2vygskTsA9l9/OcoXU8MR5QrFBNMYvHXUuj7H6eSTVWXpRP4UcN4VTBp3/Le8lDqnGmOsGruk+t59WBQQpafYRiPW/YzouOrbLYOvgO1Hw2FpqxC/OjbihDgd8d3q+Z2t+EO16bKyw6HJnH4Apq+vS8au1P69b/pm2tr3oojLzTuttU1fAq1YBpT0+t+d3AQZS+yKWwqHqHou79oOXYo/qmCWqcDCLEMRxoq0jZID3XAjaNsuvYrrAStmjH79pedPCUYr864Ec/fnsF8xYWLNr2WaIftAjKEUKAYhhdcEmbsKf207EdmBMuV9NS1XxXINlLqFMpeJKwotaIqqPX5p8WMslCF1ho7STHj0pYlliOlE2zz4MA+5ilN2Euux03824ZoO/v4LFQ5AZgefPvDm313x5Y98tdsFwfxYSllv22CCjVJFlvB6anMIZX8hEKwyiyPJP+LaUVqNdI3BgYJLFdRJkI7QLBR10WRXtWMCt+PqHNUUK1FGkJQ1nU+/N3lXEKNCfFegG+Gu4c/rmnVCsyhdI0XjF/AKjmnuoXkD+q4DG7dvAlIUatFDfUTiNscQxgPuOxyeiMmyUT7/rBYGHTfJiTuchgN+BAEA88t1Kx2b667/fBUF0UomWdV6u28gUYEnYohT4ZHIti8TvVuz2YZd41O3UbrUcoNYxTMxbiezmgC88G7lLPFnUaczv+EDbhN40EjbWQe9JjWeSr4fzdx1Wr3IG57oPHICrox+8A5PPSMbQ3s6qDVxZPAF4MTA3hFQ5YsOLjrq1Cy7s/WYdBrTkwKW+g66TfJsAcb5ZWeOSrcE0Y5hfDS2iqkBtXANNZZpEieB6NGl7Am43nlh2TDPTyNgneCA3AUgqleLVZ8M5kKWDLdTDVGp60re0KNTJFEcBwc42g86QawqgxCcJaUcK0iEUMhRPOSuBJ8yhCUewSZVMoz7AQsvgsrDIKEE+BGYsCz8d1vM/AXUXCRAk81QXPDH+8YcOfbtjWX+7a3l/s2foXQ3DKuh18tWoHX6/Y7T9fsTt/tWr3/27LHv7dru1+1bWBSvSJCJpsHgV/VR6Xrfd1H9gxtMGrnmn0Z/M2MAGj1uzo+bTfrnhm7P1bN+2jKbU2v2WLxbBlIUJ5FKT0qEf4xpNi2FKUBA4gjNGn76CMfE3xLmrgn75TwgnU3U6+Y4oAejeoiHCo1nMOewkbw2pVZJklOhRh+9kmCr8at85Rw5qHDQhfAUz+y57vv52CzcRnLFjzEibxCNo/4gMrWGTOYS/tGBOG8CzBAeEAHJQ/7KIw8lRpp3xBrCnCogpXKYxqPmvleMCiNwDIWNZOzf3fNEoxXY/YPFaz3NX2RNxmKwHzCEth5aFWyiYR9GgkQChBuaJhu7w0bx8vjNt41uM2UOswwgoep4yQ6z/fJCyzUMUDLPoQoTwb2OaP9639isX8fGiHf3lou3+9b6s/XbPtn6zYvb/ctFf/7tA++4/H9un/cN9e/g/37PG/37NX/9Nt++L/csR1aJ/8T1v24t9v2pO/3rLVBwXr38nwtUhYy1v7NsYGaFefrY1HLdt5VbftT4t28HnJ9l8U7PaLim3ez/L/OgqKWg9F7bDoGg1bRtlLyDgxAPATklLDsCXxcNmVuGVXEw6mDAhPK/dK1rvD+4DTNAUwwzuqLlIdxwXMgysxiAr4CRatTgXCjxr9GsUZZNQvEdJU5tlqj9tWJNQJQ7sR+hAShdeaSp8xOjHvgoZzft6xwYsqzxJ0Z8xnpsGC3gUbScz/bhRsLj1ny4V581aWYDyqntV41TQeB4/BFcOK4jvq1xzHjavRNvgH60yqBBjAX1edNiRAC96FLXaf9AlFGgScxh0LIxTARXmr8LV9F2wBPqgTTrJYXgKBJ7HKPHggQ4iYyQTsvbGr9uaNS/bOyGX74ZVzsKoL9t6N645VjWWWwE1ZwnfLtr/p2d1/u2r3/nbVHvzNth19s2mb4J9VFngTj7H6sGoa56OctBYgWNmiqtls3CvYxqu27XyqblM56x4nrHlASODnQm2/JcFaNbxcnn+vqP+s6jWx+AbWn8XLp8FVJy0EU1bWERBssCOQvBWzVRase5i11l7K+vyeRkNqT0yjhNT/X1sW2tlv3QFrHZxUCCvxMIsCFvCkZUKYulz5gBIJPLDq3jWetkh41LFWFpDuSMZmxrHXIEoZWI8T5suu43FaJdo8c5mflzIJc8mLqe1rGFImmFIC+Ku7fBKvpqEN1e0Y7xFBwSI2AUY8M3HdLs3etOnY9O9GwWYT0xYtey3HB9QR1DrWf/Czbdv/6brtfN2xra9qtvppFXxRt+GLga282HCAM3unAyAuEaayLDpeBZe68cnQnv7tgX3+f7qDp9i3Z3+7Z8d/tmZ38RzP//62vfj7A3v8bzfszs86tvtF1TZflm39mQY7IKxWwLyliKtqHvEu25W5GXv76kUU7Ly9cf6svXHurH3/3Bl75+pZu+EdsXDDj/WjMNuEN20TDPzmry/ZOAYzllwEV4JXGnGXkbtYDNk136RdWZq0m0uws+iy5SEvm486tvm0aWvqVMrC3gjD5oJqZU1o6wVRgrj176lRaNzyOxHXlmz4sGwrKjFHiTVUtQFeae1nrOFyvaL8O2VdvGobFqu+b/qd0i5AejNM+AHgP1B6jJouFE0V48oPU1fn0eiC/cnZs/anpy/wjtfsPAY1Q/jM3sMov9qy7idrbpNU+EuH1SIZOhlR0/nCHW3rCHuBfYWTgTRSygK/m8A41HqkQIiUFxPY94JPdeidI9S2UNwBHlKN6APIT0PHKmDW1t4vmyX/dgoWqQdgEXEnnD4h4fDrAcrVs6O/3rDjv9mwo79ctWd/t2Of/cO+Pf6LgT34umvrTxDsYdTW1AQBQbf3IiddBxHc5sua3f6mZRufER4en3SRqBxixXsIeQ+L3k/jNcRSMlhvHCAM5gNvhepRm8/67SIh8T281zs3L9n741ft9MyoXVqcto9ujdgbF8/xddTGgx6UcNomg3M2BUPzlpYs2gef1YI2HvHY1aUZ8+TDLkvj4sKYXQTTXAPjXJybsA9GrrlJJEt47PLtmPUeq+FgwmWRTheCNpbzQCDi4KQGHlftwOVxMiwCCwEzVIeh6mHcXZV9pd7ws7z32r2G9fDSVeSog+7eUZ53PGlbrozWmjp24PXU66qNYunrELy0+bRj5S2YLUq9lPDapG/WxjyTdis0awvVEDClaGpSoUp4ZVLoLFKsVkqmZtTBtaQ7CtJImLDSnQH5zSddwqKSBepWhTFKAfN4v/YjpfcAKx52XPsD9csKJ30WRU6uRcs9ItGx0pmUgfs7UrAoYFla6/AAHyIlqOqoYyOK8NBkcIRaY+bkStU/lNjeA0RmcOn+DsxzhTAKs5rJLWKFU+CoJfPW4ix2zG7GZ901jwfxVJI2nfLaDSUYJuftJt7iimfELs1ft1vBKQsWAe+ZoF1ZnnSK9aNrF+zNaxft1PhNuzQ3aWemRlzY1OzY05M37PT4RTcuNYcnWrnXJbxnbSbhYXG8Nurz2Ww25DJZ3xu9bu/fvG7npsfs8vykfXjjmt1cnuN9CYXqbfoc3PO0CjRQe/aitcEo7ftN/i9vKw9r1rtbJBzGAL5RK+OJqk4+KBf/biOXIeG/hWxqSv/eDBGKI6bm2dVDtbYCDqBY2rnPrGlqVco6yLOGkbnsip2UqdmRWi0k8SAJ1SIQJhs6O1yJQoYIn7dhrMc66aigSCfjfjTMQFceQK7+sDpDFfPVGaN28osopHCYTkd0PKZtFB3cqx+j/j8pwoCyFpBZAzhUYw2lYGWUSpNw2g8L1sS40I/fXsHSMLtQ3eeS3zrEcY1+jkKltcM/kZyxKwFAH2HjfIBFJsycWp6wMxqZkwjYzZjPTs1P2KlZwCFe46PZCft4ctw+Gh21969dt1M3btr3Pz5tf/j2O/ZHb75rf/jDd+yPf/iuvXPmgl1DaW5yT/UvXEApryzetAtT1+3a/DTKM2o/IjwKj51Cmd4auWhnZ8dc7cB5fmbcN2XLWa/LW490Qm7OkbzhPIz4enDCZtPLgGhCFqwyCeuMYUR5wLHStKsIsqIzwVWfNdUx/UHV1h+3rMmiF9cDYBJAPF5Hwwx6h3mr7wijnTTbVQFJ85Dv44E2MbQ1wp1LHSf0OaVRig4KpNbRCoPqLqpph1XutfKoaVsvhtY+BlOhoFlwj1pvyZuVdsGrGymL4M19Orrphi3Mevgxek0m1PQv7cjLc+lUQU1X6g/US6QEgwTjwoA1UKH4GBb4smet5x0Avo6E8m5CRXQ3Y+o3Uldb/OcrVjqGNOAZ83rHJ7zLy671UcqajrrAqK0HkIGj35EHC1Y9Ji+mwZ/Ngxy4Jmoz8SU7o0Hwp8/b99/9yL7/9gf2zqlTdurMeXvrvVP2J9/7of3pG2/a9954137wo/ft7AUww5Ub9s7H5+ytj8/b+1eu2anRG3Z+/pbrvTaZ8tlMPuAm8y9AiQOw0lvReRtfnrIprpH5Ubs2e8MuTd2wU2PXXEnVu3iu98du2Flo+1hw0S4sjNpHkxdtFnyV64P7mhEUJ2SJFovQDloczFTZxqPcxUhYNA2J2HzWtZ42DRGwFlZT0NT6cAUCsK7mJ2CnzhEhntCmplQbT6queefK45qpD24HRqdzRTFBFZPkN2B7kAVtRqqDfh2vIKNUAYsOi3W+qEbH6sqspsglkQcwmlpvVxQmnSIqVPL97bgD+22l+sDoVII3m14AaM/aZGLWPPy7Aq7tv1p3u/PySuoWFsDLRTAo4aok5EXnk25WA14qB4mqPGlb9+W65cFfCqud50qx6rpMC03rbjzqWxGQH9tCUZFLlXcoaSujEzkxVhGYQz3vL7uy/nYKVhXFbQQso6k+CCGzHjNPWbnwc4SwSbzYgi3xst5GmK8+W0QhvS08HgwkAynIYUENdcZnkbJYq5qT5hFc8V7ZWi+6VoPxVbAsTRKqYUHrX+5CGjYsh7D8dY+l2hEwYMq85UUEO2HXvDfsw9HTdnbmml31TNsHt66AwcbMDwHIdgC41bDFed4qLl7YRWPs2jCtFdippowoo7RIKOsiYI1uTxF6kiyKupBpAKxAbY2wo9nOdUKFCktCvZAFexHzNkMO4M+X8CKdnHkaCfO1IpYC69TBOMpdL8Cim9xXI4xVu6h6RbX71tQAzbQXoG+Cv/oP8W7HJZQID6VUHdimfrZImFRSosrg9H81hS8wsNoMz+SXbUFVTHmPLZaXCZnck3CdwyNqkonrCUhYO5lep6MjHdeV+F7OzdJIw851billVE5Y5o720TSkF5YOyFc7qNpjMNm9JqGXsMrvaO5/A7aagGiEYdFqUSyvu/ms/7tRME2VU39P7dFUd/AM3aCFEKralbdewbJgfb2fDK2Ii2/gXntfbFnlZd+yeAD1J938i9vW/HLFOp+vWR0Gmn/SsIpSRZ72EIoOw6u48I61n2xAkfumKcQaXdVD2dZedqz7EGwAMPbj2abzcRvJF+1quWHnU1k7vThP6JywucSCy1UL1jym/lVd19m7btuvurbzad+GT+vWUtt09T4lrGk7pHKgyqME+CmHhZZQ4Jh9ODFq3zlzxv6E60M89KXFBfv41i1779pV+/jmDXv7/Dl778J5uzE9aVcnwGxj1wHdMxaqoWRrhGFhU3UJ34mClcBTLKJ6MRfBqgoxbp7HPgquS80V+Zks+Ey59iI18n6uhadqLNeihHGYO6C7gIIsKRcv73WXr6I1gPyAj9QMMgMzLKrMDk+l3DqNARNoF/7y9ZPuNCWNoua1DfTJBorUc2k+aupWuNt298gd1XEAFdOZqjCYUnuy/bT5IjMWQ6lLKG0WQ1An9VXeRTJGP357BVMWa6SVguaf1EJq8t8S1rNQ81sa4bU/6VsZ76A536mtmindWLldkTUsx+VpYT0IKLlTxaNp0mnRPOAf30rWZYt6ehlb7qVtoR83jVssabIyL9nkBVced2xDlTC8vL+dsZlSxc4GC/a+L2vXMmW7lS/YRBbvSggZEur00uob3b4PztG0GTCUmoS7tqPaHSc0qnVzcoXwCauMDYVl1F51wa4tjaNEV+zU1Ut2mq9nbxHCZ8bt0sKU20W/DmubYnHnYaLTFTw1IdjXwfOt5JCJWK7PNORPIVU9xoqbYbfpqvlvlW2F3SaeTXMBFPry/D0PU0xCEspOGdX9TunTeVfUGnN7YBUUTcBfBbtD2N8Aj1bFK2YGHkhIwLWzF85SL9sOYU+dmHV8paMvl9mqfDU8WvkOmOv4xGu5UAq4j+CZ3Og0ZO7mIfDvxG7BpR2pNbZPFWGsU2OlYEkiU2kTVvuIkAos0ACZLaIP+vHbK9hEeMamIvOuRN9bXXI1cXNYk6q51Q1exxFJLh1TqIOfRoIoGU8pxbKQ5tMVYv6GtZ+vYyVNl7qiydA6D9QUaqXyyEUHeMnU7aqzHDVFr2DtUo4MQp8vLtnlAOAekvCjq5ft7OSYG4N7HTIR6WgfCoV6ULD1Z3U3/kP4QHMJ+tpTOsJTOdBMCISR5Qjdml+gIQwaPl+BYSVhuYFO2AqEufUvtm3txxtWe6GwXTYVRriRAQhdyYSrP963xss1KxNO6njsBt648UiDJiqAe/AWOE9N7qp7UUJmgvBMqION1vFaUrw6SlV2RCFpfWCCiom1BaROzzpAVinb5pMWXqKGMiqcg3tRmjgKU4IFqql7CDwUUMU8TFebpUq9cdsUG1nzoxSa8a4cOuV7KR9fB9eaMpkRgSA0a5NVx0NqV+kKQvB87kxZR0pAhMrdruUJsXkcSOcRkAHDSK2GgA9lO/jxlm1+NnBtJdGP317B5uKTNhUmDCVnzQe+8mOpyyr/r8csyAtqh1gKEtmQ9ndQHOV4da3xYMXtLMvdhgCLAZ3KA0p1oKzD5+VBwhVbLCAsJS16+lLOgmWgyc2XAxt+OrB1sR2A83xqxka8GqN+yd6+eNY+vHEVNjllCwmfpfGC2oXX+JQunktdFduaAAKrE+ZRH2A1PO0/PGlTq3YD6vlbXo9bXeeM4BuF1piqafYAw8o/g2kVuEqA3wLhO4BXDujAmEVQUmFZEzO3yhZl8ep4zp2v1uzw6003KaRCqFN6i3BW81j7fEVAPaQBcK2jngoYLY+30oG22KKaN/fwTtr5V2WRyvJ7anXwEAyEzCYA9h/BkN8nJJ+embY3b9zg76N2AeOaq4XczntdI5W5tzIuyrebziDc9gTPqnPjOM+tWdKlh8oDw1gwSGXnatKcpk0p+1W5+PE9TQJWQqeiDop/O+8mgGorRoO/83hizWvsPCrb4Onv6CyygHBjAO00sby8dYLB5vFe/kbcQliLSzUGJ3jxAqE1QP3thgOX2klWGVfpQQfqu+YwQhoPFeeFNHNQgtG5VwEFjbHQy70oXzVk7WRGYRXM1IOpqbxeOHAsPGvnpm7ZDy5csTcvXbYL07dsIqym+H6YTtr2wFq7nwwIq01cuTZBYT9iaDA1beQK2KtkPzGIA6YR5GrcIiIPNVhxxmfxfh4l03mqcvSVFZGw2FreqhhNCUyojcuTweLqg4+183cZTwUv2YFddu5D3+/AAlWtzWf18WgC8RplU9iNueb8ObxUZkN9LVCMLSUUsrgoVBaPl8O7ClDXdVxDaOwQ0rW9EqqGbC7isbPjY/YGrP2PYO3nxibsCqF7DIKVAYxXMETN2Vbqswag63saiqlZ4sq1dynUKFNWCv4YovOAcMnPaBCokkB1XKRoI0+me7gM4m3WFVlpk728pn2wmJUPEqxJ2dbw7j3YNPrx2ytYAK+VkyLBotIrGhqStVAjaguloHn7UXdCX3mkrMmBlTUlGQVT6oty35OEFyW6KYRWYSfaIRawj+zqpB+a/3IV2ow3wGI17di5axRTYSnD52Rgd+oHnQfDBZtxuwRr/WDiht0MLNlM3ItnnTFfadkdY2gwi8ZaDB8RLmCKYm4rCFPTBdUzWjvjNW0lSMhfrlr3bw8s/3nf5hGgKomUUlOCZWpvyL+acOk8yq7QgrmR+1xOweQV9D3wig6KVz4d2vZXXVt5UcLjNvCWLTxTAUVOWbAetdnsst1KzNpCYdH1l9D+VnFbR0OAbzCglF5hu4LXaxCSlNHaJ0z1Yd4d7W1heBr/oVOG7505j3Fp7tyCzSRiMFxgyP2ulZ/BBO/ihY7bLksiBQ5Uhqow2QnOOvFYBYy1CB5VokLlfscRrKAGSSBrhUwNgpaCaW9MhhZrwmxrGctC6gZPy7b5Vd1WX1Zs85OW7X+18jtSsNoSrAW8BfVPDgDGXR+MBpoMVU/jcTS4NHfUQDGq5pVHYGFUmaJwKUtQ+3vtDisNRBaSOcDDbRR/nuKctiWYSngDQd0dIKCOc9Mlfr6F4Lr8W41WitshlCxkUaj6VABPNnbDFT58cP2aXdexT8HHQgTdPpPmFCs8rj3ld+9wL7yYhi1omyCL18gCauO74JPtBtaNQkFI/ChYBPySPjgZVKjaQtU8apSlctiSvI/Kw8p45OajgVXvEZI0XwHrVxr05idduwNTVn+JW9Epewuc+Menztr710ft3OQs/x6xM5MTFmXB1FujLZB/u+A2UnVoLm8mgJ/RFgAsrYey9MFMKrytYRia6jaXnLRpoEpU7QmAKL6KB4gSxmC5h+aMarOVCFEgRBZutzAE3gVDcIU4YDd5LKVEVx6jgHhOzWGW0kWF8fgqxXRpOz/fslBWa0kZHt2orRKlVp+Vrf8Kp4Ci9Z5VwWG/I5CfwHMVCX0lhJ4lrCQHMQu3ErZQCdkS+CmPMuRgKCreCK4JZCZtqRtzBR5+SIAWQcmJ3WcbDpOpPEzeraj9F6zLP1QJm6aC6NAV3EEIUrlURcMuHuWs97ToPJCv6LHr8+M2ujRvVwH7Z8avuXYA3jxhD8CbhhWW8AxdFlyj64S7NHZd3kwDxgT24yzwhzdG7Lunr9mfXhqz714atR/y9fz0kk0med5uxh34KuwlDwHBhG5VDGkqrwQuD6s05ICyRjCY+EEegN+w1RfAgGOUscvC55dsOTVvS1wevFao4bckssgit5oUBsBf3ArjqdQYpu12+VuHqpGsonhFlEqEQHPFAOcaPYVH23vetf1Pu25SSXOfEN/3Ww0ZdsC6qk5PHeHxUZ4wEEa5dgG8p5I9XW6XMlaOISxqYSCcxrtlVMQs9okSZ/l9bVMI4IuwaUi3khDzRBGtwarGNvB+DZRObH71Gez+JQaAwqEfv72ChZsa74cH46syMENNvztXXK5qcCS4hgcTUFSNo0KNMlaVauwS+wT4wV5tmKT2XbQ46u+ubQvV8Mk1l1Ryjxd0g91+Hobq4IEhDK15D4uBxm886Zzssh9nIA85W3+p4R1N6z9Ry/SW7bzsuiMZpRlLGdVbvn2X0A0g1cyMlcd1tzGoopUbYLmPZ0ZhoPN23Tdnl3yTNg6Qnq97CYsxtwsuRRLOUh5b9rCBdfecl1bueh1l01d5MxW2FglFvacaXtmCBeItwU/yQmlwVXQYAIMl3cQ9ndcqPajBz/RQJNU9Cq+5imkWXuMfyngypfrkN+OW5lniKKVmgs8QMcbi83YtNGvjcY+Nqk4yPGfTeDNnrGAqXTHCmw+DVdat9rPcTCSUS/tfqugefLrBBZtXVus+a4H3EutX2BfIV4RRK4LUHqweWJQBw9VgtXU8bQYokUHha0cZGzyv2e5Xq78bBYu0fRZseMEUeDKEL3e9WFy2yeyS26aQJcjNKmNU9ZGqKtYMEKXeCteUAfkaQyFLSqFgOnR1qbkKn3iwNFaRxC2n8FwqKzsJVXgtQG7rYQmLT7r04szAy6X9mKgNsMJVbewewAIFkLV/BIDWMOKVJ4TX45xpjKHAvr6nkTzafY42o4TUSbs8O2NnJ265iTajniW7BaYbjczZQi3IgmXBjhiNsCM4SwOSNRBZRuMKcrkSwmEshrJJmzCzNl5T8yqrhJjpzKKdmrtpb49esyuLszYXD9lkzGfzhYAlhlEM4WRAaHFb4VAnDUoeVBci9TsLOyXVEVO0Gza/2hSklu3m8rS9d+WKfee9j+yja6N2ZRpF86olQ4TnrNnmN4fWerGKMSi5UHNXiDgKgfxbLQSEiZWxmlflEJeOjVRqF2E9tGWkLaaUw5ZSujxKp7R4wiPeO68Nddalz73E1nOQlTLPXMWxoB+/Aw8mBcO6Y62AK6dKrwbNU/FZqJ1yxaxdGGLr6ao7vVfBhDJY80cqLau7ri06iNUkMA0uVWp0fEcVQhVYZ9y58RReIs0LSrH8UGO9YAEQWmfR2o9KuOaUVfdiNsSDbb8Yoix4JrG1o5xV7+jwmDB1B0uDSVbBWxpQ34PB6QBZk6VzsDjlVdXBKmkl8K0pzLMwQ7WQClmwgxdQtgDPFcfDVRV23O52CdarbNuM692gLIUCCqVqG1VvK7w3H2tmegsPXcGLVV2GRKQdtuWCZBQ3TytN2OWduhFIkpdwl7NNnQXiFRr8fUU9vbR1QmiX98qjYHU8oOZMKR9fm5upbtymY3N2dWkKHDdpb5y/aH96/ry9O34DmMK7ER3qsEjl2gugq+wux7O6YyNISnafEMjftRXReDawIp5WWCwNNlaKtDZX5RhUDKNqcL2v5g6q6DiuY7Cizxqw642nQ2sRxjWdSHWyMmr047dXsBparvTdxAAFg6pqYXxYenIoqg+tFwvhIbXFoCIJPaDHFXxoA090GaFDmVVdowm5Xui/B+Xy4RU0PTe4knFFuK7gQl4CYWg3WeeXmsW886LrJkRquq2m3GrcXP8hofM+CwzuEVOUMmlLQOOG1flFWxJllE0HzDoOUn/TEqyyBrhef9m3+n2AMZRbxzSuqw3vVOTZcwB7gVzNpFe4UQiJALKDOyjZGu/VQWGGatCCYjweWOf5htV0vqkWnLCzVdi0jn1UsKHBtZt4021Ne3tESHwi71o3jUvWvpLeqQ6eUvqO2nmqIUofOKDfreDFxCZzK1E3g3AmMmtX5qbs5tKSfTRyzXUkuuGftPlKwGJ7JcvyDMkjjAGDVdGJyu4090eD3RTK3fYDa1B90rM2zD2jI7qf7+In8WQJvioLVvtlJ2G/ZQVVG4Gp05C7BsRH4+lLhH4NvlXLqdVH7d+NgmmQt/pSCMCWNrD0tYQtFpZsFjAbQlnyMBfFezUM8Q7ThEclvWVRMFF7lEwsEhIQx/Lzsqx1FFP7S8cDXHjTFesq3dpPKNJpvhas9wzaD7BVUpt2t0uEZjVl04GwZn+17pWsrBN9LmEs4bQmyqXMhjoYTMBe4wNr4Jo61F/ZoRqnpcP6Dr+7+rhJGM1b+4hwxf9lFAJhtHHYrUZ7aeibLF6KlgCruKMVZyRJVzAs7xbl+0mwSUsdHF/1AcJd19REWxBKFNQI/MpehPCpWYolnjnFc2ashYFoxplm0bbvneSUKbNVu/mlLcGQsEuhbnD/FqGyDZFos6id3ZT1CE2NvQSfU+P+TUvh9VXRpe2VyoMuXrXiBm8mwbJFbckcVVEgwDvwo3C/4xq1ZLWvyP/peCi4gcxR0OLxiVLJGbi9NNYzSWQp8gxi4vKummCqZoJNDFkH9RrDg3789grWJtQ10HK1FKogvCKu21PxWgTGVdw/Gd+qGjxZgTZWu0/WHM7SgCVttgq8a8aR+ibowbWf5Ho9rGLpBw3CXdeVdsU2NdNNaSZYHcKrEkZ6CofqMNP1A9BjbsNU+zEaPb36tOFAv7YllGvVATgPlVWKJ2mCwTQwXYM9c8pSADTXwYoNWJJAa1/eA6+TYTHT61HXPdvXCtpyK+SmE+pMtMi7lFmUiIAwSuU2JLWNsX1SLZ6+3YDuE4pR1hWeZ1tN6Z738fIQH+WVYRgakNdR66P7KNNdwjrPr4zXoVqJ8vyNI+EtvBihvI/ir/DsVR2Eo2j51bCTt8sx430KKJe/7be5zKzNp2ZtRh2Paj5nBNpfVMKhGrPoHFJbKxHnlZA1X0t4XGHFDs9Xfdx255dlYEDh53uWfn5Pm+MC+For9e4IrSI3sJwmYVeFRfksET0NG9SBvGok0Y/fXsGqKEUMXCE2KRqtostgI2i+esxVTUeg7NrIUym9SsrUb0vtAtxERF4kA6jUnousK0Q4VBmbqxc87vE92MrqSbsBFbfKpavEvqXR3oRA4Sllz6pnQ3FT6dQsCMIW/tLQUDHF7Rc9N7hKIyXVE7aGwlXd1NiCDbBYpb7ICjtglDoeUtsuygZt3NH5IcZzG7pOWA+1I+Zt4a3xujIahQsNW1X6i1ivqp4bj8UgdRhcdIMHW08GNny5AnXn7yhuGS+jYyI3Z/0YBUepNAC15cbpKhNB4Zqf4fmqh8qY1YXS4dVcGjKXlHLtcQ2DUEtNWGQ1aNd8M/buzev25vWbdiMUssshr10NL9lCPWpZ3m/jmy3b+vE24b3sNom1e6+9RJWexfFwyhPL8HMaiF3H0wroa19MBC19pPmoHXDkqvWfbVhHLR4Ih2rmVyDSpGoo+gDnApkqQUw0/L+I91PhC/rx2ytYqOmxcMvrypZ0XqY9miShcFE5YGAt1dCpoNNt7GENagaikZva25J7rgqX3G+6LQopVBYKHAQ0e3oxCw6TbuZoCuyV4/va3EyywElwXV3pu3spwDchBZfeYFFbyjzAM1XBMZpI67JDwWNSxLJCIrhH1y/+XtyNcikdhtDjDpNTbrZzfhePhOImAdXKpgg0/basTo7NsBVv44WfbREiT/pmaR9MGCaNQJV6rEJWXWnVB8rT4nXaT0vWfJSH9Aj3oSiE1xq/r4YiynmXt6iCkdpHSnfGA2yHUKaUa20ur1YilErZ5OV0fllHAbsYiIwrPQiyqOrEgzdHLmqa4obO4l0qKIL2rdTkLn0XUkXIXGpELNwDJ0Kk1J81ixKptUOR/2+/5FmeKPtV78Q7KHwqREJeGg/7hH6IEIqn9ppau1Q7btHEgtX4ug92W33etpzrZ5a0Jt4c/fjtFaxInG7yEB0+WPhGvdo1V3Uq6yGkwCrBJ9oJVqc8ZVOcdJFBsNrt5sG1iadjoBQPHBElJkRGccei/wqXmtypvRyBe1W+aEe5KOXSZuMGysGlRiAlAHkVirz6oG5dFKsEQNYGag2wXmVhtc8kNqn9Mnmz+u20C5kN8I02X+XNRAaUqrwO2NWRTh/P2sBSlYIc1HkrREVti/QOeibnXTEaZRdonKFYpLIOtE+mhiKV+w3b+HTdNj8B8EMcugq7K9rWmbNoZxmQHrTyhp/PCAHqS9ZDeapKduT5B2AvTU7efNGxLRZ+/RleBEMpAPplGJW9uG0Qyjcel7lvzNYe5Wz3ZYP3B1fuKVfMb4l1yAzvUH8+sDJeX3uNC/WQzZYCliSiVHV0dF/1jw3Xgafz2Qrebtft+rtUazxe59kKbHjg2LsrzpVXA9ak9nAIKGYJrKU2nmotpTK8AfIdIkspOPrx2yuYGqKddNwLOjev9GIND57JLdsSi3Iyn7bhwHqA+C+2KA+l3eSQMAAvkUJhqg/6LNIQy6m4piJBwHR2V/28sLIdiAIYTPWWov81Fm4LTLP9Wc82X3Zc60ZR+fqdtK2+aFkLMJ3npYsojEJlmUsvrSwEhaHyz9mj0nRODpjDKBohU0WneEUl+ylkavZuHq+QR4mW6mAw3kfFwprqrMHryqcKYTQJnlHbKOoHJrKiDoBqcSTcU8B4StyvTeje+IRw/cWatT7dtLU/f2w7/+7HNvyPX9rgf/zUdv/Dczv46b6tqwMkz6hpqmvPCOEKjbc1dVoere6esYQh1fejNribso0HWdt+nLGDV2U7+qxlGyha80A9UsMWJYQWkdXg820rECWUqJkBH7ouR3jdAkxcZ77qhqSU6ALGWycENh+vWOPRwLIY9IlD4Pd4J2WTqCmwMKca2DRQuMFtoAFOJrei7A8iA9FDBOsfzQP+7RQs3Pa6ggnt4qpIoUpIDDcjsEh5MJVN6XAUL0S8Lh10XKvKxW70ZBtiE5ZDaFNRqHCLmpxFCIk5FCq7XYPyqz+EQo5K+ovuoNwdysJUOs9aNuASninCYtTiWznrvUc1Gz5pwiZhXzBB4a2TEBl3GQu/aAueAbwn1RZpNeQEo0Q/5ZNX+b/mXRSeEJve0FADsSMoPfgwBvvVJrA6A+qQW95WWybawJSn1X6YNpG1+63GwarESeFp6+AbTdjOcH9vO+Cqnj+eH7e31BZ95Ibd8IKX0iF3bFRB8dssUmUfz8zVIiwOHpXwYh1X+KGO06r0ziiroxEwD7L2tJLmU3dvns8Do/f0AshZ2SeETBRy5YstK/H58R1ls6pNQBmmCDEDhylTpYLn7T7tW+dF04af96yJ/Ao8s64S4VWVSXEch9pqqTo8wjr9f9s70984s+vMJxiMg8RxvCB20p0euyV1tzZSC0VxZ5FVLNZexdr3fS/upEhREimR2tVtudtObMMfZhAE833+g/kywHyf/+jM77lsBQEywQAjYT44LeCCpFiset/3Pvc5zzn3nHO12OYzq+bJYLHySy6Jc+Ml84F10OLVQRHg4/0BpnOIIu1VV0mklJLUKGreyqrN5fzceAhwnHcLVJhBG6uajARmxpVNaXvlhFUDBftaOiSBi+Nm41pV2PuwJq0dtbiCnABMVckVvE2l8OQQ5k5vwU7a9FWtZEdpx4CqwAQVMYdlBVjvpQBX3MVmuvo9ICzCTG1Yr4sH5PLaYZkS3lYWwZvArMQx89ISRcCRh5EC9ZAtl3Xkec6FUVYk+lk0ig05UCmxEv1YZtVrD1XnTOcP0VWYnwKmrvw4i/fMwFvM9IM2F5myK1PX7frMHZsLec2XWjZfds5iLbzLHbzLBxkb4kWOYLAmTkAJwS9GK0rwox07mL3MIGs3fdN26eZNm5uYtsj1CYt8esXit2ZseWraVgPzVmRhVp40LXnatBDC3YV8GiFG2BYqaiSj1qJ58zSTkEDZMicDFnwN7VuwyUzYpgrMZRvHoJN37TgXa1Fej1UAeC0cgjRgmwxN2Hxy2lVC9c7Kjr3Us7UGs4GP9weYDrfSESaqktFkxbVyAEu8l3PtlFahT9lv7T26Ntjq/IdZUY8smZoMACugeRSWWIDxnK5Bb6kzn7YxtA2jAKy6G2qbSVs0Kqlqo016z+pQskCgo9qZ1F0mgZ8VyW+daOMVjcENZ2AvsZTMobxHMUFxFxOM55MYBmCzACsu4PL1y1B/B+C1WPkZTKkKLlRYoUO9AjB1gIcqoSvTssJi8rSVEIl3iaZRnExBZCXklVgI/Tfbtv8P+7b764GN3lRcjE1nNF28e9t+ePGy/fknOvDhmo15F9BlYZcskIdJe0pAPK1horURL+84yt/iPePEqL5U216pDgu65rPI2qyF/bctH5y08uqkJefGLB2YsUY75jbIa89r1viqZxvf7Nj+N/s2+nJkQ8z0wW937fC329Z7AYiPczZ6Ubb939Tt6A8de/S7ge2/rdv9X3Xs4G3T9t7W7OCbjo2eF2z4rGgHvxna9q/6LHBlsqxZ+6jqTvwQ47rMjwHPqe79MACL4cWod7smRxuyYrCFDJ5lHUrta48LswZTuSTDbW1op80LmIKYPrnLyq9S5FgtnNQoReJZLbRdV2P+xocpkFmSpyZ9U8TjWkNguoPMEeja4slsJjB3eF6wmsR757jo8r60mV0AdHXMonpEKNEvte5ngladyazDdi4WhT5q68Q0dJeOoclsoCnWpc+UCHieTp3gvlLydOVsYB51/nhFmuh504avOrb5tme7Xw9t43XH2o/LNgD8G2/aiPyGDV7UMds4FIBd+4lhgLEMY/lyC7aaXzDP2h3zF+bQTqpzlLaRZsTxOMm7+9HOQ2mP+wX86XVkiLx1hHwNR6YGAOswef1IckDecRg2x9uUFoLdlUdWZTFsvhzYfTTeHtfYfwUgnuAwHWZdneRSLW2z+YTdTQfNV4UchkXzVGM2FvPYdDZowRaLHYdtAU9afdpm8l6bz/rMWwjYYtrjMlV28CBHLIys2zc9P0cJfLw/wNRHtMzkq/mFzs6RXpmKz9sEOiPYPS8c0L6Vt6vGb+dbQWIvpe4oL6yE+5uTZ4j7r5ZNAX6nfvKr6IkIwj6OOy0tFkT0K5dJ2QrDL3es/QKnQIFUHmIVVlNUW15sX90VGS28SSUTymNUKVhqHSEPu8mL1Fe3P6k8MDxMaTV9r62jGm59A5c9u62N2wi/V+RfTBZxtZAPvlbnnB3XPefkd307/n3XHv6ubY//MOD7oT34bd+O/mFgu2/b1ntatCbeYf04bYPnVbv3Flf+NMc1RGGojG08K+ElFm37RdXWT4vOi5T+qh3gFBzh5Z4A4vswKCBzuWtbSAwVicCqKu7NbQatpcDwIczW92M2A1YHpG2cJoUxStoOQw9lMedq0KzzCGaSABoW9QOOidVp+3Rq3BU7//XYNfuLi7+wn12/atdmpu3qlMz4lF24fdN+fuOqjS9O2t3VObs2f9M+n7xi47PXbTE2afG6B1CtAHSFi7AmqoRicSbXP1ADulhj2bKDqJXRR1lAsFJctsnYrE1/G6ZQ9oH6GQSHaQeq1H7FfT+P0BcrNc4GrtBTG6srmELX85Shbodq8JvcLtoaIFtV+0xAmuLhlZ/guRwr7oVZRDelMKc52FEnhYW7qmz2WKC5yM9+PFAJdwl9dNfDnK3j7msrSAHNAhPg6hG38SgxPQXMfPukATPieOCwpBlZHlgR3VZh4ptHazBLynYQs0dfD+zo1+t2+HUPs6EyuDQD0GBydr5sWf8p4HlRs70vu7b7putEunYX2jCThHsPBtl93QZgVWsdZ2yT37cxM4NHBdvgdS1Ec0OHHPB6hSi0laX9XlULyanpwZ5VGDqnHvqYd6X2dPhbl5rNwms8gg15RmKxKH/jSc3abGjS7izfsMXwrMUK6OP0sgUB23xkmnHXwgWfxUor5s/MWCA7YxFYNVKYtURl0UqQRxvLURqhTzseq7Lo1vF4h2jMFk5Ug7mowL6q2iqy0NWEDnx8AJGvHKkm1FlaZCyYr+wzXylo0wjXpW8Bpua9EsbyBBUDk1e42Aq5sIXztGQiMT86U0d7lCsIZwVifd8GZFc6Mff/SXXle9jATBbxWnjArFbtf8bRgL4qn1cN2BxelbJmlQ2QQZflMBGaDEW/O5jB7knBTXKJydEWSwvQVWAIJR8q0NlCQAto6rGhDfPRWcsGTxquwltp1qr7k5PgimXlMDCamFZVDZXQfnrIQ0T17ivM5TPMpbamYBNV3LS4Dr1OgG8Bng7apyGwPcq7raABv9e+Y3YrwPtqCyjtzHsXzah0IrUpFVsXcWoaCO3+I1WhZ6zCtStAq20jsUgboHX53J5Y/GHRSiyUJOBM4IilWYC5od+1OKjuwIzKTmEeYsxHsOK1QNljYV4XRuPpFBF53MqarXJdVZ5T84HqRrnve+hDflYmSp35GHDPKv/TGJy2MO+1DwOwAhcRw5WPu5PT8EqqOlUMDdaMI/Il2M9zupUurfiWBL7CDQpOSixnH9bQMeuuvXYCbzGLGVRmqzOhMJdKrMJoHu3qqxpZDoMizHG0SAKPLM9ENx4rLahl3Rdd2/xm07Z/v2Mbv92w7ldtq+HiK/+rx8QOMZ1NbYQjmmV26ohmbYxXWYGazDKTmEV/6X1TOAACj4YYo8DkZqF+pTILRFlt7cjUYqLEdGvOgcja8GnTuqcwJCtZZXAJtGlqgwnmeuN8rzBDlc9p8B6dYwFTyYaKk6kWMmkdrrMvDQdLrz+rOVPZeIjZhD11jQJ6jUlX33xVd2thONOvbBEAo7ZJZZlSdUbks5pHJT5TgWYWB55o4TBuFViuxL3H+X0Chk+j21I7QbdgtB8rnae9WZ3NmdxQfJHP4zOcpuVa22itLtdXA2wdmHjrJXLgSYVRdc5IVlkgLCLw8f4Aa9znBvTwEHoJ9WmFSeax9YulgEu3kYhXLrea7CpFWvEil0OlSD3A0Yaw68+OIyDhr5MoIptFl/nqx/Qq7pIFkIqU67gZbaukuPkUwMrCMjU0VQ2GycE2jbMiorpg669gg+dp6z+X6yxziH4DMCpo7aHL6oBK3XA6j6oAJI+nCSPhEZVhi6by/fe1qZwGiEwYAFBrcRWFNLnG9DqM3FKH6ohFYc8EC2hNFddMep6RZDElFZxFmxaZmIJShKTn1tEmQ0y8gpIAr87nrp918BgbABMWECM9bsK0APRYwOIaMct9zOPmi76rOo9jDqMwkGofdES1Cl4KmC0VgCipUZNf2ItwXzwLTGwWL1S9LbRFVfkWoMEG2iu0YF/Mz9pHt2/Z7di8lfj80cu6c0zUF8O1J4DNB48bjqGUAaJovYLRTYApiTGE2eXV5nhGSkNSCEgOharPs4q3cY/g4/0BJg0UbgdspbZsK3Wd2OqzlXLI5vN+iw1zsI3OHoLJMHEJgKNDqlYR80rbCW5lXbqOAKYosdpqhnv8vK6y9pTbhFX+lboyq6t07kgtBPqW5fVFgFVmBZUUmR+sWqbnQ4+FLH+QwOXu4lJ3eOhoGBhBIQpXDjbUCAAc9BiTWNzHtcYcltwKVVwti+nFpDFZJekJsRoTXeLBSvTrZNlQ4zyw6McUR7jeICa8AOPm92DdRpQJW7Kx4JLNpqPn/WG51wymvMSEFfcLFuRZhXtcA16hWgao7YEcDKXyDE/rMNv5hKqcTafbVgB+mp8TiPskgNbzVjFIFnZR/cNsatGm1bkRE5fG21XKUVI1lbBunXuq8vcy6VEIYDY2Z1dmb7kzjS7PTditFZ0xxb2UkSLImlk02VRi0Sbjc7bAPerszvTGmhtJCEFdFCNdHfC6jGZV77O8RXt4mRBLVJ5jL+Qa72nvVkmn4OP9AZYc4uEp65ORV+SYD9ZhoXOIx0CbB4NJC7GaBSAVfygE4aLgWykL8+BTinCjYZTApwzWgOJmfK9wxbLiZeg1bVUoi1SpvBG0mrJGk5gCre4tgNR6gPAXCGCiBra/gKZTcxV1f0nDPCkmSKvy/GD0sMuDP+/zgK7DJMp0SatVtD0kUKGNyhLMgDCPWfZW/SyYZbf9pd5kN4JqFTDl8t6v+qbs0sKEfeG5a5cXp+yTiev2o88u2F9duGS/mLjD5AcsMcKTZTJSsFuB56G+aQ0+Zx12HZ2qWAKThKZpP5ReFItKS8Xca+QFBppe8yG0U8Ooa2HexsQpCTFUXbVb3gX79La6L87ZfPL8UNg6gFJOv2vdyecVNzO2lMdzbHHfJ3Xb+i/79uv/+bX94X/9vT34rw9YJGt2ZWHWfnb1pn3/4vkhDqoHzUIAORaCEjHdvizmU2wvL1HldErJkbeofh7qKq3dEV2jNJ0cPvDx/gDTudYBWCuN6Us7L1KnrapdODoG89d+M7DK867rm5971LLMcd3VQWp7SIUIqnusP+sBvKytjNYscYgGO6q5SLkKFNTnXlkK0mA69k5pJFkeXhVtpTCAvKwIHs4Eq+5zz6R9dGvctZD868uXmeBbNhVlNXFNKUxZQ46BgpXbitaHGAIeAFarAEyu4kJyICoshOSIBcD7ChRhvFp1TvyrT1XY+ql972e/cOdh/uDi5/bjL67aR2M37SeXr9iP3IGo1+ynV6+4z/+78XEmbtody6xmJDHMqsxh9VBpQ+dBVKXrqOhE7ZpK6DZpw4Zr4JbBKvi5pwn76OYt+/gGIJ6btJXCijXuwaow9xqm0gvr3PLN27gXWZINwio5hLYa/cmrY6ExP+phr0MS+n+/bqN/um97/+2ZHf/3b+zZ//id3fvHJ647+JW5a3bp7hX7YnbMbvonbToxBwstAWycp6LHPEX1UgtbuBGB7Xw2n5m3pZzHzfcSbLes9lGpBbsdvWt3E9M2k5z5QAw2CDqvYxXt5asscSGLtgA9BtrQ/w4mEQZQqnRkAyaQJtvKOZ2l/DCd7qGCAmmr1F7VorxGKdLKydf/+TFJXnRL4QFe3NnQ8upevV+y+kmbnxu2/rJlaq7r0cm583P20ytj9pcXr9pf/Pxz+/4nF+2HFz6zT25es2lYJzkQaynDVW60kgnDlsHs1R8wuY/qsF4RrQQz7KB9dtEWsKwCmzpJf7W2YpOBSbs6dd3GMTFjc7fsxvIkrv8KEx7kQa+cn/jqEi2jmK6keQoBGG7Gruuk38C069+VhXkTWv2YaW2n6GQ1pQcpUKwTPMIARpvrGWnTgYpv+R4T68/G7I7Pazc987aQWLZ4C3DBFCq8LXD/QZ3ZrYWOmVwACFHFH3spl/g5m1FR77yFa3jj2YBNh2dtMjhpN1cmbHz5Nj/f5T7umi8/bREkTlztqEpLNh2dtMnwHbsVnLDJ6LR50NVTiSnABNhyXAevDzQwoy2vecuzgHuK+17heqI8R/T4+gcykdIM1f08tIhpY6V4iwsuoOer4zWiSaS/1GRDJ10otcWl4SDy1XfeMdzLgTWew2CASWylaml5nfFtzKFej/eZ3a/jeerImDVnYtdw1UvypqSv0CkrlQWb4EFcnrlhV+du23XvBGZsAq2EVhgmmagYJoe/gcoVldekVu4X8YDaaLEWk8okNvwW6YTQGTAak+z2VTEDa22YjhWuXls6Ei/3pG71Vz0rndUtibOQfVyyioD+omk5mCitazouWuGk5ByPOMwYBtxxadA+i6oSNX8+CFB0uMKU3fJzrUz2pBrHYXpvrwqQd92R1Elt/PNcFInPYNLj3TBO1KrdDk/YVBzQwmbenM9mYI25tbsWgvHCOhg1PYNpvsP9z1mo7rMEOmm1pspxL54nHiUgKO+H8ajFmFGeL2yq3QCYr/MkayMFf1+VbetV3na/LNi9X5Zs903Bjf2vKrb3Bg/3aRonIG2jM3nnzKMyc+/HrPcoZaMnOUz5BzKRqZES9fTwIo6KV8qsmvSSLWHD1fxEO/DKB1P5lBLeVIqmdJDqWd/yzzqWe9mxpBrZYj51wkdwqAKRvEuLUfqLa7zxLjHvgWrzAAwao/sIbxBx3D3J285XbWtiMiWGI8rs4DPqp13rPWu7wKPMTk7OAN6U2z6BxTRpdbRdXEWodZ2Sv2r+2ioTETdPKWZjMMWlwJzdWluFFRJ2N4fZ5360CV9Am1Ued0wnjiktJ4J4j+wVAVTHyqcjK3BvzTebDowJQBnroVMrK+bLzps3O2tz8Vs2HbkBKLRRPGm+HAyrGsf8vIWaqs4KWbQ5b4mux/LrOAQjn7X2ErZ5UrUeJlw58NGuF9DyWhwb7UR0HxcYOTv4smubygsDKLtvmrbPz8NnZdv/Zc82XqH5nhZs42ke7Vq0R297tveq7nYX1p+X3es3X1T4Pm8b/F57j+1j9Bd6dBvHaZeFtfGswXsoOMwzxgFSc2M1kZG5V4Zu7UGKhc8ArODj/QEWxoOQh6OiixACM1BfZeWwqhD5OkKvzsMuwBJKY1GOl5gofY+JxesK76hqGNf/ftOJd9UZKr1aG93RTZyC3bI71ErhiwDvpcksn/Wshmbrc8OqbUzxgEOYCx1iNZ7w2/XQql0NeO2zlVm7AUtE8EArMFf922IKBQfTO4rS6/T/GF5Q2KLy0PDKwq2g2z65cPuG/QCN9ac//hi99bH97fhVu5sCgEPM5pOOFU5bFsGpcOcLPW65jJDoPdgJh0GBZRVKaN9Vsb0iJlgnj6lfQ/8U089kBOtol8KsReWNDeTxBa24rVhb2Ip83zpI2fCk6MS8Onc7TQVgOmc523hdt4NfjayNc9BkkpX1Ojyr2O5L7QrghfI3Pdhz53kfZmlY5Z46+Ujn4RzALFtvGnYAsAYArXUsLaiwAs+EUTjMwGIFgMLnPcoDXOQLi9G17jxQdD6CyFcoBI9eKU44IAo4S+Ard07ZxUo0VOKBiAd8vD/ASjCK3ky5VUo+XM4vnnfXqYddDCuJCZUw96GtvF0uUunB6Kfal7DO25FlzjoWADjKBXNnSgOs5f75CbPKwFDDWtdiCJFfgjUqyr54wIPlPUYwVJWbidcDtpJathm8uhuLt20Kkepbm7dgdsHiNa81cSoUXVdgtYHH2T1poK1UwoYmU046pnE2vWg3wx674vPYZ3Nz9rNr1+xH0nDjE3bFs2TjkSVTNZTrVbqfcZmdYtcY1x5FZ+bFsA/bSIIMYOfaldqjolQcmeHzllvxNSauxt/mkAlr7SAM5cdLDFj9/poNn5Zs63UNpunazusOYCzzN4DqcdYOf9XHTLVt8CxrA9il94z7f5yHsc6zXsUeak/l8vvvp6wPOJsPFFpRlU8WcydAVTF/mK4nGT4LRnpVg9kKOAJ418Mg5lhVS3G3JaXi34I2+gd+S/dXbA22TPdX8UhhKDzTzmHR6ryuiDeur+rNW8ULV9Ln2tDP+wVc3BF8vD/AVGUcV7c9IVeJaW31m/dZsK3sThiJVa5+U1EuIs0KKTp9UraGGOjlyNJMdgSBHcCVlgkVe0nIyyyGMJPe9nlvCjFZCIdAqTxhdF16U8FTBDOTpIO4VDCrHqhqH55V3j1f89y8hLz6omqbRfuONVivjampKaFuG4DhQRZxPJYR7Bdujdnf4BX+5POrdml+1u5EEcWxoE3FVmwWIR/dUK69AAV4djIu3Uj9G1S2JgZT74Y4ExCFxeLrMByOTFTeNSu+AcDamBNVP2tra63vd1kc65ivjRclO/i65wDWg6W6p1mAIDDoawYtJNYZ2t4vO4wmo209bZo/VH8xzD0gUUhj9Fgdd9IwjoDC/8M81UOV4iVtcFa0zdcV9zkam6/53JcKxQB6dGOe61bhsWJpGcXgtsM4Ibw/AC3v8KxHqs+MmI51VnJn4tuhBoBqMSXNqpYGes7Kv1PSIfj4AACDIlVNtI6pGDyqgfYgHsWi63IYwSzWZVKOGu7YZJWeiQXmlPJRxqRi+spor8z9kulcI5VVKdNVZzAuu6g/ppFJ1V6m67CnMAXMUTuGBblxVWZX1RLzUNFybXkAGGWvHjCpiFkFM+s4AzkekLxH1etpP1BBVSUY6qSPOCJeGQpKm1ZOWFY5Z52oLcB+/greUDOJVxXGCYi5awvuAp5DgAUzJ7VwmJg0168DPcWwpad9q+DxakGo03OgyaThteaZeO1vyqwoZ0rpQk1M1OGvu/b0P9+z/W+61oSZ2jBZ/6ly2WCZl3XbRCNtY9bEbFtfNq2Lfmpp+8slIsadOewzykiA/pOSbT9vo0/RRwBLSYtbLxqAFJ2Kvtp727J7fM7J75UNsuuAqvdRMbLic1kWg+KZCm2ohaiOxlmp+VzANTmCdXFWYr2A203QPqWaJwtQbRarq/XUzgWLWJnDqj0FH+8PsCITn4LyV+tePpwLAVQzaY/N5Vdco3/1+NLxJP71uPm4QPXSUr1dznU/LiCE8cLUMRCXW6Xs5zV46DVuaIXXy7NUqk9kq2ClRyoLQzgzqcUjQP2yYUe/7NsW5qS6y4oTwLhBbQNpj1D7lElRPQ+hdv+8jaU2npXlKs0gths9xZN8UnUBxEg34s7b+WJ+xn4+OWM/uHjVvve3SmG5ZjfjmMj1lK3hXKR1WJRaZD7pWkzN2HBisoC+gPlW0xB13VGpV/lMGgzNidlcg9Ez2i5SLtpuCHOWwMSluYeSjV5WrYLWclkcmwmuHTMGs3Vgsv4p5g4Pbf0pYHvZdA1dmoqToSfVTl15bMrXl04boPHWlcXB2HvTsp1XTZfXv//VAHAp6bFmB7/pAeq+jV7IU2zAeOp8neDeAQ4yRwmWSgtyX1kM6gmb4P91dmVpW0wWcppWB0QkcDJ0SIR6yKr/rUS/HC3l0dUOP1B3HbUNyAAGAS09jLnW4gv5ZYsNMI8baCo8TFUDRbdLACfrzKDAkkXsq+d67bRjWYSw2h9JzK90Ey4vTDWHEsypA5iCG9JZ3GKKJk5D9+nAGpjZ5knare6t1wAPsHhho1vJJbsenjdPBfMJY4aHMBsitHGflf9A6Sx4sXoQiFRVgjthCrhy+5guBP9qEQaO++3ixE378ecX7e/UpMQ7Y7eT6EoYTLWC0pU6kT++AytJh+Gc6D5Vea5tLx3vrF6neTy76jHsBgCTatiGt6qM2fZxDpbK2+AVQHjbtgdorC1+3kcXjZ7muMYEOqnsUn22X7ZcXlgL97+LHus8RvgDMGVL7Lzo4O3VHBB7LrxQtvs4AAdfj+weJnX3zRAgFi3UDbn+spUneJcw4t5XTcwj4DyBBfewArC72kJVec5NGF990kQWylRWtnAd6VGFnZRirgUsYKkJS+s+ehai6EAgZZ6/yxhGY/YfNvibD3Skshp1yG7Lk1R/qywsNJddtsk0Kx7m0UNXZbcOvVRgVY3ZBCSdea0yNmmZ+CFuPitfBy2pGZpaDagwoXaGh/a4AmvoIHh5niUXmFVnmPppzXaUCox4TUHZM6G79p/Gr9mf/c0n7vT9i3fG7bKS4tJzjs77p1UXHdeD0MZyRinUrn2lytvwigBwgGu6HV50uwE//PwLGOwz+3hs3LVy0h6jt4P2Uxn9Qx0W1YSx1Pv0/BwgHYkcxbNUAWvyURlmblj79ciaz2GxozVYVdtBmOxD9BDMtY1Y33lesAHmS20n29zP4FnHqg/V45WJfqieFU2Akcb5UTciNSpJoU/PR5LrTWlzmc8sHwFiJrlyhMXgWnSUTQqNmoRx0xt582Cq53MLbqPbrzZabfQSEqGDFlX3x+XqMgty2e0jppnHNGZQVUKRlhdz6QdsIRZfANbiumAmJTW6+kvYTCWDailVkVWB+eT01dHi+h58vD/AZP+1ky420FnSKrpUVHs257UVbiSrHKuzrnWfrbvKYGVFqMw+jTjWKRItNduAUdQbVOdEuz3INkw4RA/gVcqLLB213Ka3csd0sEDpqIgw5QF9m+TXQkfotLKKtoN46A2JW7SZBKrqBLRHJkGq5izuFH+GTtcQ0OSCa28ywMOfTiza+OKUXRwfs0tjN+zC2E37BV+vLNy1uQLCfB8x/FjNctWwreSOvVP1tra9Ijx0sVcO4JWf9Kz+YmD1l10rCdiY4CaMWwNc7QcyyxXApLw2BZOjFuzBtkiLsHp3wcIK6sYVcFbhMZ53FP2qY5OnsQyeMiBpxmyxtGr+etwWK1GbK4fMD/iXdQ542W/B1hr3E3VpU4tZj/n5P1Wn53i2gTyefmzWsq2gtQ8BPKYuInDhmCX5fLVKcPqV56gSRO0tKsAbRYdFWz4XVhkgE3RwvboavRtq5qKW6wOwIE852v7nSH6BEWf8vwFs8xStwcXUoERNZoiLmAVgUwq2tiI8+KxF8LLenVGo3gYqAFUDWnWgruAcKEs1jSOQPNKBmLALZizGhKkjjw4KUC2fQKmmI2oXrrN1Kqy+Jvpk+CpvW28KLgKdkebaymMWEeJKZ1FcbXAuYCtcQ3YTocoDVH6WsiMUvxGT6UFGEONLyWVbDPns4thV++jSBfv4M0zk5Uv2xfQNd4JHhPfrvN4APH1XnKqugGLeMKMIm+lE/hjPQCayfNp1OqzIZFSOC1ZRhupRwdpHdVY9jDwE3HsNgF6yUCdkYYaL3CMPIi3tTqyaF+ZRpN6TWrYFwB/C2YhX4+aJL5gv5bFwyWtJnneV6y9tps2XXrSF4LT5Yx5bCs7aKl9zlZilCrBPm9dgUSrMQwl2i3ZWzxmt4rfVitexlXLUttB6KjxZG64i4nEmAIu8RjlAKRyhzAbe5KY6/MD8AiJf1ak7r/qAA4Us8N55zqr0Ah8VRpYRZSwxbjM+Y7wD2J8x/k2A/SnjPzC+x/hLxk8ZnzLGGDOMFYbeOMXQh+QZQrMo87vxxzs0x5przbnmXhgQFoQJYUMYEVaEGWFHGBKW/tU//aeQ9x8Zf874EUPIvMC4xphg6E0XGELvMkM0+d344x+aa8255l4YEBaECWFDGBFWhBlhRxj6PwJM/96x2DuQ/YDxE4be5BOG0HqRIVrUkP39bvzxj3fzrbkXBoQFYULYEEbegevfZK9/+e8dk8mW6o9kV/UG32eIBvWGsrffjX9/Q3MvDAgLwoSwIYy8013/V3D9y3968TuwaQidGnqz78a/3/EOB+9w8Q4n3/377t//739/8if/Gy21in/ea6mDAAAAAElFTkSuQmCC;" parent="1" vertex="1">
          <mxGeometry x="123" y="370.67" width="100.66" height="100" as="geometry" />
        </mxCell>
        <mxCell id="dqdw0evUzVBGal0t0bfK-44" style="edgeStyle=orthogonalEdgeStyle;rounded=1;orthogonalLoop=1;jettySize=auto;html=1;entryX=0.5;entryY=0;entryDx=0;entryDy=0;" parent="1" source="dqdw0evUzVBGal0t0bfK-9" target="dqdw0evUzVBGal0t0bfK-42" edge="1">
          <mxGeometry relative="1" as="geometry">
            <mxPoint x="390" y="480.0000000000001" as="targetPoint" />
            <Array as="points">
              <mxPoint x="387" y="421" />
            </Array>
          </mxGeometry>
        </mxCell>
        <mxCell id="dqdw0evUzVBGal0t0bfK-9" value="" style="shape=cube;whiteSpace=wrap;html=1;boundedLbl=1;backgroundOutline=1;darkOpacity=0.05;darkOpacity2=0.1;direction=east;flipH=1;fillColor=#B3B3B3;" parent="1" vertex="1">
          <mxGeometry x="290" y="376.01" width="30" height="89.33" as="geometry" />
        </mxCell>
        <mxCell id="dqdw0evUzVBGal0t0bfK-25" style="edgeStyle=orthogonalEdgeStyle;rounded=1;orthogonalLoop=1;jettySize=auto;html=1;entryX=1.021;entryY=0.5;entryDx=0;entryDy=0;entryPerimeter=0;" parent="1" source="dqdw0evUzVBGal0t0bfK-26" target="dqdw0evUzVBGal0t0bfK-28" edge="1">
          <mxGeometry relative="1" as="geometry" />
        </mxCell>
        <mxCell id="dqdw0evUzVBGal0t0bfK-26" value="" style="shape=cube;whiteSpace=wrap;html=1;boundedLbl=1;backgroundOutline=1;darkOpacity=0.05;darkOpacity2=0.1;direction=east;flipH=1;fillColor=#B3B3B3;strokeColor=#000000;fontColor=#ffffff;" parent="1" vertex="1">
          <mxGeometry x="240" y="517.34" width="30" height="89.33" as="geometry" />
        </mxCell>
        <mxCell id="dqdw0evUzVBGal0t0bfK-27" style="edgeStyle=orthogonalEdgeStyle;rounded=1;orthogonalLoop=1;jettySize=auto;html=1;entryX=1;entryY=0.5;entryDx=0;entryDy=0;entryPerimeter=0;" parent="1" target="dqdw0evUzVBGal0t0bfK-26" edge="1">
          <mxGeometry relative="1" as="geometry">
            <mxPoint x="220.66000000000008" y="562.0296551724139" as="sourcePoint" />
          </mxGeometry>
        </mxCell>
        <mxCell id="dqdw0evUzVBGal0t0bfK-45" style="edgeStyle=orthogonalEdgeStyle;rounded=1;orthogonalLoop=1;jettySize=auto;html=1;entryX=0.5;entryY=1;entryDx=0;entryDy=0;" parent="1" source="dqdw0evUzVBGal0t0bfK-28" target="dqdw0evUzVBGal0t0bfK-42" edge="1">
          <mxGeometry relative="1" as="geometry">
            <mxPoint x="390" y="500" as="targetPoint" />
          </mxGeometry>
        </mxCell>
        <mxCell id="dqdw0evUzVBGal0t0bfK-28" value="" style="shape=cube;whiteSpace=wrap;html=1;boundedLbl=1;backgroundOutline=1;darkOpacity=0.05;darkOpacity2=0.1;direction=east;flipH=1;fillColor=#B3B3B3;" parent="1" vertex="1">
          <mxGeometry x="290" y="517.35" width="30" height="89.33" as="geometry" />
        </mxCell>
        <mxCell id="dqdw0evUzVBGal0t0bfK-50" style="edgeStyle=orthogonalEdgeStyle;rounded=1;orthogonalLoop=1;jettySize=auto;html=1;" parent="1" source="dqdw0evUzVBGal0t0bfK-42" target="dqdw0evUzVBGal0t0bfK-46" edge="1">
          <mxGeometry relative="1" as="geometry" />
        </mxCell>
        <mxCell id="dqdw0evUzVBGal0t0bfK-42" value="&lt;b&gt;C&lt;/b&gt;" style="ellipse;whiteSpace=wrap;html=1;aspect=fixed;strokeColor=#000000;fillColor=#FFFFFF;" parent="1" vertex="1">
          <mxGeometry x="380" y="483" width="14" height="14" as="geometry" />
        </mxCell>
        <mxCell id="dqdw0evUzVBGal0t0bfK-46" value="" style="shape=cube;whiteSpace=wrap;html=1;boundedLbl=1;backgroundOutline=1;darkOpacity=0.05;darkOpacity2=0.1;direction=east;flipH=1;fillColor=#B3B3B3;" parent="1" vertex="1">
          <mxGeometry x="430" y="445.33" width="40" height="89.33" as="geometry" />
        </mxCell>
      </root>
    </mxGraphModel>
  </diagram>
</mxfile>
